<?xml version="1.0" encoding="utf-8"?>
<!-- Generator: Adobe Illustrator 23.0.5, SVG Export Plug-In . SVG Version: 6.00 Build 0)  -->
<svg version="1.1" id="Capa_1" xmlns="http://www.w3.org/2000/svg" xmlns:xlink="http://www.w3.org/1999/xlink" x="0px" y="0px"
	 viewBox="0 0 700 376" style="enable-background:new 0 0 700 376;" xml:space="preserve">
<style type="text/css">
	.st0{fill:#EF9A56;}
	.st1{fill:#213A70;}
	.st2{fill:#EDA785;}
	.st3{fill:#FFC955;}
	.st4{fill:#E7E7E7;}
	.st5{fill:#3A3F47;}
	.st6{fill:#A67860;}
	.st7{fill:#C89F43;}
	.st8{fill:#444C93;}
	.st9{fill:#303669;}
	.st10{fill:url(#SVGID_1_);}
	.st11{fill:#FF9E55;}
	.st12{fill:#EEF6FD;}
	.st13{fill:url(#SVGID_2_);}
	.st14{fill:#5283FB;}
	.st15{fill:url(#SVGID_3_);}
	.st16{fill:url(#SVGID_4_);}
	.st17{fill:url(#SVGID_5_);}
	.st18{fill:#7DC5FF;}
	.st19{fill:#695C54;}
	.st20{fill:#807066;}
	.st21{fill:#F9B769;}
	.st22{fill:#66658B;}
	.st23{fill:#E28942;}
	.st24{fill:#DDCCC4;}
	.st25{fill:#25354D;}
	.st26{fill:#2F4563;}
	.st27{fill:#F4E0D9;}
	.st28{fill:#323657;}
	.st29{fill:#E55555;}
	.st30{fill:#FFFFFF;}
	.st31{fill:#F3E9E0;}
	.st32{fill:#E5DBD3;}
	.st33{fill:#FFC555;}
</style>
<g>
	<g>
		<g>
			<g>
				<path class="st0" d="M261.72,175.68c-0.03,84.16-2.39,100.64-23.53,119.5c-8.28,7.38-23.5,22.73-67.42,30.36
					c-13.18,2.29-28.95,3.89-47.89,4.38c-7.73,0.2-14.82-0.08-21.31-0.79c-5.44-0.59-10.46-1.48-15.06-2.63
					c-48.27-12.1-51.87-53.45-30.76-88.24c5.59-9.21,11.98-17.68,18.68-25.58c10.34-12.2,21.42-23.03,31.46-33.14
					c9.25-9.32,17.62-18.02,23.7-26.62c2.57-3.62,4.72-7.22,6.37-10.84c0.39-0.86,0.79-1.71,1.18-2.54c1.3-2.74,2.64-5.36,3.99-7.88
					c2.53-4.72,5.12-9.04,7.61-12.9c1.99-3.09,3.91-5.88,5.71-8.36c6.17-8.52,10.74-13.3,10.74-13.3s0.57-0.27,1.63-0.71
					c0.56-0.23,1.26-0.52,2.09-0.83c0.33-0.13,0.68-0.26,1.05-0.4c0.37-0.13,0.75-0.28,1.16-0.42c0.37-0.13,0.76-0.26,1.15-0.4
					c0.47-0.16,0.95-0.32,1.46-0.49c0.3-0.1,0.6-0.19,0.91-0.29c0.18-0.06,0.37-0.12,0.56-0.17c0.07-0.02,0.14-0.04,0.21-0.07
					c6.27-1.92,14.86-3.92,24.22-4.26C227.36,88.06,261.75,101.74,261.72,175.68z"/>
			</g>
			<g>
				<path class="st1" d="M149.43,302.39c0,0,0.69,5.64,1.61,8.13c0.92,2.49,5.89,8.23,3.79,13.75c-2.28,5.98-12.23,0.22-16.29-1.61
					c-4.06-1.83-3.13-5.14-3.57-9.19c-0.43-4.06-2.41-4.17-1.68-7.02c0.73-2.85,5.17-8.31,5.17-8.31L149.43,302.39z"/>
			</g>
			<g>
				<g>
					<path class="st2" d="M140.37,295.18c0,0-2.55,3.57-2.48,3.66c0.07,0.1,10.91,6.7,11.67,4.56c0.6-1.7,0.85-4.17,0.85-4.17
						L140.37,295.18z"/>
				</g>
			</g>
			<g>
				<path class="st1" d="M103.62,306.38c0,0-3.31,2.9-6.28,7.35c-2.97,4.46-10.86,4.69-11.19,10.77
					c-0.34,6.08,10.72,6.27,16.53,4.29c5.81-1.98,6.68-7.92,10.19-9.41c3.51-1.49,5.33-2.69,5.06-5.59
					c-0.27-2.9-2.21-7.61-2.21-7.61s-2.18,0.7-3.46,0.84S106.65,307.23,103.62,306.38z"/>
			</g>
			<g>
				<path class="st3" d="M143.41,141.6c0,0-2.23,13.23-4.02,21.97c0,0,0,0,0,0c-0.73,3.54-1.38,6.35-1.79,7.23
					c-0.51,1.11-4.69,5.6-9.8,10.86c-8.97,9.23-20.82,20.86-20.82,20.86l-4.63-8.79c0,0,10.53-12.34,17.66-20.57
					c3.3-3.81,5.88-6.74,6.35-7.16c1.49-1.33,3.22-14.48,5.66-25.32c2.43-10.83,7.31-16.82,7.31-16.82L143.41,141.6z"/>
			</g>
			<g>
				<path class="st2" d="M127.8,181.66c-8.97,9.23-20.82,20.86-20.82,20.86l-4.63-8.79c0,0,10.53-12.34,17.66-20.57
					C122.2,174.23,126.21,176.79,127.8,181.66z"/>
			</g>
			<g>
				<path class="st2" d="M104.14,302.33l-0.52,4.05c0,0,5.76,2.03,12.1-0.18l0.13-3.6L104.14,302.33z"/>
			</g>
			<g>
				<path class="st3" d="M185.86,200.74c0.33,1.18-60.97,0-60.97,0s16.96-12.34,18.06-15.64c1.1-3.3-4.32-23.08-5.02-29.52
					c-0.57-5.15-1.98-28.2,1.41-31.72c3.55-3.68,16.33-7.54,16.33-7.54l18.63,0.69c0,0,3.08,0.64,5.27,1.66
					c2.2,1.02,14.77,5.5,16.81,11.78c2.04,6.28-12.54,26.48-12.54,26.48s-0.03,0.91-0.07,2.39c0,0,0,0,0,0
					c-0.06,1.98-0.14,5-0.22,8.27c-0.1,4.23-0.18,8.9-0.18,12.3C183.36,187.9,185.53,199.56,185.86,200.74z"/>
			</g>
			<g>
				<path class="st4" d="M185.86,200.74c0,0,8.34,12.25,8.46,20.61c0.12,8.36-14.8,36.37-17.05,40.37
					c-6.79,12.04-25.39,38.02-25.39,38.02s-3.21-0.08-13.22-3.97c0,0,12.38-34.31,13.95-37.88c6.66-15.11,10.37-25.83,8.13-28.42
					c-2.24-2.59-8.34-5.19-10.1-6.72c-1.77-1.53-32.54,5.81-35.76,6.65c-8.35,2.16-4.54,16.69-2.7,23.21
					c3.09,10.9,5.79,50.25,5.79,50.25s-5.95,2.53-15.91,0.39c0,0-19.56-71.05-20.19-78.12c-0.63-7.07-0.94-18.72,47.27-27.57
					L185.86,200.74z"/>
			</g>
			<g>
				<path class="st2" d="M160.77,75.83c0,0-16.17-3.65-12.48,16.71c3.69,20.36,7.58,21.96,17.34,17.74
					c9.76-4.21,8.88-17.25,9.38-23.65C175.5,80.24,165.93,76.06,160.77,75.83z"/>
			</g>
			<g>
				<path class="st2" d="M156.49,121.54c0,0,7.16,7.59,18.48,0.69c0,0-2.53-16.46-1.2-24.47c1.33-8.02-14.77,12.42-14.77,12.42
					c0.21,0.11,0.35,0.88,0.38,1.96c0.03,0.92-0.02,2.08-0.17,3.26C158.89,118.07,158.06,120.89,156.49,121.54z"/>
			</g>
			<g>
				<path class="st5" d="M174.22,97.08c0,0-0.42-6.41-2.76-6.61c-2.34-0.2-2.7,2.38-2.7,2.38l-2.37,0.45c0,0,0.75-5.62-1.59-6.6
					c-2.34-0.98-15.16,3.09-17.03,1.44c-1.88-1.65-0.99-13.05,2.4-14.61c3.4-1.56,12.77-5.06,19.64-0.41c0,0,5.36-0.61,6.15,3.71
					C176.76,81.15,175.68,93.87,174.22,97.08z"/>
			</g>
			<g>
				<path class="st6" d="M159.22,115.41c11.68-3.6,12.56-10.63,12.57-10.74c-3.85,6.61-12.4,7.48-12.4,7.48
					C159.42,113.07,159.37,114.22,159.22,115.41z"/>
			</g>
			<g>
				<path class="st2" d="M179.76,118.76c0,0-8.55,17.03-22.37,15.93c-13.82-1.1-2.36-18.21-1.73-18.37
					C156.35,116.14,169.83,112.79,179.76,118.76z"/>
			</g>
			<g>
				<path class="st3" d="M117.87,199.87c0,0,42.34,5.22,67.99,0.86l-49.01-6.12C136.85,194.61,136.56,195.86,117.87,199.87z"/>
			</g>
			<g>
				<path class="st2" d="M149.54,192.68l-3.15,1.6c0,0,0.72,5.01,2.45,6.53l3.54-0.9C152.37,199.91,151.63,194.41,149.54,192.68z"/>
			</g>
			<g>
				<path class="st3" d="M198.53,182.43c-0.63,0.73-8.95,4.08-18.36,7.7l0,0c-12.85,4.95-27.34,9.63-27.34,9.63l-3.3-7.07
					c0,0,15.17-8.25,25.43-14.03c4.84-2.73,8.59-4.91,9.12-5.42c1.65-1.57,2.08-4.09,0.86-8.48c-1.21-4.39-4-24.57-4.32-26.93
					c-0.31-2.36,0.78-8.64,6.67-8.95c5.89-0.31,8.88,1.35,8.88,1.35s1.48,0.61,2.58,14.9C199.86,159.42,200.02,180.7,198.53,182.43z
					"/>
			</g>
			<g>
				<path class="st7" d="M183.76,159.32C183.76,159.32,183.76,159.32,183.76,159.32c-0.06,1.98-0.14,5-0.22,8.27
					c-5.75-14.09-2.43-25.33-2.37-25.52C180.55,145.9,183.72,159.14,183.76,159.32z"/>
			</g>
			<g>
				<path class="st7" d="M139.39,163.57C139.39,163.57,139.39,163.57,139.39,163.57c-0.73,3.54-1.38,6.35-1.79,7.23
					c-1.96-9.5-0.2-21.66-0.2-21.66C137.67,154.95,139.39,163.57,139.39,163.57z"/>
			</g>
			<g>
				<path class="st2" d="M180.17,190.13L180.17,190.13c-12.85,4.95-27.8,9.78-27.8,9.78l-2.83-7.22c0,0,15.17-8.25,25.43-14.03
					C174.96,178.66,178.69,180.47,180.17,190.13z"/>
			</g>
			<g>
				<polygon class="st8" points="148.62,200.33 88.45,199.44 118.83,214.87 				"/>
			</g>
			<g>
				<polygon class="st9" points="118.83,214.87 148.62,203.33 148.62,200.33 116.47,211.92 				"/>
			</g>
			<g>
				<g>
					<path class="st2" d="M147.06,194.39c0,0-3.76-0.59-6.36-1.19c-2.01-0.47-7.01,0.18-8.28,1.47c-1.27,1.29-5.32,10.28-6.09,10.83
						c-0.77,0.55,0.39,1.82,1.74,1.18c0,0,1.23,3.93,4.28,2.46c3.05-1.47,5.12-4.69,6.71-5.25c1.6-0.57,10.89-3.42,10.89-3.42
						S149.46,193.43,147.06,194.39z"/>
				</g>
			</g>
			<g>
				<g>
					<path class="st2" d="M133.34,194.08c0,0-2.41,1.17-3.04,1.69c-0.63,0.52-3.19,2.43-3.8,2.88c-0.62,0.45,0.93,1.73,5.5-0.25
						C136.56,196.42,133.34,194.08,133.34,194.08z"/>
				</g>
			</g>
			<g>
				<polygon class="st9" points="118.83,214.87 100.93,166 43.23,166.94 60.28,211.97 				"/>
			</g>
			<g>
				<path class="st2" d="M168.81,90.13c0.21-1.8,3.76-2.45,4.05,0.24c0.29,2.69-1.61,7.42-2.96,6.95
					C168.55,96.86,168.52,92.61,168.81,90.13z"/>
			</g>
		</g>
		<g>
			<linearGradient id="SVGID_1_" gradientUnits="userSpaceOnUse" x1="268.3779" y1="319.4755" x2="268.3779" y2="286.3556">
				<stop  offset="0" style="stop-color:#FF9E55"/>
				<stop  offset="1" style="stop-color:#FFD155"/>
			</linearGradient>
			<path class="st10" d="M331.04,322.21h-116.8c-4.71,0-8.52-3.82-8.52-8.52v-13.84c0-4.71,3.82-8.52,8.52-8.52h116.8V322.21z"/>
			<path class="st11" d="M351.1,294.51v24.52h2.05v3.18h-84.66c-4.71,0-8.52-3.82-8.52-8.52v-13.84c0-4.71,3.82-8.52,8.52-8.52
				h84.66v3.18H351.1z"/>
			<path class="st12" d="M351.1,319.04h-76.36c-4.71,0-8.52-3.82-8.52-8.52v-7.48c0-4.71,3.82-8.52,8.52-8.52h76.36V319.04z"/>
			<linearGradient id="SVGID_2_" gradientUnits="userSpaceOnUse" x1="267.209" y1="244.7986" x2="267.209" y2="290.6467">
				<stop  offset="0" style="stop-color:#40D4E5"/>
				<stop  offset="1" style="stop-color:#5577FF"/>
			</linearGradient>
			<path class="st13" d="M336.5,291.33H208.63c-5.91,0-10.71-4.79-10.71-10.71v-14.5c0-5.91,4.79-10.71,10.71-10.71H336.5V291.33z"
				/>
			<path class="st14" d="M359.18,259.12v28.52h1.76v3.7H291.4c-5.91,0-10.71-4.79-10.71-10.71v-14.5c0-5.91,4.79-10.71,10.71-10.71
				h69.55v3.7H359.18z"/>
			<path class="st12" d="M359.18,287.64h-62.4c-5.91,0-10.71-4.79-10.71-10.71v-7.1c0-5.91,4.79-10.71,10.71-10.71h62.4V287.64z"/>
			<linearGradient id="SVGID_3_" gradientUnits="userSpaceOnUse" x1="298.7618" y1="246.9983" x2="298.7618" y2="212.7208">
				<stop  offset="0" style="stop-color:#FF9E55"/>
				<stop  offset="1" style="stop-color:#FFD155"/>
			</linearGradient>
			<path class="st15" d="M244.37,255.41h97.19c6.4,0,11.59-5.19,11.59-11.59v-20.85c0-6.4-5.19-11.59-11.59-11.59h-97.19V255.41z"/>
			<path class="st11" d="M226.96,215.92v34.97h-1.78v4.53h69.29c6.4,0,11.59-5.19,11.59-11.59v-20.85c0-6.4-5.19-11.59-11.59-11.59
				h-69.29v4.53H226.96z"/>
			<path class="st12" d="M226.97,250.88h61.27c6.36,0,11.52-5.16,11.52-11.52v-11.93c0-6.36-5.16-11.52-11.52-11.52h-61.27V250.88z"
				/>
			<linearGradient id="SVGID_4_" gradientUnits="userSpaceOnUse" x1="259.5324" y1="154.8388" x2="259.5324" y2="193.3469">
				<stop  offset="0" style="stop-color:#40D4E5"/>
				<stop  offset="1" style="stop-color:#5577FF"/>
			</linearGradient>
			<path class="st16" d="M317.15,211.37H214.1c-6.73,0-12.18-5.45-12.18-12.18v-19.66c0-6.73,5.45-12.18,12.18-12.18h103.05V211.37z
				"/>
			<path class="st14" d="M335.59,171.88v34.97h1.88v4.53h-73.5c-6.73,0-12.18-5.45-12.18-12.18v-19.66
				c0-6.73,5.45-12.18,12.18-12.18h73.5v4.53H335.59z"/>
			<path class="st12" d="M335.59,206.84h-65.27c-6.7,0-12.13-5.43-12.13-12.13v-10.7c0-6.7,5.43-12.13,12.13-12.13h65.27V206.84z"/>
			<linearGradient id="SVGID_5_" gradientUnits="userSpaceOnUse" x1="288.5976" y1="135.8513" x2="288.5976" y2="166.6516">
				<stop  offset="0" style="stop-color:#40D4E5"/>
				<stop  offset="1" style="stop-color:#5577FF"/>
			</linearGradient>
			<path class="st17" d="M346.22,167.33H238.54c-4.18,0-7.56-3.39-7.56-7.56v-18.2c0-4.18,3.39-7.56,7.56-7.56h107.67V167.33z"/>
			<path class="st14" d="M364.66,137.44v26.46h1.88v3.43h-78.12c-4.18,0-7.56-3.39-7.56-7.56v-18.2c0-4.18,3.39-7.56,7.56-7.56
				h78.12v3.43H364.66z"/>
			<path class="st12" d="M364.66,163.9h-70.49c-4.18,0-7.56-3.39-7.56-7.56V145c0-4.18,3.39-7.56,7.56-7.56h70.49V163.9z"/>
		</g>
		<g>
			<path class="st18" d="M564.94,345.75c0,5-49.54,9.06-110.64,9.06c-61.11,0-110.64-4.06-110.64-9.06c0-5,49.54-9.06,110.64-9.06
				C515.4,336.69,564.94,340.74,564.94,345.75z"/>
			<g>
				<polygon class="st19" points="638.54,227.34 612.7,336.58 607.2,336.58 635.88,213.77 				"/>
				<polygon class="st20" points="622.07,110.49 649.21,336.58 655.01,336.58 627.19,108.54 				"/>
				<rect x="647.61" y="335.14" class="st19" width="8.84" height="4.2"/>
				<rect x="605.77" y="335.14" class="st19" width="8.84" height="4.2"/>
				
					<rect x="591.33" y="83.52" transform="matrix(0.9927 -0.1205 0.1205 0.9927 -7.7103 75.8515)" class="st21" width="63.49" height="36.27"/>
				
					<rect x="588.94" y="80.2" transform="matrix(0.9927 -0.1205 0.1205 0.9927 -5.35 75.4174)" class="st0" width="63.49" height="3.47"/>
			</g>
			<rect x="326.45" y="301.29" class="st22" width="259.36" height="6.37"/>
			<path class="st21" d="M456.13,166.47c-182.22,0-159.57,52.73-159.57,52.73l29.98,66.49h129.59h129.59l29.98-66.49
				C615.69,219.2,638.35,166.47,456.13,166.47z"/>
			<polygon class="st22" points="326.45,307.66 318.23,339.95 321.77,339.95 333.61,307.66 			"/>
			<polygon class="st22" points="585.81,307.66 594.02,339.95 590.49,339.95 578.64,307.66 			"/>
			<rect x="321.86" y="264.86" class="st23" width="268.53" height="15.28"/>
			<path class="st0" d="M634.8,209.31L634.8,209.31c-6.53-4.1-15.16-2.13-19.26,4.4l-39.26,62.52H336.24l-39.26-62.52
				c-4.1-6.53-12.72-8.5-19.26-4.4l0,0c-6.68,4.19-8.69,13-4.5,19.68l47.4,75.48v0h271.02v-0.16l0.26,0.16l47.4-75.49
				C643.49,222.31,641.47,213.5,634.8,209.31z"/>
			<g>
				<path class="st24" d="M446.32,265.12c0,0-2.07-3.14-2.41-4.98c-0.34-1.84-1.38-2.89-1.38-2.89s-7.85-1.14-10.86-3.94
					c-3.01-2.8-9.4-10.42-12.42-8.14s2.19,11.9,5.26,14.8c3.08,2.9,7.24,8,11.03,7.62C439.34,267.21,444.49,265.41,446.32,265.12z"
					/>
				<path class="st25" d="M446.32,264.64l-3.78-7.39c0,0,18.12-3.32,23.41-6.51c1.33-0.8,2.65-1.6,3.88-2.36
					c2.8-1.73,5.12-3.22,5.94-3.92c2.62-2.22,13.1-9.65,15.93-12.38c2.83-2.73,6.18-1.07,10.59-1.02
					c4.42,0.05,20.41,4.48,25.19,5.11c4.79,0.63,22.06,3.84,22.06,3.84C546.51,248.32,446.32,264.64,446.32,264.64z"/>
				<path class="st26" d="M550.56,239.74c0,0-9.75,1.4-12.26,1.6c-2.57,0.2-17.08,1.36-24.08,2.04c-7,0.67-20.75,0.27-23.48,1.47
					c-2.73,1.2-18.5,6.54-23.66,8.21c-5.16,1.67-38.69,7.81-38.69,7.81s-0.57,4.54,2.39,8.03c0,0,14.78-1.32,22.58-0.17
					c7.8,1.15,21.42-0.6,29.69-4.35c8.27-3.75,21.38-0.33,28.7,2.25c7.33,2.57,35.33,4.64,38.83,3.86
					c3.5-0.78,10.47-4.15,15.51-9.64C571.15,255.34,550.56,239.74,550.56,239.74z"/>
				<path class="st27" d="M430.78,268.89c0,0-1.25-3.55-1.13-5.42c0.12-1.87-0.45-2.76-0.45-2.76s-7.52-3.38-9.77-6.83
					c-2.25-3.44-6.6-12.39-10.08-10.9c-3.48,1.49-0.76,12.07,1.53,15.64c2.28,3.56,3.7,13.04,7.46,13.59
					S428.94,268.73,430.78,268.89z"/>
				<path class="st26" d="M572.48,233.5c0,0,12.32,27.96-6.81,34.74c-15.25,5.41-43.38,0.43-43.38,0.43l17.3-27.26L572.48,233.5z"/>
				<path class="st28" d="M540.76,127.99c4.69,1.04,1.89,12.82,5.04,29.29c3.14,16.47,13.07,19.04,13.07,19.04s-4.41-7.3-3.93-14.94
					c0.38-5.97,7.6-22.24,0.46-32.88c-5.52-8.22-15.24-0.76-15.24-0.76L540.76,127.99z"/>
				<path class="st2" d="M547.82,162.28l-9.12,9.39c-0.08-1.72-0.72-3.82-1.37-5.57c-0.32-0.86-0.64-1.63-0.9-2.23
					c-0.35-0.79-0.59-1.28-0.59-1.28l8.14-8.61L547.82,162.28z"/>
				<path class="st29" d="M536.96,170.74c0,0-0.35,4.52-2.81,8.68c-2.46,4.17-6.52,11.08-5.95,15.57c0.58,4.49,2.49,6.13,4.22,7.75
					c1.73,1.62,6.47,13.3,7.05,17.79c0.58,4.49,0.94,13.84-0.15,20.7c0,0,31.99,3.71,35.21-1.88c0,0-3.97-17.97-5.84-22.48
					c-1.87-4.5-5.79-31.45-7.47-36.03c-1.68-4.58-5.65-9.01-8.07-12.19c-2.17-2.84-6.11-8.12-6.11-8.12L536.96,170.74z"/>
				<path class="st2" d="M532.96,128.95c-4.22,0.28-13.29,3.47-13.44,14.76c0,0,0.68,2.96,1.68,5.23c1,2.27-0.31,9.47,0.28,9.74
					c0.59,0.28,2.92,0.45,2.92,0.45s3.33,7.31,5.98,6.94c2.66-0.37,12.51-3.62,16.17-13.61
					C550.22,142.47,550.01,127.81,532.96,128.95z"/>
				<path class="st28" d="M519.52,143.71c0,0,7.35,3.86,14.22,4.02c6.87,0.16,12.51,11.17,12.51,11.17s8.32-18.67-1.21-28.14
					C535.54,121.32,516.55,130.92,519.52,143.71z"/>
				<path class="st2" d="M535.35,147.66c-0.11-1.31,1.12-3.45,3.47-1.91c2.35,1.54,0.19,8.1-1.64,7.69
					C535.35,153.04,535.47,149.02,535.35,147.66z"/>
				<path class="st6" d="M542.95,158.65c-0.13,0.21-3.47,5.69-5.62,7.45c-0.32-0.86-0.64-1.63-0.9-2.23
					C536.43,163.87,541.21,161.02,542.95,158.65z"/>
				
					<rect x="474.06" y="242.24" transform="matrix(-0.9826 0.1855 -0.1855 -0.9826 1030.2928 392.0431)" class="st30" width="45.49" height="3.96"/>
				
					<rect x="440.83" y="228.53" transform="matrix(-0.5655 -0.8247 0.8247 -0.5655 535.6171 743.1979)" class="st30" width="45.49" height="3.96"/>
				<path class="st2" d="M483.37,244.75c-0.22-0.99,0-2.65,3.13-4.33c3.13-1.68,9.89-5.49,12.26-5.58c2.38-0.09,7.06,0.28,8.02,0.28
					c0.96,0-1.51,5.65-1.51,5.65L483.37,244.75z"/>
				<path class="st2" d="M505.67,235.55c0,0,13.04-5.13,15.16-6.16c2.12-1.02,11.99-4.34,12.87-4.78c0.88-0.44,5-25.1,5.37-31.3
					c0.37-6.21,0.73-19.35,7.74-18.77c7.01,0.58,8.69,5.18,7.81,14.24c-0.88,9.06-6.06,41.48-8.25,42.57
					c-2.19,1.1-27.34,6.72-40.6,9.37C493.09,243.26,505.67,235.55,505.67,235.55z"/>
				<path class="st29" d="M538.36,195.24c0,0,10.1,1.89,15.93,2.47c0,0,7.25-20.65-2.62-23.94
					C539.97,169.86,537.36,185.86,538.36,195.24z"/>
			</g>
			<path class="st31" d="M388.42,266.58c-0.68,0.24-1.4,0.43-2.14,0.55l-31.01,4.98c-6.52,1.04-12.65-3.39-13.7-9.91l-6.07-37.84
				c-1.05-6.52,3.38-12.65,9.9-13.7l4.4-0.71l26.61-4.26c6.52-1.05,12.65,3.39,13.69,9.91l6.08,37.84
				C397.1,259.22,393.73,264.68,388.42,266.58z"/>
			<path class="st32" d="M388.42,266.58c-0.68,0.24-1.4,0.43-2.14,0.55l-31.01,4.98c-6.52,1.04-12.65-3.39-13.7-9.91l-6.07-37.84
				c-1.05-6.52,3.38-12.65,9.9-13.7l4.4-0.71c0,0.01,0.01,0.01,0.01,0.01S351.32,261.37,388.42,266.58z"/>
		</g>
		<g>
			<g>
				<g>
					<polygon class="st33" points="441.53,78.03 506.53,78.33 506.32,125.44 506.27,135.37 496.39,125.4 441.32,125.15 					"/>
				</g>
			</g>
			<path class="st30" d="M468.96,103.61c-0.01,2.74,2.21,4.97,4.95,4.98c2.74,0.01,4.97-2.21,4.98-4.95
				c0.01-2.74-2.21-4.97-4.95-4.98C471.19,98.65,468.96,100.87,468.96,103.61z"/>
			<path class="st30" d="M452.65,103.56c-0.01,2.74,2.21,4.97,4.95,4.98c2.74,0.01,4.97-2.21,4.98-4.95
				c0.01-2.74-2.21-4.97-4.95-4.98C454.89,98.6,452.66,100.81,452.65,103.56z"/>
			<path class="st30" d="M484.88,103.66c-0.01,2.74,2.21,4.97,4.95,4.98c2.74,0.01,4.97-2.21,4.98-4.95
				c0.01-2.74-2.21-4.97-4.95-4.98C487.12,98.7,484.89,100.92,484.88,103.66z"/>
		</g>
		<g>
			<g>
				<g>
					<polygon class="st18" points="71.23,21.19 136.22,21.49 136.01,68.6 135.96,78.53 126.08,68.56 71.01,68.31 					"/>
				</g>
			</g>
			<path class="st30" d="M98.65,46.77c-0.01,2.74,2.21,4.97,4.95,4.98c2.74,0.01,4.97-2.21,4.98-4.95c0.01-2.74-2.21-4.97-4.95-4.98
				C100.89,41.81,98.66,44.03,98.65,46.77z"/>
			<path class="st30" d="M82.34,46.72c-0.01,2.74,2.21,4.97,4.95,4.98c2.74,0.01,4.97-2.21,4.98-4.95c0.01-2.74-2.21-4.97-4.95-4.98
				C84.58,41.76,82.35,43.97,82.34,46.72z"/>
			<path class="st30" d="M114.58,46.82c-0.01,2.74,2.21,4.97,4.95,4.98c2.74,0.01,4.97-2.21,4.98-4.95
				c0.01-2.74-2.21-4.97-4.95-4.98C116.81,41.86,114.59,44.08,114.58,46.82z"/>
		</g>
	</g>
</g>
</svg>
