<svg id="Capa_1" data-name="Capa 1" xmlns="http://www.w3.org/2000/svg" viewBox="0 0 100 100"><defs><style>.cls-1{fill:#fff;stroke:#f6931e;stroke-miterlimit:10;stroke-width:0.85px;}.cls-2{fill:#f3901e;}</style></defs><title>Sin título-2</title><circle class="cls-1" cx="50" cy="50" r="49"/><polygon class="cls-2" points="77.09 70.59 22.91 70.59 22.91 25.08 67.34 25.08 67.34 27.25 25.08 27.25 25.08 68.42 74.92 68.42 74.92 30.5 77.09 30.5 77.09 70.59"/><path class="cls-2" d="M50,83.59a6.51,6.51,0,0,1-6.41-5.42H16.41V34.83h6.5V37H18.58V76H45.67v1.08a4.33,4.33,0,0,0,8.66,0V76H81.42V37H77.09V34.83h6.5V78.17H56.41A6.51,6.51,0,0,1,50,83.59Z"/><rect class="cls-2" x="48.92" y="26.16" width="2.17" height="17.34"/><rect class="cls-2" x="48.92" y="55.42" width="2.17" height="14.09"/><path class="cls-2" d="M42,58l2.68-10.71.21-.21,29-29a5.69,5.69,0,0,1,8,8L52.72,55.31Zm4.63-9.6L45,55l6.62-1.65L80.4,24.57a3.51,3.51,0,0,0-5-5Z"/><rect class="cls-2" x="74.38" y="20.71" width="2.17" height="7.66" transform="translate(4.75 60.55) rotate(-45)"/><rect class="cls-2" x="71.13" y="23.96" width="2.17" height="7.66" transform="translate(1.5 59.2) rotate(-45)"/><rect class="cls-2" x="47.83" y="46.49" width="2.17" height="9.19" transform="translate(-21.79 49.55) rotate(-45)"/><rect class="cls-2" x="69.65" y="28.08" width="2.36" height="2.17" transform="translate(0.12 58.63) rotate(-45)"/><rect class="cls-2" x="44.87" y="40.23" width="27.62" height="2.17" transform="translate(-12.03 53.6) rotate(-45)"/><rect class="cls-2" x="27.24" y="30.5" width="19.5" height="2.17"/><rect class="cls-2" x="27.24" y="43.5" width="15.17" height="2.17"/><rect class="cls-2" x="27.24" y="47.83" width="13" height="2.17"/><rect class="cls-2" x="27.24" y="52.17" width="13" height="2.17"/><rect class="cls-2" x="27.24" y="56.5" width="13" height="2.17"/><rect class="cls-2" x="61.92" y="43.5" width="10.84" height="2.17"/><rect class="cls-2" x="61.92" y="47.83" width="10.84" height="2.17"/><rect class="cls-2" x="61.92" y="52.17" width="10.84" height="2.17"/><rect class="cls-2" x="53.25" y="56.5" width="19.5" height="2.17"/><rect class="cls-2" x="70.59" y="60.84" width="2.17" height="2.17"/><rect class="cls-2" x="53.25" y="60.84" width="15.17" height="2.17"/><rect class="cls-2" x="27.24" y="60.84" width="19.5" height="2.17"/><rect class="cls-2" x="38.08" y="34.83" width="8.67" height="2.17"/><rect class="cls-2" x="38.08" y="34.83" width="8.67" height="2.17"/><rect class="cls-2" x="27.24" y="34.83" width="8.67" height="2.17"/><rect class="cls-2" x="38.08" y="39.16" width="8.67" height="2.17"/><rect class="cls-2" x="38.08" y="39.16" width="8.67" height="2.17"/><rect class="cls-2" x="27.24" y="39.16" width="8.67" height="2.17"/></svg>