<svg id="Capa_1" data-name="Capa 1" xmlns="http://www.w3.org/2000/svg" viewBox="0 0 100 100"><defs><style>.cls-1{fill:#fff;stroke:#f6931e;stroke-miterlimit:10;stroke-width:0.85px;}.cls-2{fill:#f3901e;}</style></defs><title>Sin título-2</title><circle class="cls-1" cx="50" cy="50" r="49"/><path class="cls-2" d="M50,35.91a9.75,9.75,0,1,1,9.75-9.75A9.76,9.76,0,0,1,50,35.91Zm0-17.33a7.59,7.59,0,1,0,7.59,7.58A7.6,7.6,0,0,0,50,18.58Z"/><path class="cls-2" d="M46.75,32.52V19.8l9.54,6.36Zm2.17-8.67v4.62l3.46-2.31Z"/><polygon class="cls-2" points="41.33 29.41 19.66 29.41 19.66 22.91 41.33 22.91 41.33 25.08 21.83 25.08 21.83 27.25 41.33 27.25 41.33 29.41"/><polygon class="cls-2" points="80.34 29.41 72.75 29.41 72.75 27.25 78.17 27.25 78.17 25.08 58.67 25.08 58.67 22.91 80.34 22.91 80.34 29.41"/><rect class="cls-2" x="58.67" y="27.24" width="11.92" height="2.17"/><polygon class="cls-2" points="77.09 68.42 22.91 68.42 22.91 28.33 25.08 28.33 25.08 66.25 74.92 66.25 74.92 28.33 77.09 28.33 77.09 68.42"/><path class="cls-2" d="M54,83.59h-7.9a2.55,2.55,0,0,1-1.59-4.54L50,74.62l5.55,4.43A2.55,2.55,0,0,1,54,83.59Zm-4-6.2-4.19,3.36a.37.37,0,0,0-.14.29.38.38,0,0,0,.38.38H54a.38.38,0,0,0,.38-.38.37.37,0,0,0-.14-.29Z"/><rect class="cls-2" x="48.92" y="67.34" width="2.17" height="8.67"/><path class="cls-2" d="M53.6,64.09H26.89l1.81-6.34A5.44,5.44,0,0,1,33,53.9l2.89-.48v-.77a6.41,6.41,0,0,1-2.16-4.82V44.58a6.5,6.5,0,0,1,13,0v3.25a6.39,6.39,0,0,1-2.17,4.82v.77l2.9.48a5.42,5.42,0,0,1,4.31,3.85ZM29.77,61.92h21l-1-3.57A3.25,3.25,0,0,0,47.12,56l-4.71-.79V51.6l.44-.32a4.31,4.31,0,0,0,1.73-3.45V44.58a4.34,4.34,0,0,0-8.67,0v3.25a4.32,4.32,0,0,0,1.74,3.45l.43.32v3.65l-4.7.79a3.25,3.25,0,0,0-2.59,2.31Z"/><path class="cls-2" d="M72.76,42.41H61.92v-6.5H72.76Zm-8.67-2.16h6.5V38.08h-6.5Z"/><path class="cls-2" d="M72.76,52.17H61.92v-6.5H72.76ZM64.09,50h6.5V47.83h-6.5Z"/><path class="cls-2" d="M72.76,61.92H61.92v-6.5H72.76Zm-8.67-2.17h6.5V57.59h-6.5Z"/><rect class="cls-2" x="56.5" y="38.08" width="3.25" height="2.17"/><rect class="cls-2" x="56.5" y="47.83" width="3.25" height="2.17"/><rect class="cls-2" x="56.5" y="57.59" width="3.25" height="2.17"/><rect class="cls-2" x="55.42" y="35.91" width="2.17" height="26.01"/></svg>