<svg id="Capa_1" data-name="Capa 1" xmlns="http://www.w3.org/2000/svg" viewBox="0 0 100 100"><defs><style>.cls-1{fill:#fff;stroke:#f6931e;stroke-miterlimit:10;stroke-width:0.85px;}.cls-2{fill:#f3901e;}</style></defs><title>Sin título-2</title><circle class="cls-1" cx="50" cy="50" r="49"/><path class="cls-2" d="M66.07,35.91H63.9V24a1.09,1.09,0,0,0-1.08-1.08H46.56V20.74H62.82A3.26,3.26,0,0,1,66.07,24Z"/><path class="cls-2" d="M50.9,59.75H19.47a3.26,3.26,0,0,1-3.25-3.25V24a3.26,3.26,0,0,1,3.25-3.25H35.73v2.17H19.47A1.09,1.09,0,0,0,18.39,24V56.5a1.09,1.09,0,0,0,1.08,1.09H50.9Z"/><rect class="cls-2" x="30.31" y="64.09" width="21.67" height="2.17"/><rect class="cls-2" x="47.65" y="58.67" width="2.17" height="6.5"/><rect class="cls-2" x="32.48" y="58.67" width="2.17" height="6.5"/><rect class="cls-2" x="17.31" y="51.08" width="27.09" height="2.17"/><rect class="cls-2" x="46.56" y="51.08" width="3.25" height="2.17"/><path class="cls-2" d="M52,42.41H27.79l1.81-6.33a5.42,5.42,0,0,1,4.32-3.85l2.89-.49V31a6.42,6.42,0,0,1-2.17-4.82V22.91a6.51,6.51,0,0,1,13,0v3.25A6.42,6.42,0,0,1,45.48,31v.76l2.89.49a5.42,5.42,0,0,1,4.32,3.85L53.8,40,52,40.47ZM30.66,40.25h21l-1-3.57A3.28,3.28,0,0,0,48,34.36l-4.71-.78V29.93l.43-.32a4.29,4.29,0,0,0,1.74-3.45V22.91a4.34,4.34,0,0,0-8.67,0v3.25a4.29,4.29,0,0,0,1.74,3.45l.43.32v3.65l-4.71.78a3.28,3.28,0,0,0-2.59,2.32Z"/><path class="cls-2" d="M62.82,69.5A10.85,10.85,0,0,1,52,58.67V51.08h1.08a9.32,9.32,0,0,0,6.64-2.74l2.15-2.16.86,1.15a9.42,9.42,0,0,0,7.51,3.75h3.43v7.59A10.84,10.84,0,0,1,62.82,69.5ZM54.15,53.2v5.47a8.67,8.67,0,0,0,17.34,0V53.25H70.22a11.61,11.61,0,0,1-8.57-3.8l-.42.42A11.49,11.49,0,0,1,54.15,53.2Z"/><path class="cls-2" d="M76.9,56.5H74.74V45.8a4.64,4.64,0,0,0-3.52-4.5l-.29-.07-1-1a11.18,11.18,0,0,0-19.08,7.9V56.5H48.73V48.17a13.34,13.34,0,0,1,22.78-9.43l.54.54A6.79,6.79,0,0,1,76.9,45.8Z"/><path class="cls-2" d="M72.57,60.84V58.67a2.17,2.17,0,0,0,0-4.34V52.17a4.34,4.34,0,0,1,0,8.67Z"/><path class="cls-2" d="M53.06,60.84a4.34,4.34,0,0,1,0-8.67v2.16a2.17,2.17,0,0,0,0,4.34Z"/><path class="cls-2" d="M83.78,83.59H41.86l2.52-8.41a7.56,7.56,0,0,1,5.91-5.29L57.4,68.6V67.34h2.17v3.07L50.68,72a5.39,5.39,0,0,0-4.22,3.78l-1.69,5.62H80.86L79.18,75.8A5.42,5.42,0,0,0,75,72l-8.89-1.61V67.34h2.16V68.6l7.11,1.29a7.55,7.55,0,0,1,5.91,5.29Z"/><polygon class="cls-2" points="62.82 74.11 57.83 70.37 59.13 68.64 62.82 71.4 66.5 68.64 67.8 70.37 62.82 74.11"/><polygon class="cls-2" points="67.63 79.1 62.05 73.52 63.58 71.99 66.68 75.08 68.29 70.25 70.34 70.93 67.63 79.1"/><polygon class="cls-2" points="58.01 79.1 55.29 70.93 57.34 70.25 58.96 75.08 62.05 71.99 63.58 73.52 58.01 79.1"/><rect class="cls-2" x="50.9" y="25.08" width="2.17" height="2.17"/><rect class="cls-2" x="55.23" y="25.08" width="2.17" height="2.17"/><rect class="cls-2" x="59.57" y="25.08" width="2.17" height="2.17"/><rect class="cls-2" x="20.56" y="46.75" width="2.17" height="2.17"/><rect class="cls-2" x="24.89" y="46.75" width="2.17" height="2.17"/><rect class="cls-2" x="29.23" y="46.75" width="2.17" height="2.17"/></svg>