<svg id="Capa_1" data-name="Capa 1" xmlns="http://www.w3.org/2000/svg" viewBox="0 0 100 100"><defs><style>.cls-1{fill:#fff;stroke:#f6931e;stroke-miterlimit:10;stroke-width:0.85px;}.cls-2{fill:#f3901e;}</style></defs><title>Sin título-2</title><circle class="cls-1" cx="50" cy="50" r="49"/><path class="cls-2" d="M78.17,77.09H21.83a5.42,5.42,0,0,1-5.42-5.42V30.5a5.42,5.42,0,0,1,5.42-5.42H37v2.17H21.83a3.24,3.24,0,0,0-3.25,3.25V71.67a3.24,3.24,0,0,0,3.25,3.25H78.17a3.24,3.24,0,0,0,3.25-3.25V30.5a3.24,3.24,0,0,0-3.25-3.25H63V25.08H78.17a5.42,5.42,0,0,1,5.42,5.42V71.67A5.42,5.42,0,0,1,78.17,77.09Z"/><rect class="cls-2" x="63" y="76.01" width="2.17" height="6.5"/><rect class="cls-2" x="34.83" y="76.01" width="2.17" height="6.5"/><rect class="cls-2" x="30.5" y="81.42" width="39.01" height="2.17"/><rect class="cls-2" x="17.49" y="66.25" width="65.01" height="2.17"/><rect class="cls-2" x="45.67" y="70.59" width="8.67" height="2.17"/><path class="cls-2" d="M57.59,55.42H42.41a3.26,3.26,0,0,1-3.25-3.25v-10a15.17,15.17,0,1,1,21.68,0v10A3.26,3.26,0,0,1,57.59,55.42ZM50,18.58a12.56,12.56,0,0,0-1.5.08A13,13,0,0,0,41,41l.33.32v10.9a1.08,1.08,0,0,0,1.08,1.08H57.59a1.08,1.08,0,0,0,1.08-1.08V41.27L59,41a13,13,0,0,0-9-22.37Z"/><rect class="cls-2" x="56.5" y="44.58" width="6.5" height="2.17"/><rect class="cls-2" x="37" y="44.58" width="17.34" height="2.17"/><rect class="cls-2" x="45.67" y="48.92" width="17.34" height="2.17"/><rect class="cls-2" x="37" y="48.92" width="6.5" height="2.17"/><path class="cls-2" d="M52.38,42.42H47.62l-1-2.68L44,40.92l-3.36-3.36L41.84,35l-2.68-1V29.2l2.68-1-1.18-2.6L44,22.24l2.6,1.18,1-2.68h4.76l1,2.68L56,22.24l3.36,3.36-1.18,2.6,2.68,1V34l-2.68,1,1.18,2.6L56,40.92l-2.6-1.18Zm-3.25-2.17h1.74l.91-2.4.46-.17.48-.2.46-.21,2.33,1.06,1.24-1.24-1.06-2.33.21-.46c.07-.15.13-.32.2-.48l.17-.46,2.4-.91V30.71l-2.4-.9-.17-.47c-.07-.16-.13-.33-.2-.49l-.21-.45,1.06-2.33-1.24-1.24-2.33,1.06-.46-.21-.48-.2-.46-.17-.91-2.4H49.13l-.91,2.4-.46.17-.48.2-.46.21-2.33-1.06-1.24,1.24,1.06,2.33-.21.45c-.07.16-.13.33-.2.49l-.17.47-2.4.9v1.74l2.4.91.17.46c.07.16.13.33.2.48l.21.46-1.06,2.33,1.24,1.24,2.33-1.06.46.21.48.2.46.17Z"/><path class="cls-2" d="M50,35.91a4.33,4.33,0,1,1,4.33-4.33A4.33,4.33,0,0,1,50,35.91Zm0-6.5a2.17,2.17,0,1,0,2.17,2.17A2.18,2.18,0,0,0,50,29.41Z"/><path class="cls-2" d="M79.26,67.34H77.09V31.58h-13V29.41h13a2.18,2.18,0,0,1,2.17,2.17Z"/><path class="cls-2" d="M22.91,67.34H20.74V31.58a2.18,2.18,0,0,1,2.17-2.17h13v2.17h-13Z"/><polygon class="cls-2" points="74.92 64.09 25.08 64.09 25.08 33.75 35.91 33.75 35.91 35.91 27.25 35.91 27.25 61.92 72.75 61.92 72.75 35.91 64.09 35.91 64.09 33.75 74.92 33.75 74.92 64.09"/><rect class="cls-2" x="48.92" y="54.34" width="2.17" height="8.67"/><rect class="cls-2" x="59.75" y="57.59" width="2.17" height="2.17"/><rect class="cls-2" x="64.09" y="57.59" width="2.17" height="2.17"/><rect class="cls-2" x="68.42" y="57.59" width="2.17" height="2.17"/><rect class="cls-2" x="29.41" y="57.59" width="2.17" height="2.17"/><rect class="cls-2" x="33.75" y="57.59" width="2.17" height="2.17"/><rect class="cls-2" x="38.08" y="57.59" width="2.17" height="2.17"/></svg>