<?xml version="1.0" encoding="utf-8"?>
<!-- Generator: Adobe Illustrator 23.0.5, SVG Export Plug-In . SVG Version: 6.00 Build 0)  -->
<svg version="1.1" id="Capa_1" xmlns="http://www.w3.org/2000/svg" xmlns:xlink="http://www.w3.org/1999/xlink" x="0px" y="0px"
	 viewBox="0 0 100 100" style="enable-background:new 0 0 100 100;" xml:space="preserve">
<style type="text/css">
	.st0{fill:#FFFFFF;}
	.st1{fill:#F6931E;}
	.st2{fill:#002C38;}
</style>
<g>
	<circle class="st0" cx="50" cy="50" r="49.5"/>
	<path class="st1" d="M50,1c27.02,0,49,21.98,49,49S77.02,99,50,99S1,77.02,1,50S22.98,1,50,1 M50,0C22.39,0,0,22.39,0,50
		s22.39,50,50,50s50-22.39,50-50S77.61,0,50,0L50,0z"/>
</g>
<g>
	<path class="st2" d="M29.94,15.06h-2.46v-0.64h5.66v0.64h-2.46v6.36h-0.74V15.06z"/>
	<path class="st2" d="M34.4,21.13c-0.41-0.23-0.73-0.55-0.96-0.96s-0.35-0.87-0.35-1.38s0.12-0.97,0.35-1.38
		c0.23-0.41,0.55-0.72,0.96-0.95s0.86-0.34,1.37-0.34c0.51,0,0.96,0.11,1.37,0.34c0.41,0.23,0.73,0.54,0.96,0.95
		c0.23,0.41,0.35,0.87,0.35,1.38s-0.12,0.97-0.35,1.38s-0.55,0.72-0.96,0.96c-0.41,0.23-0.86,0.34-1.37,0.34
		C35.26,21.47,34.8,21.35,34.4,21.13z M36.77,20.58c0.3-0.17,0.53-0.41,0.69-0.72s0.25-0.67,0.25-1.07c0-0.4-0.08-0.76-0.25-1.07
		s-0.4-0.55-0.69-0.72c-0.3-0.17-0.63-0.25-1-0.25c-0.37,0-0.71,0.08-1.01,0.25c-0.3,0.17-0.53,0.41-0.7,0.72s-0.25,0.67-0.25,1.07
		c0,0.4,0.08,0.76,0.25,1.07s0.4,0.55,0.7,0.72c0.3,0.17,0.63,0.25,1.01,0.25C36.14,20.84,36.47,20.75,36.77,20.58z"/>
	<path class="st2" d="M44.69,14v7.42H44v-1.04c-0.21,0.35-0.49,0.62-0.84,0.81c-0.35,0.19-0.75,0.28-1.19,0.28
		c-0.49,0-0.94-0.11-1.34-0.34c-0.4-0.23-0.71-0.54-0.94-0.95c-0.23-0.41-0.34-0.87-0.34-1.39c0-0.52,0.11-0.98,0.34-1.39
		c0.23-0.41,0.54-0.72,0.94-0.95c0.4-0.22,0.85-0.33,1.34-0.33c0.43,0,0.81,0.09,1.15,0.26s0.63,0.44,0.85,0.78V14H44.69z
		 M43.03,20.58c0.3-0.17,0.53-0.41,0.7-0.72s0.25-0.67,0.25-1.07c0-0.4-0.08-0.76-0.25-1.07s-0.4-0.55-0.7-0.72
		c-0.3-0.17-0.63-0.25-0.99-0.25c-0.37,0-0.71,0.08-1.01,0.25c-0.3,0.17-0.53,0.41-0.7,0.72s-0.25,0.67-0.25,1.07
		c0,0.4,0.08,0.76,0.25,1.07s0.4,0.55,0.7,0.72c0.3,0.17,0.63,0.25,1.01,0.25C42.4,20.84,42.73,20.75,43.03,20.58z"/>
	<path class="st2" d="M50.08,16.63c0.37,0.34,0.55,0.85,0.55,1.53v3.26h-0.68V20.6c-0.16,0.27-0.4,0.49-0.7,0.64
		c-0.31,0.15-0.68,0.23-1.1,0.23c-0.59,0-1.05-0.14-1.4-0.42s-0.52-0.65-0.52-1.11c0-0.45,0.16-0.81,0.49-1.08
		c0.32-0.27,0.84-0.41,1.54-0.41h1.67v-0.32c0-0.45-0.13-0.8-0.38-1.04c-0.25-0.24-0.62-0.35-1.11-0.35c-0.33,0-0.65,0.05-0.96,0.17
		c-0.31,0.11-0.57,0.26-0.79,0.46l-0.32-0.53c0.27-0.23,0.59-0.4,0.96-0.53c0.37-0.12,0.77-0.18,1.18-0.18
		C49.19,16.12,49.72,16.29,50.08,16.63z M49.28,20.63c0.29-0.18,0.5-0.45,0.64-0.79v-0.86h-1.65c-0.9,0-1.35,0.31-1.35,0.94
		c0,0.31,0.12,0.55,0.35,0.72c0.23,0.18,0.56,0.27,0.98,0.27C48.65,20.91,49,20.82,49.28,20.63z"/>
	<path class="st2" d="M52.75,21.29c-0.39-0.12-0.7-0.28-0.92-0.46l0.32-0.56c0.22,0.17,0.5,0.32,0.83,0.42
		c0.33,0.11,0.68,0.17,1.04,0.17c0.48,0,0.83-0.07,1.06-0.22s0.34-0.36,0.34-0.63c0-0.19-0.06-0.35-0.19-0.46
		c-0.13-0.11-0.29-0.19-0.48-0.25s-0.45-0.11-0.77-0.17c-0.43-0.08-0.77-0.16-1.03-0.25s-0.48-0.22-0.67-0.42
		c-0.18-0.2-0.27-0.48-0.27-0.83c0-0.44,0.18-0.8,0.55-1.08c0.37-0.28,0.88-0.42,1.53-0.42c0.34,0,0.68,0.04,1.02,0.13
		s0.62,0.21,0.84,0.36l-0.31,0.57c-0.43-0.3-0.95-0.45-1.55-0.45c-0.45,0-0.79,0.08-1.02,0.24c-0.23,0.16-0.35,0.37-0.35,0.63
		c0,0.2,0.07,0.36,0.2,0.48s0.29,0.21,0.48,0.26s0.46,0.12,0.8,0.17c0.42,0.08,0.76,0.16,1.01,0.24s0.47,0.22,0.65,0.41
		s0.27,0.46,0.27,0.8c0,0.46-0.19,0.83-0.57,1.09c-0.38,0.27-0.92,0.41-1.6,0.41C53.55,21.47,53.14,21.41,52.75,21.29z"/>
	<path class="st2" d="M60.08,14h0.71v7.42h-0.71V14z"/>
	<path class="st2" d="M66.19,16.63c0.37,0.34,0.55,0.85,0.55,1.53v3.26h-0.68V20.6c-0.16,0.27-0.39,0.49-0.71,0.64
		c-0.31,0.15-0.68,0.23-1.1,0.23c-0.59,0-1.05-0.14-1.4-0.42s-0.52-0.65-0.52-1.11c0-0.45,0.16-0.81,0.49-1.08
		c0.32-0.27,0.84-0.41,1.54-0.41h1.67v-0.32c0-0.45-0.13-0.8-0.38-1.04c-0.25-0.24-0.62-0.35-1.11-0.35c-0.33,0-0.65,0.05-0.96,0.17
		c-0.31,0.11-0.57,0.26-0.79,0.46l-0.32-0.53c0.27-0.23,0.59-0.4,0.96-0.53c0.37-0.12,0.77-0.18,1.18-0.18
		C65.29,16.12,65.82,16.29,66.19,16.63z M65.38,20.63c0.29-0.18,0.5-0.45,0.64-0.79v-0.86h-1.65c-0.9,0-1.35,0.31-1.35,0.94
		c0,0.31,0.12,0.55,0.35,0.72c0.23,0.18,0.56,0.27,0.98,0.27C64.75,20.91,65.1,20.82,65.38,20.63z"/>
	<path class="st2" d="M68.85,21.29c-0.39-0.12-0.7-0.28-0.92-0.46l0.32-0.56c0.22,0.17,0.5,0.32,0.83,0.42
		c0.33,0.11,0.68,0.17,1.04,0.17c0.48,0,0.83-0.07,1.06-0.22c0.23-0.15,0.35-0.36,0.35-0.63c0-0.19-0.06-0.35-0.19-0.46
		c-0.13-0.11-0.29-0.19-0.48-0.25s-0.45-0.11-0.77-0.17c-0.43-0.08-0.77-0.16-1.03-0.25s-0.48-0.22-0.66-0.42
		c-0.18-0.2-0.28-0.48-0.28-0.83c0-0.44,0.18-0.8,0.55-1.08s0.88-0.42,1.53-0.42c0.34,0,0.68,0.04,1.02,0.13s0.62,0.21,0.84,0.36
		l-0.31,0.57c-0.43-0.3-0.95-0.45-1.55-0.45c-0.45,0-0.79,0.08-1.03,0.24s-0.34,0.37-0.34,0.63c0,0.2,0.07,0.36,0.19,0.48
		c0.13,0.12,0.29,0.21,0.49,0.26s0.46,0.12,0.8,0.17c0.42,0.08,0.76,0.16,1.01,0.24c0.25,0.08,0.47,0.22,0.65,0.41
		s0.27,0.46,0.27,0.8c0,0.46-0.19,0.83-0.57,1.09c-0.38,0.27-0.92,0.41-1.6,0.41C69.65,21.47,69.24,21.41,68.85,21.29z"/>
	<path class="st2" d="M25.34,30.7c0.39,0.38,0.58,0.94,0.58,1.67v3.05h-0.71v-2.98c0-0.55-0.14-0.96-0.41-1.25
		c-0.27-0.29-0.66-0.43-1.17-0.43c-0.57,0-1.02,0.17-1.35,0.5c-0.33,0.34-0.49,0.8-0.49,1.4v2.76h-0.71v-5.26h0.68v0.97
		c0.19-0.32,0.46-0.57,0.81-0.75c0.34-0.18,0.74-0.26,1.19-0.26C24.42,30.12,24.95,30.31,25.34,30.7z"/>
	<path class="st2" d="M28.65,35.13c-0.41-0.23-0.73-0.55-0.96-0.96s-0.35-0.87-0.35-1.38s0.12-0.97,0.35-1.38
		c0.23-0.41,0.55-0.72,0.96-0.95s0.86-0.34,1.37-0.34c0.51,0,0.96,0.11,1.37,0.34c0.41,0.23,0.73,0.54,0.96,0.95
		c0.23,0.41,0.35,0.87,0.35,1.38s-0.12,0.97-0.35,1.38s-0.55,0.72-0.96,0.96c-0.41,0.23-0.86,0.34-1.37,0.34
		C29.51,35.47,29.06,35.35,28.65,35.13z M31.03,34.58c0.3-0.17,0.53-0.41,0.69-0.72s0.25-0.67,0.25-1.07c0-0.4-0.08-0.76-0.25-1.07
		s-0.4-0.55-0.69-0.72c-0.3-0.17-0.63-0.25-1-0.25c-0.37,0-0.71,0.08-1.01,0.25c-0.3,0.17-0.53,0.41-0.7,0.72s-0.25,0.67-0.25,1.07
		c0,0.4,0.08,0.76,0.25,1.07s0.4,0.55,0.7,0.72c0.3,0.17,0.63,0.25,1.01,0.25C30.39,34.84,30.73,34.75,31.03,34.58z"/>
	<path class="st2" d="M36.91,35.1c-0.13,0.12-0.3,0.21-0.49,0.28c-0.2,0.06-0.4,0.09-0.62,0.09c-0.49,0-0.87-0.13-1.14-0.4
		s-0.4-0.64-0.4-1.13v-3.18h-0.94v-0.6h0.94v-1.15h0.71v1.15h1.6v0.6h-1.6v3.14c0,0.31,0.08,0.55,0.24,0.71
		c0.16,0.16,0.38,0.25,0.67,0.25c0.15,0,0.29-0.02,0.42-0.07s0.26-0.11,0.35-0.2L36.91,35.1z"/>
	<path class="st2" d="M41.62,30.63c0.37,0.34,0.55,0.85,0.55,1.53v3.26h-0.68V34.6c-0.16,0.27-0.4,0.49-0.7,0.64
		c-0.31,0.15-0.68,0.23-1.1,0.23c-0.59,0-1.05-0.14-1.4-0.42s-0.52-0.65-0.52-1.11c0-0.45,0.16-0.81,0.49-1.08
		c0.32-0.27,0.84-0.41,1.54-0.41h1.67v-0.32c0-0.45-0.13-0.8-0.38-1.04c-0.25-0.24-0.62-0.35-1.11-0.35c-0.33,0-0.65,0.05-0.96,0.17
		c-0.31,0.11-0.57,0.26-0.79,0.46l-0.32-0.53c0.27-0.23,0.59-0.4,0.96-0.53c0.37-0.12,0.77-0.18,1.18-0.18
		C40.73,30.12,41.25,30.29,41.62,30.63z M40.82,34.63c0.29-0.18,0.5-0.45,0.64-0.79v-0.86h-1.65c-0.9,0-1.35,0.31-1.35,0.94
		c0,0.31,0.12,0.55,0.35,0.72c0.23,0.18,0.56,0.27,0.98,0.27C40.19,34.91,40.53,34.82,40.82,34.63z"/>
	<path class="st2" d="M44.29,35.29c-0.39-0.12-0.69-0.28-0.92-0.46l0.32-0.56c0.22,0.17,0.5,0.32,0.83,0.42
		c0.33,0.11,0.68,0.17,1.04,0.17c0.48,0,0.83-0.07,1.06-0.22s0.34-0.36,0.34-0.63c0-0.19-0.06-0.35-0.19-0.46
		c-0.13-0.11-0.29-0.19-0.48-0.25s-0.45-0.11-0.77-0.17c-0.43-0.08-0.77-0.16-1.03-0.25c-0.26-0.08-0.48-0.22-0.67-0.42
		c-0.18-0.2-0.27-0.48-0.27-0.83c0-0.44,0.18-0.8,0.55-1.08s0.88-0.42,1.53-0.42c0.34,0,0.68,0.04,1.02,0.13
		c0.34,0.09,0.62,0.21,0.84,0.36l-0.31,0.57c-0.43-0.3-0.95-0.45-1.55-0.45c-0.45,0-0.79,0.08-1.02,0.24s-0.34,0.37-0.34,0.63
		c0,0.2,0.06,0.36,0.19,0.48s0.29,0.21,0.48,0.26s0.46,0.12,0.8,0.17c0.42,0.08,0.76,0.16,1.01,0.24s0.47,0.22,0.65,0.41
		c0.18,0.19,0.27,0.46,0.27,0.8c0,0.46-0.19,0.83-0.57,1.09c-0.38,0.27-0.92,0.41-1.6,0.41C45.08,35.47,44.68,35.41,44.29,35.29z"/>
	<path class="st2" d="M56.41,28v7.42h-0.68v-1.04c-0.21,0.35-0.49,0.62-0.84,0.81c-0.35,0.19-0.75,0.28-1.18,0.28
		c-0.49,0-0.94-0.11-1.34-0.34c-0.4-0.23-0.71-0.54-0.94-0.95c-0.23-0.41-0.34-0.87-0.34-1.39c0-0.52,0.11-0.98,0.34-1.39
		c0.23-0.41,0.54-0.72,0.94-0.95c0.4-0.22,0.85-0.33,1.34-0.33c0.43,0,0.81,0.09,1.15,0.26s0.63,0.44,0.85,0.78V28H56.41z
		 M54.76,34.58c0.3-0.17,0.53-0.41,0.7-0.72s0.26-0.67,0.26-1.07c0-0.4-0.09-0.76-0.26-1.07s-0.4-0.55-0.7-0.72s-0.63-0.25-1-0.25
		c-0.37,0-0.71,0.08-1,0.25s-0.53,0.41-0.7,0.72s-0.25,0.67-0.25,1.07c0,0.4,0.08,0.76,0.25,1.07s0.4,0.55,0.7,0.72
		s0.63,0.25,1,0.25C54.13,34.84,54.46,34.75,54.76,34.58z"/>
	<path class="st2" d="M62.97,33.01h-4.4c0.04,0.55,0.25,0.99,0.63,1.33s0.86,0.5,1.44,0.5c0.33,0,0.63-0.06,0.9-0.17
		c0.27-0.12,0.51-0.29,0.71-0.51l0.4,0.46c-0.23,0.28-0.53,0.49-0.88,0.64s-0.73,0.22-1.15,0.22c-0.54,0-1.02-0.12-1.44-0.34
		c-0.42-0.23-0.74-0.55-0.97-0.96c-0.23-0.41-0.35-0.87-0.35-1.38s0.11-0.97,0.33-1.38c0.22-0.41,0.53-0.72,0.92-0.95
		c0.39-0.23,0.83-0.34,1.31-0.34c0.49,0,0.92,0.11,1.31,0.34s0.69,0.54,0.91,0.95s0.33,0.86,0.33,1.38L62.97,33.01z M59.16,31.21
		c-0.34,0.32-0.54,0.75-0.58,1.26h3.73c-0.05-0.52-0.24-0.94-0.59-1.26c-0.34-0.32-0.77-0.49-1.29-0.49
		C59.92,30.73,59.5,30.89,59.16,31.21z"/>
	<path class="st2" d="M67.05,28h0.71v7.42h-0.71V28z"/>
	<path class="st2" d="M70.52,35.13c-0.41-0.23-0.73-0.55-0.96-0.96s-0.35-0.87-0.35-1.38s0.12-0.97,0.35-1.38
		c0.23-0.41,0.55-0.72,0.96-0.95s0.86-0.34,1.37-0.34c0.51,0,0.96,0.11,1.37,0.34c0.41,0.23,0.73,0.54,0.96,0.95
		c0.23,0.41,0.35,0.87,0.35,1.38s-0.12,0.97-0.35,1.38c-0.23,0.41-0.55,0.72-0.96,0.96c-0.41,0.23-0.86,0.34-1.37,0.34
		C71.38,35.47,70.93,35.35,70.52,35.13z M72.9,34.58c0.3-0.17,0.53-0.41,0.69-0.72c0.17-0.31,0.25-0.67,0.25-1.07
		c0-0.4-0.08-0.76-0.25-1.07c-0.17-0.31-0.4-0.55-0.69-0.72c-0.3-0.17-0.63-0.25-1-0.25s-0.71,0.08-1.01,0.25
		c-0.3,0.17-0.53,0.41-0.7,0.72s-0.25,0.67-0.25,1.07c0,0.4,0.08,0.76,0.25,1.07s0.4,0.55,0.7,0.72c0.3,0.17,0.63,0.25,1.01,0.25
		S72.6,34.75,72.9,34.58z"/>
	<path class="st2" d="M76.2,35.29c-0.39-0.12-0.7-0.28-0.92-0.46l0.32-0.56c0.22,0.17,0.5,0.32,0.83,0.42
		c0.33,0.11,0.68,0.17,1.04,0.17c0.48,0,0.83-0.07,1.06-0.22c0.23-0.15,0.35-0.36,0.35-0.63c0-0.19-0.06-0.35-0.19-0.46
		c-0.13-0.11-0.29-0.19-0.48-0.25s-0.45-0.11-0.77-0.17c-0.43-0.08-0.77-0.16-1.03-0.25s-0.48-0.22-0.66-0.42
		c-0.18-0.2-0.28-0.48-0.28-0.83c0-0.44,0.18-0.8,0.55-1.08s0.88-0.42,1.53-0.42c0.34,0,0.68,0.04,1.02,0.13s0.62,0.21,0.84,0.36
		l-0.31,0.57c-0.43-0.3-0.95-0.45-1.55-0.45c-0.45,0-0.79,0.08-1.03,0.24s-0.34,0.37-0.34,0.63c0,0.2,0.07,0.36,0.19,0.48
		c0.13,0.12,0.29,0.21,0.49,0.26s0.46,0.12,0.8,0.17c0.42,0.08,0.76,0.16,1.01,0.24c0.25,0.08,0.47,0.22,0.65,0.41
		s0.27,0.46,0.27,0.8c0,0.46-0.19,0.83-0.57,1.09c-0.38,0.27-0.92,0.41-1.6,0.41C76.99,35.47,76.59,35.41,76.2,35.29z"/>
	<path class="st2" d="M32.48,49.1c-0.13,0.12-0.3,0.21-0.49,0.28c-0.2,0.06-0.4,0.09-0.62,0.09c-0.49,0-0.87-0.13-1.14-0.4
		s-0.4-0.64-0.4-1.13v-3.18H28.9v-0.6h0.94v-1.15h0.71v1.15h1.6v0.6h-1.6v3.14c0,0.31,0.08,0.55,0.24,0.71
		c0.16,0.16,0.38,0.25,0.67,0.25c0.15,0,0.29-0.02,0.42-0.07s0.26-0.11,0.35-0.2L32.48,49.1z"/>
	<path class="st2" d="M35.2,44.39c0.33-0.18,0.74-0.27,1.23-0.27v0.69l-0.17-0.01c-0.55,0-0.99,0.17-1.3,0.51
		c-0.31,0.34-0.47,0.82-0.47,1.43v2.68h-0.71v-5.26h0.68v1.03C34.62,44.84,34.87,44.57,35.2,44.39z"/>
	<path class="st2" d="M41.12,44.63c0.37,0.34,0.55,0.85,0.55,1.53v3.26h-0.68V48.6c-0.16,0.27-0.4,0.49-0.7,0.64
		c-0.31,0.15-0.68,0.23-1.1,0.23c-0.59,0-1.05-0.14-1.4-0.42s-0.52-0.65-0.52-1.11c0-0.45,0.16-0.81,0.49-1.08
		c0.32-0.27,0.84-0.41,1.54-0.41h1.67v-0.32c0-0.45-0.13-0.8-0.38-1.04c-0.25-0.24-0.62-0.35-1.11-0.35c-0.33,0-0.65,0.05-0.96,0.17
		c-0.31,0.11-0.57,0.26-0.79,0.46l-0.32-0.53c0.27-0.23,0.59-0.4,0.96-0.53c0.37-0.12,0.77-0.18,1.18-0.18
		C40.22,44.12,40.75,44.29,41.12,44.63z M40.31,48.63c0.29-0.18,0.5-0.45,0.64-0.79v-0.86h-1.65c-0.9,0-1.35,0.31-1.35,0.94
		c0,0.31,0.12,0.55,0.35,0.72c0.23,0.18,0.56,0.27,0.98,0.27C39.69,48.91,40.03,48.82,40.31,48.63z"/>
	<path class="st2" d="M47.65,44.46c0.4,0.22,0.71,0.54,0.94,0.95c0.23,0.41,0.34,0.87,0.34,1.39c0,0.52-0.11,0.98-0.34,1.39
		c-0.23,0.41-0.54,0.72-0.94,0.95s-0.85,0.34-1.34,0.34c-0.44,0-0.83-0.09-1.19-0.28c-0.35-0.19-0.63-0.46-0.85-0.81v1.04H43.6V42
		h0.71v3.16c0.22-0.34,0.5-0.6,0.84-0.78s0.73-0.26,1.16-0.26C46.8,44.12,47.25,44.23,47.65,44.46z M47.25,48.58
		c0.3-0.17,0.54-0.41,0.71-0.72s0.25-0.67,0.25-1.07c0-0.4-0.08-0.76-0.25-1.07s-0.4-0.55-0.71-0.72c-0.3-0.17-0.63-0.25-1-0.25
		c-0.37,0-0.71,0.08-1,0.25c-0.3,0.17-0.53,0.41-0.7,0.72c-0.17,0.31-0.25,0.67-0.25,1.07c0,0.4,0.08,0.76,0.25,1.07
		c0.17,0.31,0.4,0.55,0.7,0.72c0.3,0.17,0.63,0.25,1,0.25C46.62,48.84,46.96,48.75,47.25,48.58z"/>
	<path class="st2" d="M53.77,44.63c0.37,0.34,0.55,0.85,0.55,1.53v3.26h-0.68V48.6c-0.16,0.27-0.39,0.49-0.71,0.64
		c-0.31,0.15-0.68,0.23-1.1,0.23c-0.59,0-1.05-0.14-1.4-0.42s-0.52-0.65-0.52-1.11c0-0.45,0.16-0.81,0.49-1.08
		c0.32-0.27,0.84-0.41,1.55-0.41h1.67v-0.32c0-0.45-0.13-0.8-0.38-1.04c-0.25-0.24-0.62-0.35-1.11-0.35c-0.33,0-0.65,0.05-0.96,0.17
		c-0.31,0.11-0.57,0.26-0.79,0.46l-0.32-0.53c0.27-0.23,0.59-0.4,0.96-0.53c0.37-0.12,0.77-0.18,1.18-0.18
		C52.87,44.12,53.4,44.29,53.77,44.63z M52.96,48.63c0.29-0.18,0.5-0.45,0.64-0.79v-0.86h-1.65c-0.9,0-1.35,0.31-1.35,0.94
		c0,0.31,0.12,0.55,0.35,0.72c0.23,0.18,0.56,0.27,0.98,0.27C52.33,48.91,52.68,48.82,52.96,48.63z"/>
	<path class="st2" d="M54.84,51.33c-0.2-0.06-0.36-0.14-0.48-0.25l0.25-0.54c0.21,0.18,0.48,0.27,0.82,0.27
		c0.28,0,0.5-0.08,0.65-0.25c0.15-0.17,0.22-0.41,0.22-0.74v-5.65H57v5.65c0,0.49-0.13,0.88-0.4,1.17
		c-0.27,0.29-0.65,0.43-1.14,0.43C55.25,51.41,55.04,51.38,54.84,51.33z M56.29,42.85c-0.1-0.1-0.15-0.22-0.15-0.36
		c0-0.13,0.05-0.25,0.15-0.35c0.1-0.1,0.22-0.15,0.37-0.15s0.27,0.05,0.37,0.14c0.1,0.1,0.15,0.21,0.15,0.34
		c0,0.15-0.05,0.27-0.15,0.37c-0.1,0.1-0.22,0.15-0.37,0.15S56.38,42.95,56.29,42.85z"/>
	<path class="st2" d="M59.76,49.13c-0.41-0.23-0.73-0.55-0.96-0.96s-0.35-0.87-0.35-1.38s0.12-0.97,0.35-1.38
		c0.23-0.41,0.55-0.72,0.96-0.95s0.86-0.34,1.37-0.34c0.51,0,0.96,0.11,1.37,0.34c0.41,0.23,0.73,0.54,0.96,0.95
		c0.23,0.41,0.35,0.87,0.35,1.38s-0.12,0.97-0.35,1.38c-0.23,0.41-0.55,0.72-0.96,0.96c-0.41,0.23-0.86,0.34-1.37,0.34
		C60.63,49.47,60.17,49.35,59.76,49.13z M62.14,48.58c0.3-0.17,0.53-0.41,0.69-0.72c0.17-0.31,0.25-0.67,0.25-1.07
		c0-0.4-0.08-0.76-0.25-1.07c-0.17-0.31-0.4-0.55-0.69-0.72c-0.3-0.17-0.63-0.25-1-0.25s-0.71,0.08-1.01,0.25
		c-0.3,0.17-0.53,0.41-0.7,0.72s-0.25,0.67-0.25,1.07c0,0.4,0.08,0.76,0.25,1.07s0.4,0.55,0.7,0.72c0.3,0.17,0.63,0.25,1.01,0.25
		S61.84,48.75,62.14,48.58z"/>
	<path class="st2" d="M65.44,49.29c-0.39-0.12-0.7-0.28-0.92-0.46l0.32-0.56c0.22,0.17,0.5,0.32,0.83,0.42
		c0.33,0.11,0.68,0.17,1.04,0.17c0.48,0,0.83-0.07,1.06-0.22c0.23-0.15,0.35-0.36,0.35-0.63c0-0.19-0.06-0.35-0.19-0.46
		c-0.13-0.11-0.29-0.19-0.48-0.25s-0.45-0.11-0.77-0.17c-0.43-0.08-0.77-0.16-1.03-0.25s-0.48-0.22-0.66-0.42
		c-0.18-0.2-0.28-0.48-0.28-0.83c0-0.44,0.18-0.8,0.55-1.08s0.88-0.42,1.53-0.42c0.34,0,0.68,0.04,1.02,0.13s0.62,0.21,0.84,0.36
		l-0.31,0.57c-0.43-0.3-0.95-0.45-1.55-0.45c-0.45,0-0.79,0.08-1.03,0.24s-0.34,0.37-0.34,0.63c0,0.2,0.07,0.36,0.19,0.48
		c0.13,0.12,0.29,0.21,0.49,0.26s0.46,0.12,0.8,0.17c0.42,0.08,0.76,0.16,1.01,0.24c0.25,0.08,0.47,0.22,0.65,0.41
		s0.27,0.46,0.27,0.8c0,0.46-0.19,0.83-0.57,1.09c-0.38,0.27-0.92,0.41-1.6,0.41C66.24,49.47,65.83,49.41,65.44,49.29z"/>
	<path class="st2" d="M70.61,48.54c0.1,0.1,0.15,0.23,0.15,0.38c0,0.08-0.01,0.17-0.04,0.26c-0.02,0.09-0.06,0.2-0.1,0.32
		l-0.42,1.38h-0.48l0.34-1.45c-0.11-0.03-0.19-0.09-0.26-0.18s-0.1-0.2-0.1-0.33c0-0.15,0.05-0.28,0.15-0.38s0.23-0.16,0.38-0.16
		S70.5,48.43,70.61,48.54z"/>
	<path class="st2" d="M13.65,61.01h-4.4C9.29,61.56,9.5,62,9.88,62.33c0.38,0.34,0.86,0.5,1.44,0.5c0.33,0,0.63-0.06,0.9-0.17
		c0.27-0.12,0.51-0.29,0.71-0.51l0.4,0.46c-0.23,0.28-0.52,0.49-0.88,0.64s-0.73,0.22-1.15,0.22c-0.54,0-1.02-0.12-1.44-0.34
		c-0.42-0.23-0.74-0.55-0.98-0.96s-0.35-0.87-0.35-1.38s0.11-0.97,0.33-1.38C9.09,59,9.4,58.69,9.79,58.46
		c0.39-0.23,0.83-0.34,1.31-0.34c0.49,0,0.92,0.11,1.31,0.34s0.69,0.54,0.91,0.95s0.33,0.86,0.33,1.38L13.65,61.01z M9.83,59.21
		c-0.34,0.32-0.54,0.75-0.58,1.26h3.73c-0.05-0.52-0.24-0.94-0.58-1.26s-0.77-0.49-1.29-0.49C10.6,58.73,10.17,58.89,9.83,59.21z"/>
	<path class="st2" d="M18.31,63.42l-1.67-2.2l-1.68,2.2h-0.8l2.08-2.7l-1.98-2.56h0.8l1.58,2.06l1.58-2.06H19l-1.98,2.56l2.1,2.7
		H18.31z"/>
	<path class="st2" d="M23.62,58.63c0.37,0.34,0.55,0.85,0.55,1.53v3.26h-0.68V62.6c-0.16,0.27-0.4,0.49-0.7,0.64
		c-0.31,0.15-0.68,0.23-1.1,0.23c-0.59,0-1.05-0.14-1.4-0.42s-0.52-0.65-0.52-1.11c0-0.45,0.16-0.81,0.49-1.08
		c0.32-0.27,0.84-0.41,1.54-0.41h1.67v-0.32c0-0.45-0.13-0.8-0.38-1.04c-0.25-0.24-0.62-0.35-1.11-0.35c-0.33,0-0.65,0.05-0.96,0.17
		c-0.31,0.11-0.57,0.26-0.79,0.46l-0.32-0.53c0.27-0.23,0.59-0.4,0.96-0.53c0.37-0.12,0.77-0.18,1.18-0.18
		C22.72,58.12,23.25,58.29,23.62,58.63z M22.82,62.63c0.29-0.18,0.5-0.45,0.64-0.79v-0.86h-1.65c-0.9,0-1.35,0.31-1.35,0.94
		c0,0.31,0.12,0.55,0.35,0.72c0.23,0.18,0.56,0.27,0.98,0.27C22.19,62.91,22.53,62.82,22.82,62.63z"/>
	<path class="st2" d="M34.21,58.69c0.38,0.38,0.56,0.94,0.56,1.68v3.05h-0.71v-2.98c0-0.55-0.13-0.96-0.4-1.25
		c-0.26-0.29-0.63-0.43-1.11-0.43c-0.55,0-0.98,0.17-1.29,0.5c-0.31,0.34-0.47,0.8-0.47,1.4v2.76h-0.71v-2.98
		c0-0.55-0.13-0.96-0.4-1.25c-0.26-0.29-0.64-0.43-1.13-0.43c-0.54,0-0.97,0.17-1.29,0.5c-0.32,0.34-0.47,0.8-0.47,1.4v2.76H26.1
		v-5.26h0.68v0.96c0.19-0.32,0.45-0.57,0.78-0.74c0.33-0.17,0.72-0.26,1.15-0.26c0.44,0,0.82,0.09,1.15,0.28
		c0.32,0.19,0.56,0.46,0.73,0.83c0.19-0.35,0.47-0.62,0.83-0.81c0.36-0.2,0.78-0.29,1.24-0.29C33.32,58.12,33.83,58.31,34.21,58.69z
		"/>
	<path class="st2" d="M41.31,61.01h-4.4c0.04,0.55,0.25,0.99,0.63,1.33c0.38,0.34,0.86,0.5,1.44,0.5c0.33,0,0.63-0.06,0.9-0.17
		c0.27-0.12,0.51-0.29,0.71-0.51l0.4,0.46c-0.23,0.28-0.52,0.49-0.88,0.64s-0.73,0.22-1.15,0.22c-0.54,0-1.02-0.12-1.44-0.34
		c-0.42-0.23-0.74-0.55-0.98-0.96s-0.35-0.87-0.35-1.38s0.11-0.97,0.33-1.38c0.22-0.41,0.53-0.72,0.92-0.95
		c0.39-0.23,0.83-0.34,1.31-0.34c0.49,0,0.92,0.11,1.31,0.34s0.69,0.54,0.91,0.95s0.33,0.86,0.33,1.38L41.31,61.01z M37.49,59.21
		c-0.34,0.32-0.54,0.75-0.58,1.26h3.73c-0.05-0.52-0.24-0.94-0.58-1.26s-0.77-0.49-1.29-0.49C38.26,58.73,37.83,58.89,37.49,59.21z"
		/>
	<path class="st2" d="M47.02,58.7c0.39,0.38,0.58,0.94,0.58,1.67v3.05H46.9v-2.98c0-0.55-0.14-0.96-0.41-1.25
		c-0.27-0.29-0.66-0.43-1.17-0.43c-0.57,0-1.02,0.17-1.35,0.5c-0.33,0.34-0.49,0.8-0.49,1.4v2.76h-0.71v-5.26h0.68v0.97
		c0.19-0.32,0.46-0.57,0.81-0.75c0.34-0.18,0.74-0.26,1.19-0.26C46.11,58.12,46.63,58.31,47.02,58.7z"/>
	<path class="st2" d="M54.13,61.01h-4.4c0.04,0.55,0.25,0.99,0.63,1.33c0.38,0.34,0.86,0.5,1.44,0.5c0.33,0,0.63-0.06,0.9-0.17
		s0.51-0.29,0.71-0.51l0.4,0.46c-0.23,0.28-0.52,0.49-0.88,0.64s-0.74,0.22-1.16,0.22c-0.54,0-1.02-0.12-1.43-0.34
		c-0.42-0.23-0.74-0.55-0.98-0.96s-0.35-0.87-0.35-1.38s0.11-0.97,0.33-1.38c0.22-0.41,0.53-0.72,0.92-0.95
		c0.39-0.23,0.83-0.34,1.32-0.34s0.92,0.11,1.31,0.34s0.69,0.54,0.91,0.95s0.33,0.86,0.33,1.38L54.13,61.01z M50.32,59.21
		c-0.34,0.32-0.54,0.75-0.58,1.26h3.73c-0.05-0.52-0.24-0.94-0.58-1.26c-0.34-0.32-0.77-0.49-1.29-0.49
		C51.09,58.73,50.66,58.89,50.32,59.21z"/>
	<path class="st2" d="M55.78,63.29c-0.39-0.12-0.69-0.28-0.92-0.46l0.32-0.56c0.22,0.17,0.5,0.32,0.83,0.42
		c0.33,0.11,0.68,0.17,1.04,0.17c0.48,0,0.83-0.07,1.07-0.22c0.23-0.15,0.34-0.36,0.34-0.63c0-0.19-0.06-0.35-0.19-0.46
		c-0.13-0.11-0.29-0.19-0.48-0.25s-0.45-0.11-0.77-0.17c-0.43-0.08-0.77-0.16-1.03-0.25c-0.26-0.08-0.48-0.22-0.67-0.42
		s-0.27-0.48-0.27-0.83c0-0.44,0.18-0.8,0.55-1.08s0.88-0.42,1.53-0.42c0.34,0,0.68,0.04,1.02,0.13c0.34,0.09,0.62,0.21,0.84,0.36
		l-0.31,0.57c-0.43-0.3-0.95-0.45-1.55-0.45c-0.45,0-0.79,0.08-1.02,0.24s-0.34,0.37-0.34,0.63c0,0.2,0.06,0.36,0.2,0.48
		c0.13,0.12,0.29,0.21,0.48,0.26s0.46,0.12,0.8,0.17c0.42,0.08,0.76,0.16,1.01,0.24c0.25,0.08,0.47,0.22,0.65,0.41
		c0.18,0.19,0.27,0.46,0.27,0.8c0,0.46-0.19,0.83-0.58,1.09c-0.38,0.27-0.92,0.41-1.59,0.41C56.58,63.47,56.17,63.41,55.78,63.29z"
		/>
	<path class="st2" d="M60.95,62.54c0.1,0.1,0.15,0.23,0.15,0.38c0,0.08-0.01,0.17-0.04,0.26c-0.02,0.09-0.06,0.2-0.11,0.32
		l-0.42,1.38h-0.48l0.34-1.45c-0.11-0.03-0.19-0.09-0.26-0.18c-0.07-0.09-0.1-0.2-0.1-0.33c0-0.15,0.05-0.28,0.15-0.38
		s0.23-0.16,0.38-0.16S60.85,62.43,60.95,62.54z"/>
	<path class="st2" d="M70.03,58.16v7.2h-0.71v-2.93c-0.22,0.34-0.5,0.6-0.85,0.78s-0.73,0.26-1.15,0.26c-0.5,0-0.95-0.11-1.35-0.33
		c-0.4-0.22-0.71-0.54-0.94-0.95c-0.23-0.41-0.34-0.87-0.34-1.4c0-0.52,0.11-0.98,0.34-1.39c0.23-0.41,0.54-0.72,0.94-0.95
		c0.4-0.22,0.85-0.33,1.34-0.33c0.44,0,0.83,0.09,1.18,0.28c0.35,0.19,0.63,0.45,0.84,0.8v-1.04H70.03z M68.37,62.58
		c0.3-0.17,0.53-0.41,0.7-0.72s0.26-0.67,0.26-1.07c0-0.4-0.09-0.75-0.26-1.07c-0.17-0.31-0.4-0.55-0.7-0.72s-0.63-0.26-1-0.26
		c-0.37,0-0.71,0.09-1,0.26s-0.53,0.42-0.7,0.72c-0.17,0.31-0.25,0.67-0.25,1.07c0,0.4,0.08,0.76,0.25,1.07s0.4,0.55,0.7,0.72
		s0.63,0.25,1,0.25C67.74,62.84,68.07,62.75,68.37,62.58z"/>
	<path class="st2" d="M76.75,58.16v5.26h-0.68v-0.96c-0.19,0.32-0.44,0.57-0.77,0.75c-0.33,0.18-0.7,0.26-1.12,0.26
		c-0.69,0-1.23-0.19-1.63-0.58c-0.4-0.38-0.6-0.94-0.6-1.68v-3.05h0.71v2.98c0,0.55,0.14,0.97,0.41,1.26
		c0.27,0.29,0.66,0.43,1.17,0.43c0.55,0,0.99-0.17,1.31-0.5s0.48-0.81,0.48-1.41v-2.76H76.75z"/>
	<path class="st2" d="M78.73,56.86c-0.1-0.1-0.15-0.22-0.15-0.36c0-0.13,0.05-0.25,0.15-0.35c0.1-0.1,0.22-0.15,0.37-0.15
		s0.27,0.05,0.37,0.14c0.1,0.1,0.15,0.21,0.15,0.35c0,0.15-0.05,0.27-0.15,0.37c-0.1,0.1-0.22,0.15-0.37,0.15
		S78.83,56.96,78.73,56.86z M78.74,58.16h0.71v5.26h-0.71V58.16z"/>
	<path class="st2" d="M85.14,62.83v0.59h-4.28v-0.47l3.31-4.19h-3.25v-0.6h4.16v0.47l-3.31,4.2H85.14z"/>
	<path class="st2" d="M86.25,63.31c-0.1-0.11-0.15-0.24-0.15-0.39s0.05-0.28,0.15-0.38s0.23-0.16,0.38-0.16s0.27,0.05,0.38,0.16
		c0.11,0.1,0.16,0.23,0.16,0.38s-0.05,0.28-0.16,0.39c-0.11,0.11-0.23,0.16-0.38,0.16S86.35,63.42,86.25,63.31z"/>
	<path class="st2" d="M88.37,63.31c-0.1-0.11-0.16-0.24-0.16-0.39s0.05-0.28,0.16-0.38c0.1-0.1,0.23-0.16,0.38-0.16
		c0.15,0,0.27,0.05,0.38,0.16c0.11,0.1,0.16,0.23,0.16,0.38s-0.05,0.28-0.16,0.39c-0.11,0.11-0.23,0.16-0.38,0.16
		C88.6,63.47,88.47,63.42,88.37,63.31z"/>
	<path class="st2" d="M90.49,63.31c-0.1-0.11-0.15-0.24-0.15-0.39s0.05-0.28,0.15-0.38s0.23-0.16,0.38-0.16s0.27,0.05,0.38,0.16
		c0.11,0.1,0.16,0.23,0.16,0.38s-0.05,0.28-0.16,0.39c-0.11,0.11-0.23,0.16-0.38,0.16S90.59,63.42,90.49,63.31z"/>
	<path class="st2" d="M14.52,76.78v0.64H9.57v-7h4.8v0.64h-4.06v2.49h3.62v0.63h-3.62v2.6H14.52z"/>
	<path class="st2" d="M20.36,72.7c0.39,0.38,0.58,0.94,0.58,1.67v3.05h-0.71v-2.98c0-0.55-0.14-0.96-0.41-1.25
		c-0.27-0.29-0.66-0.43-1.17-0.43c-0.57,0-1.02,0.17-1.35,0.5c-0.33,0.34-0.49,0.8-0.49,1.4v2.76h-0.71v-5.26h0.68v0.97
		c0.19-0.32,0.46-0.57,0.81-0.75c0.34-0.18,0.74-0.26,1.19-0.26C19.45,72.12,19.97,72.31,20.36,72.7z"/>
	<path class="st2" d="M30.24,72.16v5.26h-0.68v-0.96c-0.19,0.32-0.44,0.57-0.77,0.75s-0.7,0.26-1.12,0.26
		c-0.69,0-1.23-0.19-1.63-0.58c-0.4-0.38-0.6-0.94-0.6-1.68v-3.05h0.71v2.98c0,0.55,0.14,0.97,0.41,1.26
		c0.27,0.29,0.66,0.43,1.17,0.43c0.55,0,0.99-0.17,1.31-0.5s0.48-0.81,0.48-1.41v-2.76H30.24z"/>
	<path class="st2" d="M36.48,72.7c0.39,0.38,0.58,0.94,0.58,1.67v3.05h-0.71v-2.98c0-0.55-0.14-0.96-0.41-1.25
		c-0.27-0.29-0.66-0.43-1.17-0.43c-0.57,0-1.02,0.17-1.35,0.5c-0.33,0.34-0.49,0.8-0.49,1.4v2.76h-0.71v-5.26h0.68v0.97
		c0.19-0.32,0.46-0.57,0.81-0.75c0.34-0.18,0.74-0.26,1.19-0.26C35.57,72.12,36.09,72.31,36.48,72.7z"/>
	<path class="st2" d="M41.8,77.29c-0.39-0.12-0.69-0.28-0.92-0.46l0.32-0.56c0.22,0.17,0.5,0.32,0.83,0.42
		c0.33,0.11,0.68,0.17,1.04,0.17c0.48,0,0.83-0.07,1.06-0.22s0.34-0.36,0.34-0.63c0-0.19-0.06-0.35-0.19-0.46
		c-0.13-0.11-0.29-0.19-0.48-0.25s-0.45-0.11-0.77-0.17c-0.43-0.08-0.77-0.16-1.03-0.25c-0.26-0.08-0.48-0.22-0.67-0.42
		c-0.18-0.2-0.27-0.48-0.27-0.83c0-0.44,0.18-0.8,0.55-1.08s0.88-0.42,1.53-0.42c0.34,0,0.68,0.04,1.02,0.13
		c0.34,0.09,0.62,0.21,0.84,0.36l-0.31,0.57c-0.43-0.3-0.95-0.45-1.55-0.45c-0.45,0-0.79,0.08-1.02,0.24s-0.34,0.37-0.34,0.63
		c0,0.2,0.06,0.36,0.19,0.48s0.29,0.21,0.48,0.26s0.46,0.12,0.8,0.17c0.42,0.08,0.76,0.16,1.01,0.24s0.47,0.22,0.65,0.41
		c0.18,0.19,0.27,0.46,0.27,0.8c0,0.46-0.19,0.83-0.57,1.09c-0.38,0.27-0.92,0.41-1.6,0.41C42.6,77.47,42.19,77.41,41.8,77.29z"/>
	<path class="st2" d="M47.29,77.13c-0.41-0.23-0.73-0.55-0.96-0.96s-0.35-0.87-0.35-1.38s0.12-0.97,0.35-1.38
		c0.23-0.41,0.55-0.72,0.96-0.95s0.86-0.34,1.37-0.34c0.51,0,0.96,0.11,1.37,0.34c0.41,0.23,0.73,0.54,0.96,0.95
		c0.23,0.41,0.35,0.87,0.35,1.38s-0.12,0.97-0.35,1.38s-0.55,0.72-0.96,0.96c-0.41,0.23-0.86,0.34-1.37,0.34
		C48.15,77.47,47.69,77.35,47.29,77.13z M49.66,76.58c0.3-0.17,0.53-0.41,0.69-0.72s0.25-0.67,0.25-1.07c0-0.4-0.08-0.76-0.25-1.07
		s-0.4-0.55-0.69-0.72c-0.3-0.17-0.63-0.25-1-0.25c-0.37,0-0.71,0.08-1.01,0.25c-0.3,0.17-0.53,0.41-0.7,0.72s-0.25,0.67-0.25,1.07
		c0,0.4,0.08,0.76,0.25,1.07s0.4,0.55,0.7,0.72c0.3,0.17,0.63,0.25,1.01,0.25C49.03,76.84,49.36,76.75,49.66,76.58z"/>
	<path class="st2" d="M52.78,70h0.71v7.42h-0.71V70z"/>
	<path class="st2" d="M56.25,77.13c-0.41-0.23-0.73-0.55-0.96-0.96s-0.35-0.87-0.35-1.38s0.12-0.97,0.35-1.38
		c0.23-0.41,0.55-0.72,0.96-0.95s0.86-0.34,1.37-0.34s0.96,0.11,1.37,0.34s0.72,0.54,0.96,0.95c0.23,0.41,0.34,0.87,0.34,1.38
		s-0.12,0.97-0.34,1.38c-0.23,0.41-0.55,0.72-0.96,0.96c-0.41,0.23-0.86,0.34-1.37,0.34S56.65,77.35,56.25,77.13z M58.62,76.58
		c0.3-0.17,0.53-0.41,0.7-0.72c0.17-0.31,0.25-0.67,0.25-1.07c0-0.4-0.08-0.76-0.25-1.07c-0.17-0.31-0.4-0.55-0.7-0.72
		s-0.63-0.25-1-0.25c-0.37,0-0.71,0.08-1,0.25s-0.53,0.41-0.7,0.72s-0.25,0.67-0.25,1.07c0,0.4,0.08,0.76,0.25,1.07
		s0.4,0.55,0.7,0.72s0.63,0.25,1,0.25C57.99,76.84,58.32,76.75,58.62,76.58z"/>
	<path class="st2" d="M64.36,70h0.71v7.42h-0.71V70z"/>
	<path class="st2" d="M71.79,72.16v5.26h-0.68v-0.96c-0.19,0.32-0.44,0.57-0.77,0.75s-0.7,0.26-1.12,0.26
		c-0.69,0-1.23-0.19-1.63-0.58c-0.4-0.38-0.6-0.94-0.6-1.68v-3.05h0.71v2.98c0,0.55,0.14,0.97,0.41,1.26
		c0.27,0.29,0.66,0.43,1.17,0.43c0.55,0,0.99-0.17,1.31-0.5c0.32-0.34,0.48-0.81,0.48-1.41v-2.76H71.79z"/>
	<path class="st2" d="M78.65,72.16v4.62c0,0.89-0.22,1.55-0.66,1.98c-0.44,0.43-1.09,0.65-1.98,0.65c-0.49,0-0.95-0.07-1.38-0.21
		c-0.44-0.14-0.79-0.34-1.06-0.6l0.36-0.54c0.25,0.23,0.56,0.4,0.93,0.53s0.74,0.19,1.14,0.19c0.67,0,1.16-0.16,1.47-0.47
		c0.31-0.31,0.47-0.79,0.47-1.44V76.2c-0.22,0.33-0.51,0.59-0.86,0.76c-0.36,0.17-0.75,0.26-1.18,0.26c-0.49,0-0.94-0.11-1.35-0.33
		c-0.4-0.22-0.72-0.52-0.95-0.91c-0.23-0.39-0.35-0.83-0.35-1.33s0.12-0.93,0.35-1.32c0.23-0.39,0.54-0.69,0.94-0.9
		c0.4-0.21,0.85-0.32,1.35-0.32c0.45,0,0.85,0.09,1.21,0.27c0.36,0.18,0.65,0.44,0.87,0.78v-1.01H78.65z M76.99,76.34
		c0.31-0.16,0.54-0.39,0.71-0.68c0.17-0.29,0.25-0.63,0.25-1s-0.08-0.71-0.25-1s-0.41-0.52-0.71-0.68c-0.3-0.16-0.65-0.25-1.04-0.25
		c-0.38,0-0.72,0.08-1.02,0.24c-0.3,0.16-0.54,0.39-0.71,0.68c-0.17,0.29-0.25,0.63-0.25,1s0.08,0.71,0.25,1
		c0.17,0.29,0.41,0.52,0.71,0.68c0.3,0.16,0.64,0.25,1.02,0.25S76.68,76.51,76.99,76.34z"/>
	<path class="st2" d="M84.06,72.63c0.37,0.34,0.55,0.85,0.55,1.53v3.26h-0.68V76.6c-0.16,0.27-0.39,0.49-0.71,0.64
		c-0.31,0.15-0.68,0.23-1.1,0.23c-0.59,0-1.05-0.14-1.4-0.42s-0.52-0.65-0.52-1.11c0-0.45,0.16-0.81,0.49-1.08
		c0.32-0.27,0.84-0.41,1.54-0.41h1.67v-0.32c0-0.45-0.13-0.8-0.38-1.04c-0.25-0.24-0.62-0.35-1.11-0.35c-0.33,0-0.65,0.05-0.96,0.17
		c-0.31,0.11-0.57,0.26-0.79,0.46l-0.32-0.53c0.27-0.23,0.59-0.4,0.96-0.53c0.37-0.12,0.77-0.18,1.18-0.18
		C83.16,72.12,83.69,72.29,84.06,72.63z M83.26,76.63c0.29-0.18,0.5-0.45,0.64-0.79v-0.86h-1.65c-0.9,0-1.35,0.31-1.35,0.94
		c0,0.31,0.12,0.55,0.35,0.72c0.23,0.18,0.56,0.27,0.98,0.27C82.63,76.91,82.97,76.82,83.26,76.63z"/>
	<path class="st2" d="M87.96,72.39c0.33-0.18,0.74-0.27,1.22-0.27v0.69l-0.17-0.01c-0.55,0-0.99,0.17-1.3,0.51
		c-0.31,0.34-0.47,0.82-0.47,1.43v2.68h-0.71v-5.26h0.68v1.03C87.38,72.84,87.63,72.57,87.96,72.39z"/>
	<path class="st2" d="M90.14,77.31c-0.1-0.11-0.16-0.24-0.16-0.39s0.05-0.28,0.16-0.38s0.23-0.16,0.38-0.16s0.27,0.05,0.38,0.16
		s0.16,0.23,0.16,0.38S91,77.2,90.9,77.31c-0.11,0.11-0.23,0.16-0.38,0.16S90.24,77.42,90.14,77.31z"/>
</g>
</svg>
