<?xml version="1.0" encoding="utf-8"?>
<!-- Generator: Adobe Illustrator 23.0.5, SVG Export Plug-In . SVG Version: 6.00 Build 0)  -->
<svg version="1.1" id="Capa_1" xmlns="http://www.w3.org/2000/svg" xmlns:xlink="http://www.w3.org/1999/xlink" x="0px" y="0px"
	 viewBox="0 0 100 100" style="enable-background:new 0 0 100 100;" xml:space="preserve">
<style type="text/css">
	.st0{fill:#FFFFFF;}
	.st1{fill:#F6931E;}
	.st2{fill:#002C38;}
</style>
<g>
	<circle class="st0" cx="50" cy="50" r="49.5"/>
	<path class="st1" d="M50,1c27.02,0,49,21.98,49,49S77.02,99,50,99S1,77.02,1,50S22.98,1,50,1 M50,0C22.39,0,0,22.39,0,50
		s22.39,50,50,50s50-22.39,50-50S77.61,0,50,0L50,0z"/>
</g>
<g>
	<g>
		<path class="st2" d="M19.04,14.42h0.74v7h-0.74V14.42z"/>
		<path class="st2" d="M26.17,16.7c0.39,0.38,0.58,0.94,0.58,1.67v3.05h-0.71v-2.98c0-0.55-0.14-0.96-0.41-1.25
			c-0.27-0.29-0.66-0.43-1.17-0.43c-0.57,0-1.02,0.17-1.35,0.5c-0.33,0.34-0.49,0.8-0.49,1.4v2.76h-0.71v-5.26h0.68v0.97
			c0.19-0.32,0.46-0.57,0.81-0.75c0.34-0.18,0.74-0.26,1.19-0.26C25.25,16.12,25.78,16.31,26.17,16.7z"/>
		<path class="st2" d="M33.57,16.16v4.62c0,0.89-0.22,1.55-0.65,1.98c-0.44,0.43-1.1,0.65-1.98,0.65c-0.49,0-0.95-0.07-1.38-0.21
			c-0.44-0.14-0.79-0.34-1.07-0.6l0.36-0.54c0.25,0.23,0.56,0.4,0.92,0.53s0.75,0.19,1.14,0.19c0.67,0,1.16-0.16,1.47-0.47
			c0.31-0.31,0.47-0.79,0.47-1.44V20.2c-0.22,0.33-0.51,0.59-0.86,0.76c-0.36,0.17-0.75,0.26-1.19,0.26c-0.49,0-0.94-0.11-1.35-0.33
			c-0.4-0.22-0.72-0.52-0.95-0.91c-0.23-0.39-0.35-0.83-0.35-1.33s0.12-0.93,0.35-1.32s0.54-0.69,0.95-0.9
			c0.4-0.21,0.85-0.32,1.35-0.32c0.45,0,0.85,0.09,1.21,0.27c0.36,0.18,0.65,0.44,0.87,0.78v-1.01H33.57z M31.91,20.34
			c0.31-0.16,0.54-0.39,0.71-0.68c0.17-0.29,0.26-0.63,0.26-1s-0.09-0.71-0.26-1s-0.41-0.52-0.71-0.68
			c-0.3-0.16-0.65-0.25-1.04-0.25c-0.38,0-0.72,0.08-1.03,0.24c-0.3,0.16-0.54,0.39-0.71,0.68c-0.17,0.29-0.25,0.63-0.25,1
			s0.08,0.71,0.25,1c0.17,0.29,0.41,0.52,0.71,0.68c0.3,0.16,0.64,0.25,1.03,0.25C31.26,20.59,31.6,20.51,31.91,20.34z"/>
		<path class="st2" d="M36.99,16.39c0.33-0.18,0.74-0.27,1.23-0.27v0.69l-0.17-0.01c-0.55,0-0.99,0.17-1.3,0.51
			c-0.31,0.34-0.47,0.82-0.47,1.43v2.68h-0.71v-5.26h0.68v1.03C36.41,16.84,36.66,16.57,36.99,16.39z"/>
		<path class="st2" d="M44.02,19.01h-4.4c0.04,0.55,0.25,0.99,0.63,1.33c0.38,0.34,0.86,0.5,1.44,0.5c0.33,0,0.63-0.06,0.9-0.17
			s0.51-0.29,0.71-0.51l0.4,0.46c-0.23,0.28-0.52,0.49-0.88,0.64s-0.74,0.22-1.16,0.22c-0.54,0-1.02-0.12-1.43-0.34
			c-0.42-0.23-0.74-0.55-0.98-0.96c-0.23-0.41-0.35-0.87-0.35-1.38s0.11-0.97,0.33-1.38c0.22-0.41,0.53-0.72,0.92-0.95
			s0.83-0.34,1.32-0.34s0.92,0.11,1.31,0.34s0.69,0.54,0.91,0.95s0.33,0.86,0.33,1.38L44.02,19.01z M40.21,17.21
			c-0.34,0.32-0.54,0.75-0.58,1.26h3.73c-0.05-0.52-0.24-0.94-0.58-1.26c-0.34-0.32-0.77-0.49-1.29-0.49
			C40.97,16.73,40.55,16.89,40.21,17.21z"/>
		<path class="st2" d="M45.67,21.29c-0.39-0.12-0.69-0.28-0.92-0.46l0.32-0.56c0.22,0.17,0.5,0.32,0.83,0.42
			c0.33,0.11,0.68,0.17,1.04,0.17c0.48,0,0.83-0.07,1.07-0.22c0.23-0.15,0.34-0.36,0.34-0.63c0-0.19-0.06-0.35-0.19-0.46
			c-0.13-0.11-0.29-0.19-0.48-0.25s-0.45-0.11-0.77-0.17c-0.43-0.08-0.77-0.16-1.03-0.25c-0.26-0.08-0.48-0.22-0.67-0.42
			s-0.27-0.48-0.27-0.83c0-0.44,0.18-0.8,0.55-1.08s0.88-0.42,1.53-0.42c0.34,0,0.68,0.04,1.02,0.13c0.34,0.09,0.62,0.21,0.84,0.36
			l-0.31,0.57c-0.43-0.3-0.95-0.45-1.55-0.45c-0.45,0-0.79,0.08-1.02,0.24s-0.34,0.37-0.34,0.63c0,0.2,0.06,0.36,0.2,0.48
			c0.13,0.12,0.29,0.21,0.48,0.26s0.46,0.12,0.8,0.17c0.42,0.08,0.76,0.16,1.01,0.24c0.25,0.08,0.47,0.22,0.65,0.41
			c0.18,0.19,0.27,0.46,0.27,0.8c0,0.46-0.19,0.83-0.58,1.09c-0.38,0.27-0.92,0.41-1.59,0.41C46.46,21.47,46.05,21.41,45.67,21.29z"
			/>
		<path class="st2" d="M53.79,16.63c0.37,0.34,0.55,0.85,0.55,1.53v3.26h-0.68V20.6c-0.16,0.27-0.39,0.49-0.71,0.64
			c-0.31,0.15-0.68,0.23-1.1,0.23c-0.59,0-1.05-0.14-1.4-0.42s-0.52-0.65-0.52-1.11c0-0.45,0.16-0.81,0.49-1.08
			c0.32-0.27,0.84-0.41,1.54-0.41h1.67v-0.32c0-0.45-0.13-0.8-0.38-1.04c-0.25-0.24-0.62-0.35-1.11-0.35
			c-0.33,0-0.65,0.05-0.96,0.17c-0.31,0.11-0.57,0.26-0.79,0.46l-0.32-0.53c0.27-0.23,0.59-0.4,0.96-0.53
			c0.37-0.12,0.77-0.18,1.18-0.18C52.9,16.12,53.42,16.29,53.79,16.63z M52.99,20.63c0.29-0.18,0.5-0.45,0.64-0.79v-0.86h-1.65
			c-0.9,0-1.35,0.31-1.35,0.94c0,0.31,0.12,0.55,0.35,0.72c0.23,0.18,0.56,0.27,0.98,0.27C52.36,20.91,52.7,20.82,52.99,20.63z"/>
		<path class="st2" d="M62.31,16.63c0.37,0.34,0.55,0.85,0.55,1.53v3.26h-0.68V20.6c-0.16,0.27-0.39,0.49-0.7,0.64
			s-0.68,0.23-1.1,0.23c-0.59,0-1.05-0.14-1.4-0.42c-0.35-0.28-0.52-0.65-0.52-1.11c0-0.45,0.16-0.81,0.49-1.08
			c0.32-0.27,0.84-0.41,1.54-0.41h1.67v-0.32c0-0.45-0.13-0.8-0.38-1.04c-0.25-0.24-0.62-0.35-1.11-0.35
			c-0.33,0-0.65,0.05-0.96,0.17c-0.31,0.11-0.57,0.26-0.79,0.46l-0.32-0.53c0.27-0.23,0.59-0.4,0.96-0.53
			c0.37-0.12,0.77-0.18,1.18-0.18C61.42,16.12,61.94,16.29,62.31,16.63z M61.51,20.63c0.29-0.18,0.5-0.45,0.64-0.79v-0.86H60.5
			c-0.9,0-1.35,0.31-1.35,0.94c0,0.31,0.12,0.55,0.35,0.72c0.23,0.18,0.56,0.27,0.98,0.27C60.88,20.91,61.22,20.82,61.51,20.63z"/>
		<path class="st2" d="M70.18,21.1c-0.13,0.12-0.3,0.21-0.49,0.28c-0.2,0.06-0.4,0.09-0.62,0.09c-0.49,0-0.87-0.13-1.14-0.4
			c-0.27-0.27-0.4-0.64-0.4-1.13v-3.18h-0.94v-0.6h0.94v-1.15h0.71v1.15h1.6v0.6h-1.6v3.14c0,0.31,0.08,0.55,0.24,0.71
			c0.16,0.16,0.38,0.25,0.67,0.25c0.15,0,0.29-0.02,0.42-0.07s0.25-0.11,0.35-0.2L70.18,21.1z"/>
		<path class="st2" d="M76.21,16.16v5.26h-0.68v-0.96c-0.19,0.32-0.44,0.57-0.77,0.75c-0.33,0.18-0.7,0.26-1.12,0.26
			c-0.69,0-1.23-0.19-1.63-0.58c-0.4-0.38-0.6-0.94-0.6-1.68v-3.05h0.71v2.98c0,0.55,0.14,0.97,0.41,1.26
			c0.27,0.29,0.66,0.43,1.17,0.43c0.55,0,0.99-0.17,1.31-0.5s0.48-0.81,0.48-1.41v-2.76H76.21z"/>
		<path class="st2" d="M78.38,21.29c-0.39-0.12-0.69-0.28-0.91-0.46l0.32-0.56c0.22,0.17,0.5,0.32,0.83,0.42
			c0.33,0.11,0.68,0.17,1.04,0.17c0.48,0,0.84-0.07,1.07-0.22s0.34-0.36,0.34-0.63c0-0.19-0.06-0.35-0.19-0.46
			c-0.13-0.11-0.29-0.19-0.48-0.25s-0.45-0.11-0.77-0.17c-0.43-0.08-0.77-0.16-1.03-0.25c-0.26-0.08-0.48-0.22-0.67-0.42
			s-0.28-0.48-0.28-0.83c0-0.44,0.18-0.8,0.55-1.08c0.37-0.28,0.88-0.42,1.53-0.42c0.34,0,0.68,0.04,1.02,0.13
			c0.34,0.09,0.62,0.21,0.84,0.36l-0.31,0.57c-0.43-0.3-0.95-0.45-1.55-0.45c-0.45,0-0.79,0.08-1.03,0.24
			c-0.23,0.16-0.34,0.37-0.34,0.63c0,0.2,0.06,0.36,0.19,0.48s0.29,0.21,0.49,0.26s0.46,0.12,0.8,0.17
			c0.42,0.08,0.76,0.16,1.01,0.24s0.47,0.22,0.65,0.41c0.18,0.19,0.27,0.46,0.27,0.8c0,0.46-0.19,0.83-0.58,1.09
			c-0.38,0.27-0.91,0.41-1.59,0.41C79.18,21.47,78.78,21.41,78.38,21.29z"/>
		<path class="st2" d="M20.22,35.13c-0.41-0.23-0.73-0.54-0.96-0.96c-0.23-0.41-0.35-0.87-0.35-1.38s0.12-0.97,0.35-1.38
			c0.23-0.41,0.55-0.72,0.96-0.95s0.88-0.34,1.39-0.34c0.45,0,0.86,0.09,1.21,0.26c0.36,0.18,0.64,0.44,0.85,0.78l-0.53,0.36
			c-0.17-0.26-0.39-0.46-0.66-0.58s-0.56-0.19-0.87-0.19c-0.38,0-0.72,0.08-1.03,0.25c-0.3,0.17-0.54,0.41-0.71,0.72
			s-0.26,0.67-0.26,1.07c0,0.41,0.09,0.76,0.26,1.08c0.17,0.31,0.41,0.55,0.71,0.72c0.3,0.17,0.65,0.25,1.03,0.25
			c0.31,0,0.6-0.06,0.87-0.19c0.27-0.13,0.49-0.32,0.66-0.58l0.53,0.36c-0.21,0.34-0.49,0.6-0.85,0.78s-0.76,0.26-1.21,0.26
			C21.1,35.47,20.63,35.36,20.22,35.13z"/>
		<path class="st2" d="M24.99,28h0.71v7.42h-0.71V28z"/>
		<path class="st2" d="M31.1,30.63c0.37,0.34,0.55,0.85,0.55,1.53v3.26h-0.68V34.6c-0.16,0.27-0.39,0.49-0.71,0.64
			c-0.31,0.15-0.68,0.23-1.1,0.23c-0.59,0-1.05-0.14-1.4-0.42s-0.52-0.65-0.52-1.11c0-0.45,0.16-0.81,0.49-1.08
			c0.32-0.27,0.84-0.41,1.54-0.41h1.67v-0.32c0-0.45-0.13-0.8-0.38-1.04c-0.25-0.24-0.62-0.35-1.11-0.35
			c-0.33,0-0.65,0.05-0.96,0.17c-0.31,0.11-0.57,0.26-0.79,0.46l-0.32-0.53c0.27-0.23,0.59-0.4,0.96-0.53
			c0.37-0.12,0.77-0.18,1.18-0.18C30.2,30.12,30.73,30.29,31.1,30.63z M30.29,34.63c0.29-0.18,0.5-0.45,0.64-0.79v-0.86h-1.65
			c-0.9,0-1.35,0.31-1.35,0.94c0,0.31,0.12,0.55,0.35,0.72c0.23,0.18,0.56,0.27,0.98,0.27C29.67,34.91,30.01,34.82,30.29,34.63z"/>
		<path class="st2" d="M33.76,35.29c-0.39-0.12-0.7-0.28-0.92-0.46l0.32-0.56c0.22,0.17,0.5,0.32,0.83,0.42
			c0.33,0.11,0.68,0.17,1.04,0.17c0.48,0,0.83-0.07,1.06-0.22c0.23-0.15,0.35-0.36,0.35-0.63c0-0.19-0.06-0.35-0.19-0.46
			c-0.13-0.11-0.29-0.19-0.48-0.25s-0.45-0.11-0.77-0.17c-0.43-0.08-0.77-0.16-1.03-0.25s-0.48-0.22-0.66-0.42
			c-0.18-0.2-0.28-0.48-0.28-0.83c0-0.44,0.18-0.8,0.55-1.08s0.88-0.42,1.53-0.42c0.34,0,0.68,0.04,1.02,0.13s0.62,0.21,0.84,0.36
			l-0.31,0.57c-0.43-0.3-0.95-0.45-1.55-0.45c-0.45,0-0.79,0.08-1.03,0.24s-0.34,0.37-0.34,0.63c0,0.2,0.07,0.36,0.19,0.48
			c0.13,0.12,0.29,0.21,0.49,0.26s0.46,0.12,0.8,0.17c0.42,0.08,0.76,0.16,1.01,0.24c0.25,0.08,0.47,0.22,0.65,0.41
			s0.27,0.46,0.27,0.8c0,0.46-0.19,0.83-0.57,1.09c-0.38,0.27-0.92,0.41-1.6,0.41C34.56,35.47,34.15,35.41,33.76,35.29z"/>
		<path class="st2" d="M43.04,33.01h-4.4c0.04,0.55,0.25,0.99,0.63,1.33c0.38,0.34,0.86,0.5,1.44,0.5c0.33,0,0.63-0.06,0.9-0.17
			s0.51-0.29,0.71-0.51l0.4,0.46c-0.23,0.28-0.52,0.49-0.88,0.64c-0.35,0.15-0.73,0.22-1.15,0.22c-0.54,0-1.02-0.12-1.44-0.34
			c-0.42-0.23-0.74-0.55-0.97-0.96s-0.35-0.87-0.35-1.38s0.11-0.97,0.33-1.38c0.22-0.41,0.53-0.72,0.92-0.95
			c0.39-0.23,0.83-0.34,1.32-0.34c0.49,0,0.92,0.11,1.31,0.34s0.69,0.54,0.91,0.95c0.22,0.4,0.33,0.86,0.33,1.38L43.04,33.01z
			 M39.23,31.21c-0.34,0.32-0.54,0.75-0.59,1.26h3.73c-0.05-0.52-0.24-0.94-0.58-1.26s-0.77-0.49-1.29-0.49
			C40,30.73,39.57,30.89,39.23,31.21z"/>
		<path class="st2" d="M44.69,35.29c-0.39-0.12-0.69-0.28-0.91-0.46l0.32-0.56c0.22,0.17,0.5,0.32,0.83,0.42
			c0.33,0.11,0.68,0.17,1.04,0.17c0.48,0,0.84-0.07,1.07-0.22s0.34-0.36,0.34-0.63c0-0.19-0.06-0.35-0.19-0.46
			c-0.13-0.11-0.29-0.19-0.48-0.25s-0.45-0.11-0.77-0.17c-0.43-0.08-0.77-0.16-1.03-0.25c-0.26-0.08-0.48-0.22-0.67-0.42
			s-0.28-0.48-0.28-0.83c0-0.44,0.18-0.8,0.55-1.08c0.37-0.28,0.88-0.42,1.53-0.42c0.34,0,0.68,0.04,1.02,0.13
			c0.34,0.09,0.62,0.21,0.84,0.36l-0.31,0.57c-0.43-0.3-0.95-0.45-1.55-0.45c-0.45,0-0.79,0.08-1.03,0.24
			c-0.23,0.16-0.34,0.37-0.34,0.63c0,0.2,0.06,0.36,0.19,0.48s0.29,0.21,0.49,0.26s0.46,0.12,0.8,0.17
			c0.42,0.08,0.76,0.16,1.01,0.24s0.47,0.22,0.65,0.41c0.18,0.19,0.27,0.46,0.27,0.8c0,0.46-0.19,0.83-0.58,1.09
			c-0.38,0.27-0.91,0.41-1.59,0.41C45.49,35.47,45.08,35.41,44.69,35.29z"/>
		<path class="st2" d="M56.82,28v7.42h-0.68v-1.04c-0.21,0.35-0.49,0.62-0.84,0.81c-0.35,0.19-0.75,0.28-1.19,0.28
			c-0.49,0-0.94-0.11-1.34-0.34s-0.71-0.54-0.94-0.95c-0.23-0.41-0.34-0.87-0.34-1.39c0-0.52,0.11-0.98,0.34-1.39
			c0.23-0.41,0.54-0.72,0.94-0.95s0.85-0.33,1.34-0.33c0.43,0,0.81,0.09,1.15,0.26c0.34,0.18,0.63,0.44,0.85,0.78V28H56.82z
			 M55.16,34.58c0.3-0.17,0.53-0.41,0.7-0.72s0.25-0.67,0.25-1.07c0-0.4-0.08-0.76-0.25-1.07s-0.4-0.55-0.7-0.72
			s-0.63-0.25-0.99-0.25c-0.37,0-0.71,0.08-1.01,0.25s-0.53,0.41-0.7,0.72s-0.26,0.67-0.26,1.07c0,0.4,0.09,0.76,0.26,1.07
			s0.4,0.55,0.7,0.72s0.63,0.25,1.01,0.25C54.53,34.84,54.86,34.75,55.16,34.58z"/>
		<path class="st2" d="M63.38,33.01h-4.4c0.04,0.55,0.25,0.99,0.63,1.33c0.38,0.34,0.86,0.5,1.44,0.5c0.33,0,0.63-0.06,0.9-0.17
			s0.51-0.29,0.71-0.51l0.4,0.46c-0.23,0.28-0.52,0.49-0.88,0.64c-0.35,0.15-0.73,0.22-1.15,0.22c-0.54,0-1.02-0.12-1.44-0.34
			c-0.42-0.23-0.74-0.55-0.97-0.96s-0.35-0.87-0.35-1.38s0.11-0.97,0.33-1.38c0.22-0.41,0.53-0.72,0.92-0.95
			c0.39-0.23,0.83-0.34,1.32-0.34c0.49,0,0.92,0.11,1.31,0.34s0.69,0.54,0.91,0.95c0.22,0.4,0.33,0.86,0.33,1.38L63.38,33.01z
			 M59.56,31.21c-0.34,0.32-0.54,0.75-0.59,1.26h3.73c-0.05-0.52-0.24-0.94-0.58-1.26s-0.77-0.49-1.29-0.49
			C60.33,30.73,59.9,30.89,59.56,31.21z"/>
		<path class="st2" d="M65.02,35.29c-0.39-0.12-0.69-0.28-0.91-0.46l0.32-0.56c0.22,0.17,0.5,0.32,0.83,0.42
			c0.33,0.11,0.68,0.17,1.04,0.17c0.48,0,0.84-0.07,1.07-0.22s0.34-0.36,0.34-0.63c0-0.19-0.06-0.35-0.19-0.46
			c-0.13-0.11-0.29-0.19-0.48-0.25s-0.45-0.11-0.77-0.17c-0.43-0.08-0.77-0.16-1.03-0.25c-0.26-0.08-0.48-0.22-0.67-0.42
			s-0.28-0.48-0.28-0.83c0-0.44,0.18-0.8,0.55-1.08c0.37-0.28,0.88-0.42,1.53-0.42c0.34,0,0.68,0.04,1.02,0.13
			c0.34,0.09,0.62,0.21,0.84,0.36l-0.31,0.57c-0.43-0.3-0.95-0.45-1.55-0.45c-0.45,0-0.79,0.08-1.03,0.24
			c-0.23,0.16-0.34,0.37-0.34,0.63c0,0.2,0.06,0.36,0.19,0.48s0.29,0.21,0.49,0.26s0.46,0.12,0.8,0.17
			c0.42,0.08,0.76,0.16,1.01,0.24s0.47,0.22,0.65,0.41c0.18,0.19,0.27,0.46,0.27,0.8c0,0.46-0.19,0.83-0.58,1.09
			c-0.38,0.27-0.91,0.41-1.59,0.41C65.82,35.47,65.41,35.41,65.02,35.29z"/>
		<path class="st2" d="M74.53,28v7.42h-0.68v-1.04c-0.21,0.35-0.5,0.62-0.85,0.81c-0.35,0.19-0.74,0.28-1.18,0.28
			c-0.49,0-0.94-0.11-1.34-0.34c-0.4-0.23-0.71-0.54-0.94-0.95c-0.23-0.41-0.34-0.87-0.34-1.39c0-0.52,0.11-0.98,0.34-1.39
			c0.23-0.41,0.54-0.72,0.94-0.95c0.4-0.22,0.85-0.33,1.34-0.33c0.43,0,0.81,0.09,1.16,0.26c0.34,0.18,0.63,0.44,0.84,0.78V28H74.53
			z M72.87,34.58c0.3-0.17,0.53-0.41,0.7-0.72s0.25-0.67,0.25-1.07c0-0.4-0.08-0.76-0.25-1.07s-0.4-0.55-0.7-0.72
			c-0.3-0.17-0.63-0.25-1-0.25c-0.37,0-0.71,0.08-1,0.25c-0.3,0.17-0.53,0.41-0.7,0.72s-0.25,0.67-0.25,1.07
			c0,0.4,0.08,0.76,0.25,1.07s0.4,0.55,0.7,0.72c0.3,0.17,0.63,0.25,1,0.25C72.24,34.84,72.57,34.75,72.87,34.58z"/>
		<path class="st2" d="M81.08,33.01h-4.4c0.04,0.55,0.25,0.99,0.63,1.33c0.38,0.34,0.86,0.5,1.44,0.5c0.33,0,0.63-0.06,0.9-0.17
			c0.27-0.12,0.51-0.29,0.71-0.51l0.4,0.46c-0.23,0.28-0.53,0.49-0.88,0.64c-0.35,0.15-0.74,0.22-1.16,0.22
			c-0.54,0-1.02-0.12-1.43-0.34c-0.42-0.23-0.74-0.55-0.98-0.96s-0.35-0.87-0.35-1.38s0.11-0.97,0.34-1.38
			c0.22-0.41,0.53-0.72,0.92-0.95c0.39-0.23,0.83-0.34,1.31-0.34s0.92,0.11,1.31,0.34s0.69,0.54,0.91,0.95
			c0.22,0.4,0.33,0.86,0.33,1.38L81.08,33.01z M77.27,31.21c-0.34,0.32-0.54,0.75-0.58,1.26h3.73c-0.05-0.52-0.24-0.94-0.58-1.26
			s-0.77-0.49-1.29-0.49C78.04,30.73,77.61,30.89,77.27,31.21z"/>
		<path class="st2" d="M12.76,49.13c-0.41-0.23-0.73-0.54-0.96-0.96s-0.35-0.87-0.35-1.38s0.12-0.97,0.35-1.38
			c0.23-0.41,0.56-0.72,0.96-0.95c0.41-0.23,0.88-0.34,1.4-0.34c0.45,0,0.86,0.09,1.21,0.26c0.36,0.18,0.64,0.44,0.84,0.78
			l-0.53,0.36c-0.17-0.26-0.39-0.46-0.66-0.58c-0.27-0.13-0.56-0.19-0.87-0.19c-0.38,0-0.72,0.08-1.03,0.25s-0.54,0.41-0.71,0.72
			s-0.25,0.67-0.25,1.07c0,0.41,0.08,0.76,0.25,1.08c0.17,0.31,0.41,0.55,0.71,0.72s0.64,0.25,1.03,0.25c0.31,0,0.6-0.06,0.87-0.19
			c0.27-0.13,0.49-0.32,0.66-0.58l0.53,0.36c-0.21,0.34-0.49,0.6-0.85,0.78c-0.36,0.18-0.76,0.26-1.21,0.26
			C13.64,49.47,13.17,49.36,12.76,49.13z"/>
		<path class="st2" d="M22.35,44.16v5.26h-0.68v-0.96c-0.19,0.32-0.44,0.57-0.77,0.75s-0.7,0.26-1.12,0.26
			c-0.69,0-1.23-0.19-1.63-0.58c-0.4-0.38-0.59-0.94-0.59-1.68v-3.05h0.71v2.98c0,0.55,0.14,0.97,0.41,1.26
			c0.27,0.29,0.66,0.43,1.17,0.43c0.55,0,0.99-0.17,1.31-0.5c0.32-0.34,0.48-0.81,0.48-1.41v-2.76H22.35z"/>
		<path class="st2" d="M27.76,44.63c0.37,0.34,0.55,0.85,0.55,1.53v3.26h-0.68V48.6c-0.16,0.27-0.39,0.49-0.7,0.64
			s-0.68,0.23-1.1,0.23c-0.59,0-1.05-0.14-1.4-0.42c-0.35-0.28-0.52-0.65-0.52-1.11c0-0.45,0.16-0.81,0.49-1.08
			c0.32-0.27,0.84-0.41,1.54-0.41h1.67v-0.32c0-0.45-0.13-0.8-0.38-1.04c-0.25-0.24-0.62-0.35-1.11-0.35
			c-0.33,0-0.65,0.05-0.96,0.17c-0.31,0.11-0.57,0.26-0.79,0.46l-0.32-0.53c0.27-0.23,0.59-0.4,0.96-0.53
			c0.37-0.12,0.77-0.18,1.18-0.18C26.86,44.12,27.39,44.29,27.76,44.63z M26.96,48.63c0.29-0.18,0.5-0.45,0.64-0.79v-0.86h-1.65
			c-0.9,0-1.35,0.31-1.35,0.94c0,0.31,0.12,0.55,0.35,0.72c0.23,0.18,0.56,0.27,0.98,0.27C26.33,48.91,26.67,48.82,26.96,48.63z"/>
		<path class="st2" d="M30.24,42h0.71v7.42h-0.71V42z"/>
		<path class="st2" d="M37.73,44.16v7.2h-0.71v-2.93c-0.22,0.34-0.5,0.6-0.85,0.78c-0.34,0.18-0.73,0.26-1.15,0.26
			c-0.5,0-0.95-0.11-1.35-0.33c-0.4-0.22-0.71-0.54-0.93-0.95c-0.23-0.41-0.34-0.87-0.34-1.4c0-0.52,0.11-0.98,0.34-1.39
			c0.23-0.41,0.54-0.72,0.94-0.95s0.85-0.33,1.34-0.33c0.44,0,0.83,0.09,1.19,0.28c0.35,0.19,0.63,0.45,0.84,0.8v-1.04H37.73z
			 M36.07,48.58c0.3-0.17,0.53-0.41,0.7-0.72s0.25-0.67,0.25-1.07c0-0.4-0.08-0.75-0.25-1.07c-0.17-0.31-0.4-0.55-0.7-0.72
			s-0.63-0.26-0.99-0.26c-0.37,0-0.71,0.09-1.01,0.26s-0.53,0.42-0.7,0.72c-0.17,0.31-0.26,0.67-0.26,1.07
			c0,0.4,0.09,0.76,0.26,1.07s0.4,0.55,0.7,0.72s0.63,0.25,1.01,0.25C35.44,48.84,35.77,48.75,36.07,48.58z"/>
		<path class="st2" d="M44.45,44.16v5.26h-0.68v-0.96c-0.19,0.32-0.44,0.57-0.77,0.75s-0.7,0.26-1.12,0.26
			c-0.69,0-1.23-0.19-1.63-0.58c-0.4-0.38-0.59-0.94-0.59-1.68v-3.05h0.71v2.98c0,0.55,0.14,0.97,0.41,1.26
			c0.27,0.29,0.66,0.43,1.17,0.43c0.55,0,0.99-0.17,1.31-0.5c0.32-0.34,0.48-0.81,0.48-1.41v-2.76H44.45z"/>
		<path class="st2" d="M46.43,42.86c-0.1-0.1-0.15-0.22-0.15-0.36c0-0.13,0.05-0.25,0.15-0.35c0.1-0.1,0.22-0.15,0.37-0.15
			s0.27,0.05,0.37,0.14c0.1,0.1,0.15,0.21,0.15,0.35c0,0.15-0.05,0.27-0.15,0.37c-0.1,0.1-0.22,0.15-0.37,0.15
			S46.53,42.96,46.43,42.86z M46.44,44.16h0.71v5.26h-0.71V44.16z"/>
		<path class="st2" d="M53.71,47.01h-4.4c0.04,0.55,0.25,0.99,0.63,1.33c0.38,0.34,0.86,0.5,1.44,0.5c0.33,0,0.63-0.06,0.9-0.17
			s0.51-0.29,0.71-0.51l0.4,0.46c-0.23,0.28-0.52,0.49-0.88,0.64c-0.35,0.15-0.73,0.22-1.15,0.22c-0.54,0-1.02-0.12-1.44-0.34
			c-0.42-0.23-0.74-0.55-0.97-0.96s-0.35-0.87-0.35-1.38s0.11-0.97,0.33-1.38c0.22-0.41,0.53-0.72,0.92-0.95
			c0.39-0.23,0.83-0.34,1.32-0.34c0.49,0,0.92,0.11,1.31,0.34s0.69,0.54,0.91,0.95c0.22,0.4,0.33,0.86,0.33,1.38L53.71,47.01z
			 M49.89,45.21c-0.34,0.32-0.54,0.75-0.59,1.26h3.73c-0.05-0.52-0.24-0.94-0.58-1.26s-0.77-0.49-1.29-0.49
			C50.66,44.73,50.23,44.89,49.89,45.21z"/>
		<path class="st2" d="M56.59,44.39c0.33-0.18,0.74-0.27,1.23-0.27v0.69l-0.17-0.01c-0.55,0-0.99,0.17-1.3,0.51
			c-0.31,0.34-0.47,0.82-0.47,1.43v2.68h-0.71v-5.26h0.68v1.03C56.01,44.84,56.26,44.57,56.59,44.39z"/>
		<path class="st2" d="M61.79,42h0.71v7.42h-0.71V42z"/>
		<path class="st2" d="M69.22,44.16v5.26h-0.68v-0.96c-0.19,0.32-0.44,0.57-0.77,0.75c-0.33,0.18-0.7,0.26-1.12,0.26
			c-0.69,0-1.23-0.19-1.63-0.58c-0.4-0.38-0.59-0.94-0.59-1.68v-3.05h0.71v2.98c0,0.55,0.14,0.97,0.41,1.26
			c0.27,0.29,0.66,0.43,1.17,0.43c0.55,0,0.99-0.17,1.31-0.5s0.48-0.81,0.48-1.41v-2.76H69.22z"/>
		<path class="st2" d="M76.08,44.16v4.62c0,0.89-0.22,1.55-0.66,1.98c-0.44,0.43-1.09,0.65-1.97,0.65c-0.49,0-0.95-0.07-1.38-0.21
			c-0.44-0.14-0.79-0.34-1.07-0.6l0.36-0.54c0.25,0.23,0.56,0.4,0.92,0.53s0.75,0.19,1.15,0.19c0.67,0,1.16-0.16,1.47-0.47
			c0.31-0.31,0.47-0.79,0.47-1.44V48.2c-0.22,0.33-0.51,0.59-0.87,0.76c-0.36,0.17-0.75,0.26-1.18,0.26c-0.49,0-0.94-0.11-1.34-0.33
			c-0.4-0.22-0.72-0.52-0.95-0.91c-0.23-0.39-0.34-0.83-0.34-1.33s0.12-0.93,0.34-1.32s0.54-0.69,0.94-0.9
			c0.4-0.21,0.85-0.32,1.35-0.32c0.45,0,0.85,0.09,1.21,0.27c0.36,0.18,0.65,0.44,0.87,0.78v-1.01H76.08z M74.43,48.34
			c0.31-0.16,0.54-0.39,0.71-0.68c0.17-0.29,0.25-0.63,0.25-1s-0.08-0.71-0.25-1s-0.41-0.52-0.71-0.68
			c-0.3-0.16-0.65-0.25-1.04-0.25c-0.38,0-0.72,0.08-1.02,0.24c-0.3,0.16-0.54,0.39-0.71,0.68c-0.17,0.29-0.25,0.63-0.25,1
			s0.08,0.71,0.25,1c0.17,0.29,0.41,0.52,0.71,0.68c0.3,0.16,0.65,0.25,1.02,0.25C73.78,48.59,74.12,48.51,74.43,48.34z"/>
		<path class="st2" d="M81.5,44.63c0.37,0.34,0.55,0.85,0.55,1.53v3.26h-0.68V48.6c-0.16,0.27-0.4,0.49-0.71,0.64
			c-0.31,0.15-0.68,0.23-1.11,0.23c-0.59,0-1.05-0.14-1.4-0.42c-0.35-0.28-0.52-0.65-0.52-1.11c0-0.45,0.16-0.81,0.49-1.08
			s0.84-0.41,1.54-0.41h1.67v-0.32c0-0.45-0.13-0.8-0.38-1.04c-0.25-0.24-0.62-0.35-1.11-0.35c-0.33,0-0.65,0.05-0.96,0.17
			c-0.31,0.11-0.57,0.26-0.79,0.46l-0.32-0.53c0.27-0.23,0.59-0.4,0.96-0.53c0.37-0.12,0.77-0.18,1.18-0.18
			C80.6,44.12,81.13,44.29,81.5,44.63z M80.7,48.63c0.29-0.18,0.5-0.45,0.64-0.79v-0.86h-1.65c-0.9,0-1.35,0.31-1.35,0.94
			c0,0.31,0.12,0.55,0.35,0.72c0.23,0.18,0.56,0.27,0.98,0.27C80.06,48.91,80.41,48.82,80.7,48.63z"/>
		<path class="st2" d="M85.4,44.39c0.33-0.18,0.74-0.27,1.22-0.27v0.69l-0.17-0.01c-0.55,0-0.99,0.17-1.3,0.51
			c-0.31,0.34-0.47,0.82-0.47,1.43v2.68h-0.71v-5.26h0.68v1.03C84.82,44.84,85.07,44.57,85.4,44.39z"/>
		<path class="st2" d="M88.34,48.54c0.1,0.1,0.15,0.23,0.15,0.38c0,0.08-0.01,0.17-0.04,0.26c-0.02,0.09-0.06,0.2-0.1,0.32
			l-0.42,1.38h-0.48l0.34-1.45c-0.11-0.03-0.19-0.09-0.26-0.18c-0.07-0.09-0.1-0.2-0.1-0.33c0-0.15,0.05-0.28,0.15-0.38
			c0.1-0.1,0.23-0.16,0.38-0.16C88.12,48.38,88.24,48.43,88.34,48.54z"/>
		<path class="st2" d="M14.38,63.13c-0.41-0.23-0.73-0.54-0.96-0.96c-0.23-0.41-0.35-0.87-0.35-1.38s0.12-0.97,0.35-1.38
			c0.23-0.41,0.56-0.72,0.96-0.95c0.41-0.23,0.88-0.34,1.4-0.34c0.45,0,0.86,0.09,1.21,0.26s0.64,0.44,0.84,0.78l-0.53,0.36
			c-0.17-0.26-0.39-0.46-0.66-0.58s-0.56-0.19-0.87-0.19c-0.38,0-0.72,0.08-1.02,0.25c-0.3,0.17-0.54,0.41-0.71,0.72
			s-0.25,0.67-0.25,1.07c0,0.41,0.08,0.76,0.25,1.08c0.17,0.31,0.41,0.55,0.71,0.72c0.3,0.17,0.64,0.25,1.02,0.25
			c0.31,0,0.6-0.06,0.87-0.19c0.27-0.13,0.49-0.32,0.66-0.58l0.53,0.36c-0.21,0.34-0.49,0.6-0.85,0.78
			c-0.36,0.18-0.76,0.26-1.21,0.26C15.25,63.47,14.79,63.36,14.38,63.13z"/>
		<path class="st2" d="M19.91,63.13c-0.41-0.23-0.73-0.55-0.96-0.96c-0.23-0.41-0.35-0.87-0.35-1.38s0.12-0.97,0.35-1.38
			c0.23-0.41,0.55-0.72,0.96-0.95c0.41-0.23,0.86-0.34,1.37-0.34c0.51,0,0.96,0.11,1.37,0.34s0.72,0.54,0.96,0.95
			c0.23,0.41,0.35,0.87,0.35,1.38s-0.12,0.97-0.35,1.38s-0.55,0.72-0.96,0.96c-0.41,0.23-0.86,0.34-1.37,0.34
			C20.77,63.47,20.32,63.35,19.91,63.13z M22.29,62.58c0.3-0.17,0.53-0.41,0.7-0.72s0.25-0.67,0.25-1.07c0-0.4-0.08-0.76-0.25-1.07
			s-0.4-0.55-0.7-0.72s-0.63-0.25-1-0.25c-0.37,0-0.71,0.08-1.01,0.25s-0.53,0.41-0.7,0.72s-0.26,0.67-0.26,1.07
			c0,0.4,0.09,0.76,0.26,1.07s0.4,0.55,0.7,0.72s0.63,0.25,1.01,0.25C21.65,62.84,21.99,62.75,22.29,62.58z"/>
		<path class="st2" d="M29.66,58.7c0.39,0.38,0.58,0.94,0.58,1.67v3.05h-0.71v-2.98c0-0.55-0.14-0.96-0.41-1.25
			c-0.27-0.29-0.66-0.43-1.17-0.43c-0.57,0-1.02,0.17-1.35,0.5c-0.33,0.34-0.49,0.8-0.49,1.4v2.76H25.4v-5.26h0.68v0.97
			c0.19-0.32,0.46-0.57,0.81-0.75c0.34-0.18,0.74-0.26,1.19-0.26C28.74,58.12,29.27,58.31,29.66,58.7z"/>
		<path class="st2" d="M34.79,56h0.71v7.42h-0.71V56z"/>
		<path class="st2" d="M40.9,58.63c0.37,0.34,0.55,0.85,0.55,1.53v3.26h-0.68V62.6c-0.16,0.27-0.4,0.49-0.7,0.64
			c-0.31,0.15-0.68,0.23-1.11,0.23c-0.59,0-1.05-0.14-1.4-0.42s-0.52-0.65-0.52-1.11c0-0.45,0.16-0.81,0.48-1.08
			c0.32-0.27,0.84-0.41,1.54-0.41h1.67v-0.32c0-0.45-0.13-0.8-0.38-1.04c-0.25-0.24-0.62-0.35-1.11-0.35
			c-0.33,0-0.65,0.05-0.96,0.17c-0.31,0.11-0.57,0.26-0.79,0.46l-0.32-0.53c0.27-0.23,0.59-0.4,0.96-0.53
			c0.37-0.12,0.77-0.18,1.18-0.18C40.01,58.12,40.53,58.29,40.9,58.63z M40.1,62.63c0.29-0.18,0.5-0.45,0.64-0.79v-0.86h-1.65
			c-0.9,0-1.35,0.31-1.35,0.94c0,0.31,0.12,0.55,0.35,0.72c0.23,0.18,0.56,0.27,0.98,0.27C39.47,62.91,39.81,62.82,40.1,62.63z"/>
		<path class="st2" d="M47.05,56.8c-0.16,0.17-0.24,0.41-0.24,0.74v0.62h1.62v0.6h-1.6v4.66h-0.71v-4.66h-0.94v-0.6h0.94v-0.65
			c0-0.48,0.14-0.86,0.41-1.14c0.28-0.28,0.67-0.42,1.18-0.42c0.2,0,0.39,0.03,0.58,0.08c0.19,0.06,0.34,0.14,0.47,0.25l-0.24,0.53
			c-0.21-0.17-0.47-0.26-0.78-0.26C47.43,56.55,47.2,56.63,47.05,56.8z"/>
		<path class="st2" d="M52.71,58.63c0.37,0.34,0.55,0.85,0.55,1.53v3.26h-0.68V62.6c-0.16,0.27-0.39,0.49-0.71,0.64
			c-0.31,0.15-0.68,0.23-1.1,0.23c-0.59,0-1.05-0.14-1.4-0.42s-0.52-0.65-0.52-1.11c0-0.45,0.16-0.81,0.49-1.08
			c0.32-0.27,0.84-0.41,1.54-0.41h1.67v-0.32c0-0.45-0.13-0.8-0.38-1.04c-0.25-0.24-0.62-0.35-1.11-0.35
			c-0.33,0-0.65,0.05-0.96,0.17c-0.31,0.11-0.57,0.26-0.79,0.46l-0.32-0.53c0.27-0.23,0.59-0.4,0.96-0.53
			c0.37-0.12,0.77-0.18,1.18-0.18C51.82,58.12,52.34,58.29,52.71,58.63z M51.91,62.63c0.29-0.18,0.5-0.45,0.64-0.79v-0.86H50.9
			c-0.9,0-1.35,0.31-1.35,0.94c0,0.31,0.12,0.55,0.35,0.72c0.23,0.18,0.56,0.27,0.98,0.27C51.28,62.91,51.62,62.82,51.91,62.63z"/>
		<path class="st2" d="M56,63.13c-0.41-0.23-0.73-0.54-0.96-0.96s-0.35-0.87-0.35-1.38s0.12-0.97,0.35-1.38
			c0.23-0.41,0.56-0.72,0.96-0.95c0.41-0.23,0.88-0.34,1.4-0.34c0.45,0,0.86,0.09,1.21,0.26c0.36,0.18,0.64,0.44,0.84,0.78
			l-0.53,0.36c-0.17-0.26-0.39-0.46-0.66-0.58c-0.27-0.13-0.56-0.19-0.87-0.19c-0.38,0-0.72,0.08-1.03,0.25s-0.54,0.41-0.71,0.72
			s-0.25,0.67-0.25,1.07c0,0.41,0.08,0.76,0.25,1.08c0.17,0.31,0.41,0.55,0.71,0.72s0.64,0.25,1.03,0.25c0.31,0,0.6-0.06,0.87-0.19
			c0.27-0.13,0.49-0.32,0.66-0.58l0.53,0.36c-0.21,0.34-0.49,0.6-0.85,0.78c-0.36,0.18-0.76,0.26-1.21,0.26
			C56.87,63.47,56.41,63.36,56,63.13z"/>
		<path class="st2" d="M60.83,56.86c-0.1-0.1-0.15-0.22-0.15-0.36c0-0.13,0.05-0.25,0.15-0.35c0.1-0.1,0.22-0.15,0.37-0.15
			c0.15,0,0.27,0.05,0.37,0.14c0.1,0.1,0.15,0.21,0.15,0.35c0,0.15-0.05,0.27-0.15,0.37c-0.1,0.1-0.22,0.15-0.37,0.15
			C61.05,57.01,60.93,56.96,60.83,56.86z M60.84,58.16h0.71v5.26h-0.71V58.16z"/>
		<path class="st2" d="M63.53,56h0.71v7.42h-0.71V56z"/>
		<path class="st2" d="M66.21,56.86c-0.1-0.1-0.15-0.22-0.15-0.36c0-0.13,0.05-0.25,0.15-0.35c0.1-0.1,0.22-0.15,0.37-0.15
			s0.27,0.05,0.37,0.14c0.1,0.1,0.15,0.21,0.15,0.35c0,0.15-0.05,0.27-0.15,0.37c-0.1,0.1-0.22,0.15-0.37,0.15
			S66.31,56.96,66.21,56.86z M66.22,58.16h0.71v5.26h-0.71V58.16z"/>
		<path class="st2" d="M73.71,56v7.42h-0.68v-1.04c-0.21,0.35-0.49,0.62-0.84,0.81c-0.35,0.19-0.75,0.28-1.19,0.28
			c-0.49,0-0.94-0.11-1.34-0.34s-0.71-0.54-0.94-0.95c-0.23-0.41-0.34-0.87-0.34-1.39c0-0.52,0.11-0.98,0.34-1.39
			c0.23-0.41,0.54-0.72,0.94-0.95s0.85-0.33,1.34-0.33c0.43,0,0.81,0.09,1.15,0.26c0.34,0.18,0.63,0.44,0.85,0.78V56H73.71z
			 M72.05,62.58c0.3-0.17,0.53-0.41,0.7-0.72s0.25-0.67,0.25-1.07c0-0.4-0.08-0.76-0.25-1.07s-0.4-0.55-0.7-0.72
			s-0.63-0.25-0.99-0.25c-0.37,0-0.71,0.08-1.01,0.25s-0.53,0.41-0.7,0.72s-0.26,0.67-0.26,1.07c0,0.4,0.09,0.76,0.26,1.07
			s0.4,0.55,0.7,0.72s0.63,0.25,1.01,0.25C71.43,62.84,71.76,62.75,72.05,62.58z"/>
		<path class="st2" d="M79.11,58.63c0.37,0.34,0.55,0.85,0.55,1.53v3.26h-0.68V62.6c-0.16,0.27-0.4,0.49-0.7,0.64
			c-0.31,0.15-0.68,0.23-1.11,0.23c-0.59,0-1.05-0.14-1.4-0.42s-0.52-0.65-0.52-1.11c0-0.45,0.16-0.81,0.48-1.08
			c0.32-0.27,0.84-0.41,1.54-0.41h1.67v-0.32c0-0.45-0.13-0.8-0.38-1.04c-0.25-0.24-0.62-0.35-1.11-0.35
			c-0.33,0-0.65,0.05-0.96,0.17c-0.31,0.11-0.57,0.26-0.79,0.46l-0.32-0.53c0.27-0.23,0.59-0.4,0.96-0.53
			c0.37-0.12,0.77-0.18,1.18-0.18C78.22,58.12,78.74,58.29,79.11,58.63z M78.31,62.63c0.29-0.18,0.5-0.45,0.64-0.79v-0.86H77.3
			c-0.9,0-1.35,0.31-1.35,0.94c0,0.31,0.12,0.55,0.35,0.72c0.23,0.18,0.56,0.27,0.98,0.27C77.68,62.91,78.02,62.82,78.31,62.63z"/>
		<path class="st2" d="M86.41,56v7.42h-0.68v-1.04c-0.21,0.35-0.5,0.62-0.84,0.81c-0.35,0.19-0.75,0.28-1.19,0.28
			c-0.49,0-0.94-0.11-1.34-0.34s-0.71-0.54-0.94-0.95c-0.23-0.41-0.34-0.87-0.34-1.39c0-0.52,0.11-0.98,0.34-1.39
			c0.23-0.41,0.54-0.72,0.94-0.95s0.85-0.33,1.34-0.33c0.43,0,0.81,0.09,1.16,0.26s0.63,0.44,0.84,0.78V56H86.41z M84.75,62.58
			c0.3-0.17,0.53-0.41,0.7-0.72s0.25-0.67,0.25-1.07c0-0.4-0.08-0.76-0.25-1.07s-0.4-0.55-0.7-0.72c-0.3-0.17-0.63-0.25-0.99-0.25
			c-0.37,0-0.71,0.08-1.01,0.25c-0.3,0.17-0.53,0.41-0.7,0.72s-0.25,0.67-0.25,1.07c0,0.4,0.08,0.76,0.25,1.07s0.4,0.55,0.7,0.72
			c0.3,0.17,0.63,0.25,1.01,0.25C84.13,62.84,84.46,62.75,84.75,62.58z"/>
		<path class="st2" d="M17.7,72.16v7.2h-0.71v-2.93c-0.22,0.34-0.5,0.6-0.84,0.78c-0.34,0.18-0.73,0.26-1.16,0.26
			c-0.5,0-0.95-0.11-1.34-0.33c-0.4-0.22-0.71-0.54-0.94-0.95c-0.23-0.41-0.34-0.87-0.34-1.4c0-0.52,0.11-0.98,0.34-1.39
			c0.23-0.41,0.54-0.72,0.94-0.95c0.4-0.22,0.85-0.33,1.34-0.33c0.44,0,0.83,0.09,1.18,0.28c0.35,0.19,0.63,0.45,0.85,0.8v-1.04
			H17.7z M16.04,76.58c0.3-0.17,0.53-0.41,0.7-0.72S17,75.19,17,74.79c0-0.4-0.08-0.75-0.25-1.07c-0.17-0.31-0.4-0.55-0.7-0.72
			c-0.3-0.17-0.63-0.26-1-0.26c-0.37,0-0.71,0.09-1,0.26c-0.3,0.17-0.53,0.42-0.7,0.72c-0.17,0.31-0.25,0.67-0.25,1.07
			c0,0.4,0.08,0.76,0.25,1.07s0.4,0.55,0.7,0.72c0.3,0.17,0.63,0.25,1,0.25C15.41,76.84,15.74,76.75,16.04,76.58z"/>
		<path class="st2" d="M24.42,72.16v5.26h-0.68v-0.96c-0.19,0.32-0.44,0.57-0.77,0.75s-0.7,0.26-1.12,0.26
			c-0.69,0-1.23-0.19-1.63-0.58c-0.4-0.38-0.6-0.94-0.6-1.68v-3.05h0.71v2.98c0,0.55,0.14,0.97,0.41,1.26
			c0.27,0.29,0.66,0.43,1.17,0.43c0.55,0,0.99-0.17,1.31-0.5c0.32-0.34,0.48-0.81,0.48-1.41v-2.76H24.42z"/>
		<path class="st2" d="M30.98,75.01h-4.4c0.04,0.55,0.25,0.99,0.63,1.33c0.38,0.34,0.86,0.5,1.44,0.5c0.33,0,0.63-0.06,0.9-0.17
			s0.51-0.29,0.71-0.51l0.4,0.46c-0.23,0.28-0.52,0.49-0.88,0.64s-0.74,0.22-1.16,0.22c-0.54,0-1.02-0.12-1.43-0.34
			c-0.42-0.23-0.74-0.55-0.98-0.96c-0.23-0.41-0.35-0.87-0.35-1.38s0.11-0.97,0.33-1.38c0.22-0.41,0.53-0.72,0.92-0.95
			s0.83-0.34,1.32-0.34s0.92,0.11,1.31,0.34s0.69,0.54,0.91,0.95S31,74.27,31,74.79L30.98,75.01z M27.17,73.21
			c-0.34,0.32-0.54,0.75-0.58,1.26h3.73c-0.05-0.52-0.24-0.94-0.58-1.26c-0.34-0.32-0.77-0.49-1.29-0.49
			C27.94,72.73,27.51,72.89,27.17,73.21z"/>
		<path class="st2" d="M35.25,77.29c-0.39-0.12-0.7-0.28-0.92-0.46l0.32-0.56c0.22,0.17,0.5,0.32,0.83,0.42
			c0.33,0.11,0.68,0.17,1.04,0.17c0.48,0,0.83-0.07,1.06-0.22c0.23-0.15,0.35-0.36,0.35-0.63c0-0.19-0.06-0.35-0.19-0.46
			c-0.13-0.11-0.29-0.19-0.48-0.25s-0.45-0.11-0.77-0.17c-0.43-0.08-0.77-0.16-1.03-0.25s-0.48-0.22-0.66-0.42
			c-0.18-0.2-0.28-0.48-0.28-0.83c0-0.44,0.18-0.8,0.55-1.08s0.88-0.42,1.53-0.42c0.34,0,0.68,0.04,1.02,0.13s0.62,0.21,0.84,0.36
			l-0.31,0.57c-0.43-0.3-0.95-0.45-1.55-0.45c-0.45,0-0.79,0.08-1.03,0.24s-0.34,0.37-0.34,0.63c0,0.2,0.07,0.36,0.19,0.48
			c0.13,0.12,0.29,0.21,0.49,0.26s0.46,0.12,0.8,0.17c0.42,0.08,0.76,0.16,1.01,0.24c0.25,0.08,0.47,0.22,0.65,0.41
			s0.27,0.46,0.27,0.8c0,0.46-0.19,0.83-0.57,1.09c-0.38,0.27-0.92,0.41-1.6,0.41C36.05,77.47,35.64,77.41,35.25,77.29z"/>
		<path class="st2" d="M40.74,77.13c-0.41-0.23-0.73-0.55-0.96-0.96s-0.35-0.87-0.35-1.38s0.12-0.97,0.35-1.38
			c0.23-0.41,0.55-0.72,0.96-0.95s0.86-0.34,1.37-0.34c0.51,0,0.96,0.11,1.37,0.34c0.41,0.23,0.73,0.54,0.96,0.95
			c0.23,0.41,0.35,0.87,0.35,1.38s-0.12,0.97-0.35,1.38c-0.23,0.41-0.55,0.72-0.96,0.96c-0.41,0.23-0.86,0.34-1.37,0.34
			C41.6,77.47,41.14,77.35,40.74,77.13z M43.11,76.58c0.3-0.17,0.53-0.41,0.69-0.72c0.17-0.31,0.25-0.67,0.25-1.07
			c0-0.4-0.08-0.76-0.25-1.07c-0.17-0.31-0.4-0.55-0.69-0.72c-0.3-0.17-0.63-0.25-1-0.25S41.4,72.83,41.1,73
			c-0.3,0.17-0.53,0.41-0.7,0.72s-0.25,0.67-0.25,1.07c0,0.4,0.08,0.76,0.25,1.07s0.4,0.55,0.7,0.72c0.3,0.17,0.63,0.25,1.01,0.25
			S42.81,76.75,43.11,76.58z"/>
		<path class="st2" d="M46.23,70h0.71v7.42h-0.71V70z"/>
		<path class="st2" d="M49.7,77.13c-0.41-0.23-0.73-0.55-0.96-0.96s-0.35-0.87-0.35-1.38s0.12-0.97,0.35-1.38
			c0.23-0.41,0.55-0.72,0.96-0.95s0.86-0.34,1.37-0.34s0.96,0.11,1.37,0.34s0.72,0.54,0.96,0.95c0.23,0.41,0.34,0.87,0.34,1.38
			s-0.12,0.97-0.34,1.38c-0.23,0.41-0.55,0.72-0.96,0.96c-0.41,0.23-0.86,0.34-1.37,0.34S50.1,77.35,49.7,77.13z M52.07,76.58
			c0.3-0.17,0.53-0.41,0.7-0.72c0.17-0.31,0.25-0.67,0.25-1.07c0-0.4-0.08-0.76-0.25-1.07c-0.17-0.31-0.4-0.55-0.7-0.72
			s-0.63-0.25-1-0.25c-0.37,0-0.71,0.08-1,0.25s-0.53,0.41-0.7,0.72s-0.25,0.67-0.25,1.07c0,0.4,0.08,0.76,0.25,1.07
			s0.4,0.55,0.7,0.72s0.63,0.25,1,0.25C51.44,76.84,51.77,76.75,52.07,76.58z"/>
		<path class="st2" d="M62.88,73.92h0.71v2.67c-0.33,0.29-0.71,0.51-1.16,0.66c-0.45,0.15-0.92,0.23-1.41,0.23
			c-0.7,0-1.33-0.15-1.89-0.46c-0.56-0.31-1-0.73-1.32-1.27c-0.32-0.54-0.48-1.15-0.48-1.83c0-0.67,0.16-1.28,0.48-1.83
			c0.32-0.54,0.76-0.97,1.32-1.27c0.56-0.31,1.19-0.46,1.9-0.46c0.53,0,1.02,0.08,1.47,0.25c0.45,0.17,0.82,0.42,1.13,0.75
			l-0.46,0.47c-0.55-0.55-1.26-0.82-2.11-0.82c-0.57,0-1.08,0.13-1.54,0.38s-0.82,0.6-1.08,1.04s-0.39,0.94-0.39,1.49
			s0.13,1.04,0.39,1.48c0.26,0.44,0.62,0.79,1.07,1.04c0.45,0.25,0.96,0.38,1.53,0.38c0.72,0,1.33-0.18,1.83-0.54V73.92z"/>
		<path class="st2" d="M66.32,77.13c-0.41-0.23-0.73-0.55-0.96-0.96s-0.35-0.87-0.35-1.38s0.12-0.97,0.35-1.38
			c0.23-0.41,0.55-0.72,0.96-0.95s0.86-0.34,1.37-0.34c0.51,0,0.96,0.11,1.37,0.34c0.41,0.23,0.73,0.54,0.96,0.95
			c0.23,0.41,0.35,0.87,0.35,1.38s-0.12,0.97-0.35,1.38c-0.23,0.41-0.55,0.72-0.96,0.96c-0.41,0.23-0.86,0.34-1.37,0.34
			C67.18,77.47,66.72,77.35,66.32,77.13z M68.69,76.58c0.3-0.17,0.53-0.41,0.69-0.72c0.17-0.31,0.25-0.67,0.25-1.07
			c0-0.4-0.08-0.76-0.25-1.07c-0.17-0.31-0.4-0.55-0.69-0.72c-0.3-0.17-0.63-0.25-1-0.25s-0.71,0.08-1.01,0.25
			c-0.3,0.17-0.53,0.41-0.7,0.72s-0.25,0.67-0.25,1.07c0,0.4,0.08,0.76,0.25,1.07s0.4,0.55,0.7,0.72c0.3,0.17,0.63,0.25,1.01,0.25
			S68.39,76.75,68.69,76.58z"/>
		<path class="st2" d="M72.59,77.13c-0.41-0.23-0.73-0.55-0.96-0.96c-0.23-0.41-0.35-0.87-0.35-1.38s0.12-0.97,0.35-1.38
			c0.23-0.41,0.55-0.72,0.96-0.95c0.41-0.23,0.86-0.34,1.37-0.34c0.51,0,0.96,0.11,1.37,0.34c0.41,0.23,0.73,0.54,0.96,0.95
			c0.23,0.41,0.34,0.87,0.34,1.38s-0.12,0.97-0.34,1.38s-0.55,0.72-0.96,0.96c-0.41,0.23-0.86,0.34-1.37,0.34
			C73.45,77.47,72.99,77.35,72.59,77.13z M74.96,76.58c0.3-0.17,0.53-0.41,0.69-0.72s0.25-0.67,0.25-1.07c0-0.4-0.08-0.76-0.25-1.07
			s-0.4-0.55-0.69-0.72c-0.3-0.17-0.63-0.25-1.01-0.25s-0.71,0.08-1,0.25c-0.3,0.17-0.53,0.41-0.7,0.72S72,74.39,72,74.79
			c0,0.4,0.08,0.76,0.25,1.07s0.4,0.55,0.7,0.72c0.3,0.17,0.63,0.25,1,0.25S74.66,76.75,74.96,76.58z"/>
		<path class="st2" d="M82.35,72.16l-2.34,5.26h-0.73l-2.33-5.26h0.74l1.97,4.48l1.99-4.48H82.35z"/>
		<path class="st2" d="M86.61,72.63c0.37,0.34,0.55,0.85,0.55,1.53v3.26h-0.68V76.6c-0.16,0.27-0.39,0.49-0.7,0.64
			s-0.68,0.23-1.1,0.23c-0.59,0-1.05-0.14-1.4-0.42c-0.35-0.28-0.52-0.65-0.52-1.11c0-0.45,0.16-0.81,0.49-1.08
			c0.32-0.27,0.84-0.41,1.54-0.41h1.67v-0.32c0-0.45-0.13-0.8-0.38-1.04c-0.25-0.24-0.62-0.35-1.11-0.35
			c-0.33,0-0.65,0.05-0.96,0.17c-0.31,0.11-0.57,0.26-0.79,0.46l-0.32-0.53c0.27-0.23,0.59-0.4,0.96-0.53
			c0.37-0.12,0.77-0.18,1.18-0.18C85.71,72.12,86.24,72.29,86.61,72.63z M85.8,76.63c0.29-0.18,0.5-0.45,0.64-0.79v-0.86h-1.65
			c-0.9,0-1.35,0.31-1.35,0.94c0,0.31,0.12,0.55,0.35,0.72c0.23,0.18,0.56,0.27,0.98,0.27C85.18,76.91,85.52,76.82,85.8,76.63z"/>
		<path class="st2" d="M37.79,86.46c0.4,0.22,0.71,0.54,0.94,0.95c0.23,0.41,0.34,0.87,0.34,1.39c0,0.53-0.11,0.99-0.34,1.4
			c-0.23,0.41-0.54,0.72-0.93,0.95c-0.4,0.22-0.85,0.33-1.35,0.33c-0.43,0-0.81-0.09-1.15-0.26c-0.34-0.18-0.63-0.44-0.85-0.78v2.93
			h-0.71v-7.2h0.68v1.04c0.21-0.35,0.49-0.61,0.84-0.8c0.35-0.19,0.75-0.28,1.18-0.28C36.95,86.12,37.4,86.23,37.79,86.46z
			 M37.41,90.58c0.3-0.17,0.54-0.41,0.71-0.72s0.25-0.67,0.25-1.07c0-0.4-0.08-0.75-0.25-1.07c-0.17-0.31-0.41-0.55-0.71-0.72
			s-0.63-0.26-1-0.26c-0.37,0-0.71,0.09-1,0.26s-0.53,0.42-0.7,0.72c-0.17,0.31-0.25,0.67-0.25,1.07c0,0.4,0.08,0.76,0.25,1.07
			c0.17,0.31,0.4,0.55,0.7,0.72s0.63,0.25,1,0.25C36.77,90.84,37.11,90.75,37.41,90.58z"/>
		<path class="st2" d="M45.27,86.16v5.26h-0.68v-0.96c-0.19,0.32-0.44,0.57-0.77,0.75c-0.33,0.18-0.7,0.26-1.12,0.26
			c-0.69,0-1.23-0.19-1.63-0.58c-0.4-0.38-0.6-0.94-0.6-1.68v-3.05h0.71v2.98c0,0.55,0.14,0.97,0.41,1.26
			c0.27,0.29,0.66,0.43,1.17,0.43c0.55,0,0.99-0.17,1.31-0.5s0.48-0.81,0.48-1.41v-2.76H45.27z"/>
		<path class="st2" d="M51.83,89.01h-4.4c0.04,0.55,0.25,0.99,0.63,1.33c0.38,0.34,0.86,0.5,1.44,0.5c0.33,0,0.63-0.06,0.9-0.17
			c0.27-0.12,0.51-0.29,0.71-0.51l0.4,0.46c-0.23,0.28-0.53,0.49-0.88,0.64c-0.35,0.15-0.74,0.22-1.16,0.22
			c-0.54,0-1.02-0.12-1.43-0.34c-0.42-0.23-0.74-0.55-0.98-0.96s-0.35-0.87-0.35-1.38s0.11-0.97,0.34-1.38
			c0.22-0.41,0.53-0.72,0.92-0.95c0.39-0.23,0.83-0.34,1.31-0.34s0.92,0.11,1.31,0.34s0.69,0.54,0.91,0.95
			c0.22,0.4,0.33,0.86,0.33,1.38L51.83,89.01z M48.02,87.21c-0.34,0.32-0.54,0.75-0.58,1.26h3.73c-0.05-0.52-0.24-0.94-0.58-1.26
			s-0.77-0.49-1.29-0.49C48.79,86.73,48.36,86.89,48.02,87.21z"/>
		<path class="st2" d="M58.1,84v7.42h-0.68v-1.04c-0.21,0.35-0.5,0.62-0.84,0.81c-0.35,0.19-0.75,0.28-1.19,0.28
			c-0.49,0-0.94-0.11-1.34-0.34s-0.71-0.54-0.94-0.95c-0.23-0.41-0.34-0.87-0.34-1.39c0-0.52,0.11-0.98,0.34-1.39
			c0.23-0.41,0.54-0.72,0.94-0.95s0.85-0.33,1.34-0.33c0.43,0,0.81,0.09,1.16,0.26s0.63,0.44,0.84,0.78V84H58.1z M56.44,90.58
			c0.3-0.17,0.53-0.41,0.7-0.72s0.25-0.67,0.25-1.07c0-0.4-0.08-0.76-0.25-1.07s-0.4-0.55-0.7-0.72c-0.3-0.17-0.63-0.25-0.99-0.25
			c-0.37,0-0.71,0.08-1.01,0.25c-0.3,0.17-0.53,0.41-0.7,0.72s-0.25,0.67-0.25,1.07c0,0.4,0.08,0.76,0.25,1.07s0.4,0.55,0.7,0.72
			c0.3,0.17,0.63,0.25,1.01,0.25C55.81,90.84,56.14,90.75,56.44,90.58z"/>
		<path class="st2" d="M64.65,89.01h-4.4c0.04,0.55,0.25,0.99,0.63,1.33c0.38,0.34,0.86,0.5,1.44,0.5c0.33,0,0.63-0.06,0.9-0.17
			s0.51-0.29,0.71-0.51l0.4,0.46c-0.23,0.28-0.52,0.49-0.88,0.64s-0.74,0.22-1.16,0.22c-0.54,0-1.02-0.12-1.43-0.34
			c-0.42-0.23-0.74-0.55-0.98-0.96c-0.23-0.41-0.35-0.87-0.35-1.38s0.11-0.97,0.33-1.38c0.22-0.41,0.53-0.72,0.92-0.95
			s0.83-0.34,1.32-0.34s0.92,0.11,1.31,0.34s0.69,0.54,0.91,0.95s0.33,0.86,0.33,1.38L64.65,89.01z M60.84,87.21
			c-0.34,0.32-0.54,0.75-0.58,1.26h3.73c-0.05-0.52-0.24-0.94-0.58-1.26c-0.34-0.32-0.77-0.49-1.29-0.49
			C61.61,86.73,61.18,86.89,60.84,87.21z"/>
		<path class="st2" d="M65.81,91.31c-0.1-0.11-0.16-0.24-0.16-0.39s0.05-0.28,0.16-0.38c0.1-0.1,0.23-0.16,0.38-0.16
			c0.15,0,0.27,0.05,0.38,0.16c0.11,0.1,0.16,0.23,0.16,0.38s-0.05,0.28-0.16,0.39c-0.11,0.11-0.23,0.16-0.38,0.16
			C66.04,91.47,65.91,91.42,65.81,91.31z"/>
	</g>
</g>
</svg>
