<?xml version="1.0" encoding="utf-8"?>
<!-- Generator: Adobe Illustrator 23.0.5, SVG Export Plug-In . SVG Version: 6.00 Build 0)  -->
<svg version="1.1" id="Capa_1" xmlns="http://www.w3.org/2000/svg" xmlns:xlink="http://www.w3.org/1999/xlink" x="0px" y="0px"
	 viewBox="0 0 100 100" style="enable-background:new 0 0 100 100;" xml:space="preserve">
<style type="text/css">
	.st0{fill:#FFFFFF;}
	.st1{fill:#F6931E;}
	.st2{fill:#002C38;}
</style>
<g>
	<circle class="st0" cx="50" cy="50" r="49.5"/>
	<path class="st1" d="M50,1c27.02,0,49,21.98,49,49S77.02,99,50,99S1,77.02,1,50S22.98,1,50,1 M50,0C22.39,0,0,22.39,0,50
		s22.39,50,50,50s50-22.39,50-50S77.61,0,50,0L50,0z"/>
</g>
<g>
	<g>
		<path class="st2" d="M37.86,21.02c-0.56-0.31-0.99-0.73-1.31-1.27c-0.32-0.54-0.48-1.15-0.48-1.83c0-0.67,0.16-1.28,0.48-1.83
			c0.32-0.54,0.75-0.97,1.31-1.27s1.19-0.46,1.88-0.46c0.52,0,1,0.09,1.44,0.26c0.44,0.17,0.81,0.43,1.12,0.76l-0.47,0.47
			c-0.55-0.55-1.24-0.83-2.07-0.83c-0.55,0-1.06,0.13-1.51,0.38c-0.45,0.25-0.81,0.6-1.07,1.04c-0.26,0.44-0.38,0.93-0.38,1.48
			s0.13,1.04,0.38,1.48c0.26,0.44,0.61,0.79,1.07,1.04c0.45,0.25,0.96,0.38,1.51,0.38c0.84,0,1.53-0.28,2.07-0.84l0.47,0.47
			c-0.31,0.33-0.68,0.59-1.13,0.76s-0.92,0.26-1.44,0.26C39.04,21.48,38.42,21.33,37.86,21.02z"/>
		<path class="st2" d="M45.16,16.39c0.33-0.18,0.74-0.27,1.22-0.27v0.69l-0.17-0.01c-0.55,0-0.99,0.17-1.3,0.51
			c-0.31,0.34-0.47,0.82-0.47,1.43v2.68h-0.71v-5.26h0.68v1.03C44.58,16.84,44.83,16.57,45.16,16.39z"/>
		<path class="st2" d="M52.2,19.01h-4.4c0.04,0.55,0.25,0.99,0.63,1.33s0.86,0.5,1.44,0.5c0.33,0,0.63-0.06,0.9-0.17
			c0.27-0.12,0.51-0.29,0.71-0.51l0.4,0.46c-0.23,0.28-0.53,0.49-0.88,0.64s-0.73,0.22-1.15,0.22c-0.54,0-1.02-0.12-1.44-0.34
			c-0.42-0.23-0.74-0.55-0.97-0.96c-0.23-0.41-0.35-0.87-0.35-1.38s0.11-0.97,0.33-1.38c0.22-0.41,0.53-0.72,0.92-0.95
			c0.39-0.23,0.83-0.34,1.31-0.34c0.49,0,0.92,0.11,1.31,0.34s0.69,0.54,0.91,0.95s0.33,0.86,0.33,1.38L52.2,19.01z M48.38,17.21
			c-0.34,0.32-0.54,0.75-0.58,1.26h3.73c-0.05-0.52-0.24-0.94-0.59-1.26c-0.34-0.32-0.77-0.49-1.29-0.49
			C49.15,16.73,48.72,16.89,48.38,17.21z"/>
		<path class="st2" d="M56.93,16.63c0.37,0.34,0.55,0.85,0.55,1.53v3.26h-0.68V20.6c-0.16,0.27-0.39,0.49-0.71,0.64
			c-0.31,0.15-0.68,0.23-1.1,0.23c-0.59,0-1.05-0.14-1.4-0.42s-0.52-0.65-0.52-1.11c0-0.45,0.16-0.81,0.49-1.08
			c0.32-0.27,0.84-0.41,1.54-0.41h1.67v-0.32c0-0.45-0.13-0.8-0.38-1.04c-0.25-0.24-0.62-0.35-1.11-0.35
			c-0.33,0-0.65,0.05-0.96,0.17c-0.31,0.11-0.57,0.26-0.79,0.46l-0.32-0.53c0.27-0.23,0.59-0.4,0.96-0.53
			c0.37-0.12,0.77-0.18,1.18-0.18C56.03,16.12,56.56,16.29,56.93,16.63z M56.13,20.63c0.29-0.18,0.5-0.45,0.64-0.79v-0.86h-1.65
			c-0.9,0-1.35,0.31-1.35,0.94c0,0.31,0.12,0.55,0.35,0.72c0.23,0.18,0.56,0.27,0.98,0.27C55.5,20.91,55.84,20.82,56.13,20.63z"/>
		<path class="st2" d="M60.83,16.39c0.33-0.18,0.74-0.27,1.22-0.27v0.69l-0.17-0.01c-0.55,0-0.99,0.17-1.3,0.51
			c-0.31,0.34-0.47,0.82-0.47,1.43v2.68h-0.71v-5.26h0.68v1.03C60.25,16.84,60.5,16.57,60.83,16.39z"/>
		<path class="st2" d="M63.78,20.54c0.1,0.1,0.15,0.23,0.15,0.38c0,0.08-0.01,0.17-0.04,0.26c-0.02,0.09-0.06,0.2-0.1,0.32
			l-0.42,1.38h-0.48l0.34-1.45c-0.11-0.03-0.19-0.09-0.26-0.18s-0.1-0.2-0.1-0.33c0-0.15,0.05-0.28,0.15-0.38s0.23-0.16,0.38-0.16
			S63.67,20.43,63.78,20.54z"/>
		<path class="st2" d="M13.21,35.13c-0.41-0.23-0.73-0.55-0.96-0.96c-0.23-0.41-0.35-0.87-0.35-1.38s0.12-0.97,0.35-1.38
			c0.23-0.41,0.55-0.72,0.96-0.95c0.41-0.23,0.86-0.34,1.37-0.34c0.51,0,0.96,0.11,1.37,0.34s0.72,0.54,0.96,0.95
			c0.23,0.41,0.35,0.87,0.35,1.38s-0.12,0.97-0.35,1.38s-0.55,0.72-0.96,0.96c-0.41,0.23-0.86,0.34-1.37,0.34
			C14.07,35.47,13.61,35.35,13.21,35.13z M15.58,34.58c0.3-0.17,0.53-0.41,0.7-0.72s0.25-0.67,0.25-1.07c0-0.4-0.08-0.76-0.25-1.07
			s-0.4-0.55-0.7-0.72s-0.63-0.25-1-0.25c-0.37,0-0.71,0.08-1.01,0.25s-0.53,0.41-0.7,0.72s-0.26,0.67-0.26,1.07
			c0,0.4,0.09,0.76,0.26,1.07s0.4,0.55,0.7,0.72s0.63,0.25,1.01,0.25C14.95,34.84,15.28,34.75,15.58,34.58z"/>
		<path class="st2" d="M20.12,30.39c0.33-0.18,0.74-0.27,1.22-0.27v0.69l-0.17-0.01c-0.55,0-0.99,0.17-1.3,0.51
			c-0.31,0.34-0.47,0.82-0.47,1.43v2.68H18.7v-5.26h0.68v1.03C19.54,30.84,19.79,30.57,20.12,30.39z"/>
		<path class="st2" d="M27.45,30.16v4.62c0,0.89-0.22,1.55-0.65,1.98c-0.44,0.43-1.1,0.65-1.98,0.65c-0.49,0-0.95-0.07-1.38-0.21
			c-0.44-0.14-0.79-0.34-1.07-0.6l0.36-0.54c0.25,0.23,0.56,0.4,0.92,0.53s0.75,0.19,1.14,0.19c0.67,0,1.16-0.16,1.47-0.47
			c0.31-0.31,0.47-0.79,0.47-1.44V34.2c-0.22,0.33-0.51,0.59-0.86,0.76c-0.36,0.17-0.75,0.26-1.19,0.26c-0.49,0-0.94-0.11-1.35-0.33
			c-0.4-0.22-0.72-0.52-0.95-0.91c-0.23-0.39-0.35-0.83-0.35-1.33s0.12-0.93,0.35-1.32s0.54-0.69,0.95-0.9
			c0.4-0.21,0.85-0.32,1.35-0.32c0.45,0,0.85,0.09,1.21,0.27c0.36,0.18,0.65,0.44,0.87,0.78v-1.01H27.45z M25.79,34.34
			c0.31-0.16,0.54-0.39,0.71-0.68c0.17-0.29,0.26-0.63,0.26-1s-0.09-0.71-0.26-1s-0.41-0.52-0.71-0.68
			c-0.3-0.16-0.65-0.25-1.04-0.25c-0.38,0-0.72,0.08-1.03,0.24c-0.3,0.16-0.54,0.39-0.71,0.68c-0.17,0.29-0.25,0.63-0.25,1
			s0.08,0.71,0.25,1c0.17,0.29,0.41,0.52,0.71,0.68c0.3,0.16,0.64,0.25,1.03,0.25C25.13,34.59,25.48,34.51,25.79,34.34z"/>
		<path class="st2" d="M32.86,30.63c0.37,0.34,0.55,0.85,0.55,1.53v3.26h-0.68V34.6c-0.16,0.27-0.39,0.49-0.7,0.64
			s-0.68,0.23-1.1,0.23c-0.59,0-1.05-0.14-1.4-0.42C29.17,34.77,29,34.4,29,33.94c0-0.45,0.16-0.81,0.49-1.08
			c0.32-0.27,0.84-0.41,1.54-0.41h1.67v-0.32c0-0.45-0.13-0.8-0.38-1.04c-0.25-0.24-0.62-0.35-1.11-0.35
			c-0.33,0-0.65,0.05-0.96,0.17c-0.31,0.11-0.57,0.26-0.79,0.46l-0.32-0.53c0.27-0.23,0.59-0.4,0.96-0.53
			c0.37-0.12,0.77-0.18,1.18-0.18C31.96,30.12,32.49,30.29,32.86,30.63z M32.05,34.63c0.29-0.18,0.5-0.45,0.64-0.79v-0.86h-1.65
			c-0.9,0-1.35,0.31-1.35,0.94c0,0.31,0.12,0.55,0.35,0.72c0.23,0.18,0.56,0.27,0.98,0.27C31.43,34.91,31.77,34.82,32.05,34.63z"/>
		<path class="st2" d="M39.59,30.7c0.39,0.38,0.59,0.94,0.59,1.67v3.05h-0.71v-2.98c0-0.55-0.14-0.96-0.41-1.25
			c-0.27-0.29-0.66-0.43-1.17-0.43c-0.57,0-1.01,0.17-1.34,0.5c-0.33,0.34-0.5,0.8-0.5,1.4v2.76h-0.71v-5.26h0.68v0.97
			c0.19-0.32,0.46-0.57,0.8-0.75s0.74-0.26,1.2-0.26C38.68,30.12,39.2,30.31,39.59,30.7z"/>
		<path class="st2" d="M42.1,28.86c-0.1-0.1-0.15-0.22-0.15-0.36c0-0.13,0.05-0.25,0.15-0.35c0.1-0.1,0.22-0.15,0.37-0.15
			s0.27,0.05,0.37,0.14c0.1,0.1,0.15,0.21,0.15,0.35c0,0.15-0.05,0.27-0.15,0.37c-0.1,0.1-0.22,0.15-0.37,0.15
			S42.2,28.96,42.1,28.86z M42.11,30.16h0.71v5.26h-0.71V30.16z"/>
		<path class="st2" d="M48.51,34.83v0.59h-4.28v-0.47l3.31-4.19h-3.25v-0.6h4.16v0.47l-3.31,4.2H48.51z"/>
		<path class="st2" d="M53.33,30.63c0.37,0.34,0.55,0.85,0.55,1.53v3.26H53.2V34.6c-0.16,0.27-0.4,0.49-0.71,0.64
			c-0.31,0.15-0.68,0.23-1.11,0.23c-0.59,0-1.05-0.14-1.4-0.42c-0.35-0.28-0.52-0.65-0.52-1.11c0-0.45,0.16-0.81,0.49-1.08
			s0.84-0.41,1.54-0.41h1.67v-0.32c0-0.45-0.13-0.8-0.38-1.04c-0.25-0.24-0.62-0.35-1.11-0.35c-0.33,0-0.65,0.05-0.96,0.17
			c-0.31,0.11-0.57,0.26-0.79,0.46l-0.32-0.53c0.27-0.23,0.59-0.4,0.96-0.53c0.37-0.12,0.77-0.18,1.18-0.18
			C52.43,30.12,52.96,30.29,53.33,30.63z M52.53,34.63c0.29-0.18,0.5-0.45,0.64-0.79v-0.86h-1.65c-0.9,0-1.35,0.31-1.35,0.94
			c0,0.31,0.12,0.55,0.35,0.72c0.23,0.18,0.56,0.27,0.98,0.27C51.89,34.91,52.24,34.82,52.53,34.63z"/>
		<path class="st2" d="M57.23,30.39c0.33-0.18,0.74-0.27,1.22-0.27v0.69l-0.17-0.01c-0.55,0-0.99,0.17-1.3,0.51
			c-0.31,0.34-0.47,0.82-0.47,1.43v2.68H55.8v-5.26h0.68v1.03C56.65,30.84,56.9,30.57,57.23,30.39z"/>
		<path class="st2" d="M60.17,34.54c0.1,0.1,0.15,0.23,0.15,0.38c0,0.08-0.01,0.17-0.04,0.26c-0.02,0.09-0.06,0.2-0.1,0.32
			l-0.42,1.38h-0.48l0.34-1.45c-0.11-0.03-0.19-0.09-0.26-0.18c-0.07-0.09-0.1-0.2-0.1-0.33c0-0.15,0.05-0.28,0.15-0.38
			c0.1-0.1,0.23-0.16,0.38-0.16C59.95,34.38,60.07,34.43,60.17,34.54z"/>
		<path class="st2" d="M64.64,35.29c-0.39-0.12-0.69-0.28-0.92-0.46l0.32-0.56c0.22,0.17,0.5,0.32,0.83,0.42
			c0.33,0.11,0.68,0.17,1.04,0.17c0.48,0,0.83-0.07,1.07-0.22c0.23-0.15,0.34-0.36,0.34-0.63c0-0.19-0.06-0.35-0.19-0.46
			c-0.13-0.11-0.29-0.19-0.48-0.25s-0.45-0.11-0.77-0.17c-0.43-0.08-0.77-0.16-1.03-0.25c-0.26-0.08-0.48-0.22-0.67-0.42
			s-0.27-0.48-0.27-0.83c0-0.44,0.18-0.8,0.55-1.08s0.88-0.42,1.53-0.42c0.34,0,0.68,0.04,1.02,0.13c0.34,0.09,0.62,0.21,0.84,0.36
			l-0.31,0.57c-0.43-0.3-0.95-0.45-1.55-0.45c-0.45,0-0.79,0.08-1.02,0.24s-0.34,0.37-0.34,0.63c0,0.2,0.06,0.36,0.2,0.48
			c0.13,0.12,0.29,0.21,0.48,0.26s0.46,0.12,0.8,0.17c0.42,0.08,0.76,0.16,1.01,0.24c0.25,0.08,0.47,0.22,0.65,0.41
			c0.18,0.19,0.27,0.46,0.27,0.8c0,0.46-0.19,0.83-0.58,1.09c-0.38,0.27-0.92,0.41-1.59,0.41C65.44,35.47,65.03,35.41,64.64,35.29z"
			/>
		<path class="st2" d="M74.08,30.16v5.26H73.4v-0.96c-0.19,0.32-0.44,0.57-0.77,0.75s-0.7,0.26-1.12,0.26
			c-0.69,0-1.23-0.19-1.63-0.58c-0.4-0.38-0.6-0.94-0.6-1.68v-3.05H70v2.98c0,0.55,0.14,0.97,0.41,1.26
			c0.27,0.29,0.66,0.43,1.17,0.43c0.55,0,0.99-0.17,1.31-0.5c0.32-0.34,0.48-0.81,0.48-1.41v-2.76H74.08z"/>
		<path class="st2" d="M80.13,30.46c0.4,0.22,0.71,0.54,0.94,0.95c0.23,0.41,0.34,0.87,0.34,1.39c0,0.52-0.11,0.98-0.34,1.39
			c-0.23,0.41-0.54,0.72-0.94,0.95s-0.85,0.34-1.34,0.34c-0.44,0-0.83-0.09-1.19-0.28c-0.35-0.19-0.63-0.46-0.84-0.81v1.04h-0.68V28
			h0.71v3.16c0.22-0.34,0.5-0.6,0.84-0.78s0.73-0.26,1.16-0.26C79.28,30.12,79.72,30.23,80.13,30.46z M79.73,34.58
			c0.3-0.17,0.54-0.41,0.71-0.72s0.26-0.67,0.26-1.07c0-0.4-0.09-0.76-0.26-1.07s-0.4-0.55-0.71-0.72c-0.3-0.17-0.63-0.25-1-0.25
			c-0.37,0-0.71,0.08-1,0.25c-0.3,0.17-0.53,0.41-0.7,0.72c-0.17,0.31-0.25,0.67-0.25,1.07c0,0.4,0.08,0.76,0.25,1.07
			c0.17,0.31,0.4,0.55,0.7,0.72c0.3,0.17,0.63,0.25,1,0.25C79.1,34.84,79.44,34.75,79.73,34.58z"/>
		<path class="st2" d="M82.84,28.86c-0.1-0.1-0.15-0.22-0.15-0.36c0-0.13,0.05-0.25,0.15-0.35c0.1-0.1,0.22-0.15,0.37-0.15
			s0.27,0.05,0.37,0.14c0.1,0.1,0.15,0.21,0.15,0.35c0,0.15-0.05,0.27-0.15,0.37c-0.1,0.1-0.22,0.15-0.37,0.15
			S82.95,28.96,82.84,28.86z M82.86,30.16h0.71v5.26h-0.71V30.16z"/>
		<path class="st2" d="M86.97,30.39c0.33-0.18,0.74-0.27,1.23-0.27v0.69l-0.17-0.01c-0.55,0-0.99,0.17-1.3,0.51
			c-0.31,0.34-0.47,0.82-0.47,1.43v2.68h-0.71v-5.26h0.68v1.03C86.39,30.84,86.64,30.57,86.97,30.39z"/>
		<path class="st2" d="M3.8,49.13c-0.41-0.23-0.73-0.54-0.96-0.96c-0.23-0.41-0.35-0.87-0.35-1.38s0.12-0.97,0.35-1.38
			C3.07,45,3.4,44.69,3.8,44.46c0.41-0.23,0.88-0.34,1.4-0.34c0.45,0,0.86,0.09,1.21,0.26s0.64,0.44,0.84,0.78l-0.53,0.36
			c-0.17-0.26-0.39-0.46-0.66-0.58s-0.56-0.19-0.87-0.19c-0.38,0-0.72,0.08-1.02,0.25c-0.3,0.17-0.54,0.41-0.71,0.72
			s-0.25,0.67-0.25,1.07c0,0.41,0.08,0.76,0.25,1.08c0.17,0.31,0.41,0.55,0.71,0.72c0.3,0.17,0.64,0.25,1.02,0.25
			c0.31,0,0.6-0.06,0.87-0.19c0.27-0.13,0.49-0.32,0.66-0.58l0.53,0.36c-0.21,0.34-0.49,0.6-0.85,0.78
			c-0.36,0.18-0.76,0.26-1.21,0.26C4.68,49.47,4.21,49.36,3.8,49.13z"/>
		<path class="st2" d="M9.34,49.13c-0.41-0.23-0.73-0.55-0.96-0.96c-0.23-0.41-0.35-0.87-0.35-1.38s0.12-0.97,0.35-1.38
			c0.23-0.41,0.55-0.72,0.96-0.95c0.41-0.23,0.86-0.34,1.37-0.34c0.51,0,0.96,0.11,1.37,0.34s0.72,0.54,0.96,0.95
			c0.23,0.41,0.35,0.87,0.35,1.38s-0.12,0.97-0.35,1.38s-0.55,0.72-0.96,0.96c-0.41,0.23-0.86,0.34-1.37,0.34
			C10.2,49.47,9.75,49.35,9.34,49.13z M11.71,48.58c0.3-0.17,0.53-0.41,0.7-0.72s0.25-0.67,0.25-1.07c0-0.4-0.08-0.76-0.25-1.07
			s-0.4-0.55-0.7-0.72s-0.63-0.25-1-0.25c-0.37,0-0.71,0.08-1.01,0.25s-0.53,0.41-0.7,0.72s-0.26,0.67-0.26,1.07
			c0,0.4,0.09,0.76,0.26,1.07s0.4,0.55,0.7,0.72s0.63,0.25,1.01,0.25C11.08,48.84,11.42,48.75,11.71,48.58z"/>
		<path class="st2" d="M19.09,44.7c0.39,0.38,0.58,0.94,0.58,1.67v3.05h-0.71v-2.98c0-0.55-0.14-0.96-0.41-1.25
			c-0.27-0.29-0.66-0.43-1.17-0.43c-0.57,0-1.02,0.17-1.35,0.5c-0.33,0.34-0.49,0.8-0.49,1.4v2.76h-0.71v-5.26h0.68v0.97
			c0.19-0.32,0.46-0.57,0.81-0.75c0.34-0.18,0.74-0.26,1.19-0.26C18.17,44.12,18.7,44.31,19.09,44.7z"/>
		<path class="st2" d="M24.37,49.1c-0.13,0.12-0.3,0.21-0.5,0.28c-0.2,0.06-0.4,0.09-0.62,0.09c-0.49,0-0.87-0.13-1.14-0.4
			s-0.4-0.64-0.4-1.13v-3.18h-0.94v-0.6h0.94v-1.15h0.71v1.15h1.6v0.6h-1.6v3.14c0,0.31,0.08,0.55,0.24,0.71
			c0.16,0.16,0.38,0.25,0.67,0.25c0.15,0,0.29-0.02,0.43-0.07s0.25-0.11,0.35-0.2L24.37,49.1z"/>
		<path class="st2" d="M30.05,47.01h-4.4c0.04,0.55,0.25,0.99,0.63,1.33s0.86,0.5,1.44,0.5c0.33,0,0.63-0.06,0.9-0.17
			c0.27-0.12,0.51-0.29,0.71-0.51l0.4,0.46c-0.23,0.28-0.53,0.49-0.88,0.64s-0.73,0.22-1.15,0.22c-0.54,0-1.02-0.12-1.44-0.34
			c-0.42-0.23-0.74-0.55-0.97-0.96c-0.23-0.41-0.35-0.87-0.35-1.38s0.11-0.97,0.33-1.38c0.22-0.41,0.53-0.72,0.92-0.95
			c0.39-0.23,0.83-0.34,1.31-0.34c0.49,0,0.92,0.11,1.31,0.34s0.69,0.54,0.91,0.95s0.33,0.86,0.33,1.38L30.05,47.01z M26.24,45.21
			c-0.34,0.32-0.54,0.75-0.58,1.26h3.73c-0.05-0.52-0.24-0.94-0.59-1.26c-0.34-0.32-0.77-0.49-1.29-0.49
			C27,44.73,26.58,44.89,26.24,45.21z"/>
		<path class="st2" d="M35.77,44.7c0.39,0.38,0.58,0.94,0.58,1.67v3.05h-0.71v-2.98c0-0.55-0.14-0.96-0.41-1.25
			c-0.27-0.29-0.66-0.43-1.17-0.43c-0.57,0-1.02,0.17-1.35,0.5c-0.33,0.34-0.49,0.8-0.49,1.4v2.76h-0.71v-5.26h0.68v0.97
			c0.19-0.32,0.46-0.57,0.81-0.75c0.34-0.18,0.74-0.26,1.19-0.26C34.85,44.12,35.38,44.31,35.77,44.7z"/>
		<path class="st2" d="M38.27,42.86c-0.1-0.1-0.15-0.22-0.15-0.36c0-0.13,0.05-0.25,0.15-0.35c0.1-0.1,0.22-0.15,0.37-0.15
			s0.27,0.05,0.37,0.14c0.1,0.1,0.15,0.21,0.15,0.35c0,0.15-0.05,0.27-0.15,0.37c-0.1,0.1-0.22,0.15-0.37,0.15
			S38.37,42.96,38.27,42.86z M38.28,44.16h0.71v5.26h-0.71V44.16z"/>
		<path class="st2" d="M45.77,42v7.42h-0.68v-1.04c-0.21,0.35-0.49,0.62-0.84,0.81c-0.35,0.19-0.75,0.28-1.19,0.28
			c-0.49,0-0.94-0.11-1.34-0.34s-0.71-0.54-0.94-0.95c-0.23-0.41-0.34-0.87-0.34-1.39c0-0.52,0.11-0.98,0.34-1.39
			c0.23-0.41,0.54-0.72,0.94-0.95s0.85-0.33,1.34-0.33c0.43,0,0.81,0.09,1.15,0.26c0.34,0.18,0.63,0.44,0.85,0.78V42H45.77z
			 M44.12,48.58c0.3-0.17,0.53-0.41,0.7-0.72s0.25-0.67,0.25-1.07c0-0.4-0.08-0.76-0.25-1.07s-0.4-0.55-0.7-0.72
			s-0.63-0.25-0.99-0.25c-0.37,0-0.71,0.08-1.01,0.25s-0.53,0.41-0.7,0.72s-0.26,0.67-0.26,1.07c0,0.4,0.09,0.76,0.26,1.07
			s0.4,0.55,0.7,0.72s0.63,0.25,1.01,0.25C43.49,48.84,43.82,48.75,44.12,48.58z"/>
		<path class="st2" d="M48.53,49.13c-0.41-0.23-0.73-0.55-0.96-0.96s-0.35-0.87-0.35-1.38s0.12-0.97,0.35-1.38
			c0.23-0.41,0.55-0.72,0.96-0.95s0.86-0.34,1.37-0.34c0.51,0,0.96,0.11,1.37,0.34c0.41,0.23,0.73,0.54,0.96,0.95
			c0.23,0.41,0.35,0.87,0.35,1.38s-0.12,0.97-0.35,1.38c-0.23,0.41-0.55,0.72-0.96,0.96c-0.41,0.23-0.86,0.34-1.37,0.34
			C49.39,49.47,48.94,49.35,48.53,49.13z M50.91,48.58c0.3-0.17,0.53-0.41,0.69-0.72c0.17-0.31,0.25-0.67,0.25-1.07
			c0-0.4-0.08-0.76-0.25-1.07c-0.17-0.31-0.4-0.55-0.69-0.72c-0.3-0.17-0.63-0.25-1-0.25s-0.71,0.08-1.01,0.25
			c-0.3,0.17-0.53,0.41-0.7,0.72s-0.25,0.67-0.25,1.07c0,0.4,0.08,0.76,0.25,1.07s0.4,0.55,0.7,0.72c0.3,0.17,0.63,0.25,1.01,0.25
			S50.61,48.75,50.91,48.58z"/>
		<path class="st2" d="M54.21,49.29c-0.39-0.12-0.7-0.28-0.92-0.46l0.32-0.56c0.22,0.17,0.5,0.32,0.83,0.42
			c0.33,0.11,0.68,0.17,1.04,0.17c0.48,0,0.83-0.07,1.06-0.22c0.23-0.15,0.35-0.36,0.35-0.63c0-0.19-0.06-0.35-0.19-0.46
			c-0.13-0.11-0.29-0.19-0.48-0.25s-0.45-0.11-0.77-0.17c-0.43-0.08-0.77-0.16-1.03-0.25s-0.48-0.22-0.66-0.42
			c-0.18-0.2-0.28-0.48-0.28-0.83c0-0.44,0.18-0.8,0.55-1.08s0.88-0.42,1.53-0.42c0.34,0,0.68,0.04,1.02,0.13s0.62,0.21,0.84,0.36
			l-0.31,0.57c-0.43-0.3-0.95-0.45-1.55-0.45c-0.45,0-0.79,0.08-1.03,0.24s-0.34,0.37-0.34,0.63c0,0.2,0.07,0.36,0.19,0.48
			c0.13,0.12,0.29,0.21,0.49,0.26s0.46,0.12,0.8,0.17c0.42,0.08,0.76,0.16,1.01,0.24c0.25,0.08,0.47,0.22,0.65,0.41
			s0.27,0.46,0.27,0.8c0,0.46-0.19,0.83-0.57,1.09c-0.38,0.27-0.92,0.41-1.6,0.41C55,49.47,54.6,49.41,54.21,49.29z"/>
		<path class="st2" d="M65.58,44.46c0.4,0.22,0.71,0.54,0.94,0.95c0.23,0.41,0.34,0.87,0.34,1.39c0,0.53-0.11,0.99-0.34,1.4
			c-0.23,0.41-0.54,0.72-0.93,0.95c-0.4,0.22-0.85,0.33-1.35,0.33c-0.43,0-0.81-0.09-1.15-0.26c-0.34-0.18-0.63-0.44-0.85-0.78v2.93
			h-0.71v-7.2h0.68v1.04c0.21-0.35,0.49-0.61,0.84-0.8c0.35-0.19,0.75-0.28,1.18-0.28C64.73,44.12,65.18,44.23,65.58,44.46z
			 M65.19,48.58c0.3-0.17,0.54-0.41,0.71-0.72s0.25-0.67,0.25-1.07c0-0.4-0.08-0.75-0.25-1.07c-0.17-0.31-0.41-0.55-0.71-0.72
			s-0.63-0.26-1-0.26c-0.37,0-0.71,0.09-1,0.26s-0.53,0.42-0.7,0.72c-0.17,0.31-0.25,0.67-0.25,1.07c0,0.4,0.08,0.76,0.25,1.07
			c0.17,0.31,0.4,0.55,0.7,0.72s0.63,0.25,1,0.25C64.56,48.84,64.89,48.75,65.19,48.58z"/>
		<path class="st2" d="M69.74,44.39c0.33-0.18,0.74-0.27,1.23-0.27v0.69l-0.17-0.01c-0.55,0-0.99,0.17-1.3,0.51
			c-0.31,0.34-0.47,0.82-0.47,1.43v2.68h-0.71v-5.26h0.68v1.03C69.16,44.84,69.41,44.57,69.74,44.39z"/>
		<path class="st2" d="M72.97,49.13c-0.41-0.23-0.73-0.55-0.96-0.96c-0.23-0.41-0.35-0.87-0.35-1.38s0.12-0.97,0.35-1.38
			c0.23-0.41,0.55-0.72,0.96-0.95c0.41-0.23,0.86-0.34,1.37-0.34c0.51,0,0.96,0.11,1.37,0.34c0.41,0.23,0.73,0.54,0.96,0.95
			c0.23,0.41,0.34,0.87,0.34,1.38s-0.12,0.97-0.34,1.38s-0.55,0.72-0.96,0.96c-0.41,0.23-0.86,0.34-1.37,0.34
			C73.83,49.47,73.38,49.35,72.97,49.13z M75.35,48.58c0.3-0.17,0.53-0.41,0.69-0.72s0.25-0.67,0.25-1.07c0-0.4-0.08-0.76-0.25-1.07
			s-0.4-0.55-0.69-0.72c-0.3-0.17-0.63-0.25-1.01-0.25s-0.71,0.08-1,0.25c-0.3,0.17-0.53,0.41-0.7,0.72s-0.25,0.67-0.25,1.07
			c0,0.4,0.08,0.76,0.25,1.07s0.4,0.55,0.7,0.72c0.3,0.17,0.63,0.25,1,0.25S75.05,48.75,75.35,48.58z"/>
		<path class="st2" d="M83.33,44.16v4.62c0,0.89-0.22,1.55-0.65,1.98c-0.44,0.43-1.1,0.65-1.98,0.65c-0.49,0-0.95-0.07-1.38-0.21
			c-0.44-0.14-0.79-0.34-1.07-0.6l0.36-0.54c0.25,0.23,0.56,0.4,0.92,0.53s0.75,0.19,1.14,0.19c0.67,0,1.16-0.16,1.47-0.47
			c0.31-0.31,0.47-0.79,0.47-1.44V48.2c-0.22,0.33-0.51,0.59-0.86,0.76c-0.36,0.17-0.75,0.26-1.19,0.26c-0.49,0-0.94-0.11-1.35-0.33
			c-0.4-0.22-0.72-0.52-0.95-0.91c-0.23-0.39-0.35-0.83-0.35-1.33s0.12-0.93,0.35-1.32s0.54-0.69,0.95-0.9
			c0.4-0.21,0.85-0.32,1.35-0.32c0.45,0,0.85,0.09,1.21,0.27c0.36,0.18,0.65,0.44,0.87,0.78v-1.01H83.33z M81.67,48.34
			c0.31-0.16,0.54-0.39,0.71-0.68c0.17-0.29,0.26-0.63,0.26-1s-0.09-0.71-0.26-1s-0.41-0.52-0.71-0.68
			c-0.3-0.16-0.65-0.25-1.04-0.25c-0.38,0-0.72,0.08-1.03,0.24c-0.3,0.16-0.54,0.39-0.71,0.68c-0.17,0.29-0.25,0.63-0.25,1
			s0.08,0.71,0.25,1c0.17,0.29,0.41,0.52,0.71,0.68c0.3,0.16,0.64,0.25,1.03,0.25C81.02,48.59,81.36,48.51,81.67,48.34z"/>
		<path class="st2" d="M86.75,44.39c0.33-0.18,0.74-0.27,1.23-0.27v0.69L87.8,44.8c-0.55,0-0.99,0.17-1.3,0.51
			c-0.31,0.34-0.47,0.82-0.47,1.43v2.68h-0.71v-5.26H86v1.03C86.17,44.84,86.42,44.57,86.75,44.39z"/>
		<path class="st2" d="M92.66,44.63c0.37,0.34,0.55,0.85,0.55,1.53v3.26h-0.68V48.6c-0.16,0.27-0.39,0.49-0.7,0.64
			s-0.68,0.23-1.1,0.23c-0.59,0-1.05-0.14-1.4-0.42c-0.35-0.28-0.52-0.65-0.52-1.11c0-0.45,0.16-0.81,0.49-1.08
			c0.32-0.27,0.84-0.41,1.54-0.41h1.67v-0.32c0-0.45-0.13-0.8-0.38-1.04c-0.25-0.24-0.62-0.35-1.11-0.35
			c-0.33,0-0.65,0.05-0.96,0.17c-0.31,0.11-0.57,0.26-0.79,0.46l-0.32-0.53c0.27-0.23,0.59-0.4,0.96-0.53
			c0.37-0.12,0.77-0.18,1.18-0.18C91.77,44.12,92.29,44.29,92.66,44.63z M91.86,48.63c0.29-0.18,0.5-0.45,0.64-0.79v-0.86h-1.65
			c-0.9,0-1.35,0.31-1.35,0.94c0,0.31,0.12,0.55,0.35,0.72c0.23,0.18,0.56,0.27,0.98,0.27C91.23,48.91,91.57,48.82,91.86,48.63z"/>
		<path class="st2" d="M94.75,46.4h2.62v0.62h-2.62V46.4z"/>
		<path class="st2" d="M12.49,58.69c0.38,0.38,0.57,0.94,0.57,1.68v3.05h-0.71v-2.98c0-0.55-0.13-0.96-0.39-1.25
			c-0.26-0.29-0.63-0.43-1.12-0.43c-0.55,0-0.98,0.17-1.29,0.5c-0.31,0.34-0.47,0.8-0.47,1.4v2.76H8.37v-2.98
			c0-0.55-0.13-0.96-0.39-1.25c-0.26-0.29-0.64-0.43-1.13-0.43c-0.54,0-0.97,0.17-1.29,0.5c-0.32,0.34-0.47,0.8-0.47,1.4v2.76H4.38
			v-5.26h0.68v0.96c0.19-0.32,0.45-0.57,0.78-0.74c0.33-0.17,0.72-0.26,1.15-0.26c0.44,0,0.82,0.09,1.14,0.28
			c0.32,0.19,0.56,0.46,0.72,0.83c0.19-0.35,0.47-0.62,0.84-0.81c0.36-0.2,0.78-0.29,1.24-0.29C11.6,58.12,12.11,58.31,12.49,58.69z
			"/>
		<path class="st2" d="M18.41,58.63c0.37,0.34,0.55,0.85,0.55,1.53v3.26h-0.68V62.6c-0.16,0.27-0.39,0.49-0.71,0.64
			c-0.31,0.15-0.68,0.23-1.1,0.23c-0.59,0-1.05-0.14-1.4-0.42s-0.52-0.65-0.52-1.11c0-0.45,0.16-0.81,0.49-1.08
			c0.32-0.27,0.84-0.41,1.54-0.41h1.67v-0.32c0-0.45-0.13-0.8-0.38-1.04c-0.25-0.24-0.62-0.35-1.11-0.35
			c-0.33,0-0.65,0.05-0.96,0.17c-0.31,0.11-0.57,0.26-0.79,0.46l-0.32-0.53c0.27-0.23,0.59-0.4,0.96-0.53
			c0.37-0.12,0.77-0.18,1.18-0.18C17.51,58.12,18.04,58.29,18.41,58.63z M17.61,62.63c0.29-0.18,0.5-0.45,0.64-0.79v-0.86H16.6
			c-0.9,0-1.35,0.31-1.35,0.94c0,0.31,0.12,0.55,0.35,0.72c0.23,0.18,0.56,0.27,0.98,0.27C16.98,62.91,17.32,62.82,17.61,62.63z
			 M17.57,56.1h0.95l-1.62,1.24h-0.7L17.57,56.1z"/>
		<path class="st2" d="M23.66,63.1c-0.13,0.12-0.3,0.21-0.5,0.28c-0.2,0.06-0.4,0.09-0.62,0.09c-0.49,0-0.87-0.13-1.14-0.4
			s-0.4-0.64-0.4-1.13v-3.18h-0.94v-0.6h0.94v-1.15h0.71v1.15h1.6v0.6h-1.6v3.14c0,0.31,0.08,0.55,0.24,0.71
			c0.16,0.16,0.38,0.25,0.67,0.25c0.15,0,0.29-0.02,0.43-0.07s0.25-0.11,0.35-0.2L23.66,63.1z"/>
		<path class="st2" d="M24.94,56.86c-0.1-0.1-0.15-0.22-0.15-0.36c0-0.13,0.05-0.25,0.15-0.35c0.1-0.1,0.22-0.15,0.37-0.15
			c0.15,0,0.27,0.05,0.37,0.14c0.1,0.1,0.15,0.21,0.15,0.35c0,0.15-0.05,0.27-0.15,0.37c-0.1,0.1-0.22,0.15-0.37,0.15
			C25.16,57.01,25.04,56.96,24.94,56.86z M24.95,58.16h0.71v5.26h-0.71V58.16z"/>
		<path class="st2" d="M28.42,63.13c-0.41-0.23-0.73-0.54-0.96-0.96c-0.23-0.41-0.35-0.87-0.35-1.38s0.12-0.97,0.35-1.38
			c0.23-0.41,0.56-0.72,0.96-0.95c0.41-0.23,0.88-0.34,1.4-0.34c0.45,0,0.86,0.09,1.21,0.26s0.64,0.44,0.84,0.78l-0.53,0.36
			c-0.17-0.26-0.39-0.46-0.66-0.58s-0.56-0.19-0.87-0.19c-0.38,0-0.72,0.08-1.02,0.25c-0.3,0.17-0.54,0.41-0.71,0.72
			s-0.25,0.67-0.25,1.07c0,0.41,0.08,0.76,0.25,1.08c0.17,0.31,0.41,0.55,0.71,0.72c0.3,0.17,0.64,0.25,1.02,0.25
			c0.31,0,0.6-0.06,0.87-0.19c0.27-0.13,0.49-0.32,0.66-0.58l0.53,0.36c-0.21,0.34-0.49,0.6-0.85,0.78
			c-0.36,0.18-0.76,0.26-1.21,0.26C29.29,63.47,28.83,63.36,28.42,63.13z"/>
		<path class="st2" d="M33.96,63.13c-0.41-0.23-0.73-0.55-0.96-0.96c-0.23-0.41-0.35-0.87-0.35-1.38s0.12-0.97,0.35-1.38
			c0.23-0.41,0.55-0.72,0.96-0.95c0.41-0.23,0.86-0.34,1.37-0.34c0.51,0,0.96,0.11,1.37,0.34s0.72,0.54,0.96,0.95
			c0.23,0.41,0.35,0.87,0.35,1.38s-0.12,0.97-0.35,1.38s-0.55,0.72-0.96,0.96c-0.41,0.23-0.86,0.34-1.37,0.34
			C34.82,63.47,34.36,63.35,33.96,63.13z M36.33,62.58c0.3-0.17,0.53-0.41,0.7-0.72s0.25-0.67,0.25-1.07c0-0.4-0.08-0.76-0.25-1.07
			s-0.4-0.55-0.7-0.72s-0.63-0.25-1-0.25c-0.37,0-0.71,0.08-1.01,0.25s-0.53,0.41-0.7,0.72s-0.26,0.67-0.26,1.07
			c0,0.4,0.09,0.76,0.26,1.07s0.4,0.55,0.7,0.72s0.63,0.25,1.01,0.25C35.7,62.84,36.03,62.75,36.33,62.58z"/>
		<path class="st2" d="M39.63,63.29c-0.39-0.12-0.7-0.28-0.92-0.46l0.32-0.56c0.22,0.17,0.5,0.32,0.83,0.42
			c0.33,0.11,0.68,0.17,1.04,0.17c0.48,0,0.83-0.07,1.06-0.22s0.34-0.36,0.34-0.63c0-0.19-0.06-0.35-0.19-0.46
			c-0.13-0.11-0.29-0.19-0.48-0.25s-0.45-0.11-0.77-0.17c-0.43-0.08-0.77-0.16-1.03-0.25s-0.48-0.22-0.67-0.42
			c-0.18-0.2-0.27-0.48-0.27-0.83c0-0.44,0.18-0.8,0.55-1.08c0.37-0.28,0.88-0.42,1.53-0.42c0.34,0,0.68,0.04,1.02,0.13
			s0.62,0.21,0.84,0.36l-0.31,0.57c-0.43-0.3-0.95-0.45-1.55-0.45c-0.45,0-0.79,0.08-1.02,0.24c-0.23,0.16-0.35,0.37-0.35,0.63
			c0,0.2,0.07,0.36,0.2,0.48s0.29,0.21,0.48,0.26s0.46,0.12,0.8,0.17c0.42,0.08,0.76,0.16,1.01,0.24s0.47,0.22,0.65,0.41
			s0.27,0.46,0.27,0.8c0,0.46-0.19,0.83-0.57,1.09c-0.38,0.27-0.92,0.41-1.6,0.41C40.43,63.47,40.02,63.41,39.63,63.29z"/>
		<path class="st2" d="M44.8,62.54c0.1,0.1,0.15,0.23,0.15,0.38c0,0.08-0.01,0.17-0.04,0.26c-0.02,0.09-0.06,0.2-0.1,0.32
			l-0.42,1.38h-0.48l0.34-1.45c-0.11-0.03-0.19-0.09-0.26-0.18c-0.07-0.09-0.1-0.2-0.1-0.33c0-0.15,0.05-0.28,0.15-0.38
			c0.1-0.1,0.23-0.16,0.38-0.16C44.57,62.38,44.7,62.43,44.8,62.54z"/>
		<path class="st2" d="M53.13,58.46c0.4,0.22,0.71,0.54,0.94,0.95c0.23,0.41,0.34,0.87,0.34,1.39c0,0.53-0.11,0.99-0.34,1.4
			c-0.23,0.41-0.54,0.72-0.94,0.95c-0.4,0.22-0.84,0.33-1.34,0.33c-0.43,0-0.81-0.09-1.16-0.26s-0.63-0.44-0.84-0.78v2.93h-0.71
			v-7.2h0.68v1.04c0.21-0.35,0.5-0.61,0.85-0.8c0.35-0.19,0.74-0.28,1.18-0.28C52.28,58.12,52.73,58.23,53.13,58.46z M52.74,62.58
			c0.3-0.17,0.54-0.41,0.71-0.72s0.25-0.67,0.25-1.07c0-0.4-0.08-0.75-0.25-1.07c-0.17-0.31-0.41-0.55-0.71-0.72
			c-0.3-0.17-0.63-0.26-1-0.26c-0.37,0-0.71,0.09-1.01,0.26s-0.53,0.42-0.7,0.72c-0.17,0.31-0.26,0.67-0.26,1.07
			c0,0.4,0.09,0.76,0.26,1.07s0.4,0.55,0.7,0.72s0.63,0.25,1.01,0.25C52.1,62.84,52.44,62.75,52.74,62.58z"/>
		<path class="st2" d="M55.86,56h0.71v7.42h-0.71V56z"/>
		<path class="st2" d="M61.97,58.63c0.37,0.34,0.55,0.85,0.55,1.53v3.26h-0.68V62.6c-0.16,0.27-0.4,0.49-0.71,0.64
			c-0.31,0.15-0.68,0.23-1.11,0.23c-0.59,0-1.05-0.14-1.4-0.42c-0.35-0.28-0.52-0.65-0.52-1.11c0-0.45,0.16-0.81,0.49-1.08
			s0.84-0.41,1.54-0.41h1.67v-0.32c0-0.45-0.13-0.8-0.38-1.04c-0.25-0.24-0.62-0.35-1.11-0.35c-0.33,0-0.65,0.05-0.96,0.17
			c-0.31,0.11-0.57,0.26-0.79,0.46l-0.32-0.53c0.27-0.23,0.59-0.4,0.96-0.53c0.37-0.12,0.77-0.18,1.18-0.18
			C61.07,58.12,61.6,58.29,61.97,58.63z M61.17,62.63c0.29-0.18,0.5-0.45,0.64-0.79v-0.86h-1.65c-0.9,0-1.35,0.31-1.35,0.94
			c0,0.31,0.12,0.55,0.35,0.72c0.23,0.18,0.56,0.27,0.98,0.27C60.54,62.91,60.88,62.82,61.17,62.63z"/>
		<path class="st2" d="M68.7,58.7c0.39,0.38,0.58,0.94,0.58,1.67v3.05h-0.71v-2.98c0-0.55-0.14-0.96-0.41-1.25
			c-0.27-0.29-0.66-0.43-1.17-0.43c-0.57,0-1.02,0.17-1.35,0.5c-0.33,0.34-0.49,0.8-0.49,1.4v2.76h-0.71v-5.26h0.68v0.97
			c0.19-0.32,0.46-0.57,0.81-0.75c0.34-0.18,0.74-0.26,1.19-0.26C67.79,58.12,68.31,58.31,68.7,58.7z"/>
		<path class="st2" d="M75.82,61.01h-4.4c0.04,0.55,0.25,0.99,0.63,1.33c0.38,0.34,0.86,0.5,1.44,0.5c0.33,0,0.63-0.06,0.9-0.17
			c0.27-0.12,0.51-0.29,0.71-0.51l0.4,0.46c-0.23,0.28-0.53,0.49-0.88,0.64c-0.35,0.15-0.74,0.22-1.16,0.22
			c-0.54,0-1.02-0.12-1.43-0.34c-0.42-0.23-0.74-0.55-0.98-0.96s-0.35-0.87-0.35-1.38s0.11-0.97,0.34-1.38
			c0.22-0.41,0.53-0.72,0.92-0.95c0.39-0.23,0.83-0.34,1.31-0.34s0.92,0.11,1.31,0.34s0.69,0.54,0.91,0.95
			c0.22,0.4,0.33,0.86,0.33,1.38L75.82,61.01z M72,59.21c-0.34,0.32-0.54,0.75-0.58,1.26h3.73c-0.05-0.52-0.24-0.94-0.58-1.26
			s-0.77-0.49-1.29-0.49C72.77,58.73,72.34,58.89,72,59.21z"/>
		<path class="st2" d="M77.46,63.29c-0.39-0.12-0.7-0.28-0.92-0.46l0.32-0.56c0.22,0.17,0.5,0.32,0.83,0.42
			c0.33,0.11,0.68,0.17,1.04,0.17c0.48,0,0.83-0.07,1.06-0.22s0.34-0.36,0.34-0.63c0-0.19-0.06-0.35-0.19-0.46
			c-0.13-0.11-0.29-0.19-0.48-0.25s-0.45-0.11-0.77-0.17c-0.43-0.08-0.77-0.16-1.03-0.25s-0.48-0.22-0.67-0.42
			c-0.18-0.2-0.27-0.48-0.27-0.83c0-0.44,0.18-0.8,0.55-1.08c0.37-0.28,0.88-0.42,1.53-0.42c0.34,0,0.68,0.04,1.02,0.13
			s0.62,0.21,0.84,0.36l-0.31,0.57c-0.43-0.3-0.95-0.45-1.55-0.45c-0.45,0-0.79,0.08-1.02,0.24c-0.23,0.16-0.35,0.37-0.35,0.63
			c0,0.2,0.07,0.36,0.2,0.48s0.29,0.21,0.48,0.26s0.46,0.12,0.8,0.17c0.42,0.08,0.76,0.16,1.01,0.24s0.47,0.22,0.65,0.41
			s0.27,0.46,0.27,0.8c0,0.46-0.19,0.83-0.57,1.09c-0.38,0.27-0.92,0.41-1.6,0.41C78.26,63.47,77.85,63.41,77.46,63.29z"/>
		<path class="st2" d="M89.59,56v7.42h-0.68v-1.04c-0.21,0.35-0.5,0.62-0.85,0.81c-0.35,0.19-0.74,0.28-1.18,0.28
			c-0.49,0-0.94-0.11-1.34-0.34c-0.4-0.23-0.71-0.54-0.94-0.95c-0.23-0.41-0.34-0.87-0.34-1.39c0-0.52,0.11-0.98,0.34-1.39
			c0.23-0.41,0.54-0.72,0.94-0.95c0.4-0.22,0.85-0.33,1.34-0.33c0.43,0,0.81,0.09,1.16,0.26c0.34,0.18,0.63,0.44,0.84,0.78V56H89.59
			z M87.93,62.58c0.3-0.17,0.53-0.41,0.7-0.72s0.25-0.67,0.25-1.07c0-0.4-0.08-0.76-0.25-1.07s-0.4-0.55-0.7-0.72
			c-0.3-0.17-0.63-0.25-1-0.25c-0.37,0-0.71,0.08-1,0.25c-0.3,0.17-0.53,0.41-0.7,0.72s-0.25,0.67-0.25,1.07
			c0,0.4,0.08,0.76,0.25,1.07s0.4,0.55,0.7,0.72c0.3,0.17,0.63,0.25,1,0.25C87.3,62.84,87.63,62.75,87.93,62.58z"/>
		<path class="st2" d="M96.15,61.01h-4.4c0.04,0.55,0.25,0.99,0.63,1.33c0.38,0.34,0.86,0.5,1.44,0.5c0.33,0,0.63-0.06,0.9-0.17
			c0.27-0.12,0.51-0.29,0.71-0.51l0.4,0.46c-0.23,0.28-0.53,0.49-0.88,0.64c-0.35,0.15-0.74,0.22-1.16,0.22
			c-0.54,0-1.02-0.12-1.43-0.34c-0.42-0.23-0.74-0.55-0.98-0.96s-0.35-0.87-0.35-1.38s0.11-0.97,0.34-1.38
			c0.22-0.41,0.53-0.72,0.92-0.95c0.39-0.23,0.83-0.34,1.31-0.34s0.92,0.11,1.31,0.34s0.69,0.54,0.91,0.95
			c0.22,0.4,0.33,0.86,0.33,1.38L96.15,61.01z M92.33,59.21c-0.34,0.32-0.54,0.75-0.58,1.26h3.73c-0.05-0.52-0.24-0.94-0.58-1.26
			s-0.77-0.49-1.29-0.49C93.1,58.73,92.67,58.89,92.33,59.21z"/>
		<path class="st2" d="M25.62,75.01h-4.4c0.04,0.55,0.25,0.99,0.63,1.33c0.38,0.34,0.86,0.5,1.44,0.5c0.33,0,0.63-0.06,0.9-0.17
			s0.51-0.29,0.71-0.51l0.4,0.46c-0.23,0.28-0.52,0.49-0.88,0.64c-0.35,0.15-0.73,0.22-1.15,0.22c-0.54,0-1.02-0.12-1.44-0.34
			c-0.42-0.23-0.74-0.55-0.97-0.96s-0.35-0.87-0.35-1.38s0.11-0.97,0.33-1.38c0.22-0.41,0.53-0.72,0.92-0.95
			c0.39-0.23,0.83-0.34,1.32-0.34c0.49,0,0.92,0.11,1.31,0.34s0.69,0.54,0.91,0.95c0.22,0.4,0.33,0.86,0.33,1.38L25.62,75.01z
			 M21.8,73.21c-0.34,0.32-0.54,0.75-0.59,1.26h3.73c-0.05-0.52-0.24-0.94-0.58-1.26s-0.77-0.49-1.29-0.49
			C22.57,72.73,22.14,72.89,21.8,73.21z"/>
		<path class="st2" d="M27.26,77.29c-0.39-0.12-0.69-0.28-0.91-0.46l0.32-0.56c0.22,0.17,0.5,0.32,0.83,0.42
			c0.33,0.11,0.68,0.17,1.04,0.17c0.48,0,0.84-0.07,1.07-0.22s0.34-0.36,0.34-0.63c0-0.19-0.06-0.35-0.19-0.46
			c-0.13-0.11-0.29-0.19-0.48-0.25s-0.45-0.11-0.77-0.17c-0.43-0.08-0.77-0.16-1.03-0.25c-0.26-0.08-0.48-0.22-0.67-0.42
			s-0.28-0.48-0.28-0.83c0-0.44,0.18-0.8,0.55-1.08c0.37-0.28,0.88-0.42,1.53-0.42c0.34,0,0.68,0.04,1.02,0.13
			c0.34,0.09,0.62,0.21,0.84,0.36l-0.31,0.57c-0.43-0.3-0.95-0.45-1.55-0.45c-0.45,0-0.79,0.08-1.03,0.24
			c-0.23,0.16-0.34,0.37-0.34,0.63c0,0.2,0.06,0.36,0.19,0.48s0.29,0.21,0.49,0.26s0.46,0.12,0.8,0.17
			c0.42,0.08,0.76,0.16,1.01,0.24s0.47,0.22,0.65,0.41c0.18,0.19,0.27,0.46,0.27,0.8c0,0.46-0.19,0.83-0.58,1.09
			c-0.38,0.27-0.91,0.41-1.59,0.41C28.06,77.47,27.65,77.41,27.26,77.29z"/>
		<path class="st2" d="M34.74,77.1c-0.13,0.12-0.3,0.21-0.5,0.28c-0.2,0.06-0.4,0.09-0.62,0.09c-0.49,0-0.87-0.13-1.14-0.4
			s-0.4-0.64-0.4-1.13v-3.18h-0.94v-0.6h0.94v-1.15h0.71v1.15h1.6v0.6h-1.6v3.14c0,0.31,0.08,0.55,0.24,0.71
			c0.16,0.16,0.38,0.25,0.67,0.25c0.15,0,0.29-0.02,0.43-0.07s0.25-0.11,0.35-0.2L34.74,77.1z"/>
		<path class="st2" d="M40.77,72.16v5.26h-0.68v-0.96c-0.19,0.32-0.44,0.57-0.77,0.75s-0.7,0.26-1.12,0.26
			c-0.69,0-1.23-0.19-1.63-0.58c-0.4-0.38-0.59-0.94-0.59-1.68v-3.05h0.71v2.98c0,0.55,0.14,0.97,0.41,1.26
			c0.27,0.29,0.66,0.43,1.17,0.43c0.55,0,0.99-0.17,1.31-0.5c0.32-0.34,0.48-0.81,0.48-1.41v-2.76H40.77z"/>
		<path class="st2" d="M47.56,70v7.42h-0.68v-1.04c-0.21,0.35-0.49,0.62-0.84,0.81c-0.35,0.19-0.75,0.28-1.19,0.28
			c-0.49,0-0.94-0.11-1.34-0.34s-0.71-0.54-0.94-0.95c-0.23-0.41-0.34-0.87-0.34-1.39c0-0.52,0.11-0.98,0.34-1.39
			c0.23-0.41,0.54-0.72,0.94-0.95s0.85-0.33,1.34-0.33c0.43,0,0.81,0.09,1.15,0.26c0.34,0.18,0.63,0.44,0.85,0.78V70H47.56z
			 M45.9,76.58c0.3-0.17,0.53-0.41,0.7-0.72s0.25-0.67,0.25-1.07c0-0.4-0.08-0.76-0.25-1.07s-0.4-0.55-0.7-0.72
			s-0.63-0.25-0.99-0.25c-0.37,0-0.71,0.08-1.01,0.25s-0.53,0.41-0.7,0.72s-0.26,0.67-0.26,1.07c0,0.4,0.09,0.76,0.26,1.07
			s0.4,0.55,0.7,0.72s0.63,0.25,1.01,0.25C45.27,76.84,45.6,76.75,45.9,76.58z"/>
		<path class="st2" d="M49.53,70.86c-0.1-0.1-0.15-0.22-0.15-0.36c0-0.13,0.05-0.25,0.15-0.35c0.1-0.1,0.22-0.15,0.37-0.15
			c0.15,0,0.27,0.05,0.37,0.14c0.1,0.1,0.15,0.21,0.15,0.35c0,0.15-0.05,0.27-0.15,0.37c-0.1,0.1-0.22,0.15-0.37,0.15
			C49.75,71.01,49.63,70.96,49.53,70.86z M49.54,72.16h0.71v5.26h-0.71V72.16z"/>
		<path class="st2" d="M53.01,77.13c-0.41-0.23-0.73-0.55-0.96-0.96c-0.23-0.41-0.35-0.87-0.35-1.38s0.12-0.97,0.35-1.38
			c0.23-0.41,0.55-0.72,0.96-0.95c0.41-0.23,0.86-0.34,1.37-0.34c0.51,0,0.96,0.11,1.37,0.34c0.41,0.23,0.73,0.54,0.96,0.95
			c0.23,0.41,0.34,0.87,0.34,1.38s-0.12,0.97-0.34,1.38s-0.55,0.72-0.96,0.96c-0.41,0.23-0.86,0.34-1.37,0.34
			C53.87,77.47,53.41,77.35,53.01,77.13z M55.38,76.58c0.3-0.17,0.53-0.41,0.69-0.72s0.25-0.67,0.25-1.07c0-0.4-0.08-0.76-0.25-1.07
			s-0.4-0.55-0.69-0.72c-0.3-0.17-0.63-0.25-1.01-0.25s-0.71,0.08-1,0.25c-0.3,0.17-0.53,0.41-0.7,0.72s-0.25,0.67-0.25,1.07
			c0,0.4,0.08,0.76,0.25,1.07s0.4,0.55,0.7,0.72c0.3,0.17,0.63,0.25,1,0.25S55.08,76.75,55.38,76.58z"/>
		<path class="st2" d="M58.81,76.54c0.1,0.1,0.15,0.23,0.15,0.38c0,0.08-0.01,0.17-0.04,0.26c-0.02,0.09-0.06,0.2-0.1,0.32
			l-0.42,1.38h-0.48l0.34-1.45c-0.11-0.03-0.19-0.09-0.26-0.18c-0.07-0.09-0.1-0.2-0.1-0.33c0-0.15,0.05-0.28,0.15-0.38
			c0.1-0.1,0.23-0.16,0.38-0.16C58.58,76.38,58.71,76.43,58.81,76.54z"/>
		<path class="st2" d="M67.67,75.01h-4.4c0.04,0.55,0.25,0.99,0.63,1.33s0.86,0.5,1.44,0.5c0.33,0,0.63-0.06,0.9-0.17
			c0.27-0.12,0.51-0.29,0.71-0.51l0.4,0.46c-0.23,0.28-0.53,0.49-0.88,0.64s-0.73,0.22-1.15,0.22c-0.54,0-1.02-0.12-1.44-0.34
			c-0.42-0.23-0.74-0.55-0.97-0.96c-0.23-0.41-0.35-0.87-0.35-1.38s0.11-0.97,0.33-1.38c0.22-0.41,0.53-0.72,0.92-0.95
			c0.39-0.23,0.83-0.34,1.31-0.34c0.49,0,0.92,0.11,1.31,0.34s0.69,0.54,0.91,0.95s0.33,0.86,0.33,1.38L67.67,75.01z M63.85,73.21
			c-0.34,0.32-0.54,0.75-0.58,1.26H67c-0.05-0.52-0.24-0.94-0.59-1.26c-0.34-0.32-0.77-0.49-1.29-0.49
			C64.62,72.73,64.19,72.89,63.85,73.21z"/>
		<path class="st2" d="M71.9,77.1c-0.13,0.12-0.3,0.21-0.5,0.28c-0.2,0.06-0.4,0.09-0.62,0.09c-0.49,0-0.87-0.13-1.14-0.4
			s-0.4-0.64-0.4-1.13v-3.18h-0.94v-0.6h0.94v-1.15h0.71v1.15h1.6v0.6h-1.6v3.14c0,0.31,0.08,0.55,0.24,0.71
			c0.16,0.16,0.38,0.25,0.67,0.25c0.15,0,0.29-0.02,0.43-0.07s0.25-0.11,0.35-0.2L71.9,77.1z"/>
		<path class="st2" d="M73.78,77.13c-0.41-0.23-0.73-0.54-0.96-0.96c-0.23-0.41-0.35-0.87-0.35-1.38s0.12-0.97,0.35-1.38
			c0.23-0.41,0.55-0.72,0.96-0.95s0.88-0.34,1.39-0.34c0.45,0,0.86,0.09,1.21,0.26c0.36,0.18,0.64,0.44,0.85,0.78l-0.53,0.36
			c-0.17-0.26-0.39-0.46-0.66-0.58s-0.56-0.19-0.87-0.19c-0.38,0-0.72,0.08-1.03,0.25c-0.3,0.17-0.54,0.41-0.71,0.72
			s-0.26,0.67-0.26,1.07c0,0.41,0.09,0.76,0.26,1.08c0.17,0.31,0.41,0.55,0.71,0.72c0.3,0.17,0.65,0.25,1.03,0.25
			c0.31,0,0.6-0.06,0.87-0.19c0.27-0.13,0.49-0.32,0.66-0.58l0.53,0.36c-0.21,0.34-0.49,0.6-0.85,0.78s-0.76,0.26-1.21,0.26
			C74.66,77.47,74.19,77.36,73.78,77.13z"/>
		<path class="st2" d="M78.52,77.31c-0.1-0.11-0.16-0.24-0.16-0.39s0.05-0.28,0.16-0.38c0.1-0.1,0.23-0.16,0.38-0.16
			c0.15,0,0.27,0.05,0.38,0.16s0.16,0.23,0.16,0.38s-0.05,0.28-0.16,0.39c-0.11,0.11-0.23,0.16-0.38,0.16
			C78.75,77.47,78.62,77.42,78.52,77.31z"/>
	</g>
</g>
</svg>
