<?xml version="1.0" encoding="utf-8"?>
<!-- Generator: Adobe Illustrator 23.0.5, SVG Export Plug-In . SVG Version: 6.00 Build 0)  -->
<svg version="1.1" id="Capa_1" xmlns="http://www.w3.org/2000/svg" xmlns:xlink="http://www.w3.org/1999/xlink" x="0px" y="0px"
	 viewBox="0 0 100 100" style="enable-background:new 0 0 100 100;" xml:space="preserve">
<style type="text/css">
	.st0{fill:#FFFFFF;}
	.st1{fill:#F6931E;}
	.st2{fill:#002C38;}
</style>
<g>
	<circle class="st0" cx="50" cy="50" r="49.5"/>
	<path class="st1" d="M50,1c27.02,0,49,21.98,49,49S77.02,99,50,99S1,77.02,1,50S22.98,1,50,1 M50,0C22.39,0,0,22.39,0,50
		s22.39,50,50,50s50-22.39,50-50S77.61,0,50,0L50,0z"/>
</g>
<g>
	<g>
		<path class="st2" d="M33.89,17.92h0.71v2.67c-0.33,0.29-0.71,0.51-1.16,0.66c-0.45,0.15-0.92,0.23-1.41,0.23
			c-0.7,0-1.33-0.15-1.89-0.46c-0.56-0.31-1-0.73-1.32-1.27c-0.32-0.54-0.48-1.15-0.48-1.83c0-0.67,0.16-1.28,0.48-1.83
			c0.32-0.54,0.76-0.97,1.32-1.27c0.56-0.31,1.19-0.46,1.9-0.46c0.53,0,1.02,0.08,1.47,0.25c0.45,0.17,0.82,0.42,1.13,0.75
			l-0.46,0.47c-0.55-0.55-1.26-0.82-2.11-0.82c-0.57,0-1.08,0.13-1.54,0.38s-0.82,0.6-1.08,1.04s-0.39,0.94-0.39,1.49
			s0.13,1.04,0.39,1.48c0.26,0.44,0.62,0.79,1.07,1.04c0.45,0.25,0.96,0.38,1.53,0.38c0.72,0,1.33-0.18,1.83-0.54V17.92z"/>
		<path class="st2" d="M41.13,19.01h-4.4c0.04,0.55,0.25,0.99,0.63,1.33c0.38,0.34,0.86,0.5,1.44,0.5c0.33,0,0.63-0.06,0.9-0.17
			s0.51-0.29,0.71-0.51l0.4,0.46c-0.23,0.28-0.52,0.49-0.88,0.64c-0.35,0.15-0.73,0.22-1.15,0.22c-0.54,0-1.02-0.12-1.44-0.34
			c-0.42-0.23-0.74-0.55-0.97-0.96s-0.35-0.87-0.35-1.38s0.11-0.97,0.33-1.38c0.22-0.41,0.53-0.72,0.92-0.95
			c0.39-0.23,0.83-0.34,1.32-0.34c0.49,0,0.92,0.11,1.31,0.34s0.69,0.54,0.91,0.95c0.22,0.4,0.33,0.86,0.33,1.38L41.13,19.01z
			 M37.31,17.21c-0.34,0.32-0.54,0.75-0.59,1.26h3.73c-0.05-0.52-0.24-0.94-0.58-1.26s-0.77-0.49-1.29-0.49
			C38.08,16.73,37.65,16.89,37.31,17.21z"/>
		<path class="st2" d="M42.77,21.29c-0.39-0.12-0.69-0.28-0.91-0.46l0.32-0.56c0.22,0.17,0.5,0.32,0.83,0.42
			c0.33,0.11,0.68,0.17,1.04,0.17c0.48,0,0.84-0.07,1.07-0.22s0.34-0.36,0.34-0.63c0-0.19-0.06-0.35-0.19-0.46
			c-0.13-0.11-0.29-0.19-0.48-0.25s-0.45-0.11-0.77-0.17c-0.43-0.08-0.77-0.16-1.03-0.25c-0.26-0.08-0.48-0.22-0.67-0.42
			s-0.28-0.48-0.28-0.83c0-0.44,0.18-0.8,0.55-1.08c0.37-0.28,0.88-0.42,1.53-0.42c0.34,0,0.68,0.04,1.02,0.13
			c0.34,0.09,0.62,0.21,0.84,0.36l-0.31,0.57c-0.43-0.3-0.95-0.45-1.55-0.45c-0.45,0-0.79,0.08-1.03,0.24
			c-0.23,0.16-0.34,0.37-0.34,0.63c0,0.2,0.06,0.36,0.19,0.48s0.29,0.21,0.49,0.26s0.46,0.12,0.8,0.17
			c0.42,0.08,0.76,0.16,1.01,0.24s0.47,0.22,0.65,0.41c0.18,0.19,0.27,0.46,0.27,0.8c0,0.46-0.19,0.83-0.58,1.09
			c-0.38,0.27-0.91,0.41-1.59,0.41C43.57,21.47,43.16,21.41,42.77,21.29z"/>
		<path class="st2" d="M50.25,21.1c-0.13,0.12-0.3,0.21-0.5,0.28c-0.2,0.06-0.4,0.09-0.62,0.09c-0.49,0-0.87-0.13-1.14-0.4
			s-0.4-0.64-0.4-1.13v-3.18h-0.94v-0.6h0.94v-1.15h0.71v1.15h1.6v0.6h-1.6v3.14c0,0.31,0.08,0.55,0.24,0.71
			c0.16,0.16,0.38,0.25,0.67,0.25c0.15,0,0.29-0.02,0.43-0.07s0.25-0.11,0.35-0.2L50.25,21.1z"/>
		<path class="st2" d="M51.53,14.86c-0.1-0.1-0.15-0.22-0.15-0.36c0-0.13,0.05-0.25,0.15-0.35c0.1-0.1,0.22-0.15,0.37-0.15
			c0.15,0,0.27,0.05,0.37,0.14c0.1,0.1,0.15,0.21,0.15,0.35c0,0.15-0.05,0.27-0.15,0.37c-0.1,0.1-0.22,0.15-0.37,0.15
			C51.75,15.01,51.63,14.96,51.53,14.86z M51.54,16.16h0.71v5.26h-0.71V16.16z"/>
		<path class="st2" d="M55.01,21.13c-0.41-0.23-0.73-0.55-0.96-0.96c-0.23-0.41-0.35-0.87-0.35-1.38s0.12-0.97,0.35-1.38
			c0.23-0.41,0.55-0.72,0.96-0.95c0.41-0.23,0.86-0.34,1.37-0.34c0.51,0,0.96,0.11,1.37,0.34c0.41,0.23,0.73,0.54,0.96,0.95
			c0.23,0.41,0.34,0.87,0.34,1.38s-0.12,0.97-0.34,1.38s-0.55,0.72-0.96,0.96c-0.41,0.23-0.86,0.34-1.37,0.34
			C55.87,21.47,55.41,21.35,55.01,21.13z M57.38,20.58c0.3-0.17,0.53-0.41,0.69-0.72s0.25-0.67,0.25-1.07c0-0.4-0.08-0.76-0.25-1.07
			s-0.4-0.55-0.69-0.72c-0.3-0.17-0.63-0.25-1.01-0.25s-0.71,0.08-1,0.25c-0.3,0.17-0.53,0.41-0.7,0.72s-0.25,0.67-0.25,1.07
			c0,0.4,0.08,0.76,0.25,1.07s0.4,0.55,0.7,0.72c0.3,0.17,0.63,0.25,1,0.25S57.08,20.75,57.38,20.58z"/>
		<path class="st2" d="M64.75,16.7c0.39,0.38,0.59,0.94,0.59,1.67v3.05h-0.71v-2.98c0-0.55-0.14-0.96-0.41-1.25
			c-0.27-0.29-0.66-0.43-1.17-0.43c-0.57,0-1.01,0.17-1.34,0.5c-0.33,0.34-0.5,0.8-0.5,1.4v2.76H60.5v-5.26h0.68v0.97
			c0.19-0.32,0.46-0.57,0.8-0.75s0.74-0.26,1.2-0.26C63.84,16.12,64.36,16.31,64.75,16.7z"/>
		<path class="st2" d="M70.69,16.63c0.37,0.34,0.55,0.85,0.55,1.53v3.26h-0.68V20.6c-0.16,0.27-0.39,0.49-0.7,0.64
			s-0.68,0.23-1.1,0.23c-0.59,0-1.05-0.14-1.4-0.42c-0.35-0.28-0.52-0.65-0.52-1.11c0-0.45,0.16-0.81,0.49-1.08
			c0.32-0.27,0.84-0.41,1.54-0.41h1.67v-0.32c0-0.45-0.13-0.8-0.38-1.04c-0.25-0.24-0.62-0.35-1.11-0.35
			c-0.33,0-0.65,0.05-0.96,0.17c-0.31,0.11-0.57,0.26-0.79,0.46l-0.32-0.53c0.27-0.23,0.59-0.4,0.96-0.53
			c0.37-0.12,0.77-0.18,1.18-0.18C69.79,16.12,70.32,16.29,70.69,16.63z M69.88,20.63c0.29-0.18,0.5-0.45,0.64-0.79v-0.86h-1.65
			c-0.9,0-1.35,0.31-1.35,0.94c0,0.31,0.12,0.55,0.35,0.72c0.23,0.18,0.56,0.27,0.98,0.27C69.26,20.91,69.6,20.82,69.88,20.63z"/>
		<path class="st2" d="M22.61,35.1c-0.13,0.12-0.3,0.21-0.49,0.28c-0.2,0.06-0.4,0.09-0.62,0.09c-0.49,0-0.87-0.13-1.14-0.4
			c-0.27-0.27-0.4-0.64-0.4-1.13v-3.18h-0.94v-0.6h0.94v-1.15h0.71v1.15h1.6v0.6h-1.6v3.14c0,0.31,0.08,0.55,0.24,0.71
			c0.16,0.16,0.38,0.25,0.67,0.25c0.15,0,0.29-0.02,0.42-0.07s0.25-0.11,0.35-0.2L22.61,35.1z"/>
		<path class="st2" d="M24.49,35.13c-0.41-0.23-0.73-0.55-0.96-0.96s-0.35-0.87-0.35-1.38s0.12-0.97,0.35-1.38
			c0.23-0.41,0.55-0.72,0.96-0.95s0.86-0.34,1.37-0.34s0.96,0.11,1.37,0.34s0.72,0.54,0.96,0.95c0.23,0.41,0.34,0.87,0.34,1.38
			s-0.12,0.97-0.34,1.38c-0.23,0.41-0.55,0.72-0.96,0.96c-0.41,0.23-0.86,0.34-1.37,0.34S24.9,35.35,24.49,35.13z M26.87,34.58
			c0.3-0.17,0.53-0.41,0.7-0.72c0.17-0.31,0.25-0.67,0.25-1.07c0-0.4-0.08-0.76-0.25-1.07c-0.17-0.31-0.4-0.55-0.7-0.72
			s-0.63-0.25-1-0.25c-0.37,0-0.71,0.08-1,0.25s-0.53,0.41-0.7,0.72s-0.25,0.67-0.25,1.07c0,0.4,0.08,0.76,0.25,1.07
			s0.4,0.55,0.7,0.72s0.63,0.25,1,0.25C26.23,34.84,26.57,34.75,26.87,34.58z"/>
		<path class="st2" d="M34.78,28v7.42H34.1v-1.04c-0.21,0.35-0.49,0.62-0.84,0.81c-0.35,0.19-0.75,0.28-1.19,0.28
			c-0.49,0-0.94-0.11-1.34-0.34s-0.71-0.54-0.94-0.95c-0.23-0.41-0.34-0.87-0.34-1.39c0-0.52,0.11-0.98,0.34-1.39
			c0.23-0.41,0.54-0.72,0.94-0.95s0.85-0.33,1.34-0.33c0.43,0,0.81,0.09,1.15,0.26c0.34,0.18,0.63,0.44,0.85,0.78V28H34.78z
			 M33.13,34.58c0.3-0.17,0.53-0.41,0.7-0.72s0.25-0.67,0.25-1.07c0-0.4-0.08-0.76-0.25-1.07s-0.4-0.55-0.7-0.72
			s-0.63-0.25-0.99-0.25c-0.37,0-0.71,0.08-1.01,0.25s-0.53,0.41-0.7,0.72s-0.26,0.67-0.26,1.07c0,0.4,0.09,0.76,0.26,1.07
			s0.4,0.55,0.7,0.72s0.63,0.25,1.01,0.25C32.5,34.84,32.83,34.75,33.13,34.58z"/>
		<path class="st2" d="M40.18,30.63c0.37,0.34,0.55,0.85,0.55,1.53v3.26h-0.68V34.6c-0.16,0.27-0.4,0.49-0.7,0.64
			c-0.31,0.15-0.68,0.23-1.11,0.23c-0.59,0-1.05-0.14-1.4-0.42s-0.52-0.65-0.52-1.11c0-0.45,0.16-0.81,0.48-1.08
			c0.32-0.27,0.84-0.41,1.54-0.41h1.67v-0.32c0-0.45-0.13-0.8-0.38-1.04c-0.25-0.24-0.62-0.35-1.11-0.35
			c-0.33,0-0.65,0.05-0.96,0.17c-0.31,0.11-0.57,0.26-0.79,0.46l-0.32-0.53c0.27-0.23,0.59-0.4,0.96-0.53
			c0.37-0.12,0.77-0.18,1.18-0.18C39.29,30.12,39.81,30.29,40.18,30.63z M39.38,34.63c0.29-0.18,0.5-0.45,0.64-0.79v-0.86h-1.65
			c-0.9,0-1.35,0.31-1.35,0.94c0,0.31,0.12,0.55,0.35,0.72c0.23,0.18,0.56,0.27,0.98,0.27C38.75,34.91,39.09,34.82,39.38,34.63z"/>
		<path class="st2" d="M45.28,28h0.71v7.42h-0.71V28z"/>
		<path class="st2" d="M51.39,30.63c0.37,0.34,0.55,0.85,0.55,1.53v3.26h-0.68V34.6c-0.16,0.27-0.39,0.49-0.71,0.64
			c-0.31,0.15-0.68,0.23-1.1,0.23c-0.59,0-1.05-0.14-1.4-0.42s-0.52-0.65-0.52-1.11c0-0.45,0.16-0.81,0.49-1.08
			c0.32-0.27,0.84-0.41,1.54-0.41h1.67v-0.32c0-0.45-0.13-0.8-0.38-1.04c-0.25-0.24-0.62-0.35-1.11-0.35
			c-0.33,0-0.65,0.05-0.96,0.17c-0.31,0.11-0.57,0.26-0.79,0.46l-0.32-0.53c0.27-0.23,0.59-0.4,0.96-0.53
			c0.37-0.12,0.77-0.18,1.18-0.18C50.5,30.12,51.02,30.29,51.39,30.63z M50.59,34.63c0.29-0.18,0.5-0.45,0.64-0.79v-0.86h-1.65
			c-0.9,0-1.35,0.31-1.35,0.94c0,0.31,0.12,0.55,0.35,0.72c0.23,0.18,0.56,0.27,0.98,0.27C49.96,34.91,50.3,34.82,50.59,34.63z"/>
		<path class="st2" d="M56.49,28h0.71v7.42h-0.71V28z"/>
		<path class="st2" d="M62.6,30.63c0.37,0.34,0.55,0.85,0.55,1.53v3.26h-0.68V34.6c-0.16,0.27-0.4,0.49-0.7,0.64
			c-0.31,0.15-0.68,0.23-1.11,0.23c-0.59,0-1.05-0.14-1.4-0.42s-0.52-0.65-0.52-1.11c0-0.45,0.16-0.81,0.48-1.08
			c0.32-0.27,0.84-0.41,1.54-0.41h1.67v-0.32c0-0.45-0.13-0.8-0.38-1.04c-0.25-0.24-0.62-0.35-1.11-0.35
			c-0.33,0-0.65,0.05-0.96,0.17c-0.31,0.11-0.57,0.26-0.79,0.46l-0.32-0.53c0.27-0.23,0.59-0.4,0.96-0.53
			c0.37-0.12,0.77-0.18,1.18-0.18C61.71,30.12,62.23,30.29,62.6,30.63z M61.8,34.63c0.29-0.18,0.5-0.45,0.64-0.79v-0.86h-1.65
			c-0.9,0-1.35,0.31-1.35,0.94c0,0.31,0.12,0.55,0.35,0.72c0.23,0.18,0.56,0.27,0.98,0.27C61.17,34.91,61.51,34.82,61.8,34.63z"/>
		<path class="st2" d="M69.13,30.46c0.4,0.22,0.71,0.54,0.94,0.95c0.23,0.41,0.34,0.87,0.34,1.39c0,0.52-0.11,0.98-0.34,1.39
			c-0.23,0.41-0.54,0.72-0.94,0.95s-0.85,0.34-1.34,0.34c-0.44,0-0.83-0.09-1.18-0.28c-0.35-0.19-0.63-0.46-0.85-0.81v1.04h-0.68V28
			h0.71v3.16c0.22-0.34,0.5-0.6,0.84-0.78s0.73-0.26,1.16-0.26C68.28,30.12,68.73,30.23,69.13,30.46z M68.74,34.58
			c0.3-0.17,0.54-0.41,0.71-0.72s0.25-0.67,0.25-1.07c0-0.4-0.08-0.76-0.25-1.07s-0.41-0.55-0.71-0.72c-0.3-0.17-0.63-0.25-1-0.25
			c-0.37,0-0.71,0.08-1.01,0.25s-0.53,0.41-0.7,0.72s-0.26,0.67-0.26,1.07c0,0.4,0.09,0.76,0.26,1.07s0.4,0.55,0.7,0.72
			s0.63,0.25,1.01,0.25C68.11,34.84,68.44,34.75,68.74,34.58z"/>
		<path class="st2" d="M72.64,35.13c-0.41-0.23-0.73-0.55-0.96-0.96s-0.35-0.87-0.35-1.38s0.12-0.97,0.35-1.38
			c0.23-0.41,0.55-0.72,0.96-0.95s0.86-0.34,1.37-0.34c0.51,0,0.96,0.11,1.37,0.34c0.41,0.23,0.73,0.54,0.96,0.95
			c0.23,0.41,0.35,0.87,0.35,1.38s-0.12,0.97-0.35,1.38c-0.23,0.41-0.55,0.72-0.96,0.96c-0.41,0.23-0.86,0.34-1.37,0.34
			C73.5,35.47,73.05,35.35,72.64,35.13z M75.01,34.58c0.3-0.17,0.53-0.41,0.69-0.72c0.17-0.31,0.25-0.67,0.25-1.07
			c0-0.4-0.08-0.76-0.25-1.07c-0.17-0.31-0.4-0.55-0.69-0.72c-0.3-0.17-0.63-0.25-1-0.25S73.3,30.83,73,31
			c-0.3,0.17-0.53,0.41-0.7,0.72s-0.25,0.67-0.25,1.07c0,0.4,0.08,0.76,0.25,1.07s0.4,0.55,0.7,0.72c0.3,0.17,0.63,0.25,1.01,0.25
			S74.72,34.75,75.01,34.58z"/>
		<path class="st2" d="M79.55,30.39c0.33-0.18,0.74-0.27,1.22-0.27v0.69l-0.17-0.01c-0.55,0-0.99,0.17-1.3,0.51
			c-0.31,0.34-0.47,0.82-0.47,1.43v2.68h-0.71v-5.26h0.68v1.03C78.98,30.84,79.22,30.57,79.55,30.39z"/>
		<path class="st2" d="M10.62,44.63c0.37,0.34,0.55,0.85,0.55,1.53v3.26h-0.68V48.6c-0.16,0.27-0.39,0.49-0.71,0.64
			c-0.31,0.15-0.68,0.23-1.1,0.23c-0.59,0-1.05-0.14-1.4-0.42s-0.52-0.65-0.52-1.11c0-0.45,0.16-0.81,0.49-1.08
			c0.32-0.27,0.84-0.41,1.54-0.41h1.67v-0.32c0-0.45-0.13-0.8-0.38-1.04c-0.25-0.24-0.62-0.35-1.11-0.35
			c-0.33,0-0.65,0.05-0.96,0.17c-0.31,0.11-0.57,0.26-0.79,0.46L6.9,44.83c0.27-0.23,0.59-0.4,0.96-0.53
			c0.37-0.12,0.77-0.18,1.18-0.18C9.73,44.12,10.25,44.29,10.62,44.63z M9.82,48.63c0.29-0.18,0.5-0.45,0.64-0.79v-0.86H8.81
			c-0.9,0-1.35,0.31-1.35,0.94c0,0.31,0.12,0.55,0.35,0.72c0.23,0.18,0.56,0.27,0.98,0.27C9.19,48.91,9.53,48.82,9.82,48.63z"/>
		<path class="st2" d="M17.92,42v7.42h-0.68v-1.04c-0.21,0.35-0.49,0.62-0.84,0.81c-0.35,0.19-0.75,0.28-1.18,0.28
			c-0.49,0-0.94-0.11-1.34-0.34c-0.4-0.23-0.71-0.54-0.94-0.95c-0.23-0.41-0.34-0.87-0.34-1.39c0-0.52,0.11-0.98,0.34-1.39
			c0.23-0.41,0.54-0.72,0.94-0.95c0.4-0.22,0.85-0.33,1.34-0.33c0.43,0,0.81,0.09,1.15,0.26s0.63,0.44,0.85,0.78V42H17.92z
			 M16.27,48.58c0.3-0.17,0.53-0.41,0.7-0.72s0.26-0.67,0.26-1.07c0-0.4-0.09-0.76-0.26-1.07s-0.4-0.55-0.7-0.72s-0.63-0.25-1-0.25
			c-0.37,0-0.71,0.08-1,0.25s-0.53,0.41-0.7,0.72s-0.25,0.67-0.25,1.07c0,0.4,0.08,0.76,0.25,1.07s0.4,0.55,0.7,0.72
			s0.63,0.25,1,0.25C15.64,48.84,15.97,48.75,16.27,48.58z"/>
		<path class="st2" d="M28.02,44.69c0.38,0.38,0.56,0.94,0.56,1.68v3.05h-0.71v-2.98c0-0.55-0.13-0.96-0.4-1.25
			c-0.26-0.29-0.63-0.43-1.11-0.43c-0.55,0-0.98,0.17-1.29,0.5c-0.31,0.34-0.47,0.8-0.47,1.4v2.76h-0.71v-2.98
			c0-0.55-0.13-0.96-0.4-1.25c-0.26-0.29-0.64-0.43-1.13-0.43c-0.54,0-0.97,0.17-1.29,0.5c-0.32,0.34-0.47,0.8-0.47,1.4v2.76H19.9
			v-5.26h0.68v0.96c0.19-0.32,0.45-0.57,0.78-0.74c0.33-0.17,0.72-0.26,1.15-0.26c0.44,0,0.82,0.09,1.15,0.28
			c0.32,0.19,0.57,0.46,0.73,0.83c0.19-0.35,0.47-0.62,0.83-0.81s0.78-0.29,1.25-0.29C27.12,44.12,27.64,44.31,28.02,44.69z"/>
		<path class="st2" d="M30.5,42.86c-0.1-0.1-0.15-0.22-0.15-0.36c0-0.13,0.05-0.25,0.15-0.35c0.1-0.1,0.22-0.15,0.37-0.15
			c0.15,0,0.27,0.05,0.37,0.14c0.1,0.1,0.15,0.21,0.15,0.35c0,0.15-0.05,0.27-0.15,0.37c-0.1,0.1-0.22,0.15-0.37,0.15
			C30.72,43.01,30.6,42.96,30.5,42.86z M30.51,44.16h0.71v5.26h-0.71V44.16z"/>
		<path class="st2" d="M37.46,44.7c0.39,0.38,0.58,0.94,0.58,1.67v3.05h-0.71v-2.98c0-0.55-0.14-0.96-0.41-1.25
			c-0.27-0.29-0.66-0.43-1.17-0.43c-0.57,0-1.02,0.17-1.35,0.5c-0.33,0.34-0.49,0.8-0.49,1.4v2.76H33.2v-5.26h0.68v0.97
			c0.19-0.32,0.46-0.57,0.81-0.75c0.34-0.18,0.74-0.26,1.19-0.26C36.54,44.12,37.06,44.31,37.46,44.7z"/>
		<path class="st2" d="M39.96,42.86c-0.1-0.1-0.15-0.22-0.15-0.36c0-0.13,0.05-0.25,0.15-0.35c0.1-0.1,0.22-0.15,0.37-0.15
			s0.27,0.05,0.37,0.14c0.1,0.1,0.15,0.21,0.15,0.35c0,0.15-0.05,0.27-0.15,0.37c-0.1,0.1-0.22,0.15-0.37,0.15
			S40.06,42.96,39.96,42.86z M39.97,44.16h0.71v5.26h-0.71V44.16z"/>
		<path class="st2" d="M42.84,49.29c-0.39-0.12-0.69-0.28-0.92-0.46l0.32-0.56c0.22,0.17,0.5,0.32,0.83,0.42
			c0.33,0.11,0.68,0.17,1.04,0.17c0.48,0,0.83-0.07,1.07-0.22c0.23-0.15,0.34-0.36,0.34-0.63c0-0.19-0.06-0.35-0.19-0.46
			c-0.13-0.11-0.29-0.19-0.48-0.25s-0.45-0.11-0.77-0.17c-0.43-0.08-0.77-0.16-1.03-0.25c-0.26-0.08-0.48-0.22-0.67-0.42
			s-0.27-0.48-0.27-0.83c0-0.44,0.18-0.8,0.55-1.08s0.88-0.42,1.53-0.42c0.34,0,0.68,0.04,1.02,0.13c0.34,0.09,0.62,0.21,0.84,0.36
			l-0.31,0.57c-0.43-0.3-0.95-0.45-1.55-0.45c-0.45,0-0.79,0.08-1.02,0.24s-0.34,0.37-0.34,0.63c0,0.2,0.06,0.36,0.2,0.48
			c0.13,0.12,0.29,0.21,0.48,0.26s0.46,0.12,0.8,0.17c0.42,0.08,0.76,0.16,1.01,0.24c0.25,0.08,0.47,0.22,0.65,0.41
			c0.18,0.19,0.27,0.46,0.27,0.8c0,0.46-0.19,0.83-0.58,1.09c-0.38,0.27-0.92,0.41-1.59,0.41C43.64,49.47,43.23,49.41,42.84,49.29z"
			/>
		<path class="st2" d="M50.32,49.1c-0.13,0.12-0.3,0.21-0.5,0.28s-0.4,0.09-0.62,0.09c-0.49,0-0.87-0.13-1.14-0.4
			c-0.27-0.27-0.4-0.64-0.4-1.13v-3.18h-0.94v-0.6h0.94v-1.15h0.71v1.15h1.6v0.6h-1.6v3.14c0,0.31,0.08,0.55,0.24,0.71
			c0.16,0.16,0.38,0.25,0.67,0.25c0.15,0,0.29-0.02,0.42-0.07s0.26-0.11,0.36-0.2L50.32,49.1z"/>
		<path class="st2" d="M53.04,44.39c0.33-0.18,0.74-0.27,1.22-0.27v0.69l-0.17-0.01c-0.55,0-0.99,0.17-1.3,0.51
			c-0.31,0.34-0.47,0.82-0.47,1.43v2.68h-0.71v-5.26h0.68v1.03C52.46,44.84,52.71,44.57,53.04,44.39z"/>
		<path class="st2" d="M58.95,44.63c0.37,0.34,0.55,0.85,0.55,1.53v3.26h-0.68V48.6c-0.16,0.27-0.4,0.49-0.71,0.64
			c-0.31,0.15-0.68,0.23-1.11,0.23c-0.59,0-1.05-0.14-1.4-0.42c-0.35-0.28-0.52-0.65-0.52-1.11c0-0.45,0.16-0.81,0.49-1.08
			s0.84-0.41,1.54-0.41h1.67v-0.32c0-0.45-0.13-0.8-0.38-1.04c-0.25-0.24-0.62-0.35-1.11-0.35c-0.33,0-0.65,0.05-0.96,0.17
			c-0.31,0.11-0.57,0.26-0.79,0.46l-0.32-0.53c0.27-0.23,0.59-0.4,0.96-0.53c0.37-0.12,0.77-0.18,1.18-0.18
			C58.06,44.12,58.58,44.29,58.95,44.63z M58.15,48.63c0.29-0.18,0.5-0.45,0.64-0.79v-0.86h-1.65c-0.9,0-1.35,0.31-1.35,0.94
			c0,0.31,0.12,0.55,0.35,0.72c0.23,0.18,0.56,0.27,0.98,0.27C57.52,48.91,57.86,48.82,58.15,48.63z"/>
		<path class="st2" d="M64.2,49.1c-0.13,0.12-0.3,0.21-0.49,0.28c-0.2,0.06-0.4,0.09-0.62,0.09c-0.49,0-0.87-0.13-1.14-0.4
			c-0.27-0.27-0.4-0.64-0.4-1.13v-3.18h-0.94v-0.6h0.94v-1.15h0.71v1.15h1.6v0.6h-1.6v3.14c0,0.31,0.08,0.55,0.24,0.71
			c0.16,0.16,0.38,0.25,0.67,0.25c0.15,0,0.29-0.02,0.42-0.07s0.25-0.11,0.35-0.2L64.2,49.1z"/>
		<path class="st2" d="M65.48,42.86c-0.1-0.1-0.15-0.22-0.15-0.36c0-0.13,0.05-0.25,0.15-0.35c0.1-0.1,0.22-0.15,0.37-0.15
			s0.27,0.05,0.37,0.14c0.1,0.1,0.15,0.21,0.15,0.35c0,0.15-0.05,0.27-0.15,0.37c-0.1,0.1-0.22,0.15-0.37,0.15
			S65.58,42.96,65.48,42.86z M65.49,44.16h0.71v5.26h-0.71V44.16z"/>
		<path class="st2" d="M72.6,44.16l-2.34,5.26h-0.73l-2.33-5.26h0.74l1.97,4.48l1.99-4.48H72.6z"/>
		<path class="st2" d="M76.86,44.63c0.37,0.34,0.55,0.85,0.55,1.53v3.26h-0.68V48.6c-0.16,0.27-0.4,0.49-0.7,0.64
			c-0.31,0.15-0.68,0.23-1.11,0.23c-0.59,0-1.05-0.14-1.4-0.42S73,48.4,73,47.94c0-0.45,0.16-0.81,0.48-1.08
			c0.32-0.27,0.84-0.41,1.54-0.41h1.67v-0.32c0-0.45-0.13-0.8-0.38-1.04c-0.25-0.24-0.62-0.35-1.11-0.35
			c-0.33,0-0.65,0.05-0.96,0.17c-0.31,0.11-0.57,0.26-0.79,0.46l-0.32-0.53c0.27-0.23,0.59-0.4,0.96-0.53
			c0.37-0.12,0.77-0.18,1.18-0.18C75.97,44.12,76.49,44.29,76.86,44.63z M76.06,48.63c0.29-0.18,0.5-0.45,0.64-0.79v-0.86h-1.65
			c-0.9,0-1.35,0.31-1.35,0.94c0,0.31,0.12,0.55,0.35,0.72c0.23,0.18,0.56,0.27,0.98,0.27C75.43,48.91,75.77,48.82,76.06,48.63z"/>
		<path class="st2" d="M86.76,42v7.42h-0.68v-1.04c-0.21,0.35-0.5,0.62-0.85,0.81c-0.35,0.19-0.74,0.28-1.18,0.28
			c-0.49,0-0.94-0.11-1.34-0.34c-0.4-0.23-0.71-0.54-0.94-0.95c-0.23-0.41-0.34-0.87-0.34-1.39c0-0.52,0.11-0.98,0.34-1.39
			c0.23-0.41,0.54-0.72,0.94-0.95c0.4-0.22,0.85-0.33,1.34-0.33c0.43,0,0.81,0.09,1.16,0.26c0.34,0.18,0.63,0.44,0.84,0.78V42H86.76
			z M85.1,48.58c0.3-0.17,0.53-0.41,0.7-0.72s0.25-0.67,0.25-1.07c0-0.4-0.08-0.76-0.25-1.07s-0.4-0.55-0.7-0.72
			c-0.3-0.17-0.63-0.25-1-0.25c-0.37,0-0.71,0.08-1,0.25c-0.3,0.17-0.53,0.41-0.7,0.72s-0.25,0.67-0.25,1.07
			c0,0.4,0.08,0.76,0.25,1.07s0.4,0.55,0.7,0.72c0.3,0.17,0.63,0.25,1,0.25C84.48,48.84,84.81,48.75,85.1,48.58z"/>
		<path class="st2" d="M93.32,47.01h-4.4c0.04,0.55,0.25,0.99,0.63,1.33c0.38,0.34,0.86,0.5,1.44,0.5c0.33,0,0.63-0.06,0.9-0.17
			c0.27-0.12,0.51-0.29,0.71-0.51l0.4,0.46c-0.23,0.28-0.53,0.49-0.88,0.64c-0.35,0.15-0.74,0.22-1.16,0.22
			c-0.54,0-1.02-0.12-1.43-0.34c-0.42-0.23-0.74-0.55-0.98-0.96s-0.35-0.87-0.35-1.38s0.11-0.97,0.34-1.38
			c0.22-0.41,0.53-0.72,0.92-0.95c0.39-0.23,0.83-0.34,1.31-0.34s0.92,0.11,1.31,0.34S92.78,45,93,45.41
			c0.22,0.4,0.33,0.86,0.33,1.38L93.32,47.01z M89.5,45.21c-0.34,0.32-0.54,0.75-0.58,1.26h3.73c-0.05-0.52-0.24-0.94-0.58-1.26
			s-0.77-0.49-1.29-0.49C90.27,44.73,89.85,44.89,89.5,45.21z"/>
		<path class="st2" d="M20.43,63.1c-0.13,0.12-0.3,0.21-0.49,0.28c-0.2,0.06-0.4,0.09-0.62,0.09c-0.49,0-0.87-0.13-1.14-0.4
			c-0.27-0.27-0.4-0.64-0.4-1.13v-3.18h-0.94v-0.6h0.94v-1.15h0.71v1.15h1.6v0.6h-1.6v3.14c0,0.31,0.08,0.55,0.24,0.71
			c0.16,0.16,0.38,0.25,0.67,0.25c0.15,0,0.29-0.02,0.42-0.07s0.25-0.11,0.35-0.2L20.43,63.1z"/>
		<path class="st2" d="M26.46,58.16v5.26h-0.68v-0.96c-0.19,0.32-0.44,0.57-0.77,0.75c-0.33,0.18-0.7,0.26-1.12,0.26
			c-0.69,0-1.23-0.19-1.63-0.58c-0.4-0.38-0.6-0.94-0.6-1.68v-3.05h0.71v2.98c0,0.55,0.14,0.97,0.41,1.26
			c0.27,0.29,0.66,0.43,1.17,0.43c0.55,0,0.99-0.17,1.31-0.5s0.48-0.81,0.48-1.41v-2.76H26.46z"/>
		<path class="st2" d="M31.06,56.86c-0.1-0.1-0.15-0.22-0.15-0.36c0-0.13,0.05-0.25,0.15-0.35c0.1-0.1,0.22-0.15,0.37-0.15
			c0.15,0,0.27,0.05,0.37,0.14c0.1,0.1,0.15,0.21,0.15,0.35c0,0.15-0.05,0.27-0.15,0.37c-0.1,0.1-0.22,0.15-0.37,0.15
			C31.28,57.01,31.16,56.96,31.06,56.86z M31.07,58.16h0.71v5.26h-0.71V58.16z"/>
		<path class="st2" d="M38.02,58.7c0.39,0.38,0.58,0.94,0.58,1.67v3.05h-0.71v-2.98c0-0.55-0.14-0.96-0.41-1.25
			c-0.27-0.29-0.66-0.43-1.17-0.43c-0.57,0-1.02,0.17-1.35,0.5c-0.33,0.34-0.49,0.8-0.49,1.4v2.76h-0.71v-5.26h0.68v0.97
			c0.19-0.32,0.46-0.57,0.81-0.75c0.34-0.18,0.74-0.26,1.19-0.26C37.1,58.12,37.63,58.31,38.02,58.7z"/>
		<path class="st2" d="M40.71,63.29c-0.39-0.12-0.69-0.28-0.91-0.46l0.32-0.56c0.22,0.17,0.5,0.32,0.83,0.42
			c0.33,0.11,0.68,0.17,1.04,0.17c0.48,0,0.84-0.07,1.07-0.22s0.34-0.36,0.34-0.63c0-0.19-0.06-0.35-0.19-0.46
			c-0.13-0.11-0.29-0.19-0.48-0.25s-0.45-0.11-0.77-0.17c-0.43-0.08-0.77-0.16-1.03-0.25c-0.26-0.08-0.48-0.22-0.67-0.42
			s-0.28-0.48-0.28-0.83c0-0.44,0.18-0.8,0.55-1.08c0.37-0.28,0.88-0.42,1.53-0.42c0.34,0,0.68,0.04,1.02,0.13
			c0.34,0.09,0.62,0.21,0.84,0.36l-0.31,0.57c-0.43-0.3-0.95-0.45-1.55-0.45c-0.45,0-0.79,0.08-1.03,0.24
			c-0.23,0.16-0.34,0.37-0.34,0.63c0,0.2,0.06,0.36,0.19,0.48s0.29,0.21,0.49,0.26s0.46,0.12,0.8,0.17
			c0.42,0.08,0.76,0.16,1.01,0.24s0.47,0.22,0.65,0.41c0.18,0.19,0.27,0.46,0.27,0.8c0,0.46-0.19,0.83-0.58,1.09
			c-0.38,0.27-0.91,0.41-1.59,0.41C41.51,63.47,41.11,63.41,40.71,63.29z"/>
		<path class="st2" d="M48.19,63.1c-0.13,0.12-0.3,0.21-0.5,0.28c-0.2,0.06-0.4,0.09-0.62,0.09c-0.49,0-0.87-0.13-1.14-0.4
			s-0.4-0.64-0.4-1.13v-3.18H44.6v-0.6h0.94v-1.15h0.71v1.15h1.6v0.6h-1.6v3.14c0,0.31,0.08,0.55,0.24,0.71
			c0.16,0.16,0.38,0.25,0.67,0.25c0.15,0,0.29-0.02,0.43-0.07s0.25-0.11,0.35-0.2L48.19,63.1z"/>
		<path class="st2" d="M49.47,56.86c-0.1-0.1-0.15-0.22-0.15-0.36c0-0.13,0.05-0.25,0.15-0.35c0.1-0.1,0.22-0.15,0.37-0.15
			c0.15,0,0.27,0.05,0.37,0.14c0.1,0.1,0.15,0.21,0.15,0.35c0,0.15-0.05,0.27-0.15,0.37c-0.1,0.1-0.22,0.15-0.37,0.15
			C49.69,57.01,49.57,56.96,49.47,56.86z M49.48,58.16h0.71v5.26h-0.71V58.16z"/>
		<path class="st2" d="M54.94,63.1c-0.13,0.12-0.3,0.21-0.5,0.28c-0.2,0.06-0.4,0.09-0.62,0.09c-0.49,0-0.87-0.13-1.14-0.4
			s-0.4-0.64-0.4-1.13v-3.18h-0.94v-0.6h0.94v-1.15H53v1.15h1.6v0.6H53v3.14c0,0.31,0.08,0.55,0.24,0.71
			c0.16,0.16,0.38,0.25,0.67,0.25c0.15,0,0.29-0.02,0.43-0.07s0.25-0.11,0.35-0.2L54.94,63.1z"/>
		<path class="st2" d="M60.97,58.16v5.26h-0.68v-0.96c-0.19,0.32-0.44,0.57-0.77,0.75s-0.7,0.26-1.12,0.26
			c-0.69,0-1.23-0.19-1.63-0.58c-0.4-0.38-0.59-0.94-0.59-1.68v-3.05h0.71v2.98c0,0.55,0.14,0.97,0.41,1.26
			c0.27,0.29,0.66,0.43,1.17,0.43c0.55,0,0.99-0.17,1.31-0.5c0.32-0.34,0.48-0.81,0.48-1.41v-2.76H60.97z"/>
		<path class="st2" d="M63.75,63.13c-0.41-0.23-0.73-0.54-0.96-0.96c-0.23-0.41-0.35-0.87-0.35-1.38s0.12-0.97,0.35-1.38
			c0.23-0.41,0.55-0.72,0.96-0.95s0.88-0.34,1.39-0.34c0.45,0,0.86,0.09,1.21,0.26c0.36,0.18,0.64,0.44,0.85,0.78l-0.53,0.36
			c-0.17-0.26-0.39-0.46-0.66-0.58s-0.56-0.19-0.87-0.19c-0.38,0-0.72,0.08-1.03,0.25c-0.3,0.17-0.54,0.41-0.71,0.72
			s-0.26,0.67-0.26,1.07c0,0.41,0.09,0.76,0.26,1.08c0.17,0.31,0.41,0.55,0.71,0.72c0.3,0.17,0.65,0.25,1.03,0.25
			c0.31,0,0.6-0.06,0.87-0.19c0.27-0.13,0.49-0.32,0.66-0.58l0.53,0.36c-0.21,0.34-0.49,0.6-0.85,0.78s-0.76,0.26-1.21,0.26
			C64.62,63.47,64.16,63.36,63.75,63.13z"/>
		<path class="st2" d="M68.58,56.86c-0.1-0.1-0.15-0.22-0.15-0.36c0-0.13,0.05-0.25,0.15-0.35c0.1-0.1,0.22-0.15,0.37-0.15
			c0.15,0,0.27,0.05,0.37,0.14c0.1,0.1,0.15,0.21,0.15,0.35c0,0.15-0.05,0.27-0.15,0.37c-0.1,0.1-0.22,0.15-0.37,0.15
			C68.8,57.01,68.68,56.96,68.58,56.86z M68.59,58.16h0.71v5.26h-0.71V58.16z"/>
		<path class="st2" d="M72.06,63.13c-0.41-0.23-0.73-0.55-0.96-0.96s-0.35-0.87-0.35-1.38s0.12-0.97,0.35-1.38
			c0.23-0.41,0.55-0.72,0.96-0.95s0.86-0.34,1.37-0.34s0.96,0.11,1.37,0.34s0.72,0.54,0.96,0.95c0.23,0.41,0.34,0.87,0.34,1.38
			s-0.12,0.97-0.34,1.38c-0.23,0.41-0.55,0.72-0.96,0.96c-0.41,0.23-0.86,0.34-1.37,0.34S72.47,63.35,72.06,63.13z M74.44,62.58
			c0.3-0.17,0.53-0.41,0.7-0.72c0.17-0.31,0.25-0.67,0.25-1.07c0-0.4-0.08-0.76-0.25-1.07c-0.17-0.31-0.4-0.55-0.7-0.72
			s-0.63-0.25-1-0.25c-0.37,0-0.71,0.08-1,0.25s-0.53,0.41-0.7,0.72s-0.25,0.67-0.25,1.07c0,0.4,0.08,0.76,0.25,1.07
			s0.4,0.55,0.7,0.72s0.63,0.25,1,0.25C73.8,62.84,74.14,62.75,74.44,62.58z M74.14,56.1h0.95l-1.62,1.24h-0.7L74.14,56.1z"/>
		<path class="st2" d="M81.81,58.7c0.39,0.38,0.58,0.94,0.58,1.67v3.05h-0.71v-2.98c0-0.55-0.14-0.96-0.41-1.25
			c-0.27-0.29-0.66-0.43-1.17-0.43c-0.57,0-1.01,0.17-1.34,0.5c-0.33,0.34-0.5,0.8-0.5,1.4v2.76h-0.71v-5.26h0.68v0.97
			c0.19-0.32,0.46-0.57,0.8-0.75s0.74-0.26,1.2-0.26C80.89,58.12,81.42,58.31,81.81,58.7z"/>
		<path class="st2" d="M30.02,75.01h-4.4c0.04,0.55,0.25,0.99,0.63,1.33s0.86,0.5,1.44,0.5c0.33,0,0.63-0.06,0.9-0.17
			c0.27-0.12,0.51-0.29,0.71-0.51l0.4,0.46c-0.23,0.28-0.53,0.49-0.88,0.64s-0.73,0.22-1.15,0.22c-0.54,0-1.02-0.12-1.44-0.34
			c-0.42-0.23-0.74-0.55-0.97-0.96c-0.23-0.41-0.35-0.87-0.35-1.38s0.11-0.97,0.33-1.38c0.22-0.41,0.53-0.72,0.92-0.95
			c0.39-0.23,0.83-0.34,1.31-0.34c0.49,0,0.92,0.11,1.31,0.34s0.69,0.54,0.91,0.95s0.33,0.86,0.33,1.38L30.02,75.01z M26.2,73.21
			c-0.34,0.32-0.54,0.75-0.58,1.26h3.73c-0.05-0.52-0.24-0.94-0.59-1.26c-0.34-0.32-0.77-0.49-1.29-0.49
			C26.97,72.73,26.54,72.89,26.2,73.21z"/>
		<path class="st2" d="M36.28,70v7.42H35.6v-1.04c-0.21,0.35-0.5,0.62-0.85,0.81c-0.35,0.19-0.74,0.28-1.18,0.28
			c-0.49,0-0.94-0.11-1.34-0.34c-0.4-0.23-0.71-0.54-0.94-0.95c-0.23-0.41-0.34-0.87-0.34-1.39c0-0.52,0.11-0.98,0.34-1.39
			c0.23-0.41,0.54-0.72,0.94-0.95c0.4-0.22,0.85-0.33,1.34-0.33c0.43,0,0.81,0.09,1.16,0.26c0.34,0.18,0.63,0.44,0.84,0.78V70H36.28
			z M34.62,76.58c0.3-0.17,0.53-0.41,0.7-0.72s0.25-0.67,0.25-1.07c0-0.4-0.08-0.76-0.25-1.07s-0.4-0.55-0.7-0.72
			c-0.3-0.17-0.63-0.25-1-0.25c-0.37,0-0.71,0.08-1,0.25c-0.3,0.17-0.53,0.41-0.7,0.72s-0.25,0.67-0.25,1.07
			c0,0.4,0.08,0.76,0.25,1.07s0.4,0.55,0.7,0.72c0.3,0.17,0.63,0.25,1,0.25C33.99,76.84,34.32,76.75,34.62,76.58z"/>
		<path class="st2" d="M43,72.16v5.26h-0.68v-0.96c-0.19,0.32-0.44,0.57-0.77,0.75s-0.7,0.26-1.12,0.26c-0.69,0-1.23-0.19-1.63-0.58
			c-0.4-0.38-0.6-0.94-0.6-1.68v-3.05h0.71v2.98c0,0.55,0.14,0.97,0.41,1.26c0.27,0.29,0.66,0.43,1.17,0.43
			c0.55,0,0.99-0.17,1.31-0.5c0.32-0.34,0.48-0.81,0.48-1.41v-2.76H43z"/>
		<path class="st2" d="M45.77,77.13c-0.41-0.23-0.73-0.54-0.96-0.96c-0.23-0.41-0.35-0.87-0.35-1.38s0.12-0.97,0.35-1.38
			c0.23-0.41,0.56-0.72,0.96-0.95c0.41-0.23,0.88-0.34,1.4-0.34c0.45,0,0.86,0.09,1.21,0.26s0.64,0.44,0.84,0.78l-0.53,0.36
			c-0.17-0.26-0.39-0.46-0.66-0.58s-0.56-0.19-0.87-0.19c-0.38,0-0.72,0.08-1.02,0.25c-0.3,0.17-0.54,0.41-0.71,0.72
			s-0.25,0.67-0.25,1.07c0,0.41,0.08,0.76,0.25,1.08c0.17,0.31,0.41,0.55,0.71,0.72c0.3,0.17,0.64,0.25,1.02,0.25
			c0.31,0,0.6-0.06,0.87-0.19c0.27-0.13,0.49-0.32,0.66-0.58l0.53,0.36c-0.21,0.34-0.49,0.6-0.85,0.78
			c-0.36,0.18-0.76,0.26-1.21,0.26C46.64,77.47,46.18,77.36,45.77,77.13z"/>
		<path class="st2" d="M54.04,72.63c0.37,0.34,0.55,0.85,0.55,1.53v3.26H53.9V76.6c-0.16,0.27-0.39,0.49-0.7,0.64
			s-0.68,0.23-1.1,0.23c-0.59,0-1.05-0.14-1.4-0.42c-0.35-0.28-0.52-0.65-0.52-1.11c0-0.45,0.16-0.81,0.49-1.08
			c0.32-0.27,0.84-0.41,1.54-0.41h1.67v-0.32c0-0.45-0.13-0.8-0.38-1.04c-0.25-0.24-0.62-0.35-1.11-0.35
			c-0.33,0-0.65,0.05-0.96,0.17c-0.31,0.11-0.57,0.26-0.79,0.46l-0.32-0.53c0.27-0.23,0.59-0.4,0.96-0.53
			c0.37-0.12,0.77-0.18,1.18-0.18C53.14,72.12,53.67,72.29,54.04,72.63z M53.23,76.63c0.29-0.18,0.5-0.45,0.64-0.79v-0.86h-1.65
			c-0.9,0-1.35,0.31-1.35,0.94c0,0.31,0.12,0.55,0.35,0.72c0.23,0.18,0.56,0.27,0.98,0.27C52.61,76.91,52.95,76.82,53.23,76.63z"/>
		<path class="st2" d="M59.29,77.1c-0.13,0.12-0.3,0.21-0.5,0.28s-0.4,0.09-0.62,0.09c-0.49,0-0.87-0.13-1.14-0.4
			c-0.27-0.27-0.4-0.64-0.4-1.13v-3.18H55.7v-0.6h0.94v-1.15h0.71v1.15h1.6v0.6h-1.6v3.14c0,0.31,0.08,0.55,0.24,0.71
			c0.16,0.16,0.38,0.25,0.67,0.25c0.15,0,0.29-0.02,0.42-0.07s0.26-0.11,0.36-0.2L59.29,77.1z"/>
		<path class="st2" d="M60.56,70.86c-0.1-0.1-0.15-0.22-0.15-0.36c0-0.13,0.05-0.25,0.15-0.35c0.1-0.1,0.22-0.15,0.37-0.15
			c0.15,0,0.27,0.05,0.37,0.14c0.1,0.1,0.15,0.21,0.15,0.35c0,0.15-0.05,0.27-0.15,0.37c-0.1,0.1-0.22,0.15-0.37,0.15
			C60.79,71.01,60.67,70.96,60.56,70.86z M60.58,72.16h0.71v5.26h-0.71V72.16z"/>
		<path class="st2" d="M67.69,72.16l-2.34,5.26h-0.73l-2.33-5.26h0.74L65,76.64l1.99-4.48H67.69z"/>
		<path class="st2" d="M71.95,72.63c0.37,0.34,0.55,0.85,0.55,1.53v3.26h-0.68V76.6c-0.16,0.27-0.39,0.49-0.7,0.64
			s-0.68,0.23-1.1,0.23c-0.59,0-1.05-0.14-1.4-0.42c-0.35-0.28-0.52-0.65-0.52-1.11c0-0.45,0.16-0.81,0.49-1.08
			c0.32-0.27,0.84-0.41,1.54-0.41h1.67v-0.32c0-0.45-0.13-0.8-0.38-1.04c-0.25-0.24-0.62-0.35-1.11-0.35
			c-0.33,0-0.65,0.05-0.96,0.17c-0.31,0.11-0.57,0.26-0.79,0.46l-0.32-0.53c0.27-0.23,0.59-0.4,0.96-0.53
			c0.37-0.12,0.77-0.18,1.18-0.18C71.05,72.12,71.58,72.29,71.95,72.63z M71.14,76.63c0.29-0.18,0.5-0.45,0.64-0.79v-0.86h-1.65
			c-0.9,0-1.35,0.31-1.35,0.94c0,0.31,0.12,0.55,0.35,0.72c0.23,0.18,0.56,0.27,0.98,0.27C70.52,76.91,70.86,76.82,71.14,76.63z"/>
		<path class="st2" d="M74.12,77.31c-0.1-0.11-0.15-0.24-0.15-0.39s0.05-0.28,0.15-0.38s0.23-0.16,0.38-0.16s0.27,0.05,0.38,0.16
			c0.11,0.1,0.16,0.23,0.16,0.38s-0.05,0.28-0.16,0.39c-0.11,0.11-0.23,0.16-0.38,0.16S74.22,77.42,74.12,77.31z"/>
	</g>
</g>
</svg>
