<?xml version="1.0" encoding="utf-8"?>
<!-- Generator: Adobe Illustrator 23.0.5, SVG Export Plug-In . SVG Version: 6.00 Build 0)  -->
<svg version="1.1" id="Capa_1" xmlns="http://www.w3.org/2000/svg" xmlns:xlink="http://www.w3.org/1999/xlink" x="0px" y="0px"
	 viewBox="0 0 150 150" style="enable-background:new 0 0 150 150;" xml:space="preserve">
<style type="text/css">
	.st0{fill:#FFFFFF;}
	.st1{fill:#F6931E;}
	.st2{fill:#002C38;}
</style>
<g>
	<circle class="st0" cx="75" cy="75" r="74.25"/>
	<path class="st1" d="M75,1.5c40.53,0,73.5,32.97,73.5,73.5s-32.97,73.5-73.5,73.5S1.5,115.53,1.5,75S34.47,1.5,75,1.5 M75,0
		C33.58,0,0,33.58,0,75s33.58,75,75,75s75-33.58,75-75S116.42,0,75,0L75,0z"/>
</g>
<g>
	<g>
		<path class="st2" d="M43.69,23.06c0.56,0.47,0.84,1.12,0.84,1.94s-0.28,1.46-0.84,1.93c-0.56,0.47-1.33,0.7-2.31,0.7h-2.07v2.43
			H38.5v-7.7h2.88C42.37,22.35,43.14,22.59,43.69,23.06z M43.11,26.41c0.4-0.33,0.6-0.8,0.6-1.41c0-0.62-0.2-1.1-0.6-1.44
			c-0.4-0.33-0.99-0.5-1.75-0.5h-2.05v3.85h2.05C42.12,26.91,42.71,26.74,43.11,26.41z"/>
		<path class="st2" d="M46.95,29.73c-0.45-0.25-0.8-0.6-1.06-1.05c-0.26-0.45-0.39-0.95-0.39-1.52c0-0.57,0.13-1.07,0.39-1.52
			c0.26-0.45,0.61-0.8,1.06-1.04s0.95-0.37,1.51-0.37c0.56,0,1.06,0.13,1.51,0.37s0.8,0.6,1.05,1.04c0.25,0.45,0.38,0.95,0.38,1.52
			c0,0.56-0.13,1.07-0.38,1.52c-0.25,0.45-0.6,0.8-1.05,1.05s-0.95,0.38-1.51,0.38C47.9,30.11,47.4,29.98,46.95,29.73z M49.56,29.13
			c0.33-0.19,0.58-0.45,0.76-0.8c0.18-0.34,0.27-0.74,0.27-1.18c0-0.44-0.09-0.83-0.27-1.18c-0.18-0.34-0.44-0.61-0.76-0.8
			c-0.33-0.19-0.69-0.28-1.11-0.28s-0.78,0.09-1.11,0.28c-0.33,0.19-0.58,0.45-0.77,0.8s-0.28,0.74-0.28,1.18
			c0,0.44,0.09,0.83,0.28,1.18s0.44,0.61,0.77,0.8c0.33,0.19,0.69,0.28,1.11,0.28S49.24,29.32,49.56,29.13z"/>
		<path class="st2" d="M58.27,21.89v8.16h-0.75v-1.14c-0.23,0.39-0.54,0.69-0.93,0.89c-0.38,0.21-0.82,0.31-1.3,0.31
			c-0.54,0-1.03-0.12-1.47-0.37c-0.44-0.25-0.78-0.6-1.03-1.04s-0.37-0.96-0.37-1.53c0-0.57,0.12-1.08,0.37-1.53
			s0.59-0.79,1.03-1.04c0.44-0.25,0.93-0.37,1.47-0.37c0.47,0,0.89,0.1,1.27,0.29c0.38,0.19,0.69,0.48,0.93,0.85v-3.48H58.27z
			 M56.45,29.13c0.33-0.19,0.58-0.45,0.77-0.8s0.28-0.74,0.28-1.18c0-0.44-0.09-0.83-0.28-1.18s-0.44-0.61-0.77-0.8
			c-0.33-0.19-0.69-0.28-1.09-0.28c-0.41,0-0.78,0.09-1.11,0.28c-0.33,0.19-0.58,0.45-0.77,0.8s-0.28,0.74-0.28,1.18
			c0,0.44,0.09,0.83,0.28,1.18s0.44,0.61,0.77,0.8c0.33,0.19,0.69,0.28,1.11,0.28C55.76,29.42,56.12,29.32,56.45,29.13z"/>
		<path class="st2" d="M62.01,24.52c0.36-0.2,0.81-0.3,1.35-0.3v0.76l-0.19-0.01c-0.61,0-1.09,0.19-1.43,0.56
			c-0.35,0.37-0.52,0.9-0.52,1.57v2.95h-0.78v-5.79h0.75v1.13C61.38,25.01,61.65,24.72,62.01,24.52z"/>
		<path class="st2" d="M68.52,24.79c0.4,0.38,0.6,0.94,0.6,1.68v3.59h-0.75v-0.9c-0.18,0.3-0.43,0.54-0.78,0.7
			c-0.34,0.17-0.75,0.25-1.22,0.25c-0.65,0-1.16-0.15-1.54-0.46c-0.38-0.31-0.57-0.71-0.57-1.22c0-0.49,0.18-0.89,0.53-1.19
			c0.36-0.3,0.92-0.45,1.7-0.45h1.84v-0.35c0-0.5-0.14-0.88-0.42-1.14c-0.28-0.26-0.69-0.39-1.22-0.39c-0.37,0-0.72,0.06-1.06,0.18
			s-0.63,0.29-0.87,0.5L64.43,25c0.29-0.25,0.65-0.44,1.06-0.58c0.41-0.13,0.84-0.2,1.3-0.2C67.54,24.22,68.12,24.41,68.52,24.79z
			 M67.64,29.19c0.31-0.2,0.55-0.49,0.7-0.88v-0.95h-1.81c-0.99,0-1.48,0.34-1.48,1.03c0,0.34,0.13,0.6,0.38,0.8
			c0.26,0.19,0.62,0.29,1.08,0.29C66.95,29.49,67.33,29.39,67.64,29.19z M67.6,22h1.05l-1.78,1.36h-0.77L67.6,22z"/>
		<path class="st2" d="M75.7,24.52c0.36-0.2,0.81-0.3,1.35-0.3v0.76l-0.19-0.01c-0.61,0-1.09,0.19-1.43,0.56
			c-0.35,0.37-0.52,0.9-0.52,1.57v2.95h-0.78v-5.79h0.75v1.13C75.06,25.01,75.34,24.72,75.7,24.52z"/>
		<path class="st2" d="M83.44,27.4H78.6c0.04,0.6,0.27,1.09,0.69,1.46s0.95,0.56,1.58,0.56c0.36,0,0.69-0.06,0.99-0.19
			c0.3-0.13,0.56-0.32,0.78-0.57l0.44,0.51c-0.26,0.31-0.58,0.54-0.96,0.7c-0.38,0.16-0.81,0.24-1.27,0.24
			c-0.59,0-1.12-0.13-1.58-0.38s-0.82-0.6-1.07-1.05c-0.26-0.45-0.39-0.95-0.39-1.52c0-0.57,0.12-1.07,0.37-1.52s0.58-0.8,1.01-1.04
			c0.43-0.25,0.91-0.37,1.45-0.37s1.02,0.13,1.44,0.37s0.76,0.6,1,1.04c0.24,0.44,0.36,0.95,0.36,1.52L83.44,27.4z M79.24,25.43
			c-0.38,0.36-0.59,0.82-0.64,1.39h4.1c-0.05-0.57-0.27-1.04-0.64-1.39c-0.38-0.36-0.85-0.53-1.41-0.53
			C80.08,24.89,79.62,25.07,79.24,25.43z"/>
		<path class="st2" d="M88.64,24.79c0.4,0.38,0.6,0.94,0.6,1.68v3.59H88.5v-0.9c-0.18,0.3-0.43,0.54-0.78,0.7
			c-0.34,0.17-0.75,0.25-1.22,0.25c-0.65,0-1.16-0.15-1.54-0.46c-0.38-0.31-0.57-0.71-0.57-1.22c0-0.49,0.18-0.89,0.53-1.19
			c0.36-0.3,0.92-0.45,1.7-0.45h1.84v-0.35c0-0.5-0.14-0.88-0.42-1.14c-0.28-0.26-0.69-0.39-1.22-0.39c-0.37,0-0.72,0.06-1.06,0.18
			s-0.63,0.29-0.87,0.5L84.55,25c0.29-0.25,0.65-0.44,1.06-0.58c0.41-0.13,0.84-0.2,1.3-0.2C87.66,24.22,88.24,24.41,88.64,24.79z
			 M87.76,29.19c0.31-0.2,0.55-0.49,0.7-0.88v-0.95h-1.81c-0.99,0-1.48,0.34-1.48,1.03c0,0.34,0.13,0.6,0.38,0.8
			c0.26,0.19,0.62,0.29,1.08,0.29C87.07,29.49,87.44,29.39,87.76,29.19z"/>
		<path class="st2" d="M91.37,21.89h0.78v8.16h-0.78V21.89z"/>
		<path class="st2" d="M94.32,22.84c-0.11-0.11-0.17-0.24-0.17-0.4c0-0.15,0.05-0.27,0.17-0.38c0.11-0.11,0.25-0.17,0.41-0.17
			s0.3,0.05,0.41,0.16c0.11,0.11,0.17,0.23,0.17,0.38c0,0.16-0.06,0.3-0.17,0.41C95.02,22.95,94.88,23,94.72,23
			S94.43,22.95,94.32,22.84z M94.33,24.27h0.78v5.79h-0.78V24.27z"/>
		<path class="st2" d="M101.37,29.4v0.65h-4.71v-0.52l3.64-4.61h-3.58v-0.66h4.58v0.52l-3.64,4.62H101.37z"/>
		<path class="st2" d="M106.67,24.79c0.4,0.38,0.6,0.94,0.6,1.68v3.59h-0.75v-0.9c-0.18,0.3-0.43,0.54-0.78,0.7
			c-0.34,0.17-0.75,0.25-1.22,0.25c-0.65,0-1.16-0.15-1.54-0.46c-0.38-0.31-0.57-0.71-0.57-1.22c0-0.49,0.18-0.89,0.53-1.19
			c0.36-0.3,0.92-0.45,1.7-0.45h1.84v-0.35c0-0.5-0.14-0.88-0.42-1.14c-0.28-0.26-0.69-0.39-1.22-0.39c-0.37,0-0.72,0.06-1.06,0.18
			s-0.63,0.29-0.87,0.5L102.58,25c0.29-0.25,0.65-0.44,1.06-0.58c0.41-0.13,0.84-0.2,1.3-0.2
			C105.69,24.22,106.26,24.41,106.67,24.79z M105.79,29.19c0.31-0.2,0.55-0.49,0.7-0.88v-0.95h-1.81c-0.99,0-1.48,0.34-1.48,1.03
			c0,0.34,0.13,0.6,0.38,0.8c0.26,0.19,0.62,0.29,1.08,0.29C105.09,29.49,105.47,29.39,105.79,29.19z"/>
		<path class="st2" d="M110.96,24.52c0.36-0.2,0.81-0.3,1.35-0.3v0.76l-0.19-0.01c-0.61,0-1.09,0.19-1.43,0.56
			c-0.35,0.37-0.52,0.9-0.52,1.57v2.95h-0.78v-5.79h0.75v1.13C110.33,25.01,110.6,24.72,110.96,24.52z"/>
		<path class="st2" d="M51.66,41.4h-4.84c0.04,0.6,0.27,1.09,0.69,1.46s0.95,0.56,1.58,0.56c0.36,0,0.69-0.06,0.99-0.19
			c0.3-0.13,0.56-0.32,0.78-0.57l0.44,0.51c-0.26,0.31-0.58,0.54-0.96,0.7c-0.38,0.16-0.81,0.24-1.27,0.24
			c-0.59,0-1.12-0.13-1.58-0.38s-0.82-0.6-1.07-1.05c-0.26-0.45-0.39-0.95-0.39-1.52c0-0.57,0.12-1.07,0.37-1.52s0.58-0.8,1.01-1.04
			c0.43-0.25,0.91-0.37,1.45-0.37s1.02,0.13,1.44,0.37s0.76,0.6,1,1.04c0.24,0.44,0.36,0.95,0.36,1.52L51.66,41.4z M47.47,39.43
			c-0.38,0.36-0.59,0.82-0.64,1.39h4.1c-0.05-0.57-0.27-1.04-0.64-1.39c-0.38-0.36-0.85-0.53-1.41-0.53
			C48.31,38.89,47.84,39.07,47.47,39.43z"/>
		<path class="st2" d="M56.79,44.05l-1.84-2.42l-1.85,2.42h-0.88l2.29-2.97l-2.18-2.82h0.88l1.74,2.27l1.74-2.27h0.86l-2.18,2.82
			l2.31,2.97H56.79z"/>
		<path class="st2" d="M62.63,38.79c0.4,0.38,0.6,0.94,0.6,1.68v3.59h-0.75v-0.9c-0.18,0.3-0.43,0.54-0.78,0.7
			c-0.34,0.17-0.75,0.25-1.22,0.25c-0.65,0-1.16-0.15-1.54-0.46c-0.38-0.31-0.57-0.71-0.57-1.22c0-0.49,0.18-0.89,0.53-1.19
			c0.36-0.3,0.92-0.45,1.7-0.45h1.84v-0.35c0-0.5-0.14-0.88-0.42-1.14c-0.28-0.26-0.69-0.39-1.22-0.39c-0.37,0-0.72,0.06-1.06,0.18
			s-0.63,0.29-0.87,0.5L58.54,39c0.29-0.25,0.65-0.44,1.06-0.58c0.41-0.13,0.84-0.2,1.3-0.2C61.65,38.22,62.23,38.41,62.63,38.79z
			 M61.75,43.19c0.31-0.2,0.55-0.49,0.7-0.88v-0.95h-1.81c-0.99,0-1.48,0.34-1.48,1.03c0,0.34,0.13,0.6,0.38,0.8
			c0.26,0.19,0.62,0.29,1.08,0.29C61.06,43.49,61.44,43.39,61.75,43.19z M61.71,36h1.05l-1.78,1.36H60.2L61.71,36z"/>
		<path class="st2" d="M74.29,38.85c0.41,0.42,0.62,1.03,0.62,1.85v3.36h-0.78v-3.28c0-0.6-0.15-1.06-0.43-1.38
			c-0.29-0.31-0.7-0.47-1.23-0.47c-0.6,0-1.07,0.19-1.42,0.56s-0.52,0.88-0.52,1.53v3.04h-0.78v-3.28c0-0.6-0.15-1.06-0.43-1.38
			c-0.29-0.31-0.7-0.47-1.24-0.47c-0.59,0-1.07,0.19-1.41,0.56c-0.35,0.37-0.52,0.88-0.52,1.53v3.04h-0.78v-5.79h0.75v1.06
			c0.21-0.35,0.49-0.62,0.86-0.81s0.79-0.29,1.27-0.29c0.48,0,0.9,0.1,1.26,0.31c0.36,0.21,0.62,0.51,0.8,0.91
			c0.21-0.38,0.52-0.68,0.92-0.9c0.4-0.22,0.86-0.32,1.37-0.32C73.3,38.22,73.87,38.43,74.29,38.85z"/>
		<path class="st2" d="M82.09,41.4h-4.84c0.04,0.6,0.27,1.09,0.69,1.46s0.95,0.56,1.58,0.56c0.36,0,0.69-0.06,0.99-0.19
			c0.3-0.13,0.56-0.32,0.78-0.57l0.44,0.51c-0.26,0.31-0.58,0.54-0.96,0.7c-0.38,0.16-0.81,0.24-1.27,0.24
			c-0.59,0-1.12-0.13-1.58-0.38s-0.82-0.6-1.07-1.05c-0.26-0.45-0.39-0.95-0.39-1.52c0-0.57,0.12-1.07,0.37-1.52s0.58-0.8,1.01-1.04
			c0.43-0.25,0.91-0.37,1.45-0.37s1.02,0.13,1.44,0.37s0.76,0.6,1,1.04c0.24,0.44,0.36,0.95,0.36,1.52L82.09,41.4z M77.89,39.43
			c-0.38,0.36-0.59,0.82-0.64,1.39h4.1c-0.05-0.57-0.27-1.04-0.64-1.39c-0.38-0.36-0.85-0.53-1.41-0.53
			C78.74,38.89,78.27,39.07,77.89,39.43z"/>
		<path class="st2" d="M88.38,38.86c0.43,0.42,0.64,1.04,0.64,1.84v3.36h-0.78v-3.28c0-0.6-0.15-1.06-0.45-1.38
			c-0.3-0.31-0.73-0.47-1.29-0.47c-0.62,0-1.12,0.19-1.48,0.56c-0.36,0.37-0.54,0.88-0.54,1.53v3.04H83.7v-5.79h0.75v1.07
			c0.21-0.35,0.51-0.63,0.89-0.82c0.38-0.19,0.82-0.29,1.31-0.29C87.37,38.22,87.95,38.43,88.38,38.86z"/>
		<path class="st2" d="M96.2,41.4h-4.84c0.04,0.6,0.27,1.09,0.69,1.46s0.95,0.56,1.58,0.56c0.36,0,0.69-0.06,0.99-0.19
			c0.3-0.13,0.56-0.32,0.78-0.57l0.44,0.51c-0.26,0.31-0.58,0.54-0.96,0.7c-0.38,0.16-0.81,0.24-1.27,0.24
			c-0.59,0-1.12-0.13-1.58-0.38s-0.82-0.6-1.07-1.05c-0.26-0.45-0.39-0.95-0.39-1.52c0-0.57,0.12-1.07,0.37-1.52s0.58-0.8,1.01-1.04
			c0.43-0.25,0.91-0.37,1.45-0.37s1.02,0.13,1.44,0.37s0.76,0.6,1,1.04c0.24,0.44,0.36,0.95,0.36,1.52L96.2,41.4z M92.01,39.43
			c-0.38,0.36-0.59,0.82-0.64,1.39h4.1c-0.05-0.57-0.27-1.04-0.64-1.39c-0.38-0.36-0.85-0.53-1.41-0.53
			C92.85,38.89,92.38,39.07,92.01,39.43z"/>
		<path class="st2" d="M98.01,43.91c-0.43-0.14-0.76-0.31-1.01-0.51l0.35-0.62c0.24,0.19,0.55,0.35,0.91,0.47s0.75,0.18,1.14,0.18
			c0.53,0,0.92-0.08,1.17-0.25c0.25-0.17,0.38-0.4,0.38-0.7c0-0.21-0.07-0.38-0.21-0.5c-0.14-0.12-0.32-0.21-0.53-0.28
			c-0.21-0.06-0.49-0.12-0.85-0.18c-0.47-0.09-0.85-0.18-1.13-0.27c-0.29-0.09-0.53-0.25-0.73-0.47c-0.2-0.22-0.3-0.52-0.3-0.91
			c0-0.48,0.2-0.88,0.6-1.19c0.4-0.31,0.96-0.46,1.68-0.46c0.37,0,0.75,0.05,1.12,0.15c0.37,0.1,0.68,0.23,0.92,0.39l-0.34,0.63
			c-0.48-0.33-1.04-0.5-1.7-0.5c-0.5,0-0.87,0.09-1.13,0.26C98.12,39.33,98,39.57,98,39.85c0,0.22,0.07,0.4,0.21,0.53
			c0.14,0.13,0.32,0.23,0.53,0.29c0.21,0.06,0.51,0.13,0.88,0.19c0.46,0.09,0.83,0.18,1.11,0.26c0.28,0.09,0.52,0.24,0.71,0.45
			c0.2,0.21,0.3,0.51,0.3,0.88c0,0.51-0.21,0.91-0.63,1.2c-0.42,0.3-1.01,0.45-1.75,0.45C98.89,44.11,98.44,44.04,98.01,43.91z"/>
		<path class="st2" d="M103.69,43.08c0.11,0.11,0.16,0.25,0.16,0.42c0,0.09-0.01,0.18-0.04,0.29c-0.03,0.1-0.06,0.22-0.12,0.35
			l-0.46,1.52h-0.53l0.37-1.6c-0.12-0.04-0.21-0.1-0.29-0.2c-0.07-0.1-0.11-0.22-0.11-0.36c0-0.17,0.05-0.31,0.16-0.42
			c0.11-0.11,0.25-0.17,0.42-0.17C103.44,42.91,103.58,42.97,103.69,43.08z"/>
		<path class="st2" d="M15.88,52.79c0.4,0.38,0.6,0.94,0.6,1.68v3.59h-0.75v-0.9c-0.18,0.3-0.43,0.54-0.78,0.7
			c-0.34,0.17-0.75,0.25-1.22,0.25c-0.65,0-1.16-0.15-1.54-0.46c-0.38-0.31-0.57-0.71-0.57-1.22c0-0.49,0.18-0.89,0.53-1.19
			c0.36-0.3,0.92-0.45,1.7-0.45h1.84v-0.35c0-0.5-0.14-0.88-0.42-1.14c-0.28-0.26-0.69-0.39-1.22-0.39c-0.37,0-0.72,0.06-1.06,0.18
			s-0.63,0.29-0.87,0.5L11.79,53c0.29-0.25,0.65-0.44,1.06-0.58c0.41-0.13,0.84-0.2,1.3-0.2C14.9,52.22,15.48,52.41,15.88,52.79z
			 M15,57.19c0.31-0.2,0.55-0.49,0.7-0.88v-0.95h-1.81c-0.99,0-1.48,0.34-1.48,1.03c0,0.34,0.13,0.6,0.38,0.8
			c0.26,0.19,0.62,0.29,1.08,0.29C14.31,57.49,14.69,57.39,15,57.19z"/>
		<path class="st2" d="M19.49,57.73c-0.45-0.25-0.81-0.6-1.06-1.05c-0.26-0.45-0.39-0.96-0.39-1.52c0-0.57,0.13-1.07,0.39-1.52
			c0.26-0.45,0.61-0.8,1.06-1.04c0.45-0.25,0.96-0.37,1.53-0.37c0.5,0,0.94,0.1,1.34,0.29c0.39,0.19,0.7,0.48,0.93,0.85l-0.58,0.4
			c-0.19-0.29-0.43-0.5-0.73-0.64c-0.29-0.14-0.61-0.21-0.96-0.21c-0.42,0-0.79,0.09-1.13,0.28c-0.33,0.19-0.59,0.45-0.78,0.8
			s-0.28,0.74-0.28,1.18c0,0.45,0.09,0.84,0.28,1.18c0.19,0.34,0.45,0.61,0.78,0.79c0.33,0.19,0.71,0.28,1.13,0.28
			c0.34,0,0.66-0.07,0.96-0.21c0.29-0.14,0.54-0.35,0.73-0.64l0.58,0.4c-0.23,0.37-0.54,0.66-0.94,0.85s-0.84,0.29-1.33,0.29
			C20.46,58.11,19.95,57.98,19.49,57.73z"/>
		<path class="st2" d="M27.94,57.7c-0.15,0.13-0.33,0.23-0.54,0.3c-0.22,0.07-0.44,0.1-0.68,0.1c-0.54,0-0.96-0.15-1.25-0.44
			c-0.29-0.29-0.44-0.71-0.44-1.24v-3.5h-1.03v-0.66h1.03V51h0.78v1.26h1.76v0.66H25.8v3.45c0,0.34,0.09,0.61,0.26,0.79
			c0.17,0.18,0.42,0.27,0.74,0.27c0.16,0,0.32-0.03,0.47-0.08c0.15-0.05,0.28-0.12,0.39-0.22L27.94,57.7z"/>
		<path class="st2" d="M29.34,50.84c-0.11-0.11-0.17-0.24-0.17-0.4c0-0.15,0.05-0.27,0.17-0.38c0.11-0.11,0.25-0.17,0.41-0.17
			s0.3,0.05,0.41,0.16c0.11,0.11,0.17,0.23,0.17,0.38c0,0.16-0.06,0.3-0.17,0.41C30.05,50.95,29.91,51,29.75,51
			S29.45,50.95,29.34,50.84z M29.36,52.27h0.78v5.79h-0.78V52.27z"/>
		<path class="st2" d="M37.18,52.27l-2.57,5.79h-0.8l-2.56-5.79h0.81l2.17,4.93l2.19-4.93H37.18z"/>
		<path class="st2" d="M38.27,50.84c-0.11-0.11-0.17-0.24-0.17-0.4c0-0.15,0.05-0.27,0.17-0.38c0.11-0.11,0.25-0.17,0.41-0.17
			s0.3,0.05,0.41,0.16c0.11,0.11,0.17,0.23,0.17,0.38c0,0.16-0.06,0.3-0.17,0.41C38.97,50.95,38.83,51,38.67,51
			S38.38,50.95,38.27,50.84z M38.28,52.27h0.78v5.79h-0.78V52.27z"/>
		<path class="st2" d="M46.52,49.89v8.16h-0.75v-1.14c-0.23,0.39-0.54,0.69-0.93,0.89c-0.38,0.21-0.82,0.31-1.3,0.31
			c-0.54,0-1.03-0.12-1.47-0.37c-0.44-0.25-0.78-0.6-1.03-1.04s-0.37-0.96-0.37-1.53c0-0.57,0.12-1.08,0.37-1.53
			s0.59-0.79,1.03-1.04c0.44-0.25,0.93-0.37,1.47-0.37c0.47,0,0.89,0.1,1.27,0.29c0.38,0.19,0.69,0.48,0.93,0.85v-3.48H46.52z
			 M44.7,57.13c0.33-0.19,0.58-0.45,0.77-0.8s0.28-0.74,0.28-1.18c0-0.44-0.09-0.83-0.28-1.18s-0.44-0.61-0.77-0.8
			C44.37,53,44,52.91,43.6,52.91c-0.41,0-0.78,0.09-1.11,0.28c-0.33,0.19-0.58,0.45-0.77,0.8s-0.28,0.74-0.28,1.18
			c0,0.44,0.09,0.83,0.28,1.18s0.44,0.61,0.77,0.8c0.33,0.19,0.69,0.28,1.11,0.28C44,57.42,44.37,57.32,44.7,57.13z"/>
		<path class="st2" d="M52.46,52.79c0.4,0.38,0.6,0.94,0.6,1.68v3.59h-0.75v-0.9c-0.18,0.3-0.43,0.54-0.78,0.7
			c-0.34,0.17-0.75,0.25-1.22,0.25c-0.65,0-1.16-0.15-1.54-0.46c-0.38-0.31-0.57-0.71-0.57-1.22c0-0.49,0.18-0.89,0.53-1.19
			c0.36-0.3,0.92-0.45,1.7-0.45h1.84v-0.35c0-0.5-0.14-0.88-0.42-1.14c-0.28-0.26-0.69-0.39-1.22-0.39c-0.37,0-0.72,0.06-1.06,0.18
			s-0.63,0.29-0.87,0.5L48.36,53c0.29-0.25,0.65-0.44,1.06-0.58c0.41-0.13,0.84-0.2,1.3-0.2C51.47,52.22,52.05,52.41,52.46,52.79z
			 M51.58,57.19c0.31-0.2,0.55-0.49,0.7-0.88v-0.95h-1.81c-0.99,0-1.48,0.34-1.48,1.03c0,0.34,0.13,0.6,0.38,0.8
			c0.26,0.19,0.62,0.29,1.08,0.29C50.88,57.49,51.26,57.39,51.58,57.19z"/>
		<path class="st2" d="M60.49,49.89v8.16h-0.75v-1.14c-0.23,0.39-0.54,0.69-0.93,0.89c-0.38,0.21-0.82,0.31-1.3,0.31
			c-0.54,0-1.03-0.12-1.47-0.37c-0.44-0.25-0.78-0.6-1.03-1.04s-0.37-0.96-0.37-1.53c0-0.57,0.12-1.08,0.37-1.53
			s0.59-0.79,1.03-1.04c0.44-0.25,0.93-0.37,1.47-0.37c0.47,0,0.89,0.1,1.27,0.29c0.38,0.19,0.69,0.48,0.93,0.85v-3.48H60.49z
			 M58.66,57.13c0.33-0.19,0.58-0.45,0.77-0.8s0.28-0.74,0.28-1.18c0-0.44-0.09-0.83-0.28-1.18s-0.44-0.61-0.77-0.8
			c-0.33-0.19-0.69-0.28-1.09-0.28c-0.41,0-0.78,0.09-1.11,0.28c-0.33,0.19-0.58,0.45-0.77,0.8s-0.28,0.74-0.28,1.18
			c0,0.44,0.09,0.83,0.28,1.18s0.44,0.61,0.77,0.8c0.33,0.19,0.69,0.28,1.11,0.28C57.97,57.42,58.34,57.32,58.66,57.13z"/>
		<path class="st2" d="M67.7,55.4h-4.84c0.04,0.6,0.27,1.09,0.69,1.46s0.95,0.56,1.58,0.56c0.36,0,0.69-0.06,0.99-0.19
			c0.3-0.13,0.56-0.32,0.78-0.57l0.44,0.51c-0.26,0.31-0.58,0.54-0.96,0.7c-0.38,0.16-0.81,0.24-1.27,0.24
			c-0.59,0-1.12-0.13-1.58-0.38s-0.82-0.6-1.07-1.05c-0.26-0.45-0.39-0.95-0.39-1.52c0-0.57,0.12-1.07,0.37-1.52s0.58-0.8,1.01-1.04
			c0.43-0.25,0.91-0.37,1.45-0.37s1.02,0.13,1.44,0.37s0.76,0.6,1,1.04c0.24,0.44,0.36,0.95,0.36,1.52L67.7,55.4z M63.51,53.43
			c-0.38,0.36-0.59,0.82-0.64,1.39h4.1c-0.05-0.57-0.27-1.04-0.64-1.39c-0.38-0.36-0.85-0.53-1.41-0.53
			C64.35,52.89,63.88,53.07,63.51,53.43z"/>
		<path class="st2" d="M69.51,57.91c-0.43-0.14-0.76-0.31-1.01-0.51l0.35-0.62c0.24,0.19,0.55,0.35,0.91,0.47s0.75,0.18,1.14,0.18
			c0.53,0,0.92-0.08,1.17-0.25c0.25-0.17,0.38-0.4,0.38-0.7c0-0.21-0.07-0.38-0.21-0.5c-0.14-0.12-0.32-0.21-0.53-0.28
			c-0.21-0.06-0.49-0.12-0.85-0.18c-0.47-0.09-0.85-0.18-1.13-0.27c-0.29-0.09-0.53-0.25-0.73-0.47c-0.2-0.22-0.3-0.52-0.3-0.91
			c0-0.48,0.2-0.88,0.6-1.19c0.4-0.31,0.96-0.46,1.68-0.46c0.37,0,0.75,0.05,1.12,0.15c0.37,0.1,0.68,0.23,0.92,0.39l-0.34,0.63
			c-0.48-0.33-1.04-0.5-1.7-0.5c-0.5,0-0.87,0.09-1.13,0.26c-0.25,0.18-0.38,0.41-0.38,0.69c0,0.22,0.07,0.4,0.21,0.53
			c0.14,0.13,0.32,0.23,0.53,0.29c0.21,0.06,0.51,0.13,0.88,0.19c0.46,0.09,0.83,0.18,1.11,0.26c0.28,0.09,0.52,0.24,0.71,0.45
			c0.2,0.21,0.3,0.51,0.3,0.88c0,0.51-0.21,0.91-0.63,1.2c-0.42,0.3-1.01,0.45-1.75,0.45C70.39,58.11,69.94,58.04,69.51,57.91z"/>
		<path class="st2" d="M75.19,57.08c0.11,0.11,0.16,0.25,0.16,0.42c0,0.09-0.01,0.18-0.04,0.29c-0.03,0.1-0.06,0.22-0.12,0.35
			l-0.46,1.52h-0.53l0.37-1.6c-0.12-0.04-0.21-0.1-0.29-0.2c-0.07-0.1-0.11-0.22-0.11-0.36c0-0.17,0.05-0.31,0.16-0.42
			c0.11-0.11,0.25-0.17,0.42-0.17C74.94,56.91,75.08,56.97,75.19,57.08z"/>
		<path class="st2" d="M80.76,57.73c-0.45-0.25-0.81-0.6-1.06-1.05c-0.26-0.45-0.39-0.96-0.39-1.52c0-0.57,0.13-1.07,0.39-1.52
			c0.26-0.45,0.61-0.8,1.06-1.04c0.45-0.25,0.96-0.37,1.53-0.37c0.5,0,0.94,0.1,1.34,0.29c0.39,0.19,0.7,0.48,0.93,0.85l-0.58,0.4
			c-0.19-0.29-0.43-0.5-0.73-0.64c-0.29-0.14-0.61-0.21-0.96-0.21c-0.42,0-0.79,0.09-1.13,0.28c-0.33,0.19-0.59,0.45-0.78,0.8
			s-0.28,0.74-0.28,1.18c0,0.45,0.09,0.84,0.28,1.18c0.19,0.34,0.45,0.61,0.78,0.79c0.33,0.19,0.71,0.28,1.13,0.28
			c0.34,0,0.66-0.07,0.96-0.21c0.29-0.14,0.54-0.35,0.73-0.64l0.58,0.4c-0.23,0.37-0.54,0.66-0.94,0.85s-0.84,0.29-1.33,0.29
			C81.73,58.11,81.21,57.98,80.76,57.73z"/>
		<path class="st2" d="M87.66,52.52c0.36-0.2,0.81-0.3,1.35-0.3v0.76l-0.19-0.01c-0.61,0-1.09,0.19-1.43,0.56
			c-0.35,0.37-0.52,0.9-0.52,1.57v2.95h-0.78v-5.79h0.75v1.13C87.02,53.01,87.3,52.72,87.66,52.52z"/>
		<path class="st2" d="M95.4,55.4h-4.84c0.04,0.6,0.27,1.09,0.69,1.46s0.95,0.56,1.58,0.56c0.36,0,0.69-0.06,0.99-0.19
			c0.3-0.13,0.56-0.32,0.78-0.57l0.44,0.51c-0.26,0.31-0.58,0.54-0.96,0.7c-0.38,0.16-0.81,0.24-1.27,0.24
			c-0.59,0-1.12-0.13-1.58-0.38s-0.82-0.6-1.07-1.05c-0.26-0.45-0.39-0.95-0.39-1.52c0-0.57,0.12-1.07,0.37-1.52s0.58-0.8,1.01-1.04
			c0.43-0.25,0.91-0.37,1.45-0.37s1.02,0.13,1.44,0.37s0.76,0.6,1,1.04c0.24,0.44,0.36,0.95,0.36,1.52L95.4,55.4z M91.2,53.43
			c-0.38,0.36-0.59,0.82-0.64,1.39h4.1c-0.05-0.57-0.27-1.04-0.64-1.39c-0.38-0.36-0.85-0.53-1.41-0.53
			C92.05,52.89,91.58,53.07,91.2,53.43z"/>
		<path class="st2" d="M100.6,52.79c0.4,0.38,0.6,0.94,0.6,1.68v3.59h-0.75v-0.9c-0.18,0.3-0.43,0.54-0.78,0.7
			c-0.34,0.17-0.75,0.25-1.22,0.25c-0.65,0-1.16-0.15-1.54-0.46c-0.38-0.31-0.57-0.71-0.57-1.22c0-0.49,0.18-0.89,0.53-1.19
			c0.36-0.3,0.92-0.45,1.7-0.45h1.84v-0.35c0-0.5-0.14-0.88-0.42-1.14c-0.28-0.26-0.69-0.39-1.22-0.39c-0.37,0-0.72,0.06-1.06,0.18
			s-0.63,0.29-0.87,0.5L96.51,53c0.29-0.25,0.65-0.44,1.06-0.58c0.41-0.13,0.84-0.2,1.3-0.2C99.62,52.22,100.2,52.41,100.6,52.79z
			 M99.72,57.19c0.31-0.2,0.55-0.49,0.7-0.88v-0.95h-1.81c-0.99,0-1.48,0.34-1.48,1.03c0,0.34,0.13,0.6,0.38,0.8
			c0.26,0.19,0.62,0.29,1.08,0.29C99.03,57.49,99.41,57.39,99.72,57.19z"/>
		<path class="st2" d="M104.9,52.52c0.36-0.2,0.81-0.3,1.35-0.3v0.76l-0.19-0.01c-0.61,0-1.09,0.19-1.43,0.56
			c-0.35,0.37-0.52,0.9-0.52,1.57v2.95h-0.78v-5.79h0.75v1.13C104.26,53.01,104.53,52.72,104.9,52.52z"/>
		<path class="st2" d="M111.77,50.77c-0.17,0.18-0.26,0.46-0.26,0.81v0.68h1.78v0.66h-1.76v5.13h-0.78v-5.13h-1.03v-0.66h1.03v-0.71
			c0-0.53,0.15-0.95,0.46-1.25c0.3-0.31,0.73-0.46,1.29-0.46c0.22,0,0.43,0.03,0.64,0.09c0.21,0.06,0.38,0.15,0.52,0.27l-0.26,0.58
			c-0.23-0.19-0.51-0.29-0.86-0.29C112.2,50.5,111.94,50.59,111.77,50.77z"/>
		<path class="st2" d="M115.11,57.73c-0.45-0.25-0.8-0.6-1.06-1.05c-0.26-0.45-0.39-0.95-0.39-1.52c0-0.57,0.13-1.07,0.39-1.52
			c0.26-0.45,0.61-0.8,1.06-1.04s0.95-0.37,1.51-0.37c0.56,0,1.06,0.13,1.51,0.37s0.8,0.6,1.05,1.04c0.25,0.45,0.38,0.95,0.38,1.52
			c0,0.56-0.13,1.07-0.38,1.52c-0.25,0.45-0.6,0.8-1.05,1.05s-0.95,0.38-1.51,0.38C116.06,58.11,115.56,57.98,115.11,57.73z
			 M117.72,57.13c0.33-0.19,0.58-0.45,0.76-0.8c0.18-0.34,0.27-0.74,0.27-1.18c0-0.44-0.09-0.83-0.27-1.18
			c-0.18-0.34-0.44-0.61-0.76-0.8c-0.33-0.19-0.69-0.28-1.11-0.28s-0.78,0.09-1.11,0.28c-0.33,0.19-0.58,0.45-0.77,0.8
			s-0.28,0.74-0.28,1.18c0,0.44,0.09,0.83,0.28,1.18s0.44,0.61,0.77,0.8c0.33,0.19,0.69,0.28,1.11,0.28S117.4,57.32,117.72,57.13z"
			/>
		<path class="st2" d="M122.72,52.52c0.36-0.2,0.81-0.3,1.35-0.3v0.76l-0.19-0.01c-0.61,0-1.09,0.19-1.43,0.56
			c-0.35,0.37-0.52,0.9-0.52,1.57v2.95h-0.78v-5.79h0.75v1.13C122.08,53.01,122.35,52.72,122.72,52.52z"/>
		<path class="st2" d="M126.27,57.73c-0.45-0.25-0.8-0.6-1.05-1.05c-0.26-0.45-0.39-0.95-0.39-1.52c0-0.57,0.13-1.07,0.39-1.52
			c0.26-0.45,0.61-0.8,1.05-1.04s0.95-0.37,1.51-0.37c0.56,0,1.06,0.13,1.51,0.37s0.8,0.6,1.05,1.04s0.38,0.95,0.38,1.52
			c0,0.56-0.13,1.07-0.38,1.52s-0.6,0.8-1.05,1.05s-0.95,0.38-1.51,0.38C127.22,58.11,126.72,57.98,126.27,57.73z M128.89,57.13
			c0.33-0.19,0.58-0.45,0.76-0.8c0.18-0.34,0.27-0.74,0.27-1.18c0-0.44-0.09-0.83-0.27-1.18c-0.18-0.34-0.44-0.61-0.76-0.8
			c-0.33-0.19-0.7-0.28-1.11-0.28S127,53,126.68,53.19c-0.33,0.19-0.58,0.45-0.77,0.8c-0.19,0.34-0.28,0.74-0.28,1.18
			c0,0.44,0.09,0.83,0.28,1.18c0.19,0.34,0.44,0.61,0.77,0.8c0.33,0.19,0.7,0.28,1.11,0.28S128.56,57.32,128.89,57.13z"/>
		<path class="st2" d="M132.52,57.91c-0.43-0.14-0.76-0.31-1.01-0.51l0.35-0.62c0.24,0.19,0.55,0.35,0.91,0.47
			c0.37,0.12,0.75,0.18,1.14,0.18c0.53,0,0.92-0.08,1.17-0.25c0.25-0.17,0.38-0.4,0.38-0.7c0-0.21-0.07-0.38-0.21-0.5
			c-0.14-0.12-0.32-0.21-0.53-0.28c-0.21-0.06-0.49-0.12-0.85-0.18c-0.47-0.09-0.85-0.18-1.13-0.27c-0.29-0.09-0.53-0.25-0.73-0.47
			c-0.2-0.22-0.3-0.52-0.3-0.91c0-0.48,0.2-0.88,0.61-1.19c0.4-0.31,0.96-0.46,1.68-0.46c0.37,0,0.75,0.05,1.12,0.15
			c0.37,0.1,0.68,0.23,0.92,0.39l-0.34,0.63c-0.48-0.33-1.04-0.5-1.7-0.5c-0.5,0-0.88,0.09-1.13,0.26
			c-0.25,0.18-0.38,0.41-0.38,0.69c0,0.22,0.07,0.4,0.21,0.53s0.32,0.23,0.53,0.29c0.21,0.06,0.51,0.13,0.88,0.19
			c0.46,0.09,0.83,0.18,1.11,0.26s0.52,0.24,0.71,0.45c0.2,0.21,0.3,0.51,0.3,0.88c0,0.51-0.21,0.91-0.63,1.2
			c-0.42,0.3-1.01,0.45-1.75,0.45C133.4,58.11,132.95,58.04,132.52,57.91z"/>
		<path class="st2" d="M138.2,57.08c0.11,0.11,0.17,0.25,0.17,0.42c0,0.09-0.01,0.18-0.04,0.29s-0.06,0.22-0.12,0.35l-0.46,1.52
			h-0.53l0.38-1.6c-0.12-0.04-0.21-0.1-0.29-0.2c-0.07-0.1-0.11-0.22-0.11-0.36c0-0.17,0.05-0.31,0.16-0.42
			c0.11-0.11,0.25-0.17,0.42-0.17C137.95,56.91,138.09,56.97,138.2,57.08z"/>
		<path class="st2" d="M24.16,71.73c-0.45-0.25-0.81-0.6-1.06-1.05c-0.26-0.45-0.39-0.96-0.39-1.52c0-0.57,0.13-1.07,0.39-1.52
			c0.26-0.45,0.61-0.8,1.06-1.04c0.45-0.25,0.96-0.37,1.53-0.37c0.5,0,0.94,0.1,1.34,0.29c0.39,0.19,0.7,0.48,0.93,0.85l-0.58,0.4
			c-0.19-0.29-0.43-0.5-0.73-0.64c-0.29-0.14-0.61-0.21-0.96-0.21c-0.42,0-0.79,0.09-1.13,0.28c-0.33,0.19-0.59,0.45-0.78,0.8
			s-0.28,0.74-0.28,1.18c0,0.45,0.09,0.84,0.28,1.18c0.19,0.34,0.45,0.61,0.78,0.79c0.33,0.19,0.71,0.28,1.13,0.28
			c0.34,0,0.66-0.07,0.96-0.21c0.29-0.14,0.54-0.35,0.73-0.64l0.58,0.4c-0.23,0.37-0.54,0.66-0.94,0.85s-0.84,0.29-1.33,0.29
			C25.13,72.11,24.61,71.98,24.16,71.73z"/>
		<path class="st2" d="M30.25,71.73c-0.45-0.25-0.8-0.6-1.06-1.05c-0.26-0.45-0.39-0.95-0.39-1.52c0-0.57,0.13-1.07,0.39-1.52
			c0.26-0.45,0.61-0.8,1.06-1.04s0.95-0.37,1.51-0.37c0.56,0,1.06,0.13,1.51,0.37s0.8,0.6,1.05,1.04c0.25,0.45,0.38,0.95,0.38,1.52
			c0,0.56-0.13,1.07-0.38,1.52c-0.25,0.45-0.6,0.8-1.05,1.05s-0.95,0.38-1.51,0.38C31.2,72.11,30.7,71.98,30.25,71.73z M32.87,71.13
			c0.33-0.19,0.58-0.45,0.76-0.8c0.18-0.34,0.27-0.74,0.27-1.18c0-0.44-0.09-0.83-0.27-1.18c-0.18-0.34-0.44-0.61-0.76-0.8
			c-0.33-0.19-0.69-0.28-1.11-0.28s-0.78,0.09-1.11,0.28c-0.33,0.19-0.58,0.45-0.77,0.8s-0.28,0.74-0.28,1.18
			c0,0.44,0.09,0.83,0.28,1.18s0.44,0.61,0.77,0.8c0.33,0.19,0.69,0.28,1.11,0.28S32.54,71.32,32.87,71.13z"/>
		<path class="st2" d="M45.22,66.85c0.41,0.42,0.62,1.03,0.62,1.85v3.36h-0.78v-3.28c0-0.6-0.15-1.06-0.43-1.38
			c-0.29-0.31-0.7-0.47-1.23-0.47c-0.6,0-1.07,0.19-1.42,0.56s-0.52,0.88-0.52,1.53v3.04h-0.78v-3.28c0-0.6-0.15-1.06-0.43-1.38
			c-0.29-0.31-0.7-0.47-1.24-0.47c-0.59,0-1.07,0.19-1.41,0.56c-0.35,0.37-0.52,0.88-0.52,1.53v3.04h-0.78v-5.79h0.75v1.06
			c0.21-0.35,0.49-0.62,0.86-0.81s0.79-0.29,1.27-0.29c0.48,0,0.9,0.1,1.26,0.31c0.36,0.21,0.62,0.51,0.8,0.91
			c0.21-0.38,0.52-0.68,0.92-0.9c0.4-0.22,0.86-0.32,1.37-0.32C44.23,66.22,44.8,66.43,45.22,66.85z"/>
		<path class="st2" d="M52.42,66.59c0.44,0.25,0.78,0.59,1.03,1.04c0.25,0.45,0.37,0.96,0.37,1.53c0,0.58-0.13,1.09-0.37,1.54
			c-0.25,0.45-0.59,0.79-1.03,1.04c-0.44,0.25-0.93,0.37-1.48,0.37c-0.47,0-0.89-0.1-1.27-0.29c-0.38-0.19-0.69-0.48-0.93-0.85v3.22
			h-0.78v-7.92h0.75v1.14c0.23-0.38,0.54-0.67,0.93-0.88c0.38-0.21,0.82-0.31,1.3-0.31C51.49,66.22,51.98,66.35,52.42,66.59z
			 M51.99,71.13c0.33-0.19,0.59-0.45,0.78-0.8s0.28-0.74,0.28-1.18c0-0.44-0.09-0.83-0.28-1.17s-0.45-0.61-0.78-0.8
			c-0.33-0.19-0.7-0.29-1.1-0.29c-0.41,0-0.78,0.1-1.11,0.29c-0.33,0.19-0.58,0.46-0.77,0.8s-0.28,0.73-0.28,1.17
			c0,0.44,0.09,0.83,0.28,1.18s0.44,0.61,0.77,0.8c0.33,0.19,0.69,0.28,1.11,0.28C51.29,71.42,51.66,71.32,51.99,71.13z"/>
		<path class="st2" d="M59.15,66.79c0.4,0.38,0.6,0.94,0.6,1.68v3.59h-0.75v-0.9c-0.18,0.3-0.43,0.54-0.78,0.7
			c-0.34,0.17-0.75,0.25-1.22,0.25c-0.65,0-1.16-0.15-1.54-0.46c-0.38-0.31-0.57-0.71-0.57-1.22c0-0.49,0.18-0.89,0.53-1.19
			c0.36-0.3,0.92-0.45,1.7-0.45h1.84v-0.35c0-0.5-0.14-0.88-0.42-1.14c-0.28-0.26-0.69-0.39-1.22-0.39c-0.37,0-0.72,0.06-1.06,0.18
			s-0.63,0.29-0.87,0.5L55.06,67c0.29-0.25,0.65-0.44,1.06-0.58c0.41-0.13,0.84-0.2,1.3-0.2C58.17,66.22,58.75,66.41,59.15,66.79z
			 M58.27,71.19c0.31-0.2,0.55-0.49,0.7-0.88v-0.95h-1.81c-0.99,0-1.48,0.34-1.48,1.03c0,0.34,0.13,0.6,0.38,0.8
			c0.26,0.19,0.62,0.29,1.08,0.29C57.58,71.49,57.95,71.39,58.27,71.19z"/>
		<path class="st2" d="M63.45,66.52c0.36-0.2,0.81-0.3,1.35-0.3v0.76l-0.19-0.01c-0.61,0-1.09,0.19-1.43,0.56
			c-0.35,0.37-0.52,0.9-0.52,1.57v2.95h-0.78v-5.79h0.75v1.13C62.81,67.01,63.08,66.72,63.45,66.52z"/>
		<path class="st2" d="M69.5,71.7c-0.15,0.13-0.33,0.23-0.54,0.3c-0.22,0.07-0.44,0.1-0.68,0.1c-0.54,0-0.96-0.15-1.25-0.44
			c-0.29-0.29-0.44-0.71-0.44-1.24v-3.5h-1.03v-0.66h1.03V65h0.78v1.26h1.76v0.66h-1.76v3.45c0,0.34,0.09,0.61,0.26,0.79
			c0.17,0.18,0.42,0.27,0.74,0.27c0.16,0,0.32-0.03,0.47-0.08c0.15-0.05,0.28-0.12,0.39-0.22L69.5,71.7z"/>
		<path class="st2" d="M70.91,64.84c-0.11-0.11-0.17-0.24-0.17-0.4c0-0.15,0.05-0.27,0.17-0.38c0.11-0.11,0.25-0.17,0.41-0.17
			s0.3,0.05,0.41,0.16c0.11,0.11,0.17,0.23,0.17,0.38c0,0.16-0.06,0.3-0.17,0.41C71.61,64.95,71.48,65,71.31,65
			S71.02,64.95,70.91,64.84z M70.92,66.27h0.78v5.79h-0.78V66.27z"/>
		<path class="st2" d="M75.45,66.52c0.36-0.2,0.81-0.3,1.35-0.3v0.76l-0.19-0.01c-0.61,0-1.09,0.19-1.43,0.56
			c-0.35,0.37-0.52,0.9-0.52,1.57v2.95h-0.78v-5.79h0.75v1.13C74.81,67.01,75.08,66.72,75.45,66.52z"/>
		<path class="st2" d="M84.93,66.79c0.4,0.38,0.6,0.94,0.6,1.68v3.59h-0.75v-0.9c-0.18,0.3-0.43,0.54-0.78,0.7
			c-0.34,0.17-0.75,0.25-1.22,0.25c-0.65,0-1.16-0.15-1.54-0.46c-0.38-0.31-0.57-0.71-0.57-1.22c0-0.49,0.18-0.89,0.53-1.19
			c0.36-0.3,0.92-0.45,1.7-0.45h1.84v-0.35c0-0.5-0.14-0.88-0.42-1.14c-0.28-0.26-0.69-0.39-1.22-0.39c-0.37,0-0.72,0.06-1.06,0.18
			s-0.63,0.29-0.87,0.5L80.84,67c0.29-0.25,0.65-0.44,1.06-0.58c0.41-0.13,0.84-0.2,1.3-0.2C83.95,66.22,84.53,66.41,84.93,66.79z
			 M84.05,71.19c0.31-0.2,0.55-0.49,0.7-0.88v-0.95h-1.81c-0.99,0-1.48,0.34-1.48,1.03c0,0.34,0.13,0.6,0.38,0.8
			c0.26,0.19,0.62,0.29,1.08,0.29C83.36,71.49,83.74,71.39,84.05,71.19z"/>
		<path class="st2" d="M89.23,66.52c0.36-0.2,0.81-0.3,1.35-0.3v0.76l-0.19-0.01c-0.61,0-1.09,0.19-1.43,0.56
			c-0.35,0.37-0.52,0.9-0.52,1.57v2.95h-0.78v-5.79h0.75v1.13C88.59,67.01,88.86,66.72,89.23,66.52z"/>
		<path class="st2" d="M92.79,71.73c-0.45-0.25-0.81-0.6-1.06-1.05c-0.26-0.45-0.39-0.96-0.39-1.52c0-0.57,0.13-1.07,0.39-1.52
			c0.26-0.45,0.61-0.8,1.06-1.04c0.45-0.25,0.96-0.37,1.53-0.37c0.5,0,0.94,0.1,1.34,0.29c0.39,0.19,0.7,0.48,0.93,0.85l-0.58,0.4
			c-0.19-0.29-0.43-0.5-0.73-0.64c-0.29-0.14-0.61-0.21-0.96-0.21c-0.42,0-0.79,0.09-1.13,0.28c-0.33,0.19-0.59,0.45-0.78,0.8
			s-0.28,0.74-0.28,1.18c0,0.45,0.09,0.84,0.28,1.18c0.19,0.34,0.45,0.61,0.78,0.79c0.33,0.19,0.71,0.28,1.13,0.28
			c0.34,0,0.66-0.07,0.96-0.21c0.29-0.14,0.54-0.35,0.73-0.64l0.58,0.4c-0.23,0.37-0.54,0.66-0.94,0.85s-0.84,0.29-1.33,0.29
			C93.75,72.11,93.24,71.98,92.79,71.73z"/>
		<path class="st2" d="M102.71,66.86c0.43,0.42,0.64,1.04,0.64,1.84v3.36h-0.78v-3.28c0-0.6-0.15-1.06-0.45-1.38
			c-0.3-0.31-0.73-0.47-1.29-0.47c-0.62,0-1.12,0.19-1.48,0.56c-0.36,0.37-0.54,0.88-0.54,1.53v3.04h-0.78v-8.16h0.78v3.39
			c0.21-0.34,0.51-0.6,0.88-0.78c0.37-0.18,0.8-0.28,1.29-0.28C101.71,66.22,102.28,66.43,102.71,66.86z"/>
		<path class="st2" d="M105.47,64.84c-0.11-0.11-0.17-0.24-0.17-0.4c0-0.15,0.05-0.27,0.17-0.38c0.11-0.11,0.25-0.17,0.41-0.17
			s0.3,0.05,0.41,0.16c0.11,0.11,0.17,0.23,0.17,0.38c0,0.16-0.06,0.3-0.17,0.41c-0.11,0.11-0.25,0.17-0.41,0.17
			S105.58,64.95,105.47,64.84z M105.48,66.27h0.78v5.79h-0.78V66.27z"/>
		<path class="st2" d="M113.3,66.27l-2.57,5.79h-0.8l-2.56-5.79h0.81l2.17,4.93l2.19-4.93H113.3z"/>
		<path class="st2" d="M115.09,71.73c-0.45-0.25-0.8-0.6-1.06-1.05c-0.26-0.45-0.39-0.95-0.39-1.52c0-0.57,0.13-1.07,0.39-1.52
			c0.26-0.45,0.61-0.8,1.06-1.04s0.95-0.37,1.51-0.37c0.56,0,1.06,0.13,1.51,0.37s0.8,0.6,1.05,1.04c0.25,0.45,0.38,0.95,0.38,1.52
			c0,0.56-0.13,1.07-0.38,1.52c-0.25,0.45-0.6,0.8-1.05,1.05s-0.95,0.38-1.51,0.38C116.04,72.11,115.54,71.98,115.09,71.73z
			 M117.71,71.13c0.33-0.19,0.58-0.45,0.76-0.8c0.18-0.34,0.27-0.74,0.27-1.18c0-0.44-0.09-0.83-0.27-1.18
			c-0.18-0.34-0.44-0.61-0.76-0.8c-0.33-0.19-0.69-0.28-1.11-0.28s-0.78,0.09-1.11,0.28c-0.33,0.19-0.58,0.45-0.77,0.8
			s-0.28,0.74-0.28,1.18c0,0.44,0.09,0.83,0.28,1.18s0.44,0.61,0.77,0.8c0.33,0.19,0.69,0.28,1.11,0.28S117.38,71.32,117.71,71.13z"
			/>
		<path class="st2" d="M121.34,71.91c-0.43-0.14-0.76-0.31-1.01-0.51l0.35-0.62c0.24,0.19,0.55,0.35,0.91,0.47s0.75,0.18,1.14,0.18
			c0.53,0,0.92-0.08,1.17-0.25c0.25-0.17,0.38-0.4,0.38-0.7c0-0.21-0.07-0.38-0.21-0.5s-0.32-0.21-0.53-0.28
			c-0.21-0.06-0.49-0.12-0.85-0.18c-0.47-0.09-0.85-0.18-1.13-0.27c-0.29-0.09-0.53-0.25-0.73-0.47c-0.2-0.22-0.3-0.52-0.3-0.91
			c0-0.48,0.2-0.88,0.6-1.19c0.4-0.31,0.96-0.46,1.68-0.46c0.37,0,0.75,0.05,1.12,0.15c0.37,0.1,0.68,0.23,0.92,0.39l-0.34,0.63
			c-0.48-0.33-1.04-0.5-1.7-0.5c-0.5,0-0.87,0.09-1.13,0.26c-0.25,0.18-0.38,0.41-0.38,0.69c0,0.22,0.07,0.4,0.21,0.53
			c0.14,0.13,0.32,0.23,0.53,0.29c0.21,0.06,0.51,0.13,0.88,0.19c0.46,0.09,0.83,0.18,1.11,0.26c0.28,0.09,0.52,0.24,0.71,0.45
			c0.2,0.21,0.3,0.51,0.3,0.88c0,0.51-0.21,0.91-0.63,1.2c-0.42,0.3-1.01,0.45-1.75,0.45C122.21,72.11,121.76,72.04,121.34,71.91z"
			/>
		<path class="st2" d="M127.02,71.08c0.11,0.11,0.17,0.25,0.17,0.42c0,0.09-0.01,0.18-0.04,0.29s-0.06,0.22-0.12,0.35l-0.46,1.52
			h-0.53l0.37-1.6c-0.12-0.04-0.21-0.1-0.29-0.2c-0.07-0.1-0.11-0.22-0.11-0.36c0-0.17,0.05-0.31,0.16-0.42
			c0.11-0.11,0.25-0.17,0.42-0.17C126.77,70.91,126.91,70.97,127.02,71.08z"/>
		<path class="st2" d="M21.48,80.86c0.43,0.42,0.64,1.04,0.64,1.84v3.36h-0.78v-3.28c0-0.6-0.15-1.06-0.45-1.38
			c-0.3-0.31-0.73-0.47-1.29-0.47c-0.62,0-1.12,0.19-1.48,0.56c-0.36,0.37-0.54,0.88-0.54,1.53v3.04H16.8v-8.16h0.78v3.39
			c0.21-0.34,0.51-0.6,0.88-0.78c0.37-0.18,0.8-0.28,1.29-0.28C20.47,80.22,21.05,80.43,21.48,80.86z"/>
		<path class="st2" d="M28.01,80.79c0.4,0.38,0.6,0.94,0.6,1.68v3.59h-0.75v-0.9c-0.18,0.3-0.43,0.54-0.78,0.7
			c-0.34,0.17-0.75,0.25-1.22,0.25c-0.65,0-1.16-0.15-1.54-0.46c-0.38-0.31-0.57-0.71-0.57-1.22c0-0.49,0.18-0.89,0.53-1.19
			c0.36-0.3,0.92-0.45,1.7-0.45h1.84v-0.35c0-0.5-0.14-0.88-0.42-1.14c-0.28-0.26-0.69-0.39-1.22-0.39c-0.37,0-0.72,0.06-1.06,0.18
			s-0.63,0.29-0.87,0.5L23.92,81c0.29-0.25,0.65-0.44,1.06-0.58c0.41-0.13,0.84-0.2,1.3-0.2C27.03,80.22,27.61,80.41,28.01,80.79z
			 M27.13,85.19c0.31-0.2,0.55-0.49,0.7-0.88v-0.95h-1.81c-0.99,0-1.48,0.34-1.48,1.03c0,0.34,0.13,0.6,0.38,0.8
			c0.26,0.19,0.62,0.29,1.08,0.29C26.44,85.49,26.81,85.39,27.13,85.19z"/>
		<path class="st2" d="M31.62,85.73c-0.45-0.25-0.81-0.6-1.06-1.05c-0.26-0.45-0.39-0.96-0.39-1.52c0-0.57,0.13-1.07,0.39-1.52
			c0.26-0.45,0.61-0.8,1.06-1.04c0.45-0.25,0.96-0.37,1.53-0.37c0.5,0,0.94,0.1,1.34,0.29c0.39,0.19,0.7,0.48,0.93,0.85l-0.58,0.4
			c-0.19-0.29-0.43-0.5-0.73-0.64c-0.29-0.14-0.61-0.21-0.96-0.21c-0.42,0-0.79,0.09-1.13,0.28c-0.33,0.19-0.59,0.45-0.78,0.8
			s-0.28,0.74-0.28,1.18c0,0.45,0.09,0.84,0.28,1.18c0.19,0.34,0.45,0.61,0.78,0.79c0.33,0.19,0.71,0.28,1.13,0.28
			c0.34,0,0.66-0.07,0.96-0.21c0.29-0.14,0.54-0.35,0.73-0.64l0.58,0.4c-0.23,0.37-0.54,0.66-0.94,0.85s-0.84,0.29-1.33,0.29
			C32.58,86.11,32.07,85.98,31.62,85.73z"/>
		<path class="st2" d="M41.89,83.4h-4.84c0.04,0.6,0.27,1.09,0.69,1.46s0.95,0.56,1.58,0.56c0.36,0,0.69-0.06,0.99-0.19
			c0.3-0.13,0.56-0.32,0.78-0.57l0.44,0.51c-0.26,0.31-0.58,0.54-0.96,0.7c-0.38,0.16-0.81,0.24-1.27,0.24
			c-0.59,0-1.12-0.13-1.58-0.38s-0.82-0.6-1.07-1.05c-0.26-0.45-0.39-0.95-0.39-1.52c0-0.57,0.12-1.07,0.37-1.52s0.58-0.8,1.01-1.04
			c0.43-0.25,0.91-0.37,1.45-0.37s1.02,0.13,1.44,0.37s0.76,0.6,1,1.04c0.24,0.44,0.36,0.95,0.36,1.52L41.89,83.4z M37.69,81.43
			c-0.38,0.36-0.59,0.82-0.64,1.39h4.1c-0.05-0.57-0.27-1.04-0.64-1.39c-0.38-0.36-0.85-0.53-1.41-0.53
			C38.54,80.89,38.07,81.07,37.69,81.43z"/>
		<path class="st2" d="M45.06,80.52c0.36-0.2,0.81-0.3,1.35-0.3v0.76l-0.19-0.01c-0.61,0-1.09,0.19-1.43,0.56
			c-0.35,0.37-0.52,0.9-0.52,1.57v2.95H43.5v-5.79h0.75v1.13C44.43,81.01,44.7,80.72,45.06,80.52z"/>
		<path class="st2" d="M50.99,85.91c-0.43-0.14-0.76-0.31-1.01-0.51l0.35-0.62c0.24,0.19,0.55,0.35,0.91,0.47s0.75,0.18,1.14,0.18
			c0.53,0,0.92-0.08,1.17-0.25c0.25-0.17,0.38-0.4,0.38-0.7c0-0.21-0.07-0.38-0.21-0.5c-0.14-0.12-0.32-0.21-0.53-0.28
			c-0.21-0.06-0.49-0.12-0.85-0.18c-0.47-0.09-0.85-0.18-1.13-0.27c-0.29-0.09-0.53-0.25-0.73-0.47c-0.2-0.22-0.3-0.52-0.3-0.91
			c0-0.48,0.2-0.88,0.6-1.19c0.4-0.31,0.96-0.46,1.68-0.46c0.37,0,0.75,0.05,1.12,0.15c0.37,0.1,0.68,0.23,0.92,0.39l-0.34,0.63
			c-0.48-0.33-1.04-0.5-1.7-0.5c-0.5,0-0.87,0.09-1.13,0.26c-0.25,0.18-0.38,0.41-0.38,0.69c0,0.22,0.07,0.4,0.21,0.53
			c0.14,0.13,0.32,0.23,0.53,0.29c0.21,0.06,0.51,0.13,0.88,0.19c0.46,0.09,0.83,0.18,1.11,0.26c0.28,0.09,0.52,0.24,0.71,0.45
			c0.2,0.21,0.3,0.51,0.3,0.88c0,0.51-0.21,0.91-0.63,1.2c-0.42,0.3-1.01,0.45-1.75,0.45C51.87,86.11,51.42,86.04,50.99,85.91z"/>
		<path class="st2" d="M61.21,83.4h-4.84c0.04,0.6,0.27,1.09,0.69,1.46s0.95,0.56,1.58,0.56c0.36,0,0.69-0.06,0.99-0.19
			c0.3-0.13,0.56-0.32,0.78-0.57l0.44,0.51c-0.26,0.31-0.58,0.54-0.96,0.7c-0.38,0.16-0.81,0.24-1.27,0.24
			c-0.59,0-1.12-0.13-1.58-0.38s-0.82-0.6-1.07-1.05c-0.26-0.45-0.39-0.95-0.39-1.52c0-0.57,0.12-1.07,0.37-1.52s0.58-0.8,1.01-1.04
			c0.43-0.25,0.91-0.37,1.45-0.37s1.02,0.13,1.44,0.37s0.76,0.6,1,1.04c0.24,0.44,0.36,0.95,0.36,1.52L61.21,83.4z M57.01,81.43
			c-0.38,0.36-0.59,0.82-0.64,1.39h4.1c-0.05-0.57-0.27-1.04-0.64-1.39c-0.38-0.36-0.85-0.53-1.41-0.53
			C57.85,80.89,57.39,81.07,57.01,81.43z"/>
		<path class="st2" d="M68.17,80.27v5.08c0,0.98-0.24,1.71-0.72,2.18c-0.48,0.47-1.2,0.71-2.17,0.71c-0.54,0-1.04-0.08-1.52-0.24
			c-0.48-0.16-0.87-0.38-1.17-0.65l0.4-0.59c0.28,0.25,0.62,0.44,1.02,0.58c0.4,0.14,0.82,0.21,1.26,0.21
			c0.73,0,1.27-0.17,1.62-0.51s0.52-0.87,0.52-1.59v-0.74c-0.24,0.37-0.56,0.65-0.95,0.84c-0.39,0.19-0.83,0.29-1.3,0.29
			c-0.54,0-1.04-0.12-1.48-0.36c-0.44-0.24-0.79-0.57-1.04-1c-0.25-0.43-0.38-0.92-0.38-1.46c0-0.54,0.13-1.03,0.38-1.45
			c0.25-0.42,0.6-0.75,1.04-0.99c0.44-0.24,0.94-0.35,1.49-0.35c0.49,0,0.94,0.1,1.33,0.3s0.71,0.48,0.96,0.86v-1.11H68.17z
			 M66.34,84.87c0.34-0.18,0.6-0.43,0.79-0.75c0.19-0.32,0.28-0.69,0.28-1.1c0-0.41-0.09-0.78-0.28-1.09
			c-0.19-0.32-0.45-0.57-0.78-0.75c-0.33-0.18-0.71-0.27-1.14-0.27c-0.42,0-0.79,0.09-1.13,0.26s-0.59,0.42-0.78,0.75
			c-0.19,0.32-0.28,0.69-0.28,1.1c0,0.41,0.09,0.78,0.28,1.1c0.19,0.32,0.45,0.57,0.78,0.75s0.71,0.27,1.13,0.27
			S66.01,85.05,66.34,84.87z"/>
		<path class="st2" d="M75.57,80.27v5.79h-0.75V85c-0.21,0.35-0.49,0.63-0.85,0.82s-0.77,0.29-1.23,0.29
			c-0.76,0-1.35-0.21-1.79-0.63c-0.44-0.42-0.65-1.04-0.65-1.85v-3.36h0.78v3.28c0,0.61,0.15,1.07,0.45,1.39
			c0.3,0.32,0.73,0.47,1.29,0.47c0.61,0,1.09-0.18,1.44-0.55c0.35-0.37,0.53-0.89,0.53-1.55v-3.04H75.57z"/>
		<path class="st2" d="M77.75,78.84c-0.11-0.11-0.17-0.24-0.17-0.4c0-0.15,0.05-0.27,0.17-0.38c0.11-0.11,0.25-0.17,0.41-0.17
			s0.3,0.05,0.41,0.16c0.11,0.11,0.17,0.23,0.17,0.38c0,0.16-0.06,0.3-0.17,0.41C78.45,78.95,78.32,79,78.16,79
			S77.86,78.95,77.75,78.84z M77.76,80.27h0.78v5.79h-0.78V80.27z"/>
		<path class="st2" d="M89.65,80.85c0.41,0.42,0.62,1.03,0.62,1.85v3.36h-0.78v-3.28c0-0.6-0.15-1.06-0.43-1.38
			c-0.29-0.31-0.7-0.47-1.23-0.47c-0.6,0-1.07,0.19-1.42,0.56s-0.52,0.88-0.52,1.53v3.04h-0.78v-3.28c0-0.6-0.15-1.06-0.43-1.38
			c-0.29-0.31-0.7-0.47-1.24-0.47c-0.59,0-1.07,0.19-1.41,0.56c-0.35,0.37-0.52,0.88-0.52,1.53v3.04h-0.78v-5.79h0.75v1.06
			c0.21-0.35,0.49-0.62,0.86-0.81s0.79-0.29,1.27-0.29c0.48,0,0.9,0.1,1.26,0.31c0.36,0.21,0.62,0.51,0.8,0.91
			c0.21-0.38,0.52-0.68,0.92-0.9c0.4-0.22,0.86-0.32,1.37-0.32C88.66,80.22,89.23,80.43,89.65,80.85z"/>
		<path class="st2" d="M92.38,78.84c-0.11-0.11-0.17-0.24-0.17-0.4c0-0.15,0.05-0.27,0.17-0.38c0.11-0.11,0.25-0.17,0.41-0.17
			s0.3,0.05,0.41,0.16c0.11,0.11,0.17,0.23,0.17,0.38c0,0.16-0.06,0.3-0.17,0.41C93.08,78.95,92.95,79,92.79,79
			S92.49,78.95,92.38,78.84z M92.39,80.27h0.78v5.79h-0.78V80.27z"/>
		<path class="st2" d="M100.39,83.4h-4.84c0.04,0.6,0.27,1.09,0.69,1.46s0.95,0.56,1.58,0.56c0.36,0,0.69-0.06,0.99-0.19
			c0.3-0.13,0.56-0.32,0.78-0.57l0.44,0.51c-0.26,0.31-0.58,0.54-0.96,0.7c-0.38,0.16-0.81,0.24-1.27,0.24
			c-0.59,0-1.12-0.13-1.58-0.38s-0.82-0.6-1.07-1.05c-0.26-0.45-0.39-0.95-0.39-1.52c0-0.57,0.12-1.07,0.37-1.52s0.58-0.8,1.01-1.04
			c0.43-0.25,0.91-0.37,1.45-0.37s1.02,0.13,1.44,0.37s0.76,0.6,1,1.04c0.24,0.44,0.36,0.95,0.36,1.52L100.39,83.4z M96.19,81.43
			c-0.38,0.36-0.59,0.82-0.64,1.39h4.1c-0.05-0.57-0.27-1.04-0.64-1.39c-0.38-0.36-0.85-0.53-1.41-0.53
			C97.04,80.89,96.57,81.07,96.19,81.43z"/>
		<path class="st2" d="M106.67,80.86c0.43,0.42,0.64,1.04,0.64,1.84v3.36h-0.78v-3.28c0-0.6-0.15-1.06-0.45-1.38
			c-0.3-0.31-0.73-0.47-1.29-0.47c-0.62,0-1.12,0.19-1.48,0.56c-0.36,0.37-0.54,0.88-0.54,1.53v3.04h-0.78v-5.79h0.75v1.07
			c0.21-0.35,0.51-0.63,0.89-0.82c0.38-0.19,0.82-0.29,1.31-0.29C105.67,80.22,106.25,80.43,106.67,80.86z"/>
		<path class="st2" d="M112.49,85.7c-0.15,0.13-0.33,0.23-0.54,0.3c-0.22,0.07-0.44,0.1-0.68,0.1c-0.54,0-0.96-0.15-1.25-0.44
			c-0.29-0.29-0.44-0.71-0.44-1.24v-3.5h-1.03v-0.66h1.03V79h0.78v1.26h1.76v0.66h-1.76v3.45c0,0.34,0.09,0.61,0.26,0.79
			c0.17,0.18,0.42,0.27,0.74,0.27c0.16,0,0.32-0.03,0.47-0.08c0.15-0.05,0.28-0.12,0.39-0.22L112.49,85.7z"/>
		<path class="st2" d="M114.56,85.73c-0.45-0.25-0.8-0.6-1.06-1.05c-0.26-0.45-0.39-0.95-0.39-1.52c0-0.57,0.13-1.07,0.39-1.52
			c0.26-0.45,0.61-0.8,1.06-1.04s0.95-0.37,1.51-0.37c0.56,0,1.06,0.13,1.51,0.37s0.8,0.6,1.05,1.04c0.25,0.45,0.38,0.95,0.38,1.52
			c0,0.56-0.13,1.07-0.38,1.52c-0.25,0.45-0.6,0.8-1.05,1.05s-0.95,0.38-1.51,0.38C115.51,86.11,115,85.98,114.56,85.73z
			 M117.17,85.13c0.33-0.19,0.58-0.45,0.76-0.8c0.18-0.34,0.27-0.74,0.27-1.18c0-0.44-0.09-0.83-0.27-1.18
			c-0.18-0.34-0.44-0.61-0.76-0.8c-0.33-0.19-0.69-0.28-1.11-0.28s-0.78,0.09-1.11,0.28c-0.33,0.19-0.58,0.45-0.77,0.8
			s-0.28,0.74-0.28,1.18c0,0.44,0.09,0.83,0.28,1.18s0.44,0.61,0.77,0.8c0.33,0.19,0.69,0.28,1.11,0.28S116.84,85.32,117.17,85.13z"
			/>
		<path class="st2" d="M120.8,85.91c-0.43-0.14-0.76-0.31-1.01-0.51l0.35-0.62c0.24,0.19,0.55,0.35,0.91,0.47s0.75,0.18,1.14,0.18
			c0.53,0,0.92-0.08,1.17-0.25c0.25-0.17,0.38-0.4,0.38-0.7c0-0.21-0.07-0.38-0.21-0.5c-0.14-0.12-0.32-0.21-0.53-0.28
			c-0.21-0.06-0.49-0.12-0.85-0.18c-0.47-0.09-0.85-0.18-1.13-0.27c-0.29-0.09-0.53-0.25-0.73-0.47c-0.2-0.22-0.3-0.52-0.3-0.91
			c0-0.48,0.2-0.88,0.6-1.19c0.4-0.31,0.96-0.46,1.68-0.46c0.37,0,0.75,0.05,1.12,0.15c0.37,0.1,0.68,0.23,0.92,0.39l-0.34,0.63
			c-0.48-0.33-1.04-0.5-1.7-0.5c-0.5,0-0.87,0.09-1.13,0.26c-0.25,0.18-0.38,0.41-0.38,0.69c0,0.22,0.07,0.4,0.21,0.53
			c0.14,0.13,0.32,0.23,0.53,0.29c0.21,0.06,0.51,0.13,0.88,0.19c0.46,0.09,0.83,0.18,1.11,0.26c0.28,0.09,0.52,0.24,0.71,0.45
			c0.2,0.21,0.3,0.51,0.3,0.88c0,0.51-0.21,0.91-0.63,1.2c-0.42,0.3-1.01,0.45-1.75,0.45C121.68,86.11,121.23,86.04,120.8,85.91z"/>
		<path class="st2" d="M132.62,80.79c0.4,0.38,0.6,0.94,0.6,1.68v3.59h-0.75v-0.9c-0.18,0.3-0.43,0.54-0.78,0.7
			c-0.34,0.17-0.75,0.25-1.21,0.25c-0.65,0-1.16-0.15-1.54-0.46c-0.38-0.31-0.57-0.71-0.57-1.22c0-0.49,0.18-0.89,0.53-1.19
			c0.36-0.3,0.92-0.45,1.7-0.45h1.84v-0.35c0-0.5-0.14-0.88-0.42-1.14c-0.28-0.26-0.69-0.39-1.22-0.39c-0.37,0-0.72,0.06-1.06,0.18
			s-0.63,0.29-0.87,0.5L128.52,81c0.29-0.25,0.65-0.44,1.06-0.58c0.41-0.13,0.84-0.2,1.3-0.2
			C131.63,80.22,132.21,80.41,132.62,80.79z M131.74,85.19c0.31-0.2,0.55-0.49,0.7-0.88v-0.95h-1.81c-0.99,0-1.48,0.34-1.48,1.03
			c0,0.34,0.13,0.6,0.38,0.8c0.26,0.19,0.62,0.29,1.08,0.29C131.04,85.49,131.42,85.39,131.74,85.19z"/>
		<path class="st2" d="M18.8,97.4h-4.84c0.04,0.6,0.27,1.09,0.69,1.46s0.95,0.56,1.58,0.56c0.36,0,0.69-0.06,0.99-0.19
			c0.3-0.13,0.56-0.32,0.78-0.57l0.44,0.51c-0.26,0.31-0.58,0.54-0.96,0.7c-0.38,0.16-0.81,0.24-1.27,0.24
			c-0.59,0-1.12-0.13-1.58-0.38s-0.82-0.6-1.07-1.05c-0.26-0.45-0.39-0.95-0.39-1.52c0-0.57,0.12-1.07,0.37-1.52s0.58-0.8,1.01-1.04
			c0.43-0.25,0.91-0.37,1.45-0.37s1.02,0.13,1.44,0.37s0.76,0.6,1,1.04c0.24,0.44,0.36,0.95,0.36,1.52L18.8,97.4z M14.61,95.43
			c-0.38,0.36-0.59,0.82-0.64,1.39h4.1c-0.05-0.57-0.27-1.04-0.64-1.39c-0.38-0.36-0.85-0.53-1.41-0.53
			C15.45,94.89,14.98,95.07,14.61,95.43z"/>
		<path class="st2" d="M20.61,99.91c-0.43-0.14-0.76-0.31-1.01-0.51l0.35-0.62c0.24,0.19,0.55,0.35,0.91,0.47s0.75,0.18,1.14,0.18
			c0.53,0,0.92-0.08,1.17-0.25c0.25-0.17,0.38-0.4,0.38-0.7c0-0.21-0.07-0.38-0.21-0.5c-0.14-0.12-0.32-0.21-0.53-0.28
			c-0.21-0.06-0.49-0.12-0.85-0.18c-0.47-0.09-0.85-0.18-1.13-0.27c-0.29-0.09-0.53-0.25-0.73-0.47c-0.2-0.22-0.3-0.52-0.3-0.91
			c0-0.48,0.2-0.88,0.6-1.19c0.4-0.31,0.96-0.46,1.68-0.46c0.37,0,0.75,0.05,1.12,0.15c0.37,0.1,0.68,0.23,0.92,0.39l-0.34,0.63
			c-0.48-0.33-1.04-0.5-1.7-0.5c-0.5,0-0.87,0.09-1.13,0.26c-0.25,0.18-0.38,0.41-0.38,0.69c0,0.22,0.07,0.4,0.21,0.53
			c0.14,0.13,0.32,0.23,0.53,0.29c0.21,0.06,0.51,0.13,0.88,0.19c0.46,0.09,0.83,0.18,1.11,0.26c0.28,0.09,0.52,0.24,0.71,0.45
			c0.2,0.21,0.3,0.51,0.3,0.88c0,0.51-0.21,0.91-0.63,1.2c-0.42,0.3-1.01,0.45-1.75,0.45C21.49,100.11,21.04,100.04,20.61,99.91z"/>
		<path class="st2" d="M28.83,99.7c-0.15,0.13-0.33,0.23-0.54,0.3c-0.22,0.07-0.44,0.1-0.68,0.1c-0.54,0-0.96-0.15-1.25-0.44
			c-0.29-0.29-0.44-0.71-0.44-1.24v-3.5h-1.03v-0.66h1.03V93h0.78v1.26h1.76v0.66H26.7v3.45c0,0.34,0.09,0.61,0.26,0.79
			c0.17,0.18,0.42,0.27,0.74,0.27c0.16,0,0.32-0.03,0.47-0.08c0.15-0.05,0.28-0.12,0.39-0.22L28.83,99.7z"/>
		<path class="st2" d="M35.47,94.27v5.79h-0.75V99c-0.21,0.35-0.49,0.63-0.85,0.82s-0.77,0.29-1.23,0.29
			c-0.76,0-1.35-0.21-1.79-0.63c-0.44-0.42-0.65-1.04-0.65-1.85v-3.36h0.78v3.28c0,0.61,0.15,1.07,0.45,1.39
			c0.3,0.32,0.73,0.47,1.29,0.47c0.61,0,1.09-0.18,1.44-0.55c0.35-0.37,0.53-0.89,0.53-1.55v-3.04H35.47z"/>
		<path class="st2" d="M42.94,91.89v8.16h-0.75v-1.14c-0.23,0.39-0.54,0.69-0.93,0.89c-0.38,0.21-0.82,0.31-1.3,0.31
			c-0.54,0-1.03-0.12-1.47-0.37c-0.44-0.25-0.78-0.6-1.03-1.04s-0.37-0.96-0.37-1.53c0-0.57,0.12-1.08,0.37-1.53
			s0.59-0.79,1.03-1.04c0.44-0.25,0.93-0.37,1.47-0.37c0.47,0,0.89,0.1,1.27,0.29c0.38,0.19,0.69,0.48,0.93,0.85v-3.48H42.94z
			 M41.11,99.13c0.33-0.19,0.58-0.45,0.77-0.8s0.28-0.74,0.28-1.18c0-0.44-0.09-0.83-0.28-1.18s-0.44-0.61-0.77-0.8
			c-0.33-0.19-0.69-0.28-1.09-0.28c-0.41,0-0.78,0.09-1.11,0.28c-0.33,0.19-0.58,0.45-0.77,0.8s-0.28,0.74-0.28,1.18
			c0,0.44,0.09,0.83,0.28,1.18s0.44,0.61,0.77,0.8c0.33,0.19,0.69,0.28,1.11,0.28C40.42,99.42,40.79,99.32,41.11,99.13z"/>
		<path class="st2" d="M45.1,92.84c-0.11-0.11-0.17-0.24-0.17-0.4c0-0.15,0.05-0.27,0.17-0.38c0.11-0.11,0.25-0.17,0.41-0.17
			s0.3,0.05,0.41,0.16c0.11,0.11,0.17,0.23,0.17,0.38c0,0.16-0.06,0.3-0.17,0.41C45.81,92.95,45.67,93,45.51,93
			S45.21,92.95,45.1,92.84z M45.11,94.27h0.78v5.79h-0.78V94.27z"/>
		<path class="st2" d="M51.83,94.79c0.4,0.38,0.6,0.94,0.6,1.68v3.59h-0.75v-0.9c-0.18,0.3-0.43,0.54-0.78,0.7
			c-0.34,0.17-0.75,0.25-1.22,0.25c-0.65,0-1.16-0.15-1.54-0.46c-0.38-0.31-0.57-0.71-0.57-1.22c0-0.49,0.18-0.89,0.53-1.19
			c0.36-0.3,0.92-0.45,1.7-0.45h1.84v-0.35c0-0.5-0.14-0.88-0.42-1.14c-0.28-0.26-0.69-0.39-1.22-0.39c-0.37,0-0.72,0.06-1.06,0.18
			s-0.63,0.29-0.87,0.5L47.74,95c0.29-0.25,0.65-0.44,1.06-0.58c0.41-0.13,0.84-0.2,1.3-0.2C50.85,94.22,51.43,94.41,51.83,94.79z
			 M50.95,99.19c0.31-0.2,0.55-0.49,0.7-0.88v-0.95h-1.81c-0.99,0-1.48,0.34-1.48,1.03c0,0.34,0.13,0.6,0.38,0.8
			c0.26,0.19,0.62,0.29,1.08,0.29C50.26,99.49,50.64,99.39,50.95,99.19z"/>
		<path class="st2" d="M59.24,94.86c0.43,0.42,0.64,1.04,0.64,1.84v3.36h-0.78v-3.28c0-0.6-0.15-1.06-0.45-1.38
			c-0.3-0.31-0.73-0.47-1.29-0.47c-0.62,0-1.12,0.19-1.48,0.56c-0.36,0.37-0.54,0.88-0.54,1.53v3.04h-0.78v-5.79h0.75v1.07
			c0.21-0.35,0.51-0.63,0.89-0.82c0.38-0.19,0.82-0.29,1.31-0.29C58.24,94.22,58.81,94.43,59.24,94.86z"/>
		<path class="st2" d="M65.06,99.7c-0.15,0.13-0.33,0.23-0.54,0.3c-0.22,0.07-0.44,0.1-0.68,0.1c-0.54,0-0.96-0.15-1.25-0.44
			c-0.29-0.29-0.44-0.71-0.44-1.24v-3.5h-1.03v-0.66h1.03V93h0.78v1.26h1.76v0.66h-1.76v3.45c0,0.34,0.09,0.61,0.26,0.79
			c0.17,0.18,0.42,0.27,0.74,0.27c0.16,0,0.32-0.03,0.47-0.08c0.15-0.05,0.28-0.12,0.39-0.22L65.06,99.7z"/>
		<path class="st2" d="M71.3,97.4h-4.84c0.04,0.6,0.27,1.09,0.69,1.46s0.95,0.56,1.58,0.56c0.36,0,0.69-0.06,0.99-0.19
			c0.3-0.13,0.56-0.32,0.78-0.57l0.44,0.51c-0.26,0.31-0.58,0.54-0.96,0.7c-0.38,0.16-0.81,0.24-1.27,0.24
			c-0.59,0-1.12-0.13-1.58-0.38s-0.82-0.6-1.07-1.05c-0.26-0.45-0.39-0.95-0.39-1.52c0-0.57,0.12-1.07,0.37-1.52s0.58-0.8,1.01-1.04
			c0.43-0.25,0.91-0.37,1.45-0.37s1.02,0.13,1.44,0.37s0.76,0.6,1,1.04c0.24,0.44,0.36,0.95,0.36,1.52L71.3,97.4z M67.11,95.43
			c-0.38,0.36-0.59,0.82-0.64,1.39h4.1c-0.05-0.57-0.27-1.04-0.64-1.39c-0.38-0.36-0.85-0.53-1.41-0.53
			C67.95,94.89,67.49,95.07,67.11,95.43z"/>
		<path class="st2" d="M73.11,99.91c-0.43-0.14-0.76-0.31-1.01-0.51l0.35-0.62c0.24,0.19,0.55,0.35,0.91,0.47s0.75,0.18,1.14,0.18
			c0.53,0,0.92-0.08,1.17-0.25c0.25-0.17,0.38-0.4,0.38-0.7c0-0.21-0.07-0.38-0.21-0.5c-0.14-0.12-0.32-0.21-0.53-0.28
			c-0.21-0.06-0.49-0.12-0.85-0.18c-0.47-0.09-0.85-0.18-1.13-0.27c-0.29-0.09-0.53-0.25-0.73-0.47c-0.2-0.22-0.3-0.52-0.3-0.91
			c0-0.48,0.2-0.88,0.6-1.19c0.4-0.31,0.96-0.46,1.68-0.46c0.37,0,0.75,0.05,1.12,0.15c0.37,0.1,0.68,0.23,0.92,0.39l-0.34,0.63
			c-0.48-0.33-1.04-0.5-1.7-0.5c-0.5,0-0.87,0.09-1.13,0.26c-0.25,0.18-0.38,0.41-0.38,0.69c0,0.22,0.07,0.4,0.21,0.53
			c0.14,0.13,0.32,0.23,0.53,0.29c0.21,0.06,0.51,0.13,0.88,0.19c0.46,0.09,0.83,0.18,1.11,0.26c0.28,0.09,0.52,0.24,0.71,0.45
			c0.2,0.21,0.3,0.51,0.3,0.88c0,0.51-0.21,0.91-0.63,1.2c-0.42,0.3-1.01,0.45-1.75,0.45C73.99,100.11,73.54,100.04,73.11,99.91z"/>
		<path class="st2" d="M78.8,99.08c0.11,0.11,0.16,0.25,0.16,0.42c0,0.09-0.01,0.18-0.04,0.29c-0.03,0.1-0.06,0.22-0.12,0.35
			l-0.46,1.52h-0.53l0.37-1.6c-0.12-0.04-0.21-0.1-0.29-0.2c-0.07-0.1-0.11-0.22-0.11-0.36c0-0.17,0.05-0.31,0.16-0.42
			c0.11-0.11,0.25-0.17,0.42-0.17C78.55,98.91,78.68,98.97,78.8,99.08z"/>
		<path class="st2" d="M88.78,91.89v8.16h-0.75v-1.14c-0.23,0.39-0.54,0.69-0.93,0.89c-0.38,0.21-0.82,0.31-1.3,0.31
			c-0.54,0-1.03-0.12-1.47-0.37c-0.44-0.25-0.78-0.6-1.03-1.04s-0.37-0.96-0.37-1.53c0-0.57,0.12-1.08,0.37-1.53
			s0.59-0.79,1.03-1.04c0.44-0.25,0.93-0.37,1.47-0.37c0.47,0,0.89,0.1,1.27,0.29c0.38,0.19,0.69,0.48,0.93,0.85v-3.48H88.78z
			 M86.96,99.13c0.33-0.19,0.58-0.45,0.77-0.8s0.28-0.74,0.28-1.18c0-0.44-0.09-0.83-0.28-1.18s-0.44-0.61-0.77-0.8
			c-0.33-0.19-0.69-0.28-1.09-0.28c-0.41,0-0.78,0.09-1.11,0.28c-0.33,0.19-0.58,0.45-0.77,0.8s-0.28,0.74-0.28,1.18
			c0,0.44,0.09,0.83,0.28,1.18s0.44,0.61,0.77,0.8c0.33,0.19,0.69,0.28,1.11,0.28C86.27,99.42,86.64,99.32,86.96,99.13z"/>
		<path class="st2" d="M96,97.4h-4.84c0.04,0.6,0.27,1.09,0.69,1.46s0.95,0.56,1.58,0.56c0.36,0,0.69-0.06,0.99-0.19
			c0.3-0.13,0.56-0.32,0.78-0.57l0.44,0.51c-0.26,0.31-0.58,0.54-0.96,0.7c-0.38,0.16-0.81,0.24-1.27,0.24
			c-0.59,0-1.12-0.13-1.58-0.38s-0.82-0.6-1.07-1.05c-0.26-0.45-0.39-0.95-0.39-1.52c0-0.57,0.12-1.07,0.37-1.52s0.58-0.8,1.01-1.04
			c0.43-0.25,0.91-0.37,1.45-0.37s1.02,0.13,1.44,0.37s0.76,0.6,1,1.04c0.24,0.44,0.36,0.95,0.36,1.52L96,97.4z M91.8,95.43
			c-0.38,0.36-0.59,0.82-0.64,1.39h4.1c-0.05-0.57-0.27-1.04-0.64-1.39c-0.38-0.36-0.85-0.53-1.41-0.53
			C92.65,94.89,92.18,95.07,91.8,95.43z"/>
		<path class="st2" d="M97.81,99.91c-0.43-0.14-0.76-0.31-1.01-0.51l0.35-0.62c0.24,0.19,0.55,0.35,0.91,0.47s0.75,0.18,1.14,0.18
			c0.53,0,0.92-0.08,1.17-0.25c0.25-0.17,0.38-0.4,0.38-0.7c0-0.21-0.07-0.38-0.21-0.5c-0.14-0.12-0.32-0.21-0.53-0.28
			c-0.21-0.06-0.49-0.12-0.85-0.18c-0.47-0.09-0.85-0.18-1.13-0.27c-0.29-0.09-0.53-0.25-0.73-0.47c-0.2-0.22-0.3-0.52-0.3-0.91
			c0-0.48,0.2-0.88,0.6-1.19c0.4-0.31,0.96-0.46,1.68-0.46c0.37,0,0.75,0.05,1.12,0.15c0.37,0.1,0.68,0.23,0.92,0.39L101,95.39
			c-0.48-0.33-1.04-0.5-1.7-0.5c-0.5,0-0.87,0.09-1.13,0.26c-0.25,0.18-0.38,0.41-0.38,0.69c0,0.22,0.07,0.4,0.21,0.53
			c0.14,0.13,0.32,0.23,0.53,0.29c0.21,0.06,0.51,0.13,0.88,0.19c0.46,0.09,0.83,0.18,1.11,0.26c0.28,0.09,0.52,0.24,0.71,0.45
			c0.2,0.21,0.3,0.51,0.3,0.88c0,0.51-0.21,0.91-0.63,1.2c-0.42,0.3-1.01,0.45-1.75,0.45C98.69,100.11,98.24,100.04,97.81,99.91z"/>
		<path class="st2" d="M103.85,99.73c-0.45-0.25-0.81-0.6-1.06-1.05c-0.26-0.45-0.39-0.96-0.39-1.52c0-0.57,0.13-1.07,0.39-1.52
			c0.26-0.45,0.61-0.8,1.06-1.04c0.45-0.25,0.96-0.37,1.53-0.37c0.5,0,0.94,0.1,1.34,0.29c0.39,0.19,0.7,0.48,0.93,0.85l-0.58,0.4
			c-0.19-0.29-0.43-0.5-0.73-0.64c-0.29-0.14-0.61-0.21-0.96-0.21c-0.42,0-0.79,0.09-1.13,0.28c-0.33,0.19-0.59,0.45-0.78,0.8
			s-0.28,0.74-0.28,1.18c0,0.45,0.09,0.84,0.28,1.18c0.19,0.34,0.45,0.61,0.78,0.79c0.33,0.19,0.71,0.28,1.13,0.28
			c0.34,0,0.66-0.07,0.96-0.21c0.29-0.14,0.54-0.35,0.73-0.64l0.58,0.4c-0.23,0.37-0.54,0.66-0.94,0.85s-0.84,0.29-1.33,0.29
			C104.81,100.11,104.3,99.98,103.85,99.73z"/>
		<path class="st2" d="M112.94,94.79c0.4,0.38,0.6,0.94,0.6,1.68v3.59h-0.75v-0.9c-0.18,0.3-0.43,0.54-0.78,0.7
			c-0.34,0.17-0.75,0.25-1.22,0.25c-0.65,0-1.16-0.15-1.54-0.46c-0.38-0.31-0.57-0.71-0.57-1.22c0-0.49,0.18-0.89,0.53-1.19
			c0.36-0.3,0.92-0.45,1.7-0.45h1.84v-0.35c0-0.5-0.14-0.88-0.42-1.14c-0.28-0.26-0.69-0.39-1.22-0.39c-0.37,0-0.72,0.06-1.06,0.18
			s-0.63,0.29-0.87,0.5L108.85,95c0.29-0.25,0.65-0.44,1.06-0.58c0.41-0.13,0.84-0.2,1.3-0.2
			C111.96,94.22,112.54,94.41,112.94,94.79z M112.06,99.19c0.31-0.2,0.55-0.49,0.7-0.88v-0.95h-1.81c-0.99,0-1.48,0.34-1.48,1.03
			c0,0.34,0.13,0.6,0.38,0.8c0.26,0.19,0.62,0.29,1.08,0.29C111.37,99.49,111.74,99.39,112.06,99.19z"/>
		<path class="st2" d="M117.23,94.52c0.36-0.2,0.81-0.3,1.35-0.3v0.76l-0.19-0.01c-0.61,0-1.09,0.19-1.43,0.56
			c-0.35,0.37-0.52,0.9-0.52,1.57v2.95h-0.78v-5.79h0.75v1.13C116.6,95.01,116.87,94.72,117.23,94.52z"/>
		<path class="st2" d="M125.29,94.27v5.08c0,0.98-0.24,1.71-0.72,2.18c-0.48,0.47-1.2,0.71-2.17,0.71c-0.54,0-1.04-0.08-1.52-0.24
			c-0.48-0.16-0.87-0.38-1.17-0.65l0.4-0.59c0.28,0.25,0.62,0.44,1.02,0.58c0.4,0.14,0.82,0.21,1.26,0.21
			c0.73,0,1.27-0.17,1.62-0.51c0.34-0.34,0.52-0.87,0.52-1.59v-0.74c-0.24,0.37-0.56,0.65-0.95,0.84c-0.39,0.19-0.83,0.29-1.3,0.29
			c-0.54,0-1.04-0.12-1.48-0.36c-0.44-0.24-0.79-0.57-1.04-1c-0.25-0.43-0.38-0.92-0.38-1.46c0-0.54,0.13-1.03,0.38-1.45
			c0.25-0.42,0.6-0.75,1.04-0.99c0.44-0.24,0.94-0.35,1.49-0.35c0.49,0,0.94,0.1,1.33,0.3s0.71,0.48,0.96,0.86v-1.11H125.29z
			 M123.47,98.87c0.34-0.18,0.6-0.43,0.79-0.75c0.19-0.32,0.28-0.69,0.28-1.1c0-0.41-0.09-0.78-0.28-1.09
			c-0.19-0.32-0.45-0.57-0.78-0.75c-0.33-0.18-0.71-0.27-1.14-0.27c-0.42,0-0.79,0.09-1.13,0.26s-0.59,0.42-0.78,0.75
			c-0.19,0.32-0.28,0.69-0.28,1.1c0,0.41,0.09,0.78,0.28,1.1c0.19,0.32,0.45,0.57,0.78,0.75s0.71,0.27,1.13,0.27
			S123.13,99.05,123.47,98.87z"/>
		<path class="st2" d="M131.24,94.79c0.4,0.38,0.61,0.94,0.61,1.68v3.59h-0.75v-0.9c-0.18,0.3-0.43,0.54-0.78,0.7
			c-0.34,0.17-0.75,0.25-1.22,0.25c-0.65,0-1.16-0.15-1.54-0.46c-0.38-0.31-0.57-0.71-0.57-1.22c0-0.49,0.18-0.89,0.53-1.19
			c0.36-0.3,0.92-0.45,1.7-0.45h1.84v-0.35c0-0.5-0.14-0.88-0.42-1.14c-0.28-0.26-0.69-0.39-1.22-0.39c-0.37,0-0.72,0.06-1.06,0.18
			c-0.34,0.12-0.63,0.29-0.87,0.5L127.15,95c0.29-0.25,0.65-0.44,1.06-0.58c0.41-0.13,0.84-0.2,1.3-0.2
			C130.26,94.22,130.84,94.41,131.24,94.79z M130.36,99.19c0.31-0.2,0.55-0.49,0.7-0.88v-0.95h-1.81c-0.99,0-1.49,0.34-1.49,1.03
			c0,0.34,0.13,0.6,0.38,0.8s0.62,0.29,1.08,0.29C129.67,99.49,130.05,99.39,130.36,99.19z"/>
		<path class="st2" d="M135.54,94.52c0.36-0.2,0.81-0.3,1.35-0.3v0.76l-0.19-0.01c-0.61,0-1.09,0.19-1.43,0.56
			c-0.35,0.37-0.52,0.9-0.52,1.57v2.95h-0.78v-5.79h0.75v1.13C134.9,95.01,135.18,94.72,135.54,94.52z"/>
		<path class="st2" d="M27.78,108.52c0.36-0.2,0.81-0.3,1.35-0.3v0.76l-0.19-0.01c-0.61,0-1.09,0.19-1.43,0.56
			c-0.35,0.37-0.52,0.9-0.52,1.57v2.95h-0.78v-5.79h0.75v1.13C27.14,109.01,27.41,108.72,27.78,108.52z"/>
		<path class="st2" d="M35.52,111.4h-4.84c0.04,0.6,0.27,1.09,0.69,1.46s0.95,0.56,1.58,0.56c0.36,0,0.69-0.06,0.99-0.19
			c0.3-0.13,0.56-0.32,0.78-0.57l0.44,0.51c-0.26,0.31-0.58,0.54-0.96,0.7c-0.38,0.16-0.81,0.24-1.27,0.24
			c-0.59,0-1.12-0.13-1.58-0.38s-0.82-0.6-1.07-1.05c-0.26-0.45-0.39-0.95-0.39-1.52c0-0.57,0.12-1.07,0.37-1.52s0.58-0.8,1.01-1.04
			c0.43-0.25,0.91-0.37,1.45-0.37s1.02,0.13,1.44,0.37s0.76,0.6,1,1.04c0.24,0.44,0.36,0.95,0.36,1.52L35.52,111.4z M31.32,109.43
			c-0.38,0.36-0.59,0.82-0.64,1.39h4.1c-0.05-0.57-0.27-1.04-0.64-1.39c-0.38-0.36-0.85-0.53-1.41-0.53
			C32.16,108.89,31.7,109.07,31.32,109.43z"/>
		<path class="st2" d="M41.58,108.59c0.44,0.25,0.78,0.59,1.03,1.04c0.25,0.45,0.37,0.96,0.37,1.53c0,0.58-0.13,1.09-0.37,1.54
			c-0.25,0.45-0.59,0.79-1.03,1.04c-0.44,0.25-0.93,0.37-1.48,0.37c-0.47,0-0.89-0.1-1.27-0.29c-0.38-0.19-0.69-0.48-0.93-0.85v3.22
			h-0.78v-7.92h0.75v1.14c0.23-0.38,0.54-0.67,0.93-0.88c0.38-0.21,0.82-0.31,1.3-0.31C40.65,108.22,41.14,108.35,41.58,108.59z
			 M41.15,113.13c0.33-0.19,0.59-0.45,0.78-0.8s0.28-0.74,0.28-1.18c0-0.44-0.09-0.83-0.28-1.17s-0.45-0.61-0.78-0.8
			c-0.33-0.19-0.7-0.29-1.1-0.29c-0.41,0-0.78,0.1-1.11,0.29c-0.33,0.19-0.58,0.46-0.77,0.8s-0.28,0.73-0.28,1.17
			c0,0.44,0.09,0.83,0.28,1.18s0.44,0.61,0.77,0.8c0.33,0.19,0.69,0.28,1.11,0.28C40.45,113.42,40.82,113.32,41.15,113.13z"/>
		<path class="st2" d="M45.44,113.73c-0.45-0.25-0.8-0.6-1.06-1.05c-0.26-0.45-0.39-0.95-0.39-1.52c0-0.57,0.13-1.07,0.39-1.52
			c0.26-0.45,0.61-0.8,1.06-1.04s0.95-0.37,1.51-0.37c0.56,0,1.06,0.13,1.51,0.37s0.8,0.6,1.05,1.04c0.25,0.45,0.38,0.95,0.38,1.52
			c0,0.56-0.13,1.07-0.38,1.52c-0.25,0.45-0.6,0.8-1.05,1.05s-0.95,0.38-1.51,0.38C46.39,114.11,45.89,113.98,45.44,113.73z
			 M48.05,113.13c0.33-0.19,0.58-0.45,0.76-0.8c0.18-0.34,0.27-0.74,0.27-1.18c0-0.44-0.09-0.83-0.27-1.18
			c-0.18-0.34-0.44-0.61-0.76-0.8c-0.33-0.19-0.69-0.28-1.11-0.28s-0.78,0.09-1.11,0.28c-0.33,0.19-0.58,0.45-0.77,0.8
			s-0.28,0.74-0.28,1.18c0,0.44,0.09,0.83,0.28,1.18s0.44,0.61,0.77,0.8c0.33,0.19,0.69,0.28,1.11,0.28S47.72,113.32,48.05,113.13z"
			/>
		<path class="st2" d="M53.04,108.52c0.36-0.2,0.81-0.3,1.35-0.3v0.76l-0.19-0.01c-0.61,0-1.09,0.19-1.43,0.56
			c-0.35,0.37-0.52,0.9-0.52,1.57v2.95h-0.78v-5.79h0.75v1.13C52.41,109.01,52.68,108.72,53.04,108.52z"/>
		<path class="st2" d="M59.1,113.7c-0.15,0.13-0.33,0.23-0.54,0.3c-0.22,0.07-0.44,0.1-0.68,0.1c-0.54,0-0.96-0.15-1.25-0.44
			c-0.29-0.29-0.44-0.71-0.44-1.24v-3.5h-1.03v-0.66h1.03V107h0.78v1.26h1.76v0.66h-1.76v3.45c0,0.34,0.09,0.61,0.26,0.79
			c0.17,0.18,0.42,0.27,0.74,0.27c0.16,0,0.32-0.03,0.47-0.08c0.15-0.05,0.28-0.12,0.39-0.22L59.1,113.7z"/>
		<path class="st2" d="M65.35,111.4h-4.84c0.04,0.6,0.27,1.09,0.69,1.46s0.95,0.56,1.58,0.56c0.36,0,0.69-0.06,0.99-0.19
			c0.3-0.13,0.56-0.32,0.78-0.57l0.44,0.51c-0.26,0.31-0.58,0.54-0.96,0.7c-0.38,0.16-0.81,0.24-1.27,0.24
			c-0.59,0-1.12-0.13-1.58-0.38s-0.82-0.6-1.07-1.05c-0.26-0.45-0.39-0.95-0.39-1.52c0-0.57,0.12-1.07,0.37-1.52s0.58-0.8,1.01-1.04
			c0.43-0.25,0.91-0.37,1.45-0.37s1.02,0.13,1.44,0.37s0.76,0.6,1,1.04c0.24,0.44,0.36,0.95,0.36,1.52L65.35,111.4z M61.15,109.43
			c-0.38,0.36-0.59,0.82-0.64,1.39h4.1c-0.05-0.57-0.27-1.04-0.64-1.39c-0.38-0.36-0.85-0.53-1.41-0.53
			C62,108.89,61.53,109.07,61.15,109.43z"/>
		<path class="st2" d="M67.16,113.91c-0.43-0.14-0.76-0.31-1.01-0.51l0.35-0.62c0.24,0.19,0.55,0.35,0.91,0.47s0.75,0.18,1.14,0.18
			c0.53,0,0.92-0.08,1.17-0.25c0.25-0.17,0.38-0.4,0.38-0.7c0-0.21-0.07-0.38-0.21-0.5c-0.14-0.12-0.32-0.21-0.53-0.28
			c-0.21-0.06-0.49-0.12-0.85-0.18c-0.47-0.09-0.85-0.18-1.13-0.27c-0.29-0.09-0.53-0.25-0.73-0.47c-0.2-0.22-0.3-0.52-0.3-0.91
			c0-0.48,0.2-0.88,0.6-1.19c0.4-0.31,0.96-0.46,1.68-0.46c0.37,0,0.75,0.05,1.12,0.15c0.37,0.1,0.68,0.23,0.92,0.39l-0.34,0.63
			c-0.48-0.33-1.04-0.5-1.7-0.5c-0.5,0-0.87,0.09-1.13,0.26c-0.25,0.18-0.38,0.41-0.38,0.69c0,0.22,0.07,0.4,0.21,0.53
			c0.14,0.13,0.32,0.23,0.53,0.29c0.21,0.06,0.51,0.13,0.88,0.19c0.46,0.09,0.83,0.18,1.11,0.26c0.28,0.09,0.52,0.24,0.71,0.45
			c0.2,0.21,0.3,0.51,0.3,0.88c0,0.51-0.21,0.91-0.63,1.2c-0.42,0.3-1.01,0.45-1.75,0.45C68.03,114.11,67.59,114.04,67.16,113.91z"
			/>
		<path class="st2" d="M72.84,113.08c0.11,0.11,0.16,0.25,0.16,0.42c0,0.09-0.01,0.18-0.04,0.29c-0.03,0.1-0.06,0.22-0.12,0.35
			l-0.46,1.52h-0.53l0.37-1.6c-0.12-0.04-0.21-0.1-0.29-0.2c-0.07-0.1-0.11-0.22-0.11-0.36c0-0.17,0.05-0.31,0.16-0.42
			c0.11-0.11,0.25-0.17,0.42-0.17C72.59,112.91,72.73,112.97,72.84,113.08z"/>
		<path class="st2" d="M82.41,108.27l-2.89,6.48c-0.23,0.54-0.51,0.93-0.81,1.15c-0.31,0.23-0.68,0.34-1.11,0.34
			c-0.28,0-0.54-0.04-0.78-0.13s-0.45-0.22-0.63-0.4l0.36-0.58c0.29,0.29,0.65,0.44,1.06,0.44c0.26,0,0.49-0.07,0.68-0.22
			s0.36-0.4,0.52-0.75l0.25-0.56l-2.58-5.78h0.81l2.18,4.92l2.18-4.92H82.41z"/>
		<path class="st2" d="M95.32,108.85c0.41,0.42,0.62,1.03,0.62,1.85v3.36h-0.78v-3.28c0-0.6-0.15-1.06-0.43-1.38
			c-0.29-0.31-0.7-0.47-1.23-0.47c-0.6,0-1.07,0.19-1.42,0.56s-0.52,0.88-0.52,1.53v3.04h-0.78v-3.28c0-0.6-0.15-1.06-0.43-1.38
			c-0.29-0.31-0.7-0.47-1.24-0.47c-0.59,0-1.07,0.19-1.41,0.56c-0.35,0.37-0.52,0.88-0.52,1.53v3.04h-0.78v-5.79h0.75v1.06
			c0.21-0.35,0.49-0.62,0.86-0.81s0.79-0.29,1.27-0.29c0.48,0,0.9,0.1,1.26,0.31c0.36,0.21,0.62,0.51,0.8,0.91
			c0.21-0.38,0.52-0.68,0.92-0.9c0.4-0.22,0.86-0.32,1.37-0.32C94.33,108.22,94.9,108.43,95.32,108.85z"/>
		<path class="st2" d="M103.28,108.27v5.79h-0.75V113c-0.21,0.35-0.49,0.63-0.85,0.82s-0.77,0.29-1.23,0.29
			c-0.76,0-1.35-0.21-1.79-0.63c-0.44-0.42-0.65-1.04-0.65-1.85v-3.36h0.78v3.28c0,0.61,0.15,1.07,0.45,1.39
			c0.3,0.32,0.73,0.47,1.29,0.47c0.61,0,1.09-0.18,1.44-0.55c0.35-0.37,0.53-0.89,0.53-1.55v-3.04H103.28z"/>
		<path class="st2" d="M106.33,113.73c-0.45-0.25-0.81-0.6-1.06-1.05c-0.26-0.45-0.39-0.96-0.39-1.52c0-0.57,0.13-1.07,0.39-1.52
			c0.26-0.45,0.61-0.8,1.06-1.04c0.45-0.25,0.96-0.37,1.53-0.37c0.5,0,0.94,0.1,1.34,0.29c0.39,0.19,0.7,0.48,0.93,0.85l-0.58,0.4
			c-0.19-0.29-0.43-0.5-0.73-0.64c-0.29-0.14-0.61-0.21-0.96-0.21c-0.42,0-0.79,0.09-1.13,0.28c-0.33,0.19-0.59,0.45-0.78,0.8
			s-0.28,0.74-0.28,1.18c0,0.45,0.09,0.84,0.28,1.18c0.19,0.34,0.45,0.61,0.78,0.79c0.33,0.19,0.71,0.28,1.13,0.28
			c0.34,0,0.66-0.07,0.96-0.21c0.29-0.14,0.54-0.35,0.73-0.64l0.58,0.4c-0.23,0.37-0.54,0.66-0.94,0.85s-0.84,0.29-1.33,0.29
			C107.29,114.11,106.78,113.98,106.33,113.73z"/>
		<path class="st2" d="M116.25,108.86c0.43,0.42,0.64,1.04,0.64,1.84v3.36h-0.78v-3.28c0-0.6-0.15-1.06-0.45-1.38
			c-0.3-0.31-0.73-0.47-1.29-0.47c-0.62,0-1.12,0.19-1.48,0.56c-0.36,0.37-0.54,0.88-0.54,1.53v3.04h-0.78v-8.16h0.78v3.39
			c0.21-0.34,0.51-0.6,0.88-0.78c0.37-0.18,0.8-0.28,1.29-0.28C115.24,108.22,115.82,108.43,116.25,108.86z"/>
		<path class="st2" d="M119.9,113.73c-0.45-0.25-0.8-0.6-1.06-1.05c-0.26-0.45-0.39-0.95-0.39-1.52c0-0.57,0.13-1.07,0.39-1.52
			c0.26-0.45,0.61-0.8,1.06-1.04s0.95-0.37,1.51-0.37c0.56,0,1.06,0.13,1.51,0.37s0.8,0.6,1.05,1.04c0.25,0.45,0.38,0.95,0.38,1.52
			c0,0.56-0.13,1.07-0.38,1.52c-0.25,0.45-0.6,0.8-1.05,1.05s-0.95,0.38-1.51,0.38C120.84,114.11,120.34,113.98,119.9,113.73z
			 M122.51,113.13c0.33-0.19,0.58-0.45,0.76-0.8c0.18-0.34,0.27-0.74,0.27-1.18c0-0.44-0.09-0.83-0.27-1.18
			c-0.18-0.34-0.44-0.61-0.76-0.8c-0.33-0.19-0.69-0.28-1.11-0.28s-0.78,0.09-1.11,0.28c-0.33,0.19-0.58,0.45-0.77,0.8
			s-0.28,0.74-0.28,1.18c0,0.44,0.09,0.83,0.28,1.18s0.44,0.61,0.77,0.8c0.33,0.19,0.69,0.28,1.11,0.28S122.18,113.32,122.51,113.13
			z"/>
		<path class="st2" d="M72.06,122.85c0.41,0.42,0.62,1.03,0.62,1.85v3.36H71.9v-3.28c0-0.6-0.15-1.06-0.43-1.38
			c-0.29-0.31-0.7-0.47-1.23-0.47c-0.6,0-1.07,0.19-1.42,0.56s-0.52,0.88-0.52,1.53v3.04h-0.78v-3.28c0-0.6-0.15-1.06-0.43-1.38
			c-0.29-0.31-0.7-0.47-1.24-0.47c-0.59,0-1.07,0.19-1.41,0.56c-0.35,0.37-0.52,0.88-0.52,1.53v3.04h-0.78v-5.79h0.75v1.06
			c0.21-0.35,0.49-0.62,0.86-0.81s0.79-0.29,1.27-0.29c0.48,0,0.9,0.1,1.26,0.31c0.36,0.21,0.62,0.51,0.8,0.91
			c0.21-0.38,0.52-0.68,0.92-0.9c0.4-0.22,0.86-0.32,1.37-0.32C71.08,122.22,71.65,122.43,72.06,122.85z"/>
		<path class="st2" d="M78.57,122.79c0.4,0.38,0.6,0.94,0.6,1.68v3.59h-0.75v-0.9c-0.18,0.3-0.43,0.54-0.78,0.7
			c-0.34,0.17-0.75,0.25-1.22,0.25c-0.65,0-1.16-0.15-1.54-0.46c-0.38-0.31-0.57-0.71-0.57-1.22c0-0.49,0.18-0.89,0.53-1.19
			c0.36-0.3,0.92-0.45,1.7-0.45h1.84v-0.35c0-0.5-0.14-0.88-0.42-1.14c-0.28-0.26-0.69-0.39-1.22-0.39c-0.37,0-0.72,0.06-1.06,0.18
			s-0.63,0.29-0.87,0.5L74.48,123c0.29-0.25,0.65-0.44,1.06-0.58c0.41-0.13,0.84-0.2,1.3-0.2
			C77.59,122.22,78.17,122.41,78.57,122.79z M77.69,127.19c0.31-0.2,0.55-0.49,0.7-0.88v-0.95h-1.81c-0.99,0-1.48,0.34-1.48,1.03
			c0,0.34,0.13,0.6,0.38,0.8c0.26,0.19,0.62,0.29,1.08,0.29C77,127.49,77.37,127.39,77.69,127.19z M77.65,120h1.05l-1.78,1.36h-0.77
			L77.65,120z"/>
		<path class="st2" d="M81.5,127.91c-0.43-0.14-0.76-0.31-1.01-0.51l0.35-0.62c0.24,0.19,0.55,0.35,0.91,0.47s0.75,0.18,1.14,0.18
			c0.53,0,0.92-0.08,1.17-0.25c0.25-0.17,0.38-0.4,0.38-0.7c0-0.21-0.07-0.38-0.21-0.5c-0.14-0.12-0.32-0.21-0.53-0.28
			c-0.21-0.06-0.49-0.12-0.85-0.18c-0.47-0.09-0.85-0.18-1.13-0.27c-0.29-0.09-0.53-0.25-0.73-0.47c-0.2-0.22-0.3-0.52-0.3-0.91
			c0-0.48,0.2-0.88,0.6-1.19c0.4-0.31,0.96-0.46,1.68-0.46c0.37,0,0.75,0.05,1.12,0.15c0.37,0.1,0.68,0.23,0.92,0.39l-0.34,0.63
			c-0.48-0.33-1.04-0.5-1.7-0.5c-0.5,0-0.87,0.09-1.13,0.26c-0.25,0.18-0.38,0.41-0.38,0.69c0,0.22,0.07,0.4,0.21,0.53
			c0.14,0.13,0.32,0.23,0.53,0.29c0.21,0.06,0.51,0.13,0.88,0.19c0.46,0.09,0.83,0.18,1.11,0.26c0.28,0.09,0.52,0.24,0.71,0.45
			c0.2,0.21,0.3,0.51,0.3,0.88c0,0.51-0.21,0.91-0.63,1.2c-0.42,0.3-1.01,0.45-1.75,0.45C82.38,128.11,81.93,128.04,81.5,127.91z"/>
		<path class="st2" d="M86.34,127.93c-0.11-0.12-0.17-0.26-0.17-0.43s0.06-0.31,0.17-0.42c0.11-0.11,0.25-0.17,0.41-0.17
			c0.16,0,0.3,0.06,0.42,0.17c0.12,0.11,0.18,0.25,0.18,0.42s-0.06,0.31-0.18,0.43s-0.26,0.18-0.42,0.18
			C86.59,128.11,86.45,128.05,86.34,127.93z"/>
	</g>
</g>
</svg>
