<?xml version="1.0" encoding="utf-8"?>
<!-- Generator: Adobe Illustrator 23.0.5, SVG Export Plug-In . SVG Version: 6.00 Build 0)  -->
<svg version="1.1" id="Capa_1" xmlns="http://www.w3.org/2000/svg" xmlns:xlink="http://www.w3.org/1999/xlink" x="0px" y="0px"
	 viewBox="0 0 150 150" style="enable-background:new 0 0 150 150;" xml:space="preserve">
<style type="text/css">
	.st0{fill:#FFFFFF;}
	.st1{fill:#F6931E;}
	.st2{fill:#002C38;}
</style>
<g>
	<circle class="st0" cx="75" cy="75" r="74.25"/>
	<path class="st1" d="M75,1.5c40.53,0,73.5,32.97,73.5,73.5s-32.97,73.5-73.5,73.5S1.5,115.53,1.5,75S34.47,1.5,75,1.5 M75,0
		C33.58,0,0,33.58,0,75s33.58,75,75,75s75-33.58,75-75S116.42,0,75,0L75,0z"/>
</g>
<g>
	<g>
		<path class="st2" d="M33.97,42.25c-0.56-0.57-0.84-1.4-0.84-2.5v-4.41h0.81v4.38c0,0.9,0.2,1.56,0.6,2
			c0.4,0.44,0.99,0.66,1.75,0.66c0.77,0,1.36-0.22,1.76-0.66c0.4-0.44,0.61-1.11,0.61-2v-4.38h0.79v4.41c0,1.09-0.28,1.92-0.83,2.5
			c-0.55,0.57-1.33,0.86-2.33,0.86C35.3,43.11,34.53,42.82,33.97,42.25z"/>
		<path class="st2" d="M46.41,37.84c0.43,0.42,0.64,1.04,0.64,1.84v3.36h-0.78v-3.28c0-0.6-0.15-1.06-0.45-1.38
			c-0.3-0.31-0.73-0.47-1.29-0.47c-0.62,0-1.12,0.19-1.48,0.56s-0.54,0.88-0.54,1.53v3.04h-0.78v-5.79h0.75v1.07
			c0.21-0.35,0.51-0.63,0.89-0.82c0.38-0.19,0.82-0.29,1.31-0.29C45.4,37.21,45.98,37.42,46.41,37.84z"/>
		<path class="st2" d="M52.91,37.78c0.4,0.38,0.61,0.94,0.61,1.68v3.59h-0.75v-0.9c-0.18,0.3-0.43,0.54-0.78,0.7
			c-0.34,0.17-0.75,0.25-1.22,0.25c-0.65,0-1.16-0.15-1.54-0.46c-0.38-0.31-0.57-0.71-0.57-1.22c0-0.49,0.18-0.89,0.53-1.19
			c0.36-0.3,0.92-0.45,1.7-0.45h1.84v-0.35c0-0.5-0.14-0.88-0.42-1.14c-0.28-0.26-0.69-0.39-1.22-0.39c-0.37,0-0.72,0.06-1.06,0.18
			c-0.34,0.12-0.63,0.29-0.87,0.5l-0.35-0.58c0.29-0.25,0.65-0.44,1.06-0.58c0.41-0.13,0.84-0.2,1.3-0.2
			C51.93,37.21,52.51,37.4,52.91,37.78z M52.03,42.18c0.31-0.2,0.55-0.49,0.7-0.88v-0.95h-1.81c-0.99,0-1.49,0.34-1.49,1.03
			c0,0.34,0.13,0.6,0.38,0.8s0.62,0.29,1.08,0.29C51.34,42.48,51.72,42.38,52.03,42.18z"/>
		<path class="st2" d="M62.93,37.58c0.44,0.25,0.78,0.59,1.03,1.04c0.25,0.45,0.38,0.96,0.38,1.53c0,0.58-0.13,1.09-0.38,1.54
			c-0.25,0.45-0.59,0.79-1.03,1.04s-0.93,0.37-1.48,0.37c-0.47,0-0.89-0.1-1.27-0.29s-0.69-0.48-0.93-0.85v3.22h-0.78v-7.92h0.75
			v1.14c0.23-0.38,0.54-0.67,0.93-0.88c0.38-0.21,0.82-0.31,1.3-0.31C62,37.21,62.49,37.33,62.93,37.58z M62.5,42.12
			c0.33-0.19,0.59-0.45,0.78-0.8c0.19-0.34,0.28-0.74,0.28-1.18c0-0.44-0.09-0.83-0.28-1.17c-0.19-0.34-0.45-0.61-0.78-0.8
			c-0.33-0.19-0.7-0.29-1.1-0.29c-0.41,0-0.78,0.1-1.11,0.29c-0.33,0.19-0.58,0.46-0.77,0.8c-0.19,0.34-0.28,0.73-0.28,1.17
			c0,0.44,0.09,0.83,0.28,1.18c0.19,0.34,0.44,0.61,0.77,0.8c0.33,0.19,0.69,0.28,1.11,0.28C61.81,42.4,62.17,42.31,62.5,42.12z"/>
		<path class="st2" d="M65.91,34.88h0.78v8.16h-0.78V34.88z"/>
		<path class="st2" d="M72.61,37.78c0.4,0.38,0.61,0.94,0.61,1.68v3.59h-0.75v-0.9c-0.18,0.3-0.44,0.54-0.78,0.7
			c-0.34,0.17-0.75,0.25-1.22,0.25c-0.64,0-1.16-0.15-1.54-0.46c-0.38-0.31-0.57-0.71-0.57-1.22c0-0.49,0.18-0.89,0.53-1.19
			c0.36-0.3,0.92-0.45,1.7-0.45h1.84v-0.35c0-0.5-0.14-0.88-0.42-1.14c-0.28-0.26-0.69-0.39-1.22-0.39c-0.37,0-0.72,0.06-1.06,0.18
			s-0.63,0.29-0.87,0.5l-0.35-0.58c0.29-0.25,0.64-0.44,1.06-0.58c0.41-0.13,0.84-0.2,1.3-0.2C71.63,37.21,72.21,37.4,72.61,37.78z
			 M71.73,42.18c0.32-0.2,0.55-0.49,0.7-0.88v-0.95h-1.82c-0.99,0-1.49,0.34-1.49,1.03c0,0.34,0.13,0.6,0.38,0.8
			c0.26,0.19,0.62,0.29,1.08,0.29C71.04,42.48,71.42,42.38,71.73,42.18z"/>
		<path class="st2" d="M78.37,42.69c-0.15,0.13-0.33,0.23-0.54,0.3c-0.22,0.07-0.44,0.1-0.68,0.1c-0.54,0-0.96-0.15-1.25-0.44
			s-0.44-0.71-0.44-1.24v-3.5h-1.03v-0.66h1.03v-1.26h0.78v1.26h1.76v0.66h-1.76v3.45c0,0.34,0.09,0.61,0.26,0.79
			s0.42,0.27,0.74,0.27c0.16,0,0.32-0.03,0.47-0.08c0.15-0.05,0.28-0.12,0.39-0.22L78.37,42.69z"/>
		<path class="st2" d="M83.53,37.78c0.4,0.38,0.6,0.94,0.6,1.68v3.59h-0.75v-0.9c-0.18,0.3-0.43,0.54-0.78,0.7
			c-0.34,0.17-0.75,0.25-1.22,0.25c-0.64,0-1.16-0.15-1.54-0.46c-0.38-0.31-0.57-0.71-0.57-1.22c0-0.49,0.18-0.89,0.53-1.19
			c0.36-0.3,0.92-0.45,1.7-0.45h1.84v-0.35c0-0.5-0.14-0.88-0.42-1.14c-0.28-0.26-0.69-0.39-1.22-0.39c-0.37,0-0.72,0.06-1.06,0.18
			c-0.34,0.12-0.63,0.29-0.87,0.5l-0.35-0.58c0.29-0.25,0.65-0.44,1.06-0.58c0.41-0.13,0.84-0.2,1.3-0.2
			C82.54,37.21,83.12,37.4,83.53,37.78z M82.64,42.18c0.32-0.2,0.55-0.49,0.7-0.88v-0.95h-1.82c-0.99,0-1.48,0.34-1.48,1.03
			c0,0.34,0.13,0.6,0.38,0.8c0.26,0.19,0.62,0.29,1.08,0.29C81.95,42.48,82.33,42.38,82.64,42.18z"/>
		<path class="st2" d="M87.38,35.76c-0.17,0.18-0.26,0.46-0.26,0.81v0.68h1.78v0.66h-1.76v5.13h-0.78v-5.13h-1.03v-0.66h1.03v-0.71
			c0-0.53,0.15-0.95,0.46-1.25c0.3-0.31,0.74-0.46,1.29-0.46c0.22,0,0.43,0.03,0.64,0.09c0.21,0.06,0.38,0.15,0.52,0.27L89,35.77
			c-0.23-0.19-0.51-0.29-0.86-0.29C87.81,35.48,87.55,35.58,87.38,35.76z"/>
		<path class="st2" d="M90.7,42.72c-0.45-0.25-0.8-0.6-1.06-1.05c-0.26-0.45-0.38-0.95-0.38-1.52c0-0.57,0.13-1.07,0.38-1.52
			c0.26-0.45,0.61-0.8,1.06-1.04s0.95-0.37,1.51-0.37c0.56,0,1.06,0.13,1.51,0.37s0.8,0.6,1.05,1.04c0.25,0.45,0.38,0.95,0.38,1.52
			c0,0.56-0.13,1.07-0.38,1.52c-0.25,0.45-0.6,0.8-1.05,1.05s-0.95,0.38-1.51,0.38C91.65,43.1,91.14,42.97,90.7,42.72z M93.31,42.12
			c0.33-0.19,0.58-0.45,0.77-0.8c0.18-0.34,0.27-0.74,0.27-1.18c0-0.44-0.09-0.83-0.27-1.18c-0.18-0.34-0.44-0.61-0.77-0.8
			c-0.33-0.19-0.69-0.28-1.11-0.28c-0.41,0-0.78,0.09-1.11,0.28c-0.33,0.19-0.58,0.45-0.77,0.8s-0.28,0.74-0.28,1.18
			c0,0.44,0.09,0.83,0.28,1.18s0.44,0.61,0.77,0.8c0.33,0.19,0.7,0.28,1.11,0.28C92.61,42.4,92.98,42.31,93.31,42.12z"/>
		<path class="st2" d="M98.28,37.51c0.36-0.2,0.81-0.3,1.35-0.3v0.76l-0.19-0.01c-0.61,0-1.09,0.19-1.43,0.56
			c-0.35,0.37-0.52,0.9-0.52,1.57v2.95h-0.78v-5.79h0.75v1.13C97.64,38,97.92,37.71,98.28,37.51z"/>
		<path class="st2" d="M109.94,37.84c0.41,0.42,0.62,1.03,0.62,1.85v3.36h-0.78v-3.28c0-0.6-0.15-1.06-0.44-1.38
			c-0.29-0.31-0.7-0.47-1.23-0.47c-0.6,0-1.07,0.19-1.42,0.56c-0.35,0.37-0.52,0.88-0.52,1.53v3.04h-0.78v-3.28
			c0-0.6-0.14-1.06-0.43-1.38c-0.29-0.31-0.7-0.47-1.24-0.47c-0.59,0-1.06,0.19-1.41,0.56s-0.52,0.88-0.52,1.53v3.04h-0.78v-5.79
			h0.75v1.06c0.21-0.35,0.49-0.62,0.86-0.81c0.37-0.19,0.79-0.29,1.27-0.29c0.48,0,0.9,0.1,1.26,0.31c0.36,0.21,0.62,0.51,0.8,0.91
			c0.21-0.38,0.52-0.68,0.92-0.9c0.4-0.22,0.86-0.32,1.37-0.32C108.96,37.21,109.53,37.42,109.94,37.84z"/>
		<path class="st2" d="M116.42,37.78c0.4,0.38,0.6,0.94,0.6,1.68v3.59h-0.75v-0.9c-0.18,0.3-0.43,0.54-0.78,0.7
			c-0.34,0.17-0.75,0.25-1.21,0.25c-0.65,0-1.16-0.15-1.54-0.46c-0.38-0.31-0.57-0.71-0.57-1.22c0-0.49,0.18-0.89,0.53-1.19
			c0.36-0.3,0.92-0.45,1.7-0.45h1.84v-0.35c0-0.5-0.14-0.88-0.42-1.14c-0.28-0.26-0.69-0.39-1.22-0.39c-0.37,0-0.72,0.06-1.06,0.18
			s-0.63,0.29-0.87,0.5l-0.35-0.58c0.29-0.25,0.65-0.44,1.06-0.58c0.41-0.13,0.84-0.2,1.3-0.2
			C115.44,37.21,116.02,37.4,116.42,37.78z M115.54,42.18c0.31-0.2,0.55-0.49,0.7-0.88v-0.95h-1.81c-0.99,0-1.48,0.34-1.48,1.03
			c0,0.34,0.13,0.6,0.38,0.8c0.26,0.19,0.62,0.29,1.08,0.29C114.85,42.48,115.23,42.38,115.54,42.18z"/>
		<path class="st2" d="M15.65,51.78c0.4,0.38,0.61,0.94,0.61,1.68v3.59h-0.75v-0.9c-0.18,0.3-0.43,0.54-0.78,0.7
			c-0.34,0.17-0.75,0.25-1.22,0.25c-0.65,0-1.16-0.15-1.54-0.46c-0.38-0.31-0.57-0.71-0.57-1.22c0-0.49,0.18-0.89,0.53-1.19
			c0.36-0.3,0.92-0.45,1.7-0.45h1.84v-0.35c0-0.5-0.14-0.88-0.42-1.14c-0.28-0.26-0.69-0.39-1.22-0.39c-0.37,0-0.72,0.06-1.06,0.18
			c-0.34,0.12-0.63,0.29-0.87,0.5l-0.35-0.58c0.29-0.25,0.65-0.44,1.06-0.58c0.41-0.13,0.84-0.2,1.3-0.2
			C14.67,51.21,15.25,51.4,15.65,51.78z M14.77,56.18c0.31-0.2,0.55-0.49,0.7-0.88v-0.95h-1.81c-0.99,0-1.49,0.34-1.49,1.03
			c0,0.34,0.13,0.6,0.38,0.8s0.62,0.29,1.08,0.29C14.08,56.48,14.46,56.38,14.77,56.18z"/>
		<path class="st2" d="M27.28,51.84c0.41,0.42,0.62,1.03,0.62,1.85v3.36h-0.78v-3.28c0-0.6-0.14-1.06-0.43-1.38
			c-0.29-0.31-0.7-0.47-1.23-0.47c-0.6,0-1.07,0.19-1.42,0.56c-0.34,0.37-0.52,0.88-0.52,1.53v3.04h-0.78v-3.28
			c0-0.6-0.15-1.06-0.44-1.38c-0.29-0.31-0.7-0.47-1.24-0.47c-0.59,0-1.07,0.19-1.41,0.56c-0.35,0.37-0.52,0.88-0.52,1.53v3.04
			h-0.78v-5.79h0.75v1.06c0.21-0.35,0.49-0.62,0.86-0.81c0.37-0.19,0.79-0.29,1.26-0.29c0.48,0,0.9,0.1,1.26,0.31
			c0.36,0.21,0.62,0.51,0.8,0.91c0.21-0.38,0.52-0.68,0.92-0.9c0.4-0.22,0.86-0.32,1.37-0.32C26.3,51.21,26.87,51.42,27.28,51.84z"
			/>
		<path class="st2" d="M29.99,49.83c-0.11-0.11-0.16-0.24-0.16-0.4c0-0.15,0.05-0.27,0.16-0.38c0.11-0.11,0.25-0.17,0.41-0.17
			s0.3,0.05,0.41,0.16c0.11,0.11,0.17,0.23,0.17,0.38c0,0.16-0.06,0.3-0.17,0.41c-0.11,0.11-0.25,0.17-0.41,0.17
			S30.1,49.94,29.99,49.83z M30.01,51.26h0.78v5.79h-0.78V51.26z"/>
		<path class="st2" d="M38.3,51.26v5.08c0,0.98-0.24,1.71-0.72,2.18c-0.48,0.47-1.2,0.71-2.17,0.71c-0.54,0-1.04-0.08-1.52-0.24
			c-0.48-0.16-0.87-0.38-1.17-0.65l0.4-0.59c0.28,0.25,0.62,0.44,1.02,0.58c0.4,0.14,0.82,0.21,1.26,0.21
			c0.73,0,1.27-0.17,1.62-0.51c0.34-0.34,0.52-0.87,0.52-1.59V55.7c-0.24,0.37-0.56,0.65-0.95,0.84c-0.39,0.19-0.83,0.29-1.3,0.29
			c-0.54,0-1.04-0.12-1.48-0.36c-0.44-0.24-0.79-0.57-1.04-1c-0.25-0.43-0.38-0.92-0.38-1.46c0-0.54,0.13-1.03,0.38-1.45
			c0.25-0.42,0.6-0.75,1.04-0.99c0.44-0.24,0.93-0.35,1.49-0.35c0.49,0,0.94,0.1,1.33,0.3s0.71,0.48,0.96,0.86v-1.11H38.3z
			 M36.47,55.86c0.34-0.18,0.6-0.43,0.79-0.75c0.19-0.32,0.28-0.69,0.28-1.1c0-0.41-0.09-0.78-0.28-1.09
			c-0.19-0.32-0.45-0.57-0.78-0.75c-0.33-0.18-0.71-0.27-1.14-0.27c-0.42,0-0.79,0.09-1.13,0.26s-0.59,0.42-0.78,0.75
			c-0.19,0.32-0.28,0.69-0.28,1.1c0,0.41,0.09,0.78,0.28,1.1c0.19,0.32,0.45,0.57,0.78,0.75s0.71,0.27,1.13,0.27
			S36.14,56.04,36.47,55.86z"/>
		<path class="st2" d="M44.23,51.78c0.4,0.38,0.61,0.94,0.61,1.68v3.59h-0.75v-0.9c-0.18,0.3-0.44,0.54-0.78,0.7
			c-0.34,0.17-0.75,0.25-1.22,0.25c-0.64,0-1.16-0.15-1.54-0.46c-0.38-0.31-0.57-0.71-0.57-1.22c0-0.49,0.18-0.89,0.53-1.19
			c0.36-0.3,0.92-0.45,1.7-0.45h1.84v-0.35c0-0.5-0.14-0.88-0.42-1.14c-0.28-0.26-0.69-0.39-1.22-0.39c-0.37,0-0.72,0.06-1.06,0.18
			s-0.63,0.29-0.87,0.5l-0.35-0.58c0.29-0.25,0.64-0.44,1.06-0.58c0.41-0.13,0.84-0.2,1.3-0.2C43.25,51.21,43.83,51.4,44.23,51.78z
			 M43.35,56.18c0.32-0.2,0.55-0.49,0.7-0.88v-0.95h-1.82c-0.99,0-1.49,0.34-1.49,1.03c0,0.34,0.13,0.6,0.38,0.8
			c0.26,0.19,0.62,0.29,1.08,0.29C42.66,56.48,43.03,56.38,43.35,56.18z"/>
		<path class="st2" d="M51.39,51.58c0.44,0.25,0.79,0.59,1.04,1.04c0.25,0.45,0.37,0.96,0.37,1.53c0,0.57-0.13,1.08-0.37,1.53
			c-0.25,0.45-0.59,0.8-1.04,1.04c-0.44,0.25-0.93,0.37-1.47,0.37c-0.48,0-0.92-0.1-1.3-0.31s-0.69-0.5-0.93-0.89v1.14h-0.75v-8.16
			h0.78v3.48c0.24-0.37,0.55-0.66,0.93-0.85c0.38-0.19,0.8-0.29,1.27-0.29C50.46,51.21,50.95,51.33,51.39,51.58z M50.96,56.12
			c0.33-0.19,0.59-0.45,0.78-0.8c0.19-0.34,0.28-0.74,0.28-1.18c0-0.44-0.09-0.83-0.28-1.18c-0.19-0.34-0.45-0.61-0.78-0.8
			c-0.33-0.19-0.7-0.28-1.1-0.28c-0.41,0-0.78,0.09-1.11,0.28c-0.33,0.19-0.58,0.45-0.77,0.8c-0.19,0.34-0.28,0.74-0.28,1.18
			c0,0.44,0.09,0.83,0.28,1.18c0.19,0.34,0.44,0.61,0.77,0.8c0.33,0.19,0.69,0.28,1.11,0.28C50.26,56.4,50.63,56.31,50.96,56.12z"/>
		<path class="st2" d="M54.37,48.88h0.78v8.16h-0.78V48.88z"/>
		<path class="st2" d="M62.35,54.39h-4.84c0.04,0.6,0.27,1.09,0.69,1.46s0.95,0.56,1.58,0.56c0.36,0,0.69-0.06,0.99-0.19
			c0.3-0.13,0.56-0.32,0.78-0.57l0.44,0.51c-0.26,0.31-0.58,0.54-0.96,0.7c-0.38,0.16-0.81,0.24-1.27,0.24
			c-0.59,0-1.12-0.13-1.58-0.38s-0.82-0.6-1.07-1.05c-0.26-0.45-0.38-0.95-0.38-1.52c0-0.57,0.12-1.07,0.37-1.52s0.58-0.8,1.01-1.04
			c0.43-0.25,0.91-0.37,1.45-0.37s1.02,0.13,1.44,0.37s0.76,0.6,1,1.04c0.24,0.44,0.36,0.95,0.36,1.52L62.35,54.39z M58.15,52.42
			c-0.38,0.36-0.59,0.82-0.64,1.39h4.1c-0.05-0.57-0.27-1.04-0.64-1.39c-0.38-0.36-0.85-0.53-1.41-0.53
			C58.99,51.88,58.53,52.06,58.15,52.42z"/>
		<path class="st2" d="M64.44,56.07c0.11,0.11,0.16,0.25,0.16,0.42c0,0.09-0.01,0.18-0.04,0.29c-0.03,0.1-0.06,0.22-0.12,0.35
			l-0.46,1.52h-0.53l0.37-1.6c-0.12-0.04-0.21-0.1-0.29-0.2c-0.07-0.1-0.11-0.22-0.11-0.36c0-0.17,0.05-0.31,0.17-0.42
			c0.11-0.11,0.25-0.17,0.42-0.17C64.19,55.9,64.33,55.95,64.44,56.07z"/>
		<path class="st2" d="M74.38,48.88v8.16h-0.75V55.9c-0.23,0.39-0.54,0.69-0.93,0.89s-0.82,0.31-1.3,0.31
			c-0.54,0-1.04-0.12-1.47-0.37c-0.44-0.25-0.79-0.6-1.03-1.04s-0.37-0.96-0.37-1.53c0-0.57,0.13-1.08,0.37-1.53
			s0.59-0.79,1.03-1.04c0.44-0.25,0.93-0.37,1.47-0.37c0.47,0,0.89,0.1,1.27,0.29c0.38,0.19,0.69,0.48,0.93,0.85v-3.48H74.38z
			 M72.56,56.12c0.33-0.19,0.58-0.45,0.77-0.8s0.28-0.74,0.28-1.18c0-0.44-0.09-0.83-0.28-1.18s-0.44-0.61-0.77-0.8
			c-0.33-0.19-0.69-0.28-1.09-0.28c-0.41,0-0.78,0.09-1.11,0.28c-0.33,0.19-0.58,0.45-0.77,0.8c-0.19,0.34-0.28,0.74-0.28,1.18
			c0,0.44,0.09,0.83,0.28,1.18c0.19,0.34,0.44,0.61,0.77,0.8c0.33,0.19,0.69,0.28,1.11,0.28C71.87,56.4,72.23,56.31,72.56,56.12z"/>
		<path class="st2" d="M77.39,56.72c-0.45-0.25-0.8-0.6-1.06-1.05s-0.39-0.95-0.39-1.52c0-0.57,0.13-1.07,0.39-1.52
			s0.61-0.8,1.06-1.04s0.95-0.37,1.51-0.37c0.56,0,1.06,0.13,1.51,0.37s0.8,0.6,1.05,1.04c0.25,0.45,0.38,0.95,0.38,1.52
			c0,0.56-0.13,1.07-0.38,1.52c-0.25,0.45-0.6,0.8-1.05,1.05s-0.95,0.38-1.51,0.38C78.34,57.1,77.84,56.97,77.39,56.72z
			 M80.01,56.12c0.33-0.19,0.58-0.45,0.76-0.8s0.28-0.74,0.28-1.18c0-0.44-0.09-0.83-0.28-1.18s-0.44-0.61-0.76-0.8
			c-0.33-0.19-0.7-0.28-1.11-0.28c-0.41,0-0.78,0.09-1.11,0.28c-0.33,0.19-0.58,0.45-0.77,0.8s-0.28,0.74-0.28,1.18
			c0,0.44,0.09,0.83,0.28,1.18s0.44,0.61,0.77,0.8c0.33,0.19,0.69,0.28,1.11,0.28C79.31,56.4,79.68,56.31,80.01,56.12z"/>
		<path class="st2" d="M88.09,51.84c0.43,0.42,0.64,1.04,0.64,1.84v3.36h-0.78v-3.28c0-0.6-0.15-1.06-0.45-1.38
			c-0.3-0.31-0.73-0.47-1.29-0.47c-0.62,0-1.12,0.19-1.48,0.56c-0.36,0.37-0.54,0.88-0.54,1.53v3.04h-0.78v-5.79h0.75v1.07
			c0.21-0.35,0.51-0.63,0.88-0.82c0.38-0.19,0.82-0.29,1.31-0.29C87.08,51.21,87.66,51.42,88.09,51.84z"/>
		<path class="st2" d="M96.14,48.88v8.16h-0.75V55.9c-0.23,0.39-0.54,0.69-0.93,0.89s-0.82,0.31-1.3,0.31
			c-0.54,0-1.04-0.12-1.47-0.37c-0.44-0.25-0.79-0.6-1.03-1.04s-0.37-0.96-0.37-1.53c0-0.57,0.13-1.08,0.37-1.53
			s0.59-0.79,1.03-1.04c0.44-0.25,0.93-0.37,1.47-0.37c0.47,0,0.89,0.1,1.27,0.29c0.38,0.19,0.69,0.48,0.93,0.85v-3.48H96.14z
			 M94.32,56.12c0.33-0.19,0.58-0.45,0.77-0.8s0.28-0.74,0.28-1.18c0-0.44-0.09-0.83-0.28-1.18s-0.44-0.61-0.77-0.8
			c-0.33-0.19-0.69-0.28-1.09-0.28c-0.41,0-0.78,0.09-1.11,0.28c-0.33,0.19-0.58,0.45-0.77,0.8c-0.19,0.34-0.28,0.74-0.28,1.18
			c0,0.44,0.09,0.83,0.28,1.18c0.19,0.34,0.44,0.61,0.77,0.8c0.33,0.19,0.69,0.28,1.11,0.28C93.63,56.4,93.99,56.31,94.32,56.12z"/>
		<path class="st2" d="M103.33,54.39h-4.84c0.04,0.6,0.28,1.09,0.69,1.46s0.95,0.56,1.58,0.56c0.36,0,0.69-0.06,0.99-0.19
			c0.3-0.13,0.56-0.32,0.78-0.57l0.44,0.51c-0.26,0.31-0.58,0.54-0.96,0.7c-0.38,0.16-0.81,0.24-1.27,0.24
			c-0.59,0-1.12-0.13-1.58-0.38s-0.82-0.6-1.07-1.05s-0.39-0.95-0.39-1.52c0-0.57,0.12-1.07,0.37-1.52s0.58-0.8,1.01-1.04
			c0.43-0.25,0.91-0.37,1.45-0.37s1.02,0.13,1.44,0.37s0.76,0.6,1,1.04c0.24,0.44,0.36,0.95,0.36,1.52L103.33,54.39z M99.13,52.42
			c-0.38,0.36-0.59,0.82-0.64,1.39h4.1c-0.05-0.57-0.27-1.04-0.64-1.39c-0.38-0.36-0.85-0.53-1.41-0.53
			C99.98,51.88,99.51,52.06,99.13,52.42z"/>
		<path class="st2" d="M112.23,51.58c0.44,0.25,0.78,0.59,1.03,1.04c0.25,0.45,0.37,0.96,0.37,1.53c0,0.58-0.13,1.09-0.37,1.54
			c-0.25,0.45-0.59,0.79-1.03,1.04c-0.44,0.25-0.93,0.37-1.48,0.37c-0.47,0-0.89-0.1-1.27-0.29c-0.38-0.19-0.69-0.48-0.93-0.85v3.22
			h-0.78v-7.92h0.75v1.14c0.24-0.38,0.54-0.67,0.93-0.88c0.38-0.21,0.82-0.31,1.3-0.31C111.3,51.21,111.79,51.33,112.23,51.58z
			 M111.8,56.12c0.33-0.19,0.59-0.45,0.78-0.8s0.28-0.74,0.28-1.18c0-0.44-0.09-0.83-0.28-1.17s-0.45-0.61-0.78-0.8
			c-0.33-0.19-0.7-0.29-1.1-0.29c-0.41,0-0.78,0.1-1.11,0.29c-0.33,0.19-0.58,0.46-0.77,0.8s-0.28,0.73-0.28,1.17
			c0,0.44,0.09,0.83,0.28,1.18s0.44,0.61,0.77,0.8c0.33,0.19,0.69,0.28,1.11,0.28C111.1,56.4,111.47,56.31,111.8,56.12z"/>
		<path class="st2" d="M116.07,56.72c-0.45-0.25-0.8-0.6-1.06-1.05s-0.39-0.95-0.39-1.52c0-0.57,0.13-1.07,0.39-1.52
			s0.61-0.8,1.06-1.04s0.95-0.37,1.51-0.37c0.56,0,1.06,0.13,1.51,0.37s0.8,0.6,1.05,1.04c0.25,0.45,0.38,0.95,0.38,1.52
			c0,0.56-0.13,1.07-0.38,1.52c-0.25,0.45-0.6,0.8-1.05,1.05s-0.95,0.38-1.51,0.38C117.02,57.1,116.52,56.97,116.07,56.72z
			 M118.68,56.12c0.33-0.19,0.58-0.45,0.76-0.8s0.28-0.74,0.28-1.18c0-0.44-0.09-0.83-0.28-1.18s-0.44-0.61-0.76-0.8
			c-0.33-0.19-0.7-0.28-1.11-0.28c-0.41,0-0.78,0.09-1.11,0.28c-0.33,0.19-0.58,0.45-0.77,0.8s-0.28,0.74-0.28,1.18
			c0,0.44,0.09,0.83,0.28,1.18s0.44,0.61,0.77,0.8c0.33,0.19,0.69,0.28,1.11,0.28C117.99,56.4,118.35,56.31,118.68,56.12z"/>
		<path class="st2" d="M127.37,48.88v8.16h-0.75V55.9c-0.23,0.39-0.54,0.69-0.93,0.89c-0.38,0.21-0.82,0.31-1.3,0.31
			c-0.54,0-1.03-0.12-1.47-0.37c-0.44-0.25-0.78-0.6-1.03-1.04c-0.25-0.45-0.38-0.96-0.38-1.53c0-0.57,0.13-1.08,0.38-1.53
			c0.25-0.45,0.59-0.79,1.03-1.04c0.44-0.25,0.93-0.37,1.47-0.37c0.47,0,0.89,0.1,1.27,0.29s0.69,0.48,0.93,0.85v-3.48H127.37z
			 M125.54,56.12c0.33-0.19,0.58-0.45,0.77-0.8c0.19-0.34,0.28-0.74,0.28-1.18c0-0.44-0.09-0.83-0.28-1.18
			c-0.19-0.34-0.44-0.61-0.77-0.8c-0.33-0.19-0.69-0.28-1.09-0.28c-0.41,0-0.78,0.09-1.11,0.28c-0.33,0.19-0.58,0.45-0.77,0.8
			s-0.28,0.74-0.28,1.18c0,0.44,0.09,0.83,0.28,1.18s0.44,0.61,0.77,0.8c0.33,0.19,0.69,0.28,1.11,0.28
			C124.85,56.4,125.22,56.31,125.54,56.12z"/>
		<path class="st2" d="M131.09,51.51c0.36-0.2,0.81-0.3,1.35-0.3v0.76l-0.19-0.01c-0.61,0-1.09,0.19-1.43,0.56
			c-0.35,0.37-0.52,0.9-0.52,1.57v2.95h-0.78v-5.79h0.75v1.13C130.45,52,130.73,51.71,131.09,51.51z"/>
		<path class="st2" d="M137.57,51.78c0.4,0.38,0.6,0.94,0.6,1.68v3.59h-0.75v-0.9c-0.18,0.3-0.43,0.54-0.78,0.7
			c-0.34,0.17-0.75,0.25-1.22,0.25c-0.64,0-1.16-0.15-1.54-0.46c-0.38-0.31-0.57-0.71-0.57-1.22c0-0.49,0.18-0.89,0.53-1.19
			c0.36-0.3,0.92-0.45,1.7-0.45h1.84v-0.35c0-0.5-0.14-0.88-0.42-1.14c-0.28-0.26-0.69-0.39-1.22-0.39c-0.37,0-0.72,0.06-1.06,0.18
			c-0.34,0.12-0.63,0.29-0.87,0.5l-0.35-0.58c0.29-0.25,0.65-0.44,1.06-0.58c0.41-0.13,0.84-0.2,1.3-0.2
			C136.59,51.21,137.17,51.4,137.57,51.78z M136.69,56.18c0.32-0.2,0.55-0.49,0.7-0.88v-0.95h-1.82c-0.99,0-1.48,0.34-1.48,1.03
			c0,0.34,0.13,0.6,0.38,0.8c0.26,0.19,0.62,0.29,1.08,0.29C136,56.48,136.38,56.38,136.69,56.18z M136.65,48.99h1.05l-1.78,1.36
			h-0.77L136.65,48.99z"/>
		<path class="st2" d="M9.23,65.51c0.36-0.2,0.81-0.3,1.35-0.3v0.76l-0.19-0.01c-0.61,0-1.08,0.19-1.43,0.56
			c-0.34,0.37-0.52,0.9-0.52,1.57v2.95H7.66v-5.79h0.75v1.13C8.59,66,8.86,65.71,9.23,65.51z"/>
		<path class="st2" d="M16.94,68.39H12.1c0.04,0.6,0.27,1.09,0.69,1.46s0.95,0.56,1.58,0.56c0.36,0,0.69-0.06,0.99-0.19
			c0.3-0.13,0.56-0.32,0.78-0.57l0.44,0.51c-0.26,0.31-0.58,0.54-0.96,0.7c-0.38,0.16-0.81,0.24-1.27,0.24
			c-0.59,0-1.12-0.13-1.58-0.38s-0.82-0.6-1.07-1.05c-0.26-0.45-0.38-0.95-0.38-1.52c0-0.57,0.12-1.07,0.37-1.52s0.58-0.8,1.01-1.04
			c0.43-0.25,0.91-0.37,1.45-0.37s1.02,0.13,1.44,0.37s0.76,0.6,1,1.04c0.24,0.44,0.36,0.95,0.36,1.52L16.94,68.39z M12.75,66.42
			c-0.38,0.36-0.59,0.82-0.64,1.39h4.1c-0.05-0.57-0.27-1.04-0.64-1.39c-0.38-0.36-0.85-0.53-1.41-0.53
			C13.59,65.88,13.12,66.06,12.75,66.42z"/>
		<path class="st2" d="M22.13,65.78c0.4,0.38,0.6,0.94,0.6,1.68v3.59h-0.75v-0.9c-0.18,0.3-0.43,0.54-0.78,0.7
			c-0.34,0.17-0.75,0.25-1.22,0.25c-0.64,0-1.16-0.15-1.54-0.46c-0.38-0.31-0.57-0.71-0.57-1.22c0-0.49,0.18-0.89,0.53-1.19
			c0.36-0.3,0.92-0.45,1.7-0.45h1.84v-0.35c0-0.5-0.14-0.88-0.42-1.14c-0.28-0.26-0.69-0.39-1.22-0.39c-0.37,0-0.72,0.06-1.06,0.18
			c-0.34,0.12-0.63,0.29-0.87,0.5l-0.35-0.58c0.29-0.25,0.65-0.44,1.06-0.58c0.41-0.13,0.84-0.2,1.3-0.2
			C21.14,65.21,21.72,65.4,22.13,65.78z M21.24,70.18c0.32-0.2,0.55-0.49,0.7-0.88v-0.95h-1.82c-0.99,0-1.48,0.34-1.48,1.03
			c0,0.34,0.13,0.6,0.38,0.8c0.26,0.19,0.62,0.29,1.08,0.29C20.55,70.48,20.93,70.38,21.24,70.18z"/>
		<path class="st2" d="M24.83,62.88h0.78v8.16h-0.78V62.88z"/>
		<path class="st2" d="M27.76,63.83c-0.11-0.11-0.16-0.24-0.16-0.4c0-0.15,0.05-0.27,0.16-0.38c0.11-0.11,0.25-0.17,0.41-0.17
			s0.3,0.05,0.41,0.16c0.11,0.11,0.17,0.23,0.17,0.38c0,0.16-0.06,0.3-0.17,0.41c-0.11,0.11-0.25,0.17-0.41,0.17
			S27.87,63.94,27.76,63.83z M27.77,65.26h0.78v5.79h-0.78V65.26z"/>
		<path class="st2" d="M34.79,70.39v0.65h-4.71v-0.52l3.64-4.61h-3.58v-0.66h4.58v0.52l-3.64,4.62H34.79z"/>
		<path class="st2" d="M40.06,65.78c0.4,0.38,0.61,0.94,0.61,1.68v3.59h-0.75v-0.9c-0.18,0.3-0.43,0.54-0.78,0.7
			c-0.34,0.17-0.75,0.25-1.22,0.25c-0.65,0-1.16-0.15-1.54-0.46c-0.38-0.31-0.57-0.71-0.57-1.22c0-0.49,0.18-0.89,0.53-1.19
			c0.36-0.3,0.92-0.45,1.7-0.45h1.84v-0.35c0-0.5-0.14-0.88-0.42-1.14c-0.28-0.26-0.69-0.39-1.22-0.39c-0.37,0-0.72,0.06-1.06,0.18
			c-0.34,0.12-0.63,0.29-0.87,0.5l-0.35-0.58c0.29-0.25,0.65-0.44,1.06-0.58c0.41-0.13,0.84-0.2,1.3-0.2
			C39.08,65.21,39.66,65.4,40.06,65.78z M39.19,70.18c0.31-0.2,0.55-0.49,0.7-0.88v-0.95h-1.81c-0.99,0-1.49,0.34-1.49,1.03
			c0,0.34,0.13,0.6,0.38,0.8s0.62,0.29,1.08,0.29C38.49,70.48,38.87,70.38,39.19,70.18z"/>
		<path class="st2" d="M44.34,65.51c0.36-0.2,0.81-0.3,1.35-0.3v0.76l-0.19-0.01c-0.61,0-1.08,0.19-1.43,0.56
			c-0.34,0.37-0.52,0.9-0.52,1.57v2.95h-0.78v-5.79h0.75v1.13C43.7,66,43.97,65.71,44.34,65.51z"/>
		<path class="st2" d="M50.22,70.89c-0.43-0.14-0.77-0.31-1.01-0.51l0.35-0.62c0.24,0.19,0.54,0.35,0.91,0.47s0.75,0.18,1.14,0.18
			c0.53,0,0.92-0.08,1.17-0.25c0.25-0.17,0.38-0.4,0.38-0.7c0-0.21-0.07-0.38-0.21-0.5c-0.14-0.12-0.32-0.21-0.53-0.28
			c-0.21-0.06-0.5-0.12-0.85-0.18c-0.47-0.09-0.85-0.18-1.13-0.27c-0.29-0.09-0.53-0.25-0.73-0.47c-0.2-0.22-0.3-0.52-0.3-0.91
			c0-0.48,0.2-0.88,0.6-1.19c0.4-0.31,0.96-0.46,1.68-0.46c0.37,0,0.75,0.05,1.12,0.15c0.38,0.1,0.68,0.23,0.92,0.39l-0.34,0.63
			c-0.48-0.33-1.04-0.5-1.71-0.5c-0.5,0-0.88,0.09-1.13,0.26c-0.25,0.18-0.38,0.41-0.38,0.69c0,0.22,0.07,0.4,0.21,0.53
			s0.32,0.23,0.53,0.29c0.21,0.06,0.51,0.13,0.88,0.19c0.46,0.09,0.83,0.18,1.11,0.26c0.28,0.09,0.52,0.24,0.71,0.45
			c0.2,0.21,0.3,0.51,0.3,0.88c0,0.51-0.21,0.91-0.63,1.2s-1.01,0.45-1.75,0.45C51.1,71.1,50.65,71.03,50.22,70.89z"/>
		<path class="st2" d="M60.41,68.39h-4.84c0.04,0.6,0.27,1.09,0.69,1.46s0.95,0.56,1.58,0.56c0.36,0,0.69-0.06,0.99-0.19
			c0.3-0.13,0.56-0.32,0.78-0.57l0.44,0.51c-0.26,0.31-0.58,0.54-0.96,0.7c-0.38,0.16-0.81,0.24-1.27,0.24
			c-0.59,0-1.12-0.13-1.58-0.38s-0.82-0.6-1.07-1.05c-0.26-0.45-0.38-0.95-0.38-1.52c0-0.57,0.12-1.07,0.37-1.52s0.58-0.8,1.01-1.04
			c0.43-0.25,0.91-0.37,1.45-0.37s1.02,0.13,1.44,0.37s0.76,0.6,1,1.04c0.24,0.44,0.36,0.95,0.36,1.52L60.41,68.39z M56.22,66.42
			c-0.38,0.36-0.59,0.82-0.64,1.39h4.1c-0.05-0.57-0.27-1.04-0.64-1.39c-0.38-0.36-0.85-0.53-1.41-0.53
			C57.06,65.88,56.59,66.06,56.22,66.42z"/>
		<path class="st2" d="M67.35,65.26v5.08c0,0.98-0.24,1.71-0.72,2.18c-0.48,0.47-1.21,0.71-2.17,0.71c-0.54,0-1.04-0.08-1.52-0.24
			c-0.48-0.16-0.87-0.38-1.17-0.65l0.4-0.59c0.28,0.25,0.62,0.44,1.02,0.58c0.4,0.14,0.82,0.21,1.26,0.21
			c0.73,0,1.27-0.17,1.62-0.51s0.52-0.87,0.52-1.59V69.7c-0.24,0.37-0.56,0.65-0.95,0.84c-0.39,0.19-0.83,0.29-1.3,0.29
			c-0.54,0-1.04-0.12-1.48-0.36c-0.44-0.24-0.79-0.57-1.04-1c-0.25-0.43-0.38-0.92-0.38-1.46c0-0.54,0.13-1.03,0.38-1.45
			c0.25-0.42,0.6-0.75,1.04-0.99c0.44-0.24,0.93-0.35,1.48-0.35c0.49,0,0.94,0.1,1.33,0.3c0.4,0.2,0.71,0.48,0.96,0.86v-1.11H67.35z
			 M65.53,69.86c0.34-0.18,0.6-0.43,0.79-0.75c0.19-0.32,0.28-0.69,0.28-1.1c0-0.41-0.09-0.78-0.28-1.09
			c-0.19-0.32-0.45-0.57-0.78-0.75c-0.33-0.18-0.71-0.27-1.14-0.27c-0.42,0-0.79,0.09-1.13,0.26c-0.33,0.18-0.59,0.42-0.78,0.75
			c-0.19,0.32-0.28,0.69-0.28,1.1c0,0.41,0.09,0.78,0.28,1.1c0.19,0.32,0.45,0.57,0.78,0.75c0.33,0.18,0.71,0.27,1.13,0.27
			S65.19,70.04,65.53,69.86z"/>
		<path class="st2" d="M74.74,65.26v5.79h-0.75v-1.06c-0.21,0.35-0.49,0.63-0.85,0.82s-0.77,0.29-1.23,0.29
			c-0.75,0-1.35-0.21-1.79-0.63c-0.44-0.42-0.65-1.04-0.65-1.85v-3.36h0.78v3.28c0,0.61,0.15,1.07,0.45,1.39
			c0.3,0.32,0.73,0.47,1.29,0.47c0.61,0,1.09-0.18,1.44-0.55c0.35-0.37,0.53-0.89,0.53-1.55v-3.04H74.74z"/>
		<path class="st2" d="M76.89,63.83c-0.11-0.11-0.17-0.24-0.17-0.4c0-0.15,0.05-0.27,0.17-0.38s0.25-0.17,0.41-0.17
			c0.16,0,0.3,0.05,0.41,0.16c0.11,0.11,0.17,0.23,0.17,0.38c0,0.16-0.06,0.3-0.17,0.41c-0.11,0.11-0.25,0.17-0.41,0.17
			C77.14,63.99,77,63.94,76.89,63.83z M76.9,65.26h0.78v5.79H76.9V65.26z"/>
		<path class="st2" d="M88.77,65.84c0.41,0.42,0.62,1.03,0.62,1.85v3.36h-0.78v-3.28c0-0.6-0.15-1.06-0.43-1.38
			c-0.29-0.31-0.7-0.47-1.23-0.47c-0.6,0-1.07,0.19-1.42,0.56s-0.52,0.88-0.52,1.53v3.04h-0.78v-3.28c0-0.6-0.14-1.06-0.43-1.38
			c-0.29-0.31-0.7-0.47-1.24-0.47c-0.59,0-1.07,0.19-1.41,0.56c-0.35,0.37-0.52,0.88-0.52,1.53v3.04h-0.78v-5.79h0.75v1.06
			c0.21-0.35,0.49-0.62,0.86-0.81s0.79-0.29,1.27-0.29c0.48,0,0.9,0.1,1.26,0.31c0.36,0.21,0.62,0.51,0.8,0.91
			c0.21-0.38,0.52-0.68,0.92-0.9c0.4-0.22,0.86-0.32,1.37-0.32C87.78,65.21,88.35,65.42,88.77,65.84z"/>
		<path class="st2" d="M91.48,63.83c-0.11-0.11-0.17-0.24-0.17-0.4c0-0.15,0.05-0.27,0.17-0.38s0.25-0.17,0.41-0.17
			c0.16,0,0.3,0.05,0.41,0.16c0.11,0.11,0.17,0.23,0.17,0.38c0,0.16-0.06,0.3-0.17,0.41c-0.11,0.11-0.25,0.17-0.41,0.17
			C91.72,63.99,91.59,63.94,91.48,63.83z M91.49,65.26h0.78v5.79h-0.78V65.26z"/>
		<path class="st2" d="M99.46,68.39h-4.84c0.04,0.6,0.28,1.09,0.69,1.46s0.95,0.56,1.58,0.56c0.36,0,0.69-0.06,0.99-0.19
			c0.3-0.13,0.56-0.32,0.78-0.57l0.44,0.51c-0.26,0.31-0.58,0.54-0.96,0.7c-0.38,0.16-0.81,0.24-1.27,0.24
			c-0.59,0-1.12-0.13-1.58-0.38s-0.82-0.6-1.07-1.05s-0.39-0.95-0.39-1.52c0-0.57,0.12-1.07,0.37-1.52s0.58-0.8,1.01-1.04
			c0.43-0.25,0.91-0.37,1.45-0.37s1.02,0.13,1.44,0.37s0.76,0.6,1,1.04c0.24,0.44,0.36,0.95,0.36,1.52L99.46,68.39z M95.27,66.42
			c-0.38,0.36-0.59,0.82-0.64,1.39h4.1c-0.05-0.57-0.27-1.04-0.64-1.39c-0.38-0.36-0.85-0.53-1.41-0.53
			C96.11,65.88,95.64,66.06,95.27,66.42z"/>
		<path class="st2" d="M105.73,65.84c0.43,0.42,0.64,1.04,0.64,1.84v3.36h-0.78v-3.28c0-0.6-0.15-1.06-0.45-1.38
			c-0.3-0.31-0.73-0.47-1.29-0.47c-0.62,0-1.12,0.19-1.48,0.56s-0.54,0.88-0.54,1.53v3.04h-0.78v-5.79h0.75v1.07
			c0.21-0.35,0.51-0.63,0.89-0.82c0.38-0.19,0.81-0.29,1.31-0.29C104.72,65.21,105.3,65.42,105.73,65.84z"/>
		<path class="st2" d="M111.52,70.69c-0.15,0.13-0.33,0.23-0.54,0.3c-0.22,0.07-0.44,0.1-0.68,0.1c-0.54,0-0.96-0.15-1.25-0.44
			c-0.29-0.29-0.44-0.71-0.44-1.24v-3.5h-1.03v-0.66h1.03v-1.26h0.78v1.26h1.76v0.66h-1.76v3.45c0,0.34,0.09,0.61,0.26,0.79
			c0.17,0.18,0.42,0.27,0.74,0.27c0.16,0,0.32-0.03,0.47-0.08c0.15-0.05,0.28-0.12,0.39-0.22L111.52,70.69z"/>
		<path class="st2" d="M113.56,70.72c-0.45-0.25-0.8-0.6-1.05-1.05c-0.26-0.45-0.39-0.95-0.39-1.52c0-0.57,0.13-1.07,0.39-1.52
			c0.26-0.45,0.61-0.8,1.05-1.04s0.95-0.37,1.51-0.37c0.56,0,1.06,0.13,1.51,0.37s0.8,0.6,1.05,1.04s0.38,0.95,0.38,1.52
			c0,0.56-0.13,1.07-0.38,1.52s-0.6,0.8-1.05,1.05s-0.95,0.38-1.51,0.38C114.51,71.1,114.01,70.97,113.56,70.72z M116.18,70.12
			c0.33-0.19,0.58-0.45,0.76-0.8c0.18-0.34,0.27-0.74,0.27-1.18c0-0.44-0.09-0.83-0.27-1.18c-0.18-0.34-0.44-0.61-0.76-0.8
			c-0.33-0.19-0.7-0.28-1.11-0.28s-0.78,0.09-1.11,0.28c-0.33,0.19-0.58,0.45-0.77,0.8c-0.19,0.34-0.28,0.74-0.28,1.18
			c0,0.44,0.09,0.83,0.28,1.18c0.19,0.34,0.44,0.61,0.77,0.8c0.33,0.19,0.7,0.28,1.11,0.28S115.85,70.31,116.18,70.12z"/>
		<path class="st2" d="M126.2,65.78c0.4,0.38,0.6,0.94,0.6,1.68v3.59h-0.75v-0.9c-0.18,0.3-0.43,0.54-0.78,0.7
			c-0.34,0.17-0.75,0.25-1.21,0.25c-0.65,0-1.16-0.15-1.54-0.46c-0.38-0.31-0.57-0.71-0.57-1.22c0-0.49,0.18-0.89,0.53-1.19
			c0.36-0.3,0.92-0.45,1.7-0.45h1.84v-0.35c0-0.5-0.14-0.88-0.42-1.14c-0.28-0.26-0.69-0.39-1.22-0.39c-0.37,0-0.72,0.06-1.06,0.18
			s-0.63,0.29-0.87,0.5l-0.35-0.58c0.29-0.25,0.65-0.44,1.06-0.58c0.41-0.13,0.84-0.2,1.3-0.2C125.22,65.21,125.8,65.4,126.2,65.78z
			 M125.32,70.18c0.31-0.2,0.55-0.49,0.7-0.88v-0.95h-1.81c-0.99,0-1.48,0.34-1.48,1.03c0,0.34,0.13,0.6,0.38,0.8
			c0.26,0.19,0.62,0.29,1.08,0.29C124.63,70.48,125.01,70.38,125.32,70.18z"/>
		<path class="st2" d="M131.97,70.89c-0.43-0.14-0.76-0.31-1.01-0.51l0.35-0.62c0.24,0.19,0.55,0.35,0.91,0.47s0.75,0.18,1.14,0.18
			c0.53,0,0.92-0.08,1.17-0.25c0.25-0.17,0.38-0.4,0.38-0.7c0-0.21-0.07-0.38-0.21-0.5s-0.32-0.21-0.53-0.28s-0.49-0.12-0.85-0.18
			c-0.47-0.09-0.85-0.18-1.13-0.27c-0.29-0.09-0.53-0.25-0.73-0.47c-0.2-0.22-0.3-0.52-0.3-0.91c0-0.48,0.2-0.88,0.61-1.19
			c0.4-0.31,0.96-0.46,1.68-0.46c0.37,0,0.75,0.05,1.12,0.15c0.37,0.1,0.68,0.23,0.92,0.39l-0.34,0.63c-0.48-0.33-1.04-0.5-1.7-0.5
			c-0.5,0-0.87,0.09-1.13,0.26c-0.25,0.18-0.38,0.41-0.38,0.69c0,0.22,0.07,0.4,0.21,0.53c0.14,0.13,0.32,0.23,0.53,0.29
			c0.21,0.06,0.51,0.13,0.88,0.19c0.46,0.09,0.83,0.18,1.11,0.26c0.28,0.09,0.52,0.24,0.71,0.45c0.2,0.21,0.3,0.51,0.3,0.88
			c0,0.51-0.21,0.91-0.63,1.2c-0.42,0.3-1.01,0.45-1.75,0.45C132.85,71.1,132.4,71.03,131.97,70.89z"/>
		<path class="st2" d="M142.34,65.26v5.79h-0.75v-1.06c-0.21,0.35-0.49,0.63-0.85,0.82s-0.77,0.29-1.23,0.29
			c-0.76,0-1.35-0.21-1.79-0.63c-0.44-0.42-0.65-1.04-0.65-1.85v-3.36h0.78v3.28c0,0.61,0.15,1.07,0.45,1.39
			c0.3,0.32,0.73,0.47,1.29,0.47c0.61,0,1.09-0.18,1.44-0.55c0.35-0.37,0.53-0.89,0.53-1.55v-3.04H142.34z"/>
		<path class="st2" d="M26.9,79.58c0.44,0.25,0.78,0.59,1.03,1.04c0.25,0.45,0.38,0.96,0.38,1.53c0,0.58-0.13,1.09-0.38,1.54
			c-0.25,0.45-0.59,0.79-1.03,1.04s-0.93,0.37-1.48,0.37c-0.47,0-0.89-0.1-1.27-0.29s-0.69-0.48-0.93-0.85v3.22h-0.78v-7.92h0.75
			v1.14c0.23-0.38,0.54-0.67,0.93-0.88c0.38-0.21,0.82-0.31,1.3-0.31C25.97,79.21,26.46,79.33,26.9,79.58z M26.47,84.12
			c0.33-0.19,0.59-0.45,0.78-0.8c0.19-0.34,0.28-0.74,0.28-1.18c0-0.44-0.09-0.83-0.28-1.17c-0.19-0.34-0.45-0.61-0.78-0.8
			c-0.33-0.19-0.7-0.29-1.1-0.29c-0.41,0-0.78,0.1-1.11,0.29c-0.33,0.19-0.58,0.46-0.77,0.8c-0.19,0.34-0.28,0.73-0.28,1.17
			c0,0.44,0.09,0.83,0.28,1.18c0.19,0.34,0.44,0.61,0.77,0.8c0.33,0.19,0.69,0.28,1.11,0.28C25.77,84.4,26.14,84.31,26.47,84.12z"/>
		<path class="st2" d="M31.45,79.51c0.36-0.2,0.81-0.3,1.35-0.3v0.76l-0.19-0.01c-0.61,0-1.09,0.19-1.43,0.56
			c-0.35,0.37-0.52,0.9-0.52,1.57v2.95h-0.78v-5.79h0.75v1.13C30.81,80,31.08,79.71,31.45,79.51z"/>
		<path class="st2" d="M34.98,84.72c-0.45-0.25-0.8-0.6-1.06-1.05s-0.39-0.95-0.39-1.52c0-0.57,0.13-1.07,0.39-1.52
			s0.61-0.8,1.06-1.04s0.95-0.37,1.51-0.37c0.56,0,1.06,0.13,1.51,0.37s0.8,0.6,1.05,1.04c0.25,0.45,0.38,0.95,0.38,1.52
			c0,0.56-0.13,1.07-0.38,1.52c-0.25,0.45-0.6,0.8-1.05,1.05s-0.95,0.38-1.51,0.38C35.93,85.1,35.43,84.97,34.98,84.72z M37.6,84.12
			c0.33-0.19,0.58-0.45,0.76-0.8s0.28-0.74,0.28-1.18c0-0.44-0.09-0.83-0.28-1.18s-0.44-0.61-0.76-0.8
			c-0.33-0.19-0.7-0.28-1.11-0.28c-0.41,0-0.78,0.09-1.11,0.28c-0.33,0.19-0.58,0.45-0.77,0.8s-0.28,0.74-0.28,1.18
			c0,0.44,0.09,0.83,0.28,1.18s0.44,0.61,0.77,0.8c0.33,0.19,0.69,0.28,1.11,0.28C36.9,84.4,37.27,84.31,37.6,84.12z"/>
		<path class="st2" d="M41.86,84.72c-0.45-0.25-0.8-0.6-1.06-1.05c-0.26-0.45-0.39-0.96-0.39-1.52c0-0.57,0.13-1.07,0.39-1.52
			s0.61-0.8,1.06-1.04s0.96-0.37,1.53-0.37c0.5,0,0.94,0.1,1.34,0.29s0.7,0.48,0.93,0.85l-0.58,0.4c-0.19-0.29-0.43-0.5-0.73-0.64
			c-0.29-0.14-0.61-0.21-0.96-0.21c-0.42,0-0.79,0.09-1.13,0.28c-0.33,0.19-0.59,0.45-0.78,0.8s-0.28,0.74-0.28,1.18
			c0,0.45,0.09,0.84,0.28,1.18c0.19,0.34,0.45,0.61,0.78,0.79c0.33,0.19,0.71,0.28,1.13,0.28c0.34,0,0.66-0.07,0.96-0.21
			c0.29-0.14,0.54-0.35,0.73-0.64l0.58,0.4c-0.23,0.37-0.54,0.66-0.94,0.85s-0.84,0.29-1.33,0.29
			C42.83,85.1,42.31,84.97,41.86,84.72z"/>
		<path class="st2" d="M52.11,82.39h-4.84c0.04,0.6,0.28,1.09,0.69,1.46s0.95,0.56,1.58,0.56c0.36,0,0.69-0.06,0.99-0.19
			c0.3-0.13,0.56-0.32,0.78-0.57l0.44,0.51c-0.26,0.31-0.58,0.54-0.96,0.7c-0.38,0.16-0.81,0.24-1.27,0.24
			c-0.59,0-1.12-0.13-1.58-0.38s-0.82-0.6-1.07-1.05s-0.39-0.95-0.39-1.52c0-0.57,0.12-1.07,0.37-1.52s0.58-0.8,1.01-1.04
			c0.43-0.25,0.91-0.37,1.45-0.37s1.02,0.13,1.44,0.37s0.76,0.6,1,1.04c0.24,0.44,0.36,0.95,0.36,1.52L52.11,82.39z M47.91,80.42
			c-0.38,0.36-0.59,0.82-0.64,1.39h4.1c-0.05-0.57-0.27-1.04-0.64-1.39c-0.38-0.36-0.85-0.53-1.41-0.53
			C48.76,79.88,48.29,80.06,47.91,80.42z"/>
		<path class="st2" d="M53.9,84.89c-0.43-0.14-0.76-0.31-1.01-0.51l0.35-0.62c0.24,0.19,0.55,0.35,0.91,0.47
			c0.37,0.12,0.75,0.18,1.14,0.18c0.53,0,0.92-0.08,1.17-0.25c0.25-0.17,0.38-0.4,0.38-0.7c0-0.21-0.07-0.38-0.21-0.5
			c-0.14-0.12-0.32-0.21-0.53-0.28c-0.21-0.06-0.49-0.12-0.85-0.18c-0.47-0.09-0.85-0.18-1.13-0.27c-0.29-0.09-0.53-0.25-0.73-0.47
			c-0.2-0.22-0.3-0.52-0.3-0.91c0-0.48,0.2-0.88,0.61-1.19c0.4-0.31,0.96-0.46,1.68-0.46c0.37,0,0.75,0.05,1.12,0.15
			c0.37,0.1,0.68,0.23,0.92,0.39l-0.34,0.63c-0.48-0.33-1.04-0.5-1.7-0.5c-0.5,0-0.88,0.09-1.13,0.26
			c-0.25,0.18-0.38,0.41-0.38,0.69c0,0.22,0.07,0.4,0.21,0.53s0.32,0.23,0.53,0.29c0.21,0.06,0.51,0.13,0.88,0.19
			c0.46,0.09,0.83,0.18,1.11,0.26s0.52,0.24,0.71,0.45c0.2,0.21,0.3,0.51,0.3,0.88c0,0.51-0.21,0.91-0.63,1.2
			c-0.42,0.3-1.01,0.45-1.75,0.45C54.78,85.1,54.33,85.03,53.9,84.89z"/>
		<path class="st2" d="M59.91,84.72c-0.45-0.25-0.8-0.6-1.05-1.05c-0.26-0.45-0.39-0.95-0.39-1.52c0-0.57,0.13-1.07,0.39-1.52
			c0.26-0.45,0.61-0.8,1.05-1.04s0.95-0.37,1.51-0.37c0.56,0,1.06,0.13,1.51,0.37s0.8,0.6,1.05,1.04s0.38,0.95,0.38,1.52
			c0,0.56-0.13,1.07-0.38,1.52s-0.6,0.8-1.05,1.05s-0.95,0.38-1.51,0.38C60.86,85.1,60.36,84.97,59.91,84.72z M62.52,84.12
			c0.33-0.19,0.58-0.45,0.76-0.8c0.18-0.34,0.27-0.74,0.27-1.18c0-0.44-0.09-0.83-0.27-1.18c-0.18-0.34-0.44-0.61-0.76-0.8
			c-0.33-0.19-0.7-0.28-1.11-0.28s-0.78,0.09-1.11,0.28c-0.33,0.19-0.58,0.45-0.77,0.8c-0.19,0.34-0.28,0.74-0.28,1.18
			c0,0.44,0.09,0.83,0.28,1.18c0.19,0.34,0.44,0.61,0.77,0.8c0.33,0.19,0.7,0.28,1.11,0.28S62.2,84.31,62.52,84.12z"/>
		<path class="st2" d="M66.27,84.07c0.11,0.11,0.16,0.25,0.16,0.42c0,0.09-0.01,0.18-0.04,0.29c-0.03,0.1-0.06,0.22-0.12,0.35
			l-0.46,1.52h-0.53l0.37-1.6c-0.12-0.04-0.21-0.1-0.29-0.2s-0.11-0.22-0.11-0.36c0-0.17,0.05-0.31,0.17-0.42
			c0.11-0.11,0.25-0.17,0.42-0.17S66.16,83.95,66.27,84.07z"/>
		<path class="st2" d="M71.79,84.72c-0.45-0.25-0.81-0.6-1.06-1.05c-0.26-0.45-0.38-0.96-0.38-1.52c0-0.57,0.13-1.07,0.38-1.52
			c0.26-0.45,0.61-0.8,1.06-1.04c0.45-0.25,0.96-0.37,1.53-0.37c0.5,0,0.94,0.1,1.34,0.29c0.39,0.19,0.7,0.48,0.93,0.85l-0.58,0.4
			c-0.19-0.29-0.43-0.5-0.73-0.64c-0.29-0.14-0.61-0.21-0.96-0.21c-0.42,0-0.79,0.09-1.13,0.28c-0.33,0.19-0.59,0.45-0.78,0.8
			s-0.28,0.74-0.28,1.18c0,0.45,0.09,0.84,0.28,1.18c0.19,0.34,0.45,0.61,0.78,0.79c0.33,0.19,0.71,0.28,1.13,0.28
			c0.34,0,0.66-0.07,0.96-0.21c0.29-0.14,0.54-0.35,0.73-0.64l0.58,0.4c-0.23,0.37-0.54,0.66-0.93,0.85s-0.84,0.29-1.33,0.29
			C72.76,85.1,72.24,84.97,71.79,84.72z"/>
		<path class="st2" d="M77.86,84.72c-0.45-0.25-0.8-0.6-1.06-1.05c-0.26-0.45-0.38-0.95-0.38-1.52c0-0.57,0.13-1.07,0.38-1.52
			c0.26-0.45,0.61-0.8,1.06-1.04s0.95-0.37,1.51-0.37c0.56,0,1.06,0.13,1.51,0.37s0.8,0.6,1.05,1.04c0.25,0.45,0.38,0.95,0.38,1.52
			c0,0.56-0.13,1.07-0.38,1.52c-0.25,0.45-0.6,0.8-1.05,1.05s-0.95,0.38-1.51,0.38C78.81,85.1,78.31,84.97,77.86,84.72z
			 M80.47,84.12c0.33-0.19,0.58-0.45,0.77-0.8c0.18-0.34,0.27-0.74,0.27-1.18c0-0.44-0.09-0.83-0.27-1.18
			c-0.18-0.34-0.44-0.61-0.77-0.8c-0.33-0.19-0.69-0.28-1.11-0.28c-0.41,0-0.78,0.09-1.11,0.28c-0.33,0.19-0.58,0.45-0.77,0.8
			s-0.28,0.74-0.28,1.18c0,0.44,0.09,0.83,0.28,1.18s0.44,0.61,0.77,0.8c0.33,0.19,0.7,0.28,1.11,0.28
			C79.78,84.4,80.15,84.31,80.47,84.12z"/>
		<path class="st2" d="M88.56,79.84c0.43,0.42,0.64,1.04,0.64,1.84v3.36h-0.78v-3.28c0-0.6-0.15-1.06-0.45-1.38
			c-0.3-0.31-0.73-0.47-1.29-0.47c-0.62,0-1.12,0.19-1.48,0.56s-0.54,0.88-0.54,1.53v3.04h-0.78v-5.79h0.75v1.07
			c0.21-0.35,0.51-0.63,0.89-0.82c0.38-0.19,0.81-0.29,1.31-0.29C87.55,79.21,88.13,79.42,88.56,79.84z"/>
		<path class="st2" d="M95.31,77.76c-0.17,0.18-0.26,0.46-0.26,0.81v0.68h1.78v0.66h-1.76v5.13h-0.78v-5.13h-1.04v-0.66h1.04v-0.71
			c0-0.53,0.15-0.95,0.46-1.25c0.3-0.31,0.74-0.46,1.29-0.46c0.22,0,0.43,0.03,0.64,0.09c0.21,0.06,0.38,0.15,0.52,0.27l-0.26,0.58
			c-0.23-0.19-0.51-0.29-0.86-0.29C95.74,77.48,95.48,77.58,95.31,77.76z"/>
		<path class="st2" d="M102.81,82.39h-4.84c0.04,0.6,0.27,1.09,0.69,1.46s0.95,0.56,1.58,0.56c0.36,0,0.69-0.06,0.99-0.19
			c0.3-0.13,0.56-0.32,0.78-0.57l0.44,0.51c-0.26,0.31-0.58,0.54-0.96,0.7c-0.38,0.16-0.81,0.24-1.27,0.24
			c-0.59,0-1.12-0.13-1.58-0.38s-0.82-0.6-1.07-1.05c-0.26-0.45-0.38-0.95-0.38-1.52c0-0.57,0.12-1.07,0.37-1.52s0.58-0.8,1.01-1.04
			c0.43-0.25,0.91-0.37,1.45-0.37s1.02,0.13,1.44,0.37s0.76,0.6,1,1.04c0.24,0.44,0.36,0.95,0.36,1.52L102.81,82.39z M98.61,80.42
			c-0.38,0.36-0.59,0.82-0.64,1.39h4.1c-0.05-0.57-0.27-1.04-0.64-1.39c-0.38-0.36-0.85-0.53-1.41-0.53
			C99.46,79.88,98.99,80.06,98.61,80.42z"/>
		<path class="st2" d="M105.26,84.72c-0.45-0.25-0.8-0.6-1.06-1.05c-0.26-0.45-0.39-0.96-0.39-1.52c0-0.57,0.13-1.07,0.39-1.52
			s0.61-0.8,1.06-1.04s0.96-0.37,1.53-0.37c0.5,0,0.94,0.1,1.34,0.29s0.7,0.48,0.93,0.85l-0.58,0.4c-0.19-0.29-0.43-0.5-0.73-0.64
			c-0.29-0.14-0.61-0.21-0.96-0.21c-0.42,0-0.79,0.09-1.13,0.28c-0.33,0.19-0.59,0.45-0.78,0.8s-0.28,0.74-0.28,1.18
			c0,0.45,0.09,0.84,0.28,1.18c0.19,0.34,0.45,0.61,0.78,0.79c0.33,0.19,0.71,0.28,1.13,0.28c0.34,0,0.66-0.07,0.96-0.21
			c0.29-0.14,0.54-0.35,0.73-0.64l0.58,0.4c-0.23,0.37-0.54,0.66-0.94,0.85s-0.84,0.29-1.33,0.29
			C106.22,85.1,105.71,84.97,105.26,84.72z"/>
		<path class="st2" d="M115.16,79.84c0.43,0.42,0.64,1.04,0.64,1.84v3.36h-0.78v-3.28c0-0.6-0.15-1.06-0.45-1.38
			c-0.3-0.31-0.73-0.47-1.29-0.47c-0.62,0-1.12,0.19-1.48,0.56s-0.54,0.88-0.54,1.53v3.04h-0.78v-8.16h0.78v3.39
			c0.21-0.34,0.51-0.6,0.88-0.78c0.37-0.18,0.8-0.28,1.29-0.28C114.15,79.21,114.73,79.42,115.16,79.84z"/>
		<path class="st2" d="M121.66,79.78c0.4,0.38,0.61,0.94,0.61,1.68v3.59h-0.75v-0.9c-0.18,0.3-0.44,0.54-0.78,0.7
			c-0.34,0.17-0.75,0.25-1.22,0.25c-0.64,0-1.16-0.15-1.54-0.46c-0.38-0.31-0.57-0.71-0.57-1.22c0-0.49,0.18-0.89,0.53-1.19
			c0.36-0.3,0.92-0.45,1.7-0.45h1.84v-0.35c0-0.5-0.14-0.88-0.42-1.14c-0.28-0.26-0.69-0.39-1.22-0.39c-0.37,0-0.72,0.06-1.06,0.18
			s-0.63,0.29-0.87,0.5l-0.35-0.58c0.29-0.25,0.64-0.44,1.06-0.58c0.41-0.13,0.84-0.2,1.3-0.2
			C120.68,79.21,121.26,79.4,121.66,79.78z M120.78,84.18c0.32-0.2,0.55-0.49,0.7-0.88v-0.95h-1.82c-0.99,0-1.49,0.34-1.49,1.03
			c0,0.34,0.13,0.6,0.38,0.8c0.26,0.19,0.62,0.29,1.08,0.29C120.09,84.48,120.47,84.38,120.78,84.18z"/>
		<path class="st2" d="M124.57,84.89c-0.43-0.14-0.76-0.31-1.01-0.51l0.35-0.62c0.24,0.19,0.55,0.35,0.91,0.47
			c0.37,0.12,0.75,0.18,1.14,0.18c0.53,0,0.92-0.08,1.17-0.25c0.25-0.17,0.38-0.4,0.38-0.7c0-0.21-0.07-0.38-0.21-0.5
			c-0.14-0.12-0.32-0.21-0.53-0.28c-0.21-0.06-0.49-0.12-0.85-0.18c-0.47-0.09-0.85-0.18-1.13-0.27c-0.29-0.09-0.53-0.25-0.73-0.47
			c-0.2-0.22-0.3-0.52-0.3-0.91c0-0.48,0.2-0.88,0.61-1.19c0.4-0.31,0.96-0.46,1.68-0.46c0.37,0,0.75,0.05,1.12,0.15
			c0.37,0.1,0.68,0.23,0.92,0.39l-0.34,0.63c-0.48-0.33-1.04-0.5-1.7-0.5c-0.5,0-0.88,0.09-1.13,0.26
			c-0.25,0.18-0.38,0.41-0.38,0.69c0,0.22,0.07,0.4,0.21,0.53s0.32,0.23,0.53,0.29c0.21,0.06,0.51,0.13,0.88,0.19
			c0.46,0.09,0.83,0.18,1.11,0.26s0.52,0.24,0.71,0.45c0.2,0.21,0.3,0.51,0.3,0.88c0,0.51-0.21,0.91-0.63,1.2
			c-0.42,0.3-1.01,0.45-1.75,0.45C125.45,85.1,125,85.03,124.57,84.89z"/>
		<path class="st2" d="M19.37,98.72c-0.45-0.25-0.81-0.6-1.06-1.05c-0.26-0.45-0.38-0.96-0.38-1.52c0-0.57,0.13-1.07,0.38-1.52
			c0.26-0.45,0.61-0.8,1.06-1.04c0.45-0.25,0.96-0.37,1.53-0.37c0.5,0,0.95,0.1,1.34,0.29c0.39,0.19,0.7,0.48,0.93,0.85l-0.58,0.4
			c-0.19-0.29-0.43-0.5-0.73-0.64c-0.29-0.14-0.61-0.21-0.96-0.21c-0.42,0-0.79,0.09-1.13,0.28c-0.33,0.19-0.59,0.45-0.78,0.8
			c-0.19,0.34-0.28,0.74-0.28,1.18c0,0.45,0.09,0.84,0.28,1.18c0.19,0.34,0.45,0.61,0.78,0.79c0.33,0.19,0.71,0.28,1.13,0.28
			c0.35,0,0.66-0.07,0.96-0.21c0.29-0.14,0.54-0.35,0.73-0.64l0.58,0.4c-0.23,0.37-0.54,0.66-0.93,0.85
			c-0.4,0.19-0.84,0.29-1.33,0.29C20.33,99.1,19.82,98.97,19.37,98.72z"/>
		<path class="st2" d="M24.59,90.88h0.78v8.16h-0.78V90.88z"/>
		<path class="st2" d="M31.29,93.78c0.4,0.38,0.61,0.94,0.61,1.68v3.59h-0.75v-0.9c-0.18,0.3-0.44,0.54-0.78,0.7
			c-0.34,0.17-0.75,0.25-1.22,0.25c-0.64,0-1.16-0.15-1.54-0.46c-0.38-0.31-0.57-0.71-0.57-1.22c0-0.49,0.18-0.89,0.53-1.19
			c0.36-0.3,0.92-0.45,1.7-0.45h1.84v-0.35c0-0.5-0.14-0.88-0.42-1.14c-0.28-0.26-0.69-0.39-1.22-0.39c-0.37,0-0.72,0.06-1.06,0.18
			s-0.63,0.29-0.87,0.5l-0.35-0.58c0.29-0.25,0.64-0.44,1.06-0.58c0.41-0.13,0.84-0.2,1.3-0.2C30.3,93.21,30.88,93.4,31.29,93.78z
			 M30.41,98.18c0.32-0.2,0.55-0.49,0.7-0.88v-0.95H29.3c-0.99,0-1.49,0.34-1.49,1.03c0,0.34,0.13,0.6,0.38,0.8
			c0.26,0.19,0.62,0.29,1.08,0.29C29.71,98.48,30.09,98.38,30.41,98.18z"/>
		<path class="st2" d="M35.56,93.51c0.36-0.2,0.81-0.3,1.35-0.3v0.76l-0.19-0.01c-0.61,0-1.09,0.19-1.43,0.56
			c-0.35,0.37-0.52,0.9-0.52,1.57v2.95h-0.78v-5.79h0.75v1.13C34.92,94,35.2,93.71,35.56,93.51z"/>
		<path class="st2" d="M42.04,93.78c0.4,0.38,0.6,0.94,0.6,1.68v3.59H41.9v-0.9c-0.18,0.3-0.43,0.54-0.78,0.7
			c-0.34,0.17-0.75,0.25-1.22,0.25c-0.64,0-1.16-0.15-1.54-0.46c-0.38-0.31-0.57-0.71-0.57-1.22c0-0.49,0.18-0.89,0.53-1.19
			c0.36-0.3,0.92-0.45,1.7-0.45h1.84v-0.35c0-0.5-0.14-0.88-0.42-1.14c-0.28-0.26-0.69-0.39-1.22-0.39c-0.37,0-0.72,0.06-1.06,0.18
			c-0.34,0.12-0.63,0.29-0.87,0.5l-0.35-0.58c0.29-0.25,0.65-0.44,1.06-0.58c0.41-0.13,0.84-0.2,1.3-0.2
			C41.06,93.21,41.64,93.4,42.04,93.78z M41.16,98.18c0.32-0.2,0.55-0.49,0.7-0.88v-0.95h-1.82c-0.99,0-1.48,0.34-1.48,1.03
			c0,0.34,0.13,0.6,0.38,0.8c0.26,0.19,0.62,0.29,1.08,0.29C40.47,98.48,40.85,98.38,41.16,98.18z"/>
		<path class="st2" d="M44.95,98.89c-0.43-0.14-0.76-0.31-1.01-0.51l0.35-0.62c0.24,0.19,0.55,0.35,0.91,0.47s0.75,0.18,1.14,0.18
			c0.53,0,0.92-0.08,1.17-0.25c0.25-0.17,0.38-0.4,0.38-0.7c0-0.21-0.07-0.38-0.21-0.5s-0.32-0.21-0.53-0.28s-0.49-0.12-0.85-0.18
			c-0.47-0.09-0.85-0.18-1.13-0.27c-0.29-0.09-0.53-0.25-0.73-0.47c-0.2-0.22-0.3-0.52-0.3-0.91c0-0.48,0.2-0.88,0.61-1.19
			c0.4-0.31,0.96-0.46,1.68-0.46c0.37,0,0.75,0.05,1.12,0.15c0.37,0.1,0.68,0.23,0.92,0.39l-0.34,0.63c-0.48-0.33-1.04-0.5-1.7-0.5
			c-0.5,0-0.87,0.09-1.13,0.26c-0.25,0.18-0.38,0.41-0.38,0.69c0,0.22,0.07,0.4,0.21,0.53c0.14,0.13,0.32,0.23,0.53,0.29
			c0.21,0.06,0.51,0.13,0.88,0.19c0.46,0.09,0.83,0.18,1.11,0.26c0.28,0.09,0.52,0.24,0.71,0.45c0.2,0.21,0.3,0.51,0.3,0.88
			c0,0.51-0.21,0.91-0.63,1.2c-0.42,0.3-1.01,0.45-1.75,0.45C45.83,99.1,45.38,99.03,44.95,98.89z"/>
		<path class="st2" d="M50.61,98.07c0.11,0.11,0.16,0.25,0.16,0.42c0,0.09-0.01,0.18-0.04,0.29c-0.03,0.1-0.06,0.22-0.12,0.35
			l-0.46,1.52h-0.53l0.37-1.6c-0.12-0.04-0.21-0.1-0.29-0.2c-0.07-0.1-0.11-0.22-0.11-0.36c0-0.17,0.05-0.31,0.17-0.42
			c0.11-0.11,0.25-0.17,0.42-0.17C50.36,97.9,50.5,97.95,50.61,98.07z"/>
		<path class="st2" d="M55.27,91.83c-0.11-0.11-0.16-0.24-0.16-0.4c0-0.15,0.05-0.27,0.16-0.38c0.11-0.11,0.25-0.17,0.41-0.17
			s0.3,0.05,0.41,0.16c0.11,0.11,0.17,0.23,0.17,0.38c0,0.16-0.06,0.3-0.17,0.41c-0.11,0.11-0.25,0.17-0.41,0.17
			S55.38,91.94,55.27,91.83z M55.28,93.26h0.78v5.79h-0.78V93.26z"/>
		<path class="st2" d="M62.89,93.84c0.43,0.42,0.64,1.04,0.64,1.84v3.36h-0.78v-3.28c0-0.6-0.15-1.06-0.45-1.38
			c-0.3-0.31-0.73-0.47-1.29-0.47c-0.62,0-1.12,0.19-1.48,0.56s-0.54,0.88-0.54,1.53v3.04h-0.78v-5.79h0.75v1.07
			c0.21-0.35,0.51-0.63,0.89-0.82c0.38-0.19,0.81-0.29,1.31-0.29C61.89,93.21,62.46,93.42,62.89,93.84z"/>
		<path class="st2" d="M68.69,98.69c-0.15,0.13-0.33,0.23-0.54,0.3c-0.22,0.07-0.44,0.1-0.68,0.1c-0.54,0-0.96-0.15-1.25-0.44
			c-0.29-0.29-0.44-0.71-0.44-1.24v-3.5h-1.03v-0.66h1.03v-1.26h0.78v1.26h1.76v0.66h-1.76v3.45c0,0.34,0.09,0.61,0.26,0.79
			c0.17,0.18,0.42,0.27,0.74,0.27c0.16,0,0.32-0.03,0.47-0.08c0.15-0.05,0.28-0.12,0.39-0.22L68.69,98.69z"/>
		<path class="st2" d="M74.91,96.39h-4.84c0.04,0.6,0.27,1.09,0.69,1.46s0.95,0.56,1.58,0.56c0.36,0,0.69-0.06,0.99-0.19
			c0.3-0.13,0.56-0.32,0.78-0.57l0.44,0.51c-0.26,0.31-0.58,0.54-0.96,0.7c-0.38,0.16-0.81,0.24-1.27,0.24
			c-0.59,0-1.12-0.13-1.58-0.38c-0.46-0.25-0.82-0.6-1.07-1.05c-0.26-0.45-0.39-0.95-0.39-1.52c0-0.57,0.12-1.07,0.37-1.52
			c0.25-0.45,0.58-0.8,1.01-1.04s0.91-0.37,1.45-0.37s1.02,0.13,1.44,0.37c0.42,0.25,0.76,0.6,1,1.04c0.24,0.44,0.36,0.95,0.36,1.52
			L74.91,96.39z M70.71,94.42c-0.38,0.36-0.59,0.82-0.64,1.39h4.1c-0.05-0.57-0.27-1.04-0.64-1.39c-0.38-0.36-0.85-0.53-1.41-0.53
			C71.56,93.88,71.09,94.06,70.71,94.42z"/>
		<path class="st2" d="M78.06,93.51c0.36-0.2,0.81-0.3,1.35-0.3v0.76l-0.19-0.01c-0.61,0-1.08,0.19-1.43,0.56
			c-0.34,0.37-0.52,0.9-0.52,1.57v2.95H76.5v-5.79h0.75v1.13C77.43,94,77.7,93.71,78.06,93.51z"/>
		<path class="st2" d="M84.55,93.78c0.4,0.38,0.61,0.94,0.61,1.68v3.59H84.4v-0.9c-0.18,0.3-0.43,0.54-0.78,0.7
			c-0.34,0.17-0.75,0.25-1.22,0.25c-0.65,0-1.16-0.15-1.54-0.46c-0.38-0.31-0.57-0.71-0.57-1.22c0-0.49,0.18-0.89,0.53-1.19
			c0.36-0.3,0.92-0.45,1.7-0.45h1.84v-0.35c0-0.5-0.14-0.88-0.42-1.14c-0.28-0.26-0.69-0.39-1.22-0.39c-0.37,0-0.72,0.06-1.06,0.18
			c-0.34,0.12-0.63,0.29-0.87,0.5l-0.35-0.58c0.29-0.25,0.65-0.44,1.06-0.58c0.41-0.13,0.84-0.2,1.3-0.2
			C83.56,93.21,84.14,93.4,84.55,93.78z M83.67,98.18c0.31-0.2,0.55-0.49,0.7-0.88v-0.95h-1.81c-0.99,0-1.49,0.34-1.49,1.03
			c0,0.34,0.13,0.6,0.38,0.8s0.62,0.29,1.08,0.29C82.97,98.48,83.35,98.38,83.67,98.18z"/>
		<path class="st2" d="M88.14,98.72c-0.45-0.25-0.8-0.6-1.06-1.05c-0.26-0.45-0.39-0.96-0.39-1.52c0-0.57,0.13-1.07,0.39-1.52
			s0.61-0.8,1.06-1.04s0.96-0.37,1.53-0.37c0.5,0,0.94,0.1,1.34,0.29s0.7,0.48,0.93,0.85l-0.58,0.4c-0.19-0.29-0.43-0.5-0.73-0.64
			c-0.29-0.14-0.61-0.21-0.96-0.21c-0.42,0-0.79,0.09-1.13,0.28c-0.33,0.19-0.59,0.45-0.78,0.8s-0.28,0.74-0.28,1.18
			c0,0.45,0.09,0.84,0.28,1.18c0.19,0.34,0.45,0.61,0.78,0.79c0.33,0.19,0.71,0.28,1.13,0.28c0.34,0,0.66-0.07,0.96-0.21
			c0.29-0.14,0.54-0.35,0.73-0.64l0.58,0.4c-0.23,0.37-0.54,0.66-0.94,0.85s-0.84,0.29-1.33,0.29C89.1,99.1,88.59,98.97,88.14,98.72
			z"/>
		<path class="st2" d="M94.21,98.72c-0.45-0.25-0.8-0.6-1.06-1.05c-0.26-0.45-0.39-0.96-0.39-1.52c0-0.57,0.13-1.07,0.39-1.52
			s0.61-0.8,1.06-1.04s0.96-0.37,1.53-0.37c0.5,0,0.94,0.1,1.34,0.29s0.7,0.48,0.93,0.85l-0.58,0.4c-0.19-0.29-0.43-0.5-0.73-0.64
			c-0.29-0.14-0.61-0.21-0.96-0.21c-0.42,0-0.79,0.09-1.13,0.28c-0.33,0.19-0.59,0.45-0.78,0.8s-0.28,0.74-0.28,1.18
			c0,0.45,0.09,0.84,0.28,1.18c0.19,0.34,0.45,0.61,0.78,0.79c0.33,0.19,0.71,0.28,1.13,0.28c0.34,0,0.66-0.07,0.96-0.21
			c0.29-0.14,0.54-0.35,0.73-0.64l0.58,0.4c-0.23,0.37-0.54,0.66-0.94,0.85s-0.84,0.29-1.33,0.29
			C95.17,99.1,94.66,98.97,94.21,98.72z"/>
		<path class="st2" d="M99.51,91.83c-0.11-0.11-0.17-0.24-0.17-0.4c0-0.15,0.05-0.27,0.17-0.38c0.11-0.11,0.25-0.17,0.41-0.17
			s0.3,0.05,0.41,0.16c0.11,0.11,0.17,0.23,0.17,0.38c0,0.16-0.05,0.3-0.17,0.41c-0.11,0.11-0.25,0.17-0.41,0.17
			S99.62,91.94,99.51,91.83z M99.52,93.26h0.78v5.79h-0.78V93.26z"/>
		<path class="st2" d="M103.31,98.72c-0.45-0.25-0.8-0.6-1.05-1.05c-0.26-0.45-0.39-0.95-0.39-1.52c0-0.57,0.13-1.07,0.39-1.52
			c0.26-0.45,0.61-0.8,1.05-1.04s0.95-0.37,1.51-0.37c0.56,0,1.06,0.13,1.51,0.37s0.8,0.6,1.05,1.04s0.38,0.95,0.38,1.52
			c0,0.56-0.13,1.07-0.38,1.52s-0.6,0.8-1.05,1.05s-0.95,0.38-1.51,0.38C104.26,99.1,103.76,98.97,103.31,98.72z M105.93,98.12
			c0.33-0.19,0.58-0.45,0.76-0.8c0.18-0.34,0.27-0.74,0.27-1.18c0-0.44-0.09-0.83-0.27-1.18c-0.18-0.34-0.44-0.61-0.76-0.8
			c-0.33-0.19-0.7-0.28-1.11-0.28s-0.78,0.09-1.11,0.28c-0.33,0.19-0.58,0.45-0.77,0.8c-0.19,0.34-0.28,0.74-0.28,1.18
			c0,0.44,0.09,0.83,0.28,1.18c0.19,0.34,0.44,0.61,0.77,0.8c0.33,0.19,0.7,0.28,1.11,0.28S105.6,98.31,105.93,98.12z M105.6,90.99
			h1.04l-1.78,1.36h-0.77L105.6,90.99z"/>
		<path class="st2" d="M114.01,93.84c0.43,0.42,0.64,1.04,0.64,1.84v3.36h-0.78v-3.28c0-0.6-0.15-1.06-0.45-1.38
			c-0.3-0.31-0.73-0.47-1.29-0.47c-0.62,0-1.12,0.19-1.48,0.56c-0.36,0.37-0.54,0.88-0.54,1.53v3.04h-0.78v-5.79h0.75v1.07
			c0.21-0.35,0.51-0.63,0.89-0.82s0.82-0.29,1.31-0.29C113,93.21,113.58,93.42,114.01,93.84z"/>
		<path class="st2" d="M124.65,96.39h-4.84c0.04,0.6,0.28,1.09,0.69,1.46s0.95,0.56,1.58,0.56c0.36,0,0.69-0.06,0.99-0.19
			c0.3-0.13,0.56-0.32,0.78-0.57l0.44,0.51c-0.26,0.31-0.58,0.54-0.96,0.7c-0.38,0.16-0.81,0.24-1.27,0.24
			c-0.59,0-1.12-0.13-1.58-0.38s-0.82-0.6-1.07-1.05s-0.39-0.95-0.39-1.52c0-0.57,0.12-1.07,0.37-1.52s0.58-0.8,1.01-1.04
			c0.43-0.25,0.91-0.37,1.45-0.37s1.02,0.13,1.44,0.37s0.76,0.6,1,1.04c0.24,0.44,0.36,0.95,0.36,1.52L124.65,96.39z M120.46,94.42
			c-0.38,0.36-0.59,0.82-0.64,1.39h4.1c-0.05-0.57-0.27-1.04-0.64-1.39c-0.38-0.36-0.85-0.53-1.41-0.53
			C121.3,93.88,120.83,94.06,120.46,94.42z"/>
		<path class="st2" d="M130.92,93.84c0.43,0.42,0.64,1.04,0.64,1.84v3.36h-0.78v-3.28c0-0.6-0.15-1.06-0.45-1.38
			c-0.3-0.31-0.73-0.47-1.29-0.47c-0.62,0-1.12,0.19-1.48,0.56s-0.54,0.88-0.54,1.53v3.04h-0.78v-5.79h0.75v1.07
			c0.21-0.35,0.51-0.63,0.89-0.82c0.38-0.19,0.81-0.29,1.31-0.29C129.91,93.21,130.49,93.42,130.92,93.84z"/>
		<path class="st2" d="M46.51,112.69c-0.15,0.13-0.33,0.23-0.54,0.3c-0.22,0.07-0.44,0.1-0.68,0.1c-0.54,0-0.96-0.15-1.25-0.44
			c-0.29-0.29-0.44-0.71-0.44-1.24v-3.5h-1.03v-0.66h1.03v-1.26h0.78v1.26h1.76v0.66h-1.76v3.45c0,0.34,0.09,0.61,0.26,0.79
			c0.17,0.18,0.42,0.27,0.74,0.27c0.16,0,0.32-0.03,0.47-0.08c0.15-0.05,0.28-0.12,0.39-0.22L46.51,112.69z"/>
		<path class="st2" d="M47.9,105.83c-0.11-0.11-0.16-0.24-0.16-0.4c0-0.15,0.05-0.27,0.16-0.38c0.11-0.11,0.25-0.17,0.41-0.17
			s0.3,0.05,0.41,0.16c0.11,0.11,0.17,0.23,0.17,0.38c0,0.16-0.06,0.3-0.17,0.41c-0.11,0.11-0.25,0.17-0.41,0.17
			S48.01,105.94,47.9,105.83z M47.91,107.26h0.78v5.79h-0.78V107.26z"/>
		<path class="st2" d="M55.88,110.39h-4.84c0.04,0.6,0.28,1.09,0.69,1.46s0.95,0.56,1.58,0.56c0.36,0,0.69-0.06,0.99-0.19
			c0.3-0.13,0.56-0.32,0.78-0.57l0.44,0.51c-0.26,0.31-0.58,0.54-0.96,0.7c-0.38,0.16-0.81,0.24-1.27,0.24
			c-0.59,0-1.12-0.13-1.58-0.38c-0.46-0.25-0.82-0.6-1.07-1.05c-0.26-0.45-0.38-0.95-0.38-1.52c0-0.57,0.12-1.07,0.37-1.52
			c0.25-0.45,0.58-0.8,1.01-1.04c0.43-0.25,0.91-0.37,1.45-0.37s1.02,0.13,1.44,0.37c0.43,0.25,0.76,0.6,1,1.04
			c0.24,0.44,0.36,0.95,0.36,1.52L55.88,110.39z M51.69,108.42c-0.38,0.36-0.59,0.82-0.64,1.39h4.1c-0.05-0.57-0.27-1.04-0.64-1.39
			c-0.38-0.36-0.85-0.53-1.41-0.53C52.53,107.88,52.06,108.06,51.69,108.42z"/>
		<path class="st2" d="M66.39,107.84c0.41,0.42,0.62,1.03,0.62,1.85v3.36h-0.78v-3.28c0-0.6-0.15-1.06-0.44-1.38
			c-0.29-0.31-0.7-0.47-1.23-0.47c-0.6,0-1.07,0.19-1.42,0.56c-0.35,0.37-0.52,0.88-0.52,1.53v3.04h-0.78v-3.28
			c0-0.6-0.14-1.06-0.43-1.38c-0.29-0.31-0.7-0.47-1.24-0.47c-0.59,0-1.06,0.19-1.41,0.56s-0.52,0.88-0.52,1.53v3.04h-0.78v-5.79
			h0.75v1.06c0.21-0.35,0.49-0.62,0.86-0.81c0.37-0.19,0.79-0.29,1.27-0.29c0.48,0,0.9,0.1,1.26,0.31c0.36,0.21,0.62,0.51,0.8,0.91
			c0.21-0.38,0.52-0.68,0.92-0.9c0.4-0.22,0.86-0.32,1.37-0.32C65.41,107.21,65.98,107.42,66.39,107.84z"/>
		<path class="st2" d="M73.57,107.58c0.44,0.25,0.79,0.59,1.04,1.04c0.25,0.45,0.37,0.96,0.37,1.53c0,0.58-0.13,1.09-0.37,1.54
			c-0.25,0.45-0.59,0.79-1.03,1.04c-0.44,0.25-0.93,0.37-1.48,0.37c-0.47,0-0.89-0.1-1.27-0.29c-0.38-0.19-0.69-0.48-0.93-0.85v3.22
			h-0.78v-7.92h0.75v1.14c0.24-0.38,0.54-0.67,0.93-0.88c0.38-0.21,0.82-0.31,1.3-0.31C72.64,107.21,73.13,107.33,73.57,107.58z
			 M73.14,112.12c0.33-0.19,0.59-0.45,0.78-0.8c0.19-0.34,0.28-0.74,0.28-1.18c0-0.44-0.09-0.83-0.28-1.17
			c-0.19-0.34-0.45-0.61-0.78-0.8c-0.33-0.19-0.7-0.29-1.1-0.29c-0.41,0-0.78,0.1-1.11,0.29c-0.33,0.19-0.58,0.46-0.77,0.8
			c-0.19,0.34-0.28,0.73-0.28,1.17c0,0.44,0.09,0.83,0.28,1.18c0.19,0.34,0.44,0.61,0.77,0.8c0.33,0.19,0.69,0.28,1.11,0.28
			C72.45,112.4,72.81,112.31,73.14,112.12z"/>
		<path class="st2" d="M77.41,112.72c-0.45-0.25-0.8-0.6-1.06-1.05c-0.26-0.45-0.38-0.95-0.38-1.52c0-0.57,0.13-1.07,0.38-1.52
			c0.26-0.45,0.61-0.8,1.06-1.04s0.95-0.37,1.51-0.37s1.06,0.13,1.51,0.37s0.8,0.6,1.05,1.04c0.25,0.45,0.38,0.95,0.38,1.52
			c0,0.56-0.13,1.07-0.38,1.52c-0.25,0.45-0.6,0.8-1.05,1.05s-0.95,0.38-1.51,0.38S77.86,112.97,77.41,112.72z M80.02,112.12
			c0.33-0.19,0.58-0.45,0.76-0.8s0.28-0.74,0.28-1.18c0-0.44-0.09-0.83-0.28-1.18s-0.44-0.61-0.76-0.8
			c-0.33-0.19-0.69-0.28-1.11-0.28s-0.78,0.09-1.11,0.28c-0.33,0.19-0.58,0.45-0.77,0.8c-0.19,0.34-0.28,0.74-0.28,1.18
			c0,0.44,0.09,0.83,0.28,1.18c0.19,0.34,0.44,0.61,0.77,0.8c0.33,0.19,0.69,0.28,1.11,0.28S79.7,112.31,80.02,112.12z"/>
		<path class="st2" d="M87.85,107.51c0.36-0.2,0.81-0.3,1.35-0.3v0.76l-0.19-0.01c-0.61,0-1.08,0.19-1.43,0.56
			c-0.34,0.37-0.52,0.9-0.52,1.57v2.95h-0.78v-5.79h0.75v1.13C87.22,108,87.49,107.71,87.85,107.51z"/>
		<path class="st2" d="M95.57,110.39h-4.84c0.04,0.6,0.28,1.09,0.69,1.46s0.95,0.56,1.58,0.56c0.36,0,0.69-0.06,0.99-0.19
			c0.3-0.13,0.56-0.32,0.78-0.57l0.44,0.51c-0.26,0.31-0.58,0.54-0.96,0.7c-0.38,0.16-0.81,0.24-1.27,0.24
			c-0.59,0-1.12-0.13-1.58-0.38c-0.46-0.25-0.82-0.6-1.07-1.05c-0.26-0.45-0.38-0.95-0.38-1.52c0-0.57,0.12-1.07,0.37-1.52
			c0.25-0.45,0.58-0.8,1.01-1.04c0.43-0.25,0.91-0.37,1.45-0.37s1.02,0.13,1.44,0.37c0.43,0.25,0.76,0.6,1,1.04
			c0.24,0.44,0.36,0.95,0.36,1.52L95.57,110.39z M91.37,108.42c-0.38,0.36-0.59,0.82-0.64,1.39h4.1c-0.05-0.57-0.27-1.04-0.64-1.39
			c-0.38-0.36-0.85-0.53-1.41-0.53C92.22,107.88,91.75,108.06,91.37,108.42z"/>
		<path class="st2" d="M100.75,107.78c0.4,0.38,0.6,0.94,0.6,1.68v3.59h-0.75v-0.9c-0.18,0.3-0.43,0.54-0.78,0.7
			c-0.34,0.17-0.75,0.25-1.22,0.25c-0.64,0-1.16-0.15-1.54-0.46c-0.38-0.31-0.57-0.71-0.57-1.22c0-0.49,0.18-0.89,0.53-1.19
			c0.36-0.3,0.92-0.45,1.7-0.45h1.84v-0.35c0-0.5-0.14-0.88-0.42-1.14c-0.28-0.26-0.69-0.39-1.22-0.39c-0.37,0-0.72,0.06-1.06,0.18
			c-0.34,0.12-0.63,0.29-0.87,0.5l-0.35-0.58c0.29-0.25,0.65-0.44,1.06-0.58c0.41-0.13,0.84-0.2,1.3-0.2
			C99.77,107.21,100.35,107.4,100.75,107.78z M99.87,112.18c0.32-0.2,0.55-0.49,0.7-0.88v-0.95h-1.82c-0.99,0-1.48,0.34-1.48,1.03
			c0,0.34,0.13,0.6,0.38,0.8c0.26,0.19,0.62,0.29,1.08,0.29C99.18,112.48,99.56,112.38,99.87,112.18z"/>
		<path class="st2" d="M103.46,104.88h0.78v8.16h-0.78V104.88z"/>
		<path class="st2" d="M106.06,112.92c-0.11-0.12-0.17-0.26-0.17-0.43s0.06-0.31,0.17-0.42c0.11-0.11,0.25-0.17,0.41-0.17
			c0.16,0,0.3,0.06,0.42,0.17c0.12,0.11,0.18,0.25,0.18,0.42s-0.06,0.31-0.18,0.43s-0.26,0.18-0.42,0.18
			C106.31,113.1,106.17,113.04,106.06,112.92z"/>
	</g>
</g>
</svg>
